ISO-10303-21;
HEADER;
/* Generated by software containing ST-Developer
 * from STEP Tools, Inc. (www.steptools.com) 
 */
/* OPTION: using custom renumber hook */

FILE_DESCRIPTION(
/* description */ ('STEP AP242 Edition 2',
'CAx-IF Rec.Pracs.---Representation and Presentation of Product Manufa
cturing Information (PMI)---4.0---2014-10-13',
'CAx-IF Rec.Pracs.---3D Tessellated Geometry---0.4---2014-09-14','2;1',
'CAx-IF Rec.Pracs.---User Defined Attributes---1.5---2016-08-15'),
/* implementation_level */ '2;1');

FILE_NAME(
/* name */ 'Assembly 1 - Part 11',
/* time_stamp */ '2026-07-25T03:56:15Z',
/* author */ (''),
/* organization */ (''),
/* preprocessor_version */ 'ST-DEVELOPER v20',
/* originating_system */ 'ONSHAPE BY PTC INC, 1.218',
/* authorisation */ '  ');

FILE_SCHEMA (('AP242_MANAGED_MODEL_BASED_3D_ENGINEERING_MIM_LF { 1 0 10303 442 3 1 4 }'));
ENDSEC;

DATA;
#10=SHAPE_REPRESENTATION_RELATIONSHIP('','',#1023,#11);
#11=ADVANCED_BREP_SHAPE_REPRESENTATION('',(#1021),#1707);
#12=ELLIPSE('',#1077,0.00100381983754335,0.001);
#13=ELLIPSE('',#1078,0.00100381983754335,0.001);
#14=ELLIPSE('',#1081,0.00100381983754335,0.001);
#15=ELLIPSE('',#1082,0.00100381983754335,0.001);
#16=CYLINDRICAL_SURFACE('',#1059,0.007);
#17=CYLINDRICAL_SURFACE('',#1072,0.01);
#18=CYLINDRICAL_SURFACE('',#1089,0.001);
#19=CYLINDRICAL_SURFACE('',#1090,0.001);
#20=CYLINDRICAL_SURFACE('',#1091,0.007);
#21=CYLINDRICAL_SURFACE('',#1093,0.002);
#22=CYLINDRICAL_SURFACE('',#1096,0.005);
#23=CYLINDRICAL_SURFACE('',#1097,0.005);
#24=CYLINDRICAL_SURFACE('',#1098,0.005);
#25=CYLINDRICAL_SURFACE('',#1099,0.005);
#26=CYLINDRICAL_SURFACE('',#1108,0.0049999992629012);
#27=CYLINDRICAL_SURFACE('',#1109,0.00500000073709882);
#28=CYLINDRICAL_SURFACE('',#1110,0.005);
#29=CYLINDRICAL_SURFACE('',#1111,0.005);
#30=CYLINDRICAL_SURFACE('',#1112,0.005);
#31=CYLINDRICAL_SURFACE('',#1113,0.005);
#32=CYLINDRICAL_SURFACE('',#1114,0.0021);
#33=CYLINDRICAL_SURFACE('',#1115,0.0021);
#34=CYLINDRICAL_SURFACE('',#1116,1.);
#35=CYLINDRICAL_SURFACE('',#1117,1.);
#36=CYLINDRICAL_SURFACE('',#1118,0.002);
#37=CYLINDRICAL_SURFACE('',#1119,0.004);
#38=CYLINDRICAL_SURFACE('',#1120,0.004);
#39=LINE('',#1419,#137);
#40=LINE('',#1422,#138);
#41=LINE('',#1430,#139);
#42=LINE('',#1432,#140);
#43=LINE('',#1434,#141);
#44=LINE('',#1436,#142);
#45=LINE('',#1438,#143);
#46=LINE('',#1446,#144);
#47=LINE('',#1448,#145);
#48=LINE('',#1450,#146);
#49=LINE('',#1452,#147);
#50=LINE('',#1454,#148);
#51=LINE('',#1456,#149);
#52=LINE('',#1458,#150);
#53=LINE('',#1460,#151);
#54=LINE('',#1462,#152);
#55=LINE('',#1466,#153);
#56=LINE('',#1475,#154);
#57=LINE('',#1480,#155);
#58=LINE('',#1484,#156);
#59=LINE('',#1488,#157);
#60=LINE('',#1491,#158);
#61=LINE('',#1494,#159);
#62=LINE('',#1496,#160);
#63=LINE('',#1498,#161);
#64=LINE('',#1499,#162);
#65=LINE('',#1503,#163);
#66=LINE('',#1507,#164);
#67=LINE('',#1509,#165);
#68=LINE('',#1511,#166);
#69=LINE('',#1515,#167);
#70=LINE('',#1517,#168);
#71=LINE('',#1518,#169);
#72=LINE('',#1519,#170);
#73=LINE('',#1521,#171);
#74=LINE('',#1524,#172);
#75=LINE('',#1531,#173);
#76=LINE('',#1533,#174);
#77=LINE('',#1537,#175);
#78=LINE('',#1539,#176);
#79=LINE('',#1541,#177);
#80=LINE('',#1543,#178);
#81=LINE('',#1545,#179);
#82=LINE('',#1547,#180);
#83=LINE('',#1551,#181);
#84=LINE('',#1552,#182);
#85=LINE('',#1555,#183);
#86=LINE('',#1559,#184);
#87=LINE('',#1560,#185);
#88=LINE('',#1562,#186);
#89=LINE('',#1564,#187);
#90=LINE('',#1565,#188);
#91=LINE('',#1570,#189);
#92=LINE('',#1571,#190);
#93=LINE('',#1573,#191);
#94=LINE('',#1577,#192);
#95=LINE('',#1579,#193);
#96=LINE('',#1583,#194);
#97=LINE('',#1587,#195);
#98=LINE('',#1588,#196);
#99=LINE('',#1589,#197);
#100=LINE('',#1590,#198);
#101=LINE('',#1591,#199);
#102=LINE('',#1592,#200);
#103=LINE('',#1594,#201);
#104=LINE('',#1598,#202);
#105=LINE('',#1603,#203);
#106=LINE('',#1605,#204);
#107=LINE('',#1606,#205);
#108=LINE('',#1608,#206);
#109=LINE('',#1610,#207);
#110=LINE('',#1611,#208);
#111=LINE('',#1613,#209);
#112=LINE('',#1615,#210);
#113=LINE('',#1619,#211);
#114=LINE('',#1624,#212);
#115=LINE('',#1630,#213);
#116=LINE('',#1633,#214);
#117=LINE('',#1636,#215);
#118=LINE('',#1640,#216);
#119=LINE('',#1643,#217);
#120=LINE('',#1646,#218);
#121=LINE('',#1648,#219);
#122=LINE('',#1650,#220);
#123=LINE('',#1652,#221);
#124=LINE('',#1653,#222);
#125=LINE('',#1663,#223);
#126=LINE('',#1664,#224);
#127=LINE('',#1668,#225);
#128=LINE('',#1669,#226);
#129=LINE('',#1670,#227);
#130=LINE('',#1676,#228);
#131=LINE('',#1678,#229);
#132=LINE('',#1680,#230);
#133=LINE('',#1690,#231);
#134=LINE('',#1691,#232);
#135=LINE('',#1693,#233);
#136=LINE('',#1694,#234);
#137=VECTOR('',#1129,1.);
#138=VECTOR('',#1130,1.);
#139=VECTOR('',#1137,1.);
#140=VECTOR('',#1138,1.);
#141=VECTOR('',#1139,1.);
#142=VECTOR('',#1140,1.);
#143=VECTOR('',#1141,1.);
#144=VECTOR('',#1148,1.);
#145=VECTOR('',#1149,1.);
#146=VECTOR('',#1150,1.);
#147=VECTOR('',#1151,1.);
#148=VECTOR('',#1152,1.);
#149=VECTOR('',#1153,1.);
#150=VECTOR('',#1156,1.);
#151=VECTOR('',#1157,1.);
#152=VECTOR('',#1158,1.);
#153=VECTOR('',#1163,1.);
#154=VECTOR('',#1172,1.);
#155=VECTOR('',#1175,1.);
#156=VECTOR('',#1178,1.);
#157=VECTOR('',#1181,1.);
#158=VECTOR('',#1184,1.);
#159=VECTOR('',#1185,1.);
#160=VECTOR('',#1186,1.);
#161=VECTOR('',#1187,1.);
#162=VECTOR('',#1188,1.);
#163=VECTOR('',#1191,1.);
#164=VECTOR('',#1194,1.);
#165=VECTOR('',#1197,1.);
#166=VECTOR('',#1198,1.);
#167=VECTOR('',#1201,1.);
#168=VECTOR('',#1202,1.);
#169=VECTOR('',#1203,1.);
#170=VECTOR('',#1204,1.);
#171=VECTOR('',#1207,1.);
#172=VECTOR('',#1208,1.);
#173=VECTOR('',#1215,1.);
#174=VECTOR('',#1216,1.);
#175=VECTOR('',#1221,1.);
#176=VECTOR('',#1222,1.);
#177=VECTOR('',#1223,1.);
#178=VECTOR('',#1224,1.);
#179=VECTOR('',#1225,1.);
#180=VECTOR('',#1228,1.);
#181=VECTOR('',#1231,1.);
#182=VECTOR('',#1232,1.);
#183=VECTOR('',#1235,1.);
#184=VECTOR('',#1238,1.);
#185=VECTOR('',#1239,1.);
#186=VECTOR('',#1240,1.);
#187=VECTOR('',#1241,1.);
#188=VECTOR('',#1242,1.);
#189=VECTOR('',#1247,1.);
#190=VECTOR('',#1248,1.);
#191=VECTOR('',#1251,1.);
#192=VECTOR('',#1254,1.);
#193=VECTOR('',#1255,1.);
#194=VECTOR('',#1260,1.);
#195=VECTOR('',#1263,1.);
#196=VECTOR('',#1264,1.);
#197=VECTOR('',#1265,1.);
#198=VECTOR('',#1266,1.);
#199=VECTOR('',#1267,1.);
#200=VECTOR('',#1268,1.);
#201=VECTOR('',#1269,1.);
#202=VECTOR('',#1274,1.);
#203=VECTOR('',#1277,1.);
#204=VECTOR('',#1278,1.);
#205=VECTOR('',#1279,1.);
#206=VECTOR('',#1280,1.);
#207=VECTOR('',#1283,1.);
#208=VECTOR('',#1284,1.);
#209=VECTOR('',#1285,1.);
#210=VECTOR('',#1286,1.);
#211=VECTOR('',#1293,1.);
#212=VECTOR('',#1296,1.);
#213=VECTOR('',#1303,1.);
#214=VECTOR('',#1306,1.);
#215=VECTOR('',#1309,1.);
#216=VECTOR('',#1314,1.);
#217=VECTOR('',#1317,1.);
#218=VECTOR('',#1320,1.);
#219=VECTOR('',#1323,1.);
#220=VECTOR('',#1326,1.);
#221=VECTOR('',#1329,1.);
#222=VECTOR('',#1330,1.);
#223=VECTOR('',#1345,1.);
#224=VECTOR('',#1346,1.);
#225=VECTOR('',#1353,1.);
#226=VECTOR('',#1354,1.);
#227=VECTOR('',#1355,1.);
#228=VECTOR('',#1366,1.);
#229=VECTOR('',#1369,1.);
#230=VECTOR('',#1372,1.);
#231=VECTOR('',#1385,1.);
#232=VECTOR('',#1386,1.);
#233=VECTOR('',#1389,1.);
#234=VECTOR('',#1390,1.);
#235=ORIENTED_EDGE('',*,*,#523,.F.);
#236=ORIENTED_EDGE('',*,*,#524,.F.);
#237=ORIENTED_EDGE('',*,*,#525,.T.);
#238=ORIENTED_EDGE('',*,*,#526,.T.);
#239=ORIENTED_EDGE('',*,*,#527,.T.);
#240=ORIENTED_EDGE('',*,*,#528,.T.);
#241=ORIENTED_EDGE('',*,*,#529,.T.);
#242=ORIENTED_EDGE('',*,*,#530,.T.);
#243=ORIENTED_EDGE('',*,*,#531,.F.);
#244=ORIENTED_EDGE('',*,*,#532,.T.);
#245=ORIENTED_EDGE('',*,*,#533,.F.);
#246=ORIENTED_EDGE('',*,*,#534,.T.);
#247=ORIENTED_EDGE('',*,*,#535,.T.);
#248=ORIENTED_EDGE('',*,*,#536,.T.);
#249=ORIENTED_EDGE('',*,*,#537,.T.);
#250=ORIENTED_EDGE('',*,*,#538,.T.);
#251=ORIENTED_EDGE('',*,*,#539,.F.);
#252=ORIENTED_EDGE('',*,*,#540,.F.);
#253=ORIENTED_EDGE('',*,*,#541,.T.);
#254=ORIENTED_EDGE('',*,*,#542,.F.);
#255=ORIENTED_EDGE('',*,*,#543,.F.);
#256=ORIENTED_EDGE('',*,*,#544,.T.);
#257=ORIENTED_EDGE('',*,*,#545,.T.);
#258=ORIENTED_EDGE('',*,*,#546,.F.);
#259=ORIENTED_EDGE('',*,*,#525,.F.);
#260=ORIENTED_EDGE('',*,*,#547,.F.);
#261=ORIENTED_EDGE('',*,*,#548,.F.);
#262=ORIENTED_EDGE('',*,*,#549,.T.);
#263=ORIENTED_EDGE('',*,*,#550,.T.);
#264=ORIENTED_EDGE('',*,*,#551,.T.);
#265=ORIENTED_EDGE('',*,*,#552,.T.);
#266=ORIENTED_EDGE('',*,*,#553,.T.);
#267=ORIENTED_EDGE('',*,*,#554,.T.);
#268=ORIENTED_EDGE('',*,*,#555,.T.);
#269=ORIENTED_EDGE('',*,*,#556,.F.);
#270=ORIENTED_EDGE('',*,*,#557,.T.);
#271=ORIENTED_EDGE('',*,*,#558,.T.);
#272=ORIENTED_EDGE('',*,*,#559,.T.);
#273=ORIENTED_EDGE('',*,*,#560,.F.);
#274=ORIENTED_EDGE('',*,*,#561,.F.);
#275=ORIENTED_EDGE('',*,*,#562,.T.);
#276=ORIENTED_EDGE('',*,*,#563,.T.);
#277=ORIENTED_EDGE('',*,*,#564,.T.);
#278=ORIENTED_EDGE('',*,*,#565,.T.);
#279=ORIENTED_EDGE('',*,*,#566,.T.);
#280=ORIENTED_EDGE('',*,*,#567,.T.);
#281=ORIENTED_EDGE('',*,*,#568,.T.);
#282=ORIENTED_EDGE('',*,*,#533,.T.);
#283=ORIENTED_EDGE('',*,*,#532,.F.);
#284=ORIENTED_EDGE('',*,*,#531,.T.);
#285=ORIENTED_EDGE('',*,*,#568,.F.);
#286=ORIENTED_EDGE('',*,*,#569,.T.);
#287=ORIENTED_EDGE('',*,*,#570,.T.);
#288=ORIENTED_EDGE('',*,*,#571,.T.);
#289=ORIENTED_EDGE('',*,*,#572,.F.);
#290=ORIENTED_EDGE('',*,*,#573,.T.);
#291=ORIENTED_EDGE('',*,*,#539,.T.);
#292=ORIENTED_EDGE('',*,*,#538,.F.);
#293=ORIENTED_EDGE('',*,*,#574,.T.);
#294=ORIENTED_EDGE('',*,*,#548,.T.);
#295=ORIENTED_EDGE('',*,*,#575,.T.);
#296=ORIENTED_EDGE('',*,*,#534,.F.);
#297=ORIENTED_EDGE('',*,*,#576,.T.);
#298=ORIENTED_EDGE('',*,*,#577,.T.);
#299=ORIENTED_EDGE('',*,*,#578,.T.);
#300=ORIENTED_EDGE('',*,*,#579,.T.);
#301=ORIENTED_EDGE('',*,*,#580,.T.);
#302=ORIENTED_EDGE('',*,*,#581,.F.);
#303=ORIENTED_EDGE('',*,*,#570,.F.);
#304=ORIENTED_EDGE('',*,*,#582,.T.);
#305=ORIENTED_EDGE('',*,*,#583,.T.);
#306=ORIENTED_EDGE('',*,*,#584,.T.);
#307=ORIENTED_EDGE('',*,*,#585,.F.);
#308=ORIENTED_EDGE('',*,*,#586,.T.);
#309=ORIENTED_EDGE('',*,*,#587,.T.);
#310=ORIENTED_EDGE('',*,*,#588,.T.);
#311=ORIENTED_EDGE('',*,*,#589,.T.);
#312=ORIENTED_EDGE('',*,*,#590,.T.);
#313=ORIENTED_EDGE('',*,*,#541,.F.);
#314=ORIENTED_EDGE('',*,*,#591,.T.);
#315=ORIENTED_EDGE('',*,*,#592,.T.);
#316=ORIENTED_EDGE('',*,*,#586,.F.);
#317=ORIENTED_EDGE('',*,*,#593,.T.);
#318=ORIENTED_EDGE('',*,*,#594,.T.);
#319=ORIENTED_EDGE('',*,*,#595,.T.);
#320=ORIENTED_EDGE('',*,*,#560,.T.);
#321=ORIENTED_EDGE('',*,*,#596,.F.);
#322=ORIENTED_EDGE('',*,*,#597,.T.);
#323=ORIENTED_EDGE('',*,*,#598,.T.);
#324=ORIENTED_EDGE('',*,*,#556,.T.);
#325=ORIENTED_EDGE('',*,*,#599,.T.);
#326=ORIENTED_EDGE('',*,*,#581,.T.);
#327=ORIENTED_EDGE('',*,*,#600,.F.);
#328=ORIENTED_EDGE('',*,*,#601,.T.);
#329=ORIENTED_EDGE('',*,*,#594,.F.);
#330=ORIENTED_EDGE('',*,*,#602,.F.);
#331=ORIENTED_EDGE('',*,*,#603,.F.);
#332=ORIENTED_EDGE('',*,*,#604,.T.);
#333=ORIENTED_EDGE('',*,*,#597,.F.);
#334=ORIENTED_EDGE('',*,*,#605,.F.);
#335=ORIENTED_EDGE('',*,*,#606,.T.);
#336=ORIENTED_EDGE('',*,*,#607,.T.);
#337=ORIENTED_EDGE('',*,*,#608,.F.);
#338=ORIENTED_EDGE('',*,*,#609,.T.);
#339=ORIENTED_EDGE('',*,*,#610,.F.);
#340=ORIENTED_EDGE('',*,*,#576,.F.);
#341=ORIENTED_EDGE('',*,*,#611,.T.);
#342=ORIENTED_EDGE('',*,*,#552,.F.);
#343=ORIENTED_EDGE('',*,*,#612,.T.);
#344=ORIENTED_EDGE('',*,*,#606,.F.);
#345=ORIENTED_EDGE('',*,*,#613,.T.);
#346=ORIENTED_EDGE('',*,*,#562,.F.);
#347=ORIENTED_EDGE('',*,*,#614,.F.);
#348=ORIENTED_EDGE('',*,*,#600,.T.);
#349=ORIENTED_EDGE('',*,*,#615,.T.);
#350=ORIENTED_EDGE('',*,*,#616,.T.);
#351=ORIENTED_EDGE('',*,*,#617,.T.);
#352=ORIENTED_EDGE('',*,*,#544,.F.);
#353=ORIENTED_EDGE('',*,*,#543,.T.);
#354=ORIENTED_EDGE('',*,*,#618,.F.);
#355=ORIENTED_EDGE('',*,*,#619,.T.);
#356=ORIENTED_EDGE('',*,*,#620,.F.);
#357=ORIENTED_EDGE('',*,*,#621,.T.);
#358=ORIENTED_EDGE('',*,*,#616,.F.);
#359=ORIENTED_EDGE('',*,*,#622,.T.);
#360=ORIENTED_EDGE('',*,*,#623,.T.);
#361=ORIENTED_EDGE('',*,*,#620,.T.);
#362=ORIENTED_EDGE('',*,*,#624,.T.);
#363=ORIENTED_EDGE('',*,*,#564,.F.);
#364=ORIENTED_EDGE('',*,*,#530,.F.);
#365=ORIENTED_EDGE('',*,*,#625,.T.);
#366=ORIENTED_EDGE('',*,*,#626,.F.);
#367=ORIENTED_EDGE('',*,*,#627,.T.);
#368=ORIENTED_EDGE('',*,*,#526,.F.);
#369=ORIENTED_EDGE('',*,*,#546,.T.);
#370=ORIENTED_EDGE('',*,*,#628,.T.);
#371=ORIENTED_EDGE('',*,*,#563,.F.);
#372=ORIENTED_EDGE('',*,*,#613,.F.);
#373=ORIENTED_EDGE('',*,*,#605,.T.);
#374=ORIENTED_EDGE('',*,*,#596,.T.);
#375=ORIENTED_EDGE('',*,*,#629,.F.);
#376=ORIENTED_EDGE('',*,*,#630,.F.);
#377=ORIENTED_EDGE('',*,*,#631,.T.);
#378=ORIENTED_EDGE('',*,*,#632,.T.);
#379=ORIENTED_EDGE('',*,*,#633,.F.);
#380=ORIENTED_EDGE('',*,*,#630,.T.);
#381=ORIENTED_EDGE('',*,*,#634,.T.);
#382=ORIENTED_EDGE('',*,*,#635,.T.);
#383=ORIENTED_EDGE('',*,*,#636,.T.);
#384=ORIENTED_EDGE('',*,*,#637,.T.);
#385=ORIENTED_EDGE('',*,*,#638,.F.);
#386=ORIENTED_EDGE('',*,*,#639,.T.);
#387=ORIENTED_EDGE('',*,*,#632,.F.);
#388=ORIENTED_EDGE('',*,*,#640,.T.);
#389=ORIENTED_EDGE('',*,*,#641,.T.);
#390=ORIENTED_EDGE('',*,*,#642,.F.);
#391=ORIENTED_EDGE('',*,*,#643,.T.);
#392=ORIENTED_EDGE('',*,*,#644,.F.);
#393=ORIENTED_EDGE('',*,*,#638,.T.);
#394=ORIENTED_EDGE('',*,*,#645,.T.);
#395=ORIENTED_EDGE('',*,*,#640,.F.);
#396=ORIENTED_EDGE('',*,*,#631,.F.);
#397=ORIENTED_EDGE('',*,*,#644,.T.);
#398=ORIENTED_EDGE('',*,*,#646,.T.);
#399=ORIENTED_EDGE('',*,*,#634,.F.);
#400=ORIENTED_EDGE('',*,*,#629,.T.);
#401=ORIENTED_EDGE('',*,*,#566,.F.);
#402=ORIENTED_EDGE('',*,*,#647,.T.);
#403=ORIENTED_EDGE('',*,*,#618,.T.);
#404=ORIENTED_EDGE('',*,*,#636,.F.);
#405=ORIENTED_EDGE('',*,*,#583,.F.);
#406=ORIENTED_EDGE('',*,*,#648,.T.);
#407=ORIENTED_EDGE('',*,*,#649,.F.);
#408=ORIENTED_EDGE('',*,*,#650,.T.);
#409=ORIENTED_EDGE('',*,*,#615,.F.);
#410=ORIENTED_EDGE('',*,*,#602,.T.);
#411=ORIENTED_EDGE('',*,*,#593,.F.);
#412=ORIENTED_EDGE('',*,*,#585,.T.);
#413=ORIENTED_EDGE('',*,*,#642,.T.);
#414=ORIENTED_EDGE('',*,*,#622,.F.);
#415=ORIENTED_EDGE('',*,*,#643,.F.);
#416=ORIENTED_EDGE('',*,*,#584,.F.);
#417=ORIENTED_EDGE('',*,*,#635,.F.);
#418=ORIENTED_EDGE('',*,*,#646,.F.);
#419=ORIENTED_EDGE('',*,*,#641,.F.);
#420=ORIENTED_EDGE('',*,*,#645,.F.);
#421=ORIENTED_EDGE('',*,*,#637,.F.);
#422=ORIENTED_EDGE('',*,*,#623,.F.);
#423=ORIENTED_EDGE('',*,*,#633,.T.);
#424=ORIENTED_EDGE('',*,*,#639,.F.);
#425=ORIENTED_EDGE('',*,*,#558,.F.);
#426=ORIENTED_EDGE('',*,*,#651,.T.);
#427=ORIENTED_EDGE('',*,*,#603,.T.);
#428=ORIENTED_EDGE('',*,*,#652,.T.);
#429=ORIENTED_EDGE('',*,*,#649,.T.);
#430=ORIENTED_EDGE('',*,*,#650,.F.);
#431=ORIENTED_EDGE('',*,*,#601,.F.);
#432=ORIENTED_EDGE('',*,*,#614,.T.);
#433=ORIENTED_EDGE('',*,*,#561,.T.);
#434=ORIENTED_EDGE('',*,*,#595,.F.);
#435=ORIENTED_EDGE('',*,*,#653,.T.);
#436=ORIENTED_EDGE('',*,*,#654,.T.);
#437=ORIENTED_EDGE('',*,*,#554,.F.);
#438=ORIENTED_EDGE('',*,*,#655,.T.);
#439=ORIENTED_EDGE('',*,*,#557,.F.);
#440=ORIENTED_EDGE('',*,*,#598,.F.);
#441=ORIENTED_EDGE('',*,*,#604,.F.);
#442=ORIENTED_EDGE('',*,*,#651,.F.);
#443=ORIENTED_EDGE('',*,*,#579,.F.);
#444=ORIENTED_EDGE('',*,*,#599,.F.);
#445=ORIENTED_EDGE('',*,*,#555,.F.);
#446=ORIENTED_EDGE('',*,*,#654,.F.);
#447=ORIENTED_EDGE('',*,*,#578,.F.);
#448=ORIENTED_EDGE('',*,*,#655,.F.);
#449=ORIENTED_EDGE('',*,*,#553,.F.);
#450=ORIENTED_EDGE('',*,*,#611,.F.);
#451=ORIENTED_EDGE('',*,*,#559,.F.);
#452=ORIENTED_EDGE('',*,*,#652,.F.);
#453=ORIENTED_EDGE('',*,*,#607,.F.);
#454=ORIENTED_EDGE('',*,*,#612,.F.);
#455=ORIENTED_EDGE('',*,*,#572,.T.);
#456=ORIENTED_EDGE('',*,*,#656,.T.);
#457=ORIENTED_EDGE('',*,*,#591,.F.);
#458=ORIENTED_EDGE('',*,*,#540,.T.);
#459=ORIENTED_EDGE('',*,*,#573,.F.);
#460=ORIENTED_EDGE('',*,*,#590,.F.);
#461=ORIENTED_EDGE('',*,*,#657,.T.);
#462=ORIENTED_EDGE('',*,*,#608,.T.);
#463=ORIENTED_EDGE('',*,*,#542,.T.);
#464=ORIENTED_EDGE('',*,*,#610,.T.);
#465=ORIENTED_EDGE('',*,*,#658,.T.);
#466=ORIENTED_EDGE('',*,*,#588,.F.);
#467=ORIENTED_EDGE('',*,*,#580,.F.);
#468=ORIENTED_EDGE('',*,*,#653,.F.);
#469=ORIENTED_EDGE('',*,*,#577,.F.);
#470=ORIENTED_EDGE('',*,*,#659,.F.);
#471=ORIENTED_EDGE('',*,*,#626,.T.);
#472=ORIENTED_EDGE('',*,*,#660,.T.);
#473=ORIENTED_EDGE('',*,*,#661,.T.);
#474=ORIENTED_EDGE('',*,*,#662,.T.);
#475=ORIENTED_EDGE('',*,*,#663,.T.);
#476=ORIENTED_EDGE('',*,*,#550,.F.);
#477=ORIENTED_EDGE('',*,*,#664,.F.);
#478=ORIENTED_EDGE('',*,*,#536,.F.);
#479=ORIENTED_EDGE('',*,*,#665,.T.);
#480=ORIENTED_EDGE('',*,*,#661,.F.);
#481=ORIENTED_EDGE('',*,*,#666,.F.);
#482=ORIENTED_EDGE('',*,*,#528,.F.);
#483=ORIENTED_EDGE('',*,*,#535,.F.);
#484=ORIENTED_EDGE('',*,*,#575,.F.);
#485=ORIENTED_EDGE('',*,*,#551,.F.);
#486=ORIENTED_EDGE('',*,*,#663,.F.);
#487=ORIENTED_EDGE('',*,*,#537,.F.);
#488=ORIENTED_EDGE('',*,*,#664,.T.);
#489=ORIENTED_EDGE('',*,*,#549,.F.);
#490=ORIENTED_EDGE('',*,*,#574,.F.);
#491=ORIENTED_EDGE('',*,*,#529,.F.);
#492=ORIENTED_EDGE('',*,*,#666,.T.);
#493=ORIENTED_EDGE('',*,*,#660,.F.);
#494=ORIENTED_EDGE('',*,*,#625,.F.);
#495=ORIENTED_EDGE('',*,*,#527,.F.);
#496=ORIENTED_EDGE('',*,*,#627,.F.);
#497=ORIENTED_EDGE('',*,*,#662,.F.);
#498=ORIENTED_EDGE('',*,*,#665,.F.);
#499=ORIENTED_EDGE('',*,*,#523,.T.);
#500=ORIENTED_EDGE('',*,*,#659,.T.);
#501=ORIENTED_EDGE('',*,*,#524,.T.);
#502=ORIENTED_EDGE('',*,*,#547,.T.);
#503=ORIENTED_EDGE('',*,*,#617,.F.);
#504=ORIENTED_EDGE('',*,*,#621,.F.);
#505=ORIENTED_EDGE('',*,*,#628,.F.);
#506=ORIENTED_EDGE('',*,*,#545,.F.);
#507=ORIENTED_EDGE('',*,*,#592,.F.);
#508=ORIENTED_EDGE('',*,*,#656,.F.);
#509=ORIENTED_EDGE('',*,*,#571,.F.);
#510=ORIENTED_EDGE('',*,*,#587,.F.);
#511=ORIENTED_EDGE('',*,*,#609,.F.);
#512=ORIENTED_EDGE('',*,*,#657,.F.);
#513=ORIENTED_EDGE('',*,*,#589,.F.);
#514=ORIENTED_EDGE('',*,*,#658,.F.);
#515=ORIENTED_EDGE('',*,*,#565,.F.);
#516=ORIENTED_EDGE('',*,*,#624,.F.);
#517=ORIENTED_EDGE('',*,*,#619,.F.);
#518=ORIENTED_EDGE('',*,*,#647,.F.);
#519=ORIENTED_EDGE('',*,*,#567,.F.);
#520=ORIENTED_EDGE('',*,*,#648,.F.);
#521=ORIENTED_EDGE('',*,*,#582,.F.);
#522=ORIENTED_EDGE('',*,*,#569,.F.);
#523=EDGE_CURVE('',#667,#667,#765,.T.);
#524=EDGE_CURVE('',#668,#668,#766,.T.);
#525=EDGE_CURVE('',#669,#670,#39,.T.);
#526=EDGE_CURVE('',#670,#671,#40,.T.);
#527=EDGE_CURVE('',#671,#672,#767,.F.);
#528=EDGE_CURVE('',#672,#673,#768,.T.);
#529=EDGE_CURVE('',#673,#674,#769,.F.);
#530=EDGE_CURVE('',#674,#675,#41,.T.);
#531=EDGE_CURVE('',#676,#675,#42,.T.);
#532=EDGE_CURVE('',#676,#677,#43,.T.);
#533=EDGE_CURVE('',#678,#677,#44,.T.);
#534=EDGE_CURVE('',#678,#679,#45,.T.);
#535=EDGE_CURVE('',#679,#680,#770,.F.);
#536=EDGE_CURVE('',#680,#681,#771,.T.);
#537=EDGE_CURVE('',#681,#682,#772,.F.);
#538=EDGE_CURVE('',#682,#683,#46,.T.);
#539=EDGE_CURVE('',#684,#683,#47,.T.);
#540=EDGE_CURVE('',#685,#684,#48,.T.);
#541=EDGE_CURVE('',#685,#686,#49,.T.);
#542=EDGE_CURVE('',#687,#686,#50,.T.);
#543=EDGE_CURVE('',#669,#687,#51,.T.);
#544=EDGE_CURVE('',#669,#688,#52,.T.);
#545=EDGE_CURVE('',#688,#689,#53,.T.);
#546=EDGE_CURVE('',#670,#689,#54,.T.);
#547=EDGE_CURVE('',#690,#690,#773,.T.);
#548=EDGE_CURVE('',#691,#692,#55,.T.);
#549=EDGE_CURVE('',#691,#693,#774,.F.);
#550=EDGE_CURVE('',#693,#694,#775,.T.);
#551=EDGE_CURVE('',#694,#692,#776,.F.);
#552=EDGE_CURVE('',#695,#696,#56,.T.);
#553=EDGE_CURVE('',#696,#697,#777,.T.);
#554=EDGE_CURVE('',#697,#698,#57,.T.);
#555=EDGE_CURVE('',#698,#699,#778,.T.);
#556=EDGE_CURVE('',#700,#699,#58,.T.);
#557=EDGE_CURVE('',#700,#701,#779,.T.);
#558=EDGE_CURVE('',#701,#702,#59,.T.);
#559=EDGE_CURVE('',#702,#695,#780,.T.);
#560=EDGE_CURVE('',#703,#704,#60,.T.);
#561=EDGE_CURVE('',#705,#703,#61,.T.);
#562=EDGE_CURVE('',#705,#706,#62,.T.);
#563=EDGE_CURVE('',#706,#704,#63,.T.);
#564=EDGE_CURVE('',#675,#707,#64,.T.);
#565=EDGE_CURVE('',#707,#708,#781,.F.);
#566=EDGE_CURVE('',#708,#709,#65,.T.);
#567=EDGE_CURVE('',#709,#710,#782,.F.);
#568=EDGE_CURVE('',#710,#678,#66,.T.);
#569=EDGE_CURVE('',#710,#711,#67,.T.);
#570=EDGE_CURVE('',#711,#712,#68,.T.);
#571=EDGE_CURVE('',#712,#713,#783,.F.);
#572=EDGE_CURVE('',#714,#713,#69,.T.);
#573=EDGE_CURVE('',#714,#684,#70,.T.);
#574=EDGE_CURVE('',#682,#691,#71,.T.);
#575=EDGE_CURVE('',#692,#679,#72,.F.);
#576=EDGE_CURVE('',#715,#716,#73,.T.);
#577=EDGE_CURVE('',#716,#717,#74,.T.);
#578=EDGE_CURVE('',#717,#715,#784,.F.);
#579=EDGE_CURVE('',#718,#719,#785,.F.);
#580=EDGE_CURVE('',#719,#720,#75,.T.);
#581=EDGE_CURVE('',#718,#720,#76,.T.);
#582=EDGE_CURVE('',#711,#721,#786,.T.);
#583=EDGE_CURVE('',#721,#722,#77,.T.);
#584=EDGE_CURVE('',#722,#723,#78,.F.);
#585=EDGE_CURVE('',#724,#723,#79,.T.);
#586=EDGE_CURVE('',#724,#725,#80,.T.);
#587=EDGE_CURVE('',#725,#712,#81,.T.);
#588=EDGE_CURVE('',#720,#726,#82,.T.);
#589=EDGE_CURVE('',#726,#727,#787,.T.);
#590=EDGE_CURVE('',#727,#686,#83,.T.);
#591=EDGE_CURVE('',#685,#728,#84,.T.);
#592=EDGE_CURVE('',#728,#725,#788,.T.);
#593=EDGE_CURVE('',#724,#729,#85,.T.);
#594=EDGE_CURVE('',#729,#730,#789,.T.);
#595=EDGE_CURVE('',#730,#703,#86,.T.);
#596=EDGE_CURVE('',#731,#704,#87,.T.);
#597=EDGE_CURVE('',#731,#732,#88,.T.);
#598=EDGE_CURVE('',#732,#700,#89,.F.);
#599=EDGE_CURVE('',#699,#718,#90,.F.);
#600=EDGE_CURVE('',#733,#734,#790,.F.);
#601=EDGE_CURVE('',#733,#730,#91,.T.);
#602=EDGE_CURVE('',#734,#729,#92,.F.);
#603=EDGE_CURVE('',#735,#736,#93,.T.);
#604=EDGE_CURVE('',#735,#732,#791,.F.);
#605=EDGE_CURVE('',#737,#731,#94,.T.);
#606=EDGE_CURVE('',#737,#738,#95,.T.);
#607=EDGE_CURVE('',#738,#736,#792,.F.);
#608=EDGE_CURVE('',#739,#687,#96,.T.);
#609=EDGE_CURVE('',#739,#740,#793,.F.);
#610=EDGE_CURVE('',#716,#740,#97,.T.);
#611=EDGE_CURVE('',#715,#696,#98,.T.);
#612=EDGE_CURVE('',#695,#738,#99,.T.);
#613=EDGE_CURVE('',#737,#706,#100,.T.);
#614=EDGE_CURVE('',#733,#705,#101,.T.);
#615=EDGE_CURVE('',#734,#741,#102,.T.);
#616=EDGE_CURVE('',#741,#742,#103,.T.);
#617=EDGE_CURVE('',#742,#688,#794,.F.);
#618=EDGE_CURVE('',#743,#744,#104,.T.);
#619=EDGE_CURVE('',#743,#745,#795,.T.);
#620=EDGE_CURVE('',#746,#745,#105,.T.);
#621=EDGE_CURVE('',#746,#742,#106,.F.);
#622=EDGE_CURVE('',#741,#747,#107,.T.);
#623=EDGE_CURVE('',#747,#744,#108,.F.);
#624=EDGE_CURVE('',#745,#707,#109,.F.);
#625=EDGE_CURVE('',#674,#748,#110,.T.);
#626=EDGE_CURVE('',#749,#748,#111,.T.);
#627=EDGE_CURVE('',#749,#671,#112,.F.);
#628=EDGE_CURVE('',#689,#746,#796,.F.);
#629=EDGE_CURVE('',#750,#751,#113,.T.);
#630=EDGE_CURVE('',#752,#750,#797,.T.);
#631=EDGE_CURVE('',#752,#753,#114,.T.);
#632=EDGE_CURVE('',#753,#751,#798,.T.);
#633=EDGE_CURVE('',#754,#754,#799,.T.);
#634=EDGE_CURVE('',#750,#755,#115,.T.);
#635=EDGE_CURVE('',#755,#722,#12,.F.);
#636=EDGE_CURVE('',#722,#744,#116,.T.);
#637=EDGE_CURVE('',#744,#756,#13,.F.);
#638=EDGE_CURVE('',#752,#756,#117,.T.);
#639=EDGE_CURVE('',#757,#757,#800,.T.);
#640=EDGE_CURVE('',#753,#758,#118,.T.);
#641=EDGE_CURVE('',#758,#747,#14,.T.);
#642=EDGE_CURVE('',#723,#747,#119,.T.);
#643=EDGE_CURVE('',#723,#759,#15,.T.);
#644=EDGE_CURVE('',#751,#759,#120,.T.);
#645=EDGE_CURVE('',#756,#758,#121,.T.);
#646=EDGE_CURVE('',#759,#755,#122,.T.);
#647=EDGE_CURVE('',#708,#743,#123,.T.);
#648=EDGE_CURVE('',#721,#709,#124,.F.);
#649=EDGE_CURVE('',#760,#760,#801,.T.);
#650=EDGE_CURVE('',#761,#761,#802,.T.);
#651=EDGE_CURVE('',#701,#735,#125,.T.);
#652=EDGE_CURVE('',#736,#702,#126,.F.);
#653=EDGE_CURVE('',#717,#719,#127,.T.);
#654=EDGE_CURVE('',#719,#698,#128,.T.);
#655=EDGE_CURVE('',#697,#717,#129,.F.);
#656=EDGE_CURVE('',#713,#728,#130,.F.);
#657=EDGE_CURVE('',#727,#739,#131,.F.);
#658=EDGE_CURVE('',#740,#726,#132,.T.);
#659=EDGE_CURVE('',#762,#762,#803,.T.);
#660=EDGE_CURVE('',#748,#763,#804,.T.);
#661=EDGE_CURVE('',#763,#764,#805,.T.);
#662=EDGE_CURVE('',#764,#749,#806,.T.);
#663=EDGE_CURVE('',#680,#694,#133,.T.);
#664=EDGE_CURVE('',#681,#693,#134,.T.);
#665=EDGE_CURVE('',#672,#764,#135,.T.);
#666=EDGE_CURVE('',#673,#763,#136,.T.);
#667=VERTEX_POINT('',#1416);
#668=VERTEX_POINT('',#1418);
#669=VERTEX_POINT('',#1420);
#670=VERTEX_POINT('',#1421);
#671=VERTEX_POINT('',#1423);
#672=VERTEX_POINT('',#1425);
#673=VERTEX_POINT('',#1427);
#674=VERTEX_POINT('',#1429);
#675=VERTEX_POINT('',#1431);
#676=VERTEX_POINT('',#1433);
#677=VERTEX_POINT('',#1435);
#678=VERTEX_POINT('',#1437);
#679=VERTEX_POINT('',#1439);
#680=VERTEX_POINT('',#1441);
#681=VERTEX_POINT('',#1443);
#682=VERTEX_POINT('',#1445);
#683=VERTEX_POINT('',#1447);
#684=VERTEX_POINT('',#1449);
#685=VERTEX_POINT('',#1451);
#686=VERTEX_POINT('',#1453);
#687=VERTEX_POINT('',#1455);
#688=VERTEX_POINT('',#1459);
#689=VERTEX_POINT('',#1461);
#690=VERTEX_POINT('',#1465);
#691=VERTEX_POINT('',#1467);
#692=VERTEX_POINT('',#1468);
#693=VERTEX_POINT('',#1470);
#694=VERTEX_POINT('',#1472);
#695=VERTEX_POINT('',#1476);
#696=VERTEX_POINT('',#1477);
#697=VERTEX_POINT('',#1479);
#698=VERTEX_POINT('',#1481);
#699=VERTEX_POINT('',#1483);
#700=VERTEX_POINT('',#1485);
#701=VERTEX_POINT('',#1487);
#702=VERTEX_POINT('',#1489);
#703=VERTEX_POINT('',#1492);
#704=VERTEX_POINT('',#1493);
#705=VERTEX_POINT('',#1495);
#706=VERTEX_POINT('',#1497);
#707=VERTEX_POINT('',#1500);
#708=VERTEX_POINT('',#1502);
#709=VERTEX_POINT('',#1504);
#710=VERTEX_POINT('',#1506);
#711=VERTEX_POINT('',#1510);
#712=VERTEX_POINT('',#1512);
#713=VERTEX_POINT('',#1514);
#714=VERTEX_POINT('',#1516);
#715=VERTEX_POINT('',#1522);
#716=VERTEX_POINT('',#1523);
#717=VERTEX_POINT('',#1525);
#718=VERTEX_POINT('',#1529);
#719=VERTEX_POINT('',#1530);
#720=VERTEX_POINT('',#1532);
#721=VERTEX_POINT('',#1536);
#722=VERTEX_POINT('',#1538);
#723=VERTEX_POINT('',#1540);
#724=VERTEX_POINT('',#1542);
#725=VERTEX_POINT('',#1544);
#726=VERTEX_POINT('',#1548);
#727=VERTEX_POINT('',#1550);
#728=VERTEX_POINT('',#1553);
#729=VERTEX_POINT('',#1556);
#730=VERTEX_POINT('',#1558);
#731=VERTEX_POINT('',#1561);
#732=VERTEX_POINT('',#1563);
#733=VERTEX_POINT('',#1568);
#734=VERTEX_POINT('',#1569);
#735=VERTEX_POINT('',#1574);
#736=VERTEX_POINT('',#1575);
#737=VERTEX_POINT('',#1578);
#738=VERTEX_POINT('',#1580);
#739=VERTEX_POINT('',#1584);
#740=VERTEX_POINT('',#1586);
#741=VERTEX_POINT('',#1593);
#742=VERTEX_POINT('',#1595);
#743=VERTEX_POINT('',#1599);
#744=VERTEX_POINT('',#1600);
#745=VERTEX_POINT('',#1602);
#746=VERTEX_POINT('',#1604);
#747=VERTEX_POINT('',#1607);
#748=VERTEX_POINT('',#1612);
#749=VERTEX_POINT('',#1614);
#750=VERTEX_POINT('',#1620);
#751=VERTEX_POINT('',#1621);
#752=VERTEX_POINT('',#1623);
#753=VERTEX_POINT('',#1625);
#754=VERTEX_POINT('',#1629);
#755=VERTEX_POINT('',#1631);
#756=VERTEX_POINT('',#1635);
#757=VERTEX_POINT('',#1639);
#758=VERTEX_POINT('',#1641);
#759=VERTEX_POINT('',#1645);
#760=VERTEX_POINT('',#1655);
#761=VERTEX_POINT('',#1658);
#762=VERTEX_POINT('',#1683);
#763=VERTEX_POINT('',#1685);
#764=VERTEX_POINT('',#1687);
#765=CIRCLE('',#1026,0.0021);
#766=CIRCLE('',#1027,0.0021);
#767=CIRCLE('',#1028,0.005);
#768=CIRCLE('',#1029,0.00500000073709882);
#769=CIRCLE('',#1030,0.005);
#770=CIRCLE('',#1031,0.005);
#771=CIRCLE('',#1032,0.0049999992629012);
#772=CIRCLE('',#1033,0.005);
#773=CIRCLE('',#1036,0.0021);
#774=CIRCLE('',#1037,0.005);
#775=CIRCLE('',#1038,0.0049999992629012);
#776=CIRCLE('',#1039,0.005);
#777=CIRCLE('',#1041,0.005);
#778=CIRCLE('',#1042,0.005);
#779=CIRCLE('',#1043,0.005);
#780=CIRCLE('',#1044,0.005);
#781=CIRCLE('',#1045,0.004);
#782=CIRCLE('',#1046,0.004);
#783=CIRCLE('',#1048,1.);
#784=CIRCLE('',#1050,0.005);
#785=CIRCLE('',#1052,0.005);
#786=CIRCLE('',#1054,0.004);
#787=CIRCLE('',#1056,0.002);
#788=CIRCLE('',#1057,1.);
#789=CIRCLE('',#1058,0.007);
#790=CIRCLE('',#1060,0.007);
#791=CIRCLE('',#1062,0.005);
#792=CIRCLE('',#1063,0.005);
#793=CIRCLE('',#1065,0.002);
#794=CIRCLE('',#1066,1.);
#795=CIRCLE('',#1068,0.004);
#796=CIRCLE('',#1070,1.);
#797=CIRCLE('',#1073,0.01);
#798=CIRCLE('',#1074,0.01);
#799=CIRCLE('',#1076,0.007);
#800=CIRCLE('',#1080,0.007);
#801=CIRCLE('',#1086,0.002);
#802=CIRCLE('',#1088,0.002);
#803=CIRCLE('',#1104,0.0021);
#804=CIRCLE('',#1105,0.005);
#805=CIRCLE('',#1106,0.00500000073709882);
#806=CIRCLE('',#1107,0.005);
#807=EDGE_LOOP('',(#235));
#808=EDGE_LOOP('',(#236));
#809=EDGE_LOOP('',(#237,#238,#239,#240,#241,#242,#243,#244,#245,#246,#247,
#248,#249,#250,#251,#252,#253,#254,#255));
#810=EDGE_LOOP('',(#256,#257,#258,#259));
#811=EDGE_LOOP('',(#260));
#812=EDGE_LOOP('',(#261,#262,#263,#264));
#813=EDGE_LOOP('',(#265,#266,#267,#268,#269,#270,#271,#272));
#814=EDGE_LOOP('',(#273,#274,#275,#276));
#815=EDGE_LOOP('',(#277,#278,#279,#280,#281,#282,#283,#284));
#816=EDGE_LOOP('',(#285,#286,#287,#288,#289,#290,#291,#292,#293,#294,#295,
#296));
#817=EDGE_LOOP('',(#297,#298,#299));
#818=EDGE_LOOP('',(#300,#301,#302));
#819=EDGE_LOOP('',(#303,#304,#305,#306,#307,#308,#309));
#820=EDGE_LOOP('',(#310,#311,#312,#313,#314,#315,#316,#317,#318,#319,#320,
#321,#322,#323,#324,#325,#326));
#821=EDGE_LOOP('',(#327,#328,#329,#330));
#822=EDGE_LOOP('',(#331,#332,#333,#334,#335,#336));
#823=EDGE_LOOP('',(#337,#338,#339,#340,#341,#342,#343,#344,#345,#346,#347,
#348,#349,#350,#351,#352,#353));
#824=EDGE_LOOP('',(#354,#355,#356,#357,#358,#359,#360));
#825=EDGE_LOOP('',(#361,#362,#363,#364,#365,#366,#367,#368,#369,#370));
#826=EDGE_LOOP('',(#371,#372,#373,#374));
#827=EDGE_LOOP('',(#375,#376,#377,#378));
#828=EDGE_LOOP('',(#379));
#829=EDGE_LOOP('',(#380,#381,#382,#383,#384,#385));
#830=EDGE_LOOP('',(#386));
#831=EDGE_LOOP('',(#387,#388,#389,#390,#391,#392));
#832=EDGE_LOOP('',(#393,#394,#395,#396));
#833=EDGE_LOOP('',(#397,#398,#399,#400));
#834=EDGE_LOOP('',(#401,#402,#403,#404,#405,#406));
#835=EDGE_LOOP('',(#407));
#836=EDGE_LOOP('',(#408));
#837=EDGE_LOOP('',(#409,#410,#411,#412,#413,#414));
#838=EDGE_LOOP('',(#415,#416,#417,#418));
#839=EDGE_LOOP('',(#419,#420,#421,#422));
#840=EDGE_LOOP('',(#423));
#841=EDGE_LOOP('',(#424));
#842=EDGE_LOOP('',(#425,#426,#427,#428));
#843=EDGE_LOOP('',(#429));
#844=EDGE_LOOP('',(#430));
#845=EDGE_LOOP('',(#431,#432,#433,#434));
#846=EDGE_LOOP('',(#435,#436,#437,#438));
#847=EDGE_LOOP('',(#439,#440,#441,#442));
#848=EDGE_LOOP('',(#443,#444,#445,#446));
#849=EDGE_LOOP('',(#447,#448,#449,#450));
#850=EDGE_LOOP('',(#451,#452,#453,#454));
#851=EDGE_LOOP('',(#455,#456,#457,#458,#459));
#852=EDGE_LOOP('',(#460,#461,#462,#463));
#853=EDGE_LOOP('',(#464,#465,#466,#467,#468,#469));
#854=EDGE_LOOP('',(#470));
#855=EDGE_LOOP('',(#471,#472,#473,#474));
#856=EDGE_LOOP('',(#475,#476,#477,#478));
#857=EDGE_LOOP('',(#479,#480,#481,#482));
#858=EDGE_LOOP('',(#483,#484,#485,#486));
#859=EDGE_LOOP('',(#487,#488,#489,#490));
#860=EDGE_LOOP('',(#491,#492,#493,#494));
#861=EDGE_LOOP('',(#495,#496,#497,#498));
#862=EDGE_LOOP('',(#499));
#863=EDGE_LOOP('',(#500));
#864=EDGE_LOOP('',(#501));
#865=EDGE_LOOP('',(#502));
#866=EDGE_LOOP('',(#503,#504,#505,#506));
#867=EDGE_LOOP('',(#507,#508,#509,#510));
#868=EDGE_LOOP('',(#511,#512,#513,#514));
#869=EDGE_LOOP('',(#515,#516,#517,#518));
#870=EDGE_LOOP('',(#519,#520,#521,#522));
#871=FACE_BOUND('',#807,.T.);
#872=FACE_BOUND('',#808,.T.);
#873=FACE_BOUND('',#809,.T.);
#874=FACE_BOUND('',#810,.T.);
#875=FACE_BOUND('',#811,.T.);
#876=FACE_BOUND('',#812,.T.);
#877=FACE_BOUND('',#813,.T.);
#878=FACE_BOUND('',#814,.T.);
#879=FACE_BOUND('',#815,.T.);
#880=FACE_BOUND('',#816,.T.);
#881=FACE_BOUND('',#817,.T.);
#882=FACE_BOUND('',#818,.T.);
#883=FACE_BOUND('',#819,.T.);
#884=FACE_BOUND('',#820,.T.);
#885=FACE_BOUND('',#821,.T.);
#886=FACE_BOUND('',#822,.T.);
#887=FACE_BOUND('',#823,.T.);
#888=FACE_BOUND('',#824,.T.);
#889=FACE_BOUND('',#825,.T.);
#890=FACE_BOUND('',#826,.T.);
#891=FACE_BOUND('',#827,.T.);
#892=FACE_BOUND('',#828,.T.);
#893=FACE_BOUND('',#829,.T.);
#894=FACE_BOUND('',#830,.T.);
#895=FACE_BOUND('',#831,.T.);
#896=FACE_BOUND('',#832,.T.);
#897=FACE_BOUND('',#833,.T.);
#898=FACE_BOUND('',#834,.T.);
#899=FACE_BOUND('',#835,.T.);
#900=FACE_BOUND('',#836,.T.);
#901=FACE_BOUND('',#837,.T.);
#902=FACE_BOUND('',#838,.T.);
#903=FACE_BOUND('',#839,.T.);
#904=FACE_BOUND('',#840,.T.);
#905=FACE_BOUND('',#841,.T.);
#906=FACE_BOUND('',#842,.T.);
#907=FACE_BOUND('',#843,.T.);
#908=FACE_BOUND('',#844,.T.);
#909=FACE_BOUND('',#845,.T.);
#910=FACE_BOUND('',#846,.T.);
#911=FACE_BOUND('',#847,.T.);
#912=FACE_BOUND('',#848,.T.);
#913=FACE_BOUND('',#849,.T.);
#914=FACE_BOUND('',#850,.T.);
#915=FACE_BOUND('',#851,.T.);
#916=FACE_BOUND('',#852,.T.);
#917=FACE_BOUND('',#853,.T.);
#918=FACE_BOUND('',#854,.T.);
#919=FACE_BOUND('',#855,.T.);
#920=FACE_BOUND('',#856,.T.);
#921=FACE_BOUND('',#857,.T.);
#922=FACE_BOUND('',#858,.T.);
#923=FACE_BOUND('',#859,.T.);
#924=FACE_BOUND('',#860,.T.);
#925=FACE_BOUND('',#861,.T.);
#926=FACE_BOUND('',#862,.T.);
#927=FACE_BOUND('',#863,.T.);
#928=FACE_BOUND('',#864,.T.);
#929=FACE_BOUND('',#865,.T.);
#930=FACE_BOUND('',#866,.T.);
#931=FACE_BOUND('',#867,.T.);
#932=FACE_BOUND('',#868,.T.);
#933=FACE_BOUND('',#869,.T.);
#934=FACE_BOUND('',#870,.T.);
#935=PLANE('',#1025);
#936=PLANE('',#1034);
#937=PLANE('',#1035);
#938=PLANE('',#1040);
#939=PLANE('',#1047);
#940=PLANE('',#1049);
#941=PLANE('',#1051);
#942=PLANE('',#1053);
#943=PLANE('',#1055);
#944=PLANE('',#1061);
#945=PLANE('',#1064);
#946=PLANE('',#1067);
#947=PLANE('',#1069);
#948=PLANE('',#1071);
#949=PLANE('',#1075);
#950=PLANE('',#1079);
#951=PLANE('',#1083);
#952=PLANE('',#1084);
#953=PLANE('',#1085);
#954=PLANE('',#1087);
#955=PLANE('',#1092);
#956=PLANE('',#1094);
#957=PLANE('',#1095);
#958=PLANE('',#1100);
#959=PLANE('',#1101);
#960=PLANE('',#1102);
#961=PLANE('',#1103);
#962=ADVANCED_FACE('',(#871,#872,#873),#935,.T.);
#963=ADVANCED_FACE('',(#874),#936,.T.);
#964=ADVANCED_FACE('',(#875,#876),#937,.T.);
#965=ADVANCED_FACE('',(#877,#878,#879),#938,.F.);
#966=ADVANCED_FACE('',(#880),#939,.T.);
#967=ADVANCED_FACE('',(#881),#940,.T.);
#968=ADVANCED_FACE('',(#882),#941,.T.);
#969=ADVANCED_FACE('',(#883),#942,.T.);
#970=ADVANCED_FACE('',(#884),#943,.F.);
#971=ADVANCED_FACE('',(#885),#16,.T.);
#972=ADVANCED_FACE('',(#886),#944,.T.);
#973=ADVANCED_FACE('',(#887),#945,.T.);
#974=ADVANCED_FACE('',(#888),#946,.T.);
#975=ADVANCED_FACE('',(#889),#947,.T.);
#976=ADVANCED_FACE('',(#890),#948,.T.);
#977=ADVANCED_FACE('',(#891),#17,.T.);
#978=ADVANCED_FACE('',(#892,#893),#949,.T.);
#979=ADVANCED_FACE('',(#894,#895),#950,.F.);
#980=ADVANCED_FACE('',(#896),#951,.F.);
#981=ADVANCED_FACE('',(#897),#952,.T.);
#982=ADVANCED_FACE('',(#898,#899),#953,.F.);
#983=ADVANCED_FACE('',(#900,#901),#954,.F.);
#984=ADVANCED_FACE('',(#902),#18,.F.);
#985=ADVANCED_FACE('',(#903),#19,.F.);
#986=ADVANCED_FACE('',(#904,#905),#20,.F.);
#987=ADVANCED_FACE('',(#906),#955,.F.);
#988=ADVANCED_FACE('',(#907,#908),#21,.F.);
#989=ADVANCED_FACE('',(#909),#956,.T.);
#990=ADVANCED_FACE('',(#910),#957,.T.);
#991=ADVANCED_FACE('',(#911),#22,.F.);
#992=ADVANCED_FACE('',(#912),#23,.F.);
#993=ADVANCED_FACE('',(#913),#24,.F.);
#994=ADVANCED_FACE('',(#914),#25,.F.);
#995=ADVANCED_FACE('',(#915),#958,.T.);
#996=ADVANCED_FACE('',(#916),#959,.T.);
#997=ADVANCED_FACE('',(#917),#960,.T.);
#998=ADVANCED_FACE('',(#918,#919),#961,.F.);
#999=ADVANCED_FACE('',(#920),#26,.T.);
#1000=ADVANCED_FACE('',(#921),#27,.T.);
#1001=ADVANCED_FACE('',(#922),#28,.F.);
#1002=ADVANCED_FACE('',(#923),#29,.F.);
#1003=ADVANCED_FACE('',(#924),#30,.F.);
#1004=ADVANCED_FACE('',(#925),#31,.F.);
#1005=ADVANCED_FACE('',(#926,#927),#32,.F.);
#1006=ADVANCED_FACE('',(#928,#929),#33,.F.);
#1007=ADVANCED_FACE('',(#930),#34,.F.);
#1008=ADVANCED_FACE('',(#931),#35,.F.);
#1009=ADVANCED_FACE('',(#932),#36,.T.);
#1010=ADVANCED_FACE('',(#933),#37,.T.);
#1011=ADVANCED_FACE('',(#934),#38,.T.);
#1012=CLOSED_SHELL('',(#962,#963,#964,#965,#966,#967,#968,#969,#970,#971,
#972,#973,#974,#975,#976,#977,#978,#979,#980,#981,#982,#983,#984,#985,#986,
#987,#988,#989,#990,#991,#992,#993,#994,#995,#996,#997,#998,#999,#1000,
#1001,#1002,#1003,#1004,#1005,#1006,#1007,#1008,#1009,#1010,#1011));
#1013=STYLED_ITEM('',(#1014),#1021);
#1014=PRESENTATION_STYLE_ASSIGNMENT((#1015));
#1015=SURFACE_STYLE_USAGE(.BOTH.,#1016);
#1016=SURFACE_SIDE_STYLE('',(#1017));
#1017=SURFACE_STYLE_FILL_AREA(#1018);
#1018=FILL_AREA_STYLE('',(#1019));
#1019=FILL_AREA_STYLE_COLOUR('',#1020);
#1020=COLOUR_RGB('',0.917647058823529,0.917647058823529,0.917647058823529);
#1021=MANIFOLD_SOLID_BREP('Part 11',#1012);
#1022=SHAPE_DEFINITION_REPRESENTATION(#1712,#1023);
#1023=SHAPE_REPRESENTATION('Part 11',(#1024),#1707);
#1024=AXIS2_PLACEMENT_3D('',#1413,#1121,#1122);
#1025=AXIS2_PLACEMENT_3D('',#1414,#1123,#1124);
#1026=AXIS2_PLACEMENT_3D('',#1415,#1125,#1126);
#1027=AXIS2_PLACEMENT_3D('',#1417,#1127,#1128);
#1028=AXIS2_PLACEMENT_3D('',#1424,#1131,#1132);
#1029=AXIS2_PLACEMENT_3D('',#1426,#1133,#1134);
#1030=AXIS2_PLACEMENT_3D('',#1428,#1135,#1136);
#1031=AXIS2_PLACEMENT_3D('',#1440,#1142,#1143);
#1032=AXIS2_PLACEMENT_3D('',#1442,#1144,#1145);
#1033=AXIS2_PLACEMENT_3D('',#1444,#1146,#1147);
#1034=AXIS2_PLACEMENT_3D('',#1457,#1154,#1155);
#1035=AXIS2_PLACEMENT_3D('',#1463,#1159,#1160);
#1036=AXIS2_PLACEMENT_3D('',#1464,#1161,#1162);
#1037=AXIS2_PLACEMENT_3D('',#1469,#1164,#1165);
#1038=AXIS2_PLACEMENT_3D('',#1471,#1166,#1167);
#1039=AXIS2_PLACEMENT_3D('',#1473,#1168,#1169);
#1040=AXIS2_PLACEMENT_3D('',#1474,#1170,#1171);
#1041=AXIS2_PLACEMENT_3D('',#1478,#1173,#1174);
#1042=AXIS2_PLACEMENT_3D('',#1482,#1176,#1177);
#1043=AXIS2_PLACEMENT_3D('',#1486,#1179,#1180);
#1044=AXIS2_PLACEMENT_3D('',#1490,#1182,#1183);
#1045=AXIS2_PLACEMENT_3D('',#1501,#1189,#1190);
#1046=AXIS2_PLACEMENT_3D('',#1505,#1192,#1193);
#1047=AXIS2_PLACEMENT_3D('',#1508,#1195,#1196);
#1048=AXIS2_PLACEMENT_3D('',#1513,#1199,#1200);
#1049=AXIS2_PLACEMENT_3D('',#1520,#1205,#1206);
#1050=AXIS2_PLACEMENT_3D('',#1526,#1209,#1210);
#1051=AXIS2_PLACEMENT_3D('',#1527,#1211,#1212);
#1052=AXIS2_PLACEMENT_3D('',#1528,#1213,#1214);
#1053=AXIS2_PLACEMENT_3D('',#1534,#1217,#1218);
#1054=AXIS2_PLACEMENT_3D('',#1535,#1219,#1220);
#1055=AXIS2_PLACEMENT_3D('',#1546,#1226,#1227);
#1056=AXIS2_PLACEMENT_3D('',#1549,#1229,#1230);
#1057=AXIS2_PLACEMENT_3D('',#1554,#1233,#1234);
#1058=AXIS2_PLACEMENT_3D('',#1557,#1236,#1237);
#1059=AXIS2_PLACEMENT_3D('',#1566,#1243,#1244);
#1060=AXIS2_PLACEMENT_3D('',#1567,#1245,#1246);
#1061=AXIS2_PLACEMENT_3D('',#1572,#1249,#1250);
#1062=AXIS2_PLACEMENT_3D('',#1576,#1252,#1253);
#1063=AXIS2_PLACEMENT_3D('',#1581,#1256,#1257);
#1064=AXIS2_PLACEMENT_3D('',#1582,#1258,#1259);
#1065=AXIS2_PLACEMENT_3D('',#1585,#1261,#1262);
#1066=AXIS2_PLACEMENT_3D('',#1596,#1270,#1271);
#1067=AXIS2_PLACEMENT_3D('',#1597,#1272,#1273);
#1068=AXIS2_PLACEMENT_3D('',#1601,#1275,#1276);
#1069=AXIS2_PLACEMENT_3D('',#1609,#1281,#1282);
#1070=AXIS2_PLACEMENT_3D('',#1616,#1287,#1288);
#1071=AXIS2_PLACEMENT_3D('',#1617,#1289,#1290);
#1072=AXIS2_PLACEMENT_3D('',#1618,#1291,#1292);
#1073=AXIS2_PLACEMENT_3D('',#1622,#1294,#1295);
#1074=AXIS2_PLACEMENT_3D('',#1626,#1297,#1298);
#1075=AXIS2_PLACEMENT_3D('',#1627,#1299,#1300);
#1076=AXIS2_PLACEMENT_3D('',#1628,#1301,#1302);
#1077=AXIS2_PLACEMENT_3D('',#1632,#1304,#1305);
#1078=AXIS2_PLACEMENT_3D('',#1634,#1307,#1308);
#1079=AXIS2_PLACEMENT_3D('',#1637,#1310,#1311);
#1080=AXIS2_PLACEMENT_3D('',#1638,#1312,#1313);
#1081=AXIS2_PLACEMENT_3D('',#1642,#1315,#1316);
#1082=AXIS2_PLACEMENT_3D('',#1644,#1318,#1319);
#1083=AXIS2_PLACEMENT_3D('',#1647,#1321,#1322);
#1084=AXIS2_PLACEMENT_3D('',#1649,#1324,#1325);
#1085=AXIS2_PLACEMENT_3D('',#1651,#1327,#1328);
#1086=AXIS2_PLACEMENT_3D('',#1654,#1331,#1332);
#1087=AXIS2_PLACEMENT_3D('',#1656,#1333,#1334);
#1088=AXIS2_PLACEMENT_3D('',#1657,#1335,#1336);
#1089=AXIS2_PLACEMENT_3D('',#1659,#1337,#1338);
#1090=AXIS2_PLACEMENT_3D('',#1660,#1339,#1340);
#1091=AXIS2_PLACEMENT_3D('',#1661,#1341,#1342);
#1092=AXIS2_PLACEMENT_3D('',#1662,#1343,#1344);
#1093=AXIS2_PLACEMENT_3D('',#1665,#1347,#1348);
#1094=AXIS2_PLACEMENT_3D('',#1666,#1349,#1350);
#1095=AXIS2_PLACEMENT_3D('',#1667,#1351,#1352);
#1096=AXIS2_PLACEMENT_3D('',#1671,#1356,#1357);
#1097=AXIS2_PLACEMENT_3D('',#1672,#1358,#1359);
#1098=AXIS2_PLACEMENT_3D('',#1673,#1360,#1361);
#1099=AXIS2_PLACEMENT_3D('',#1674,#1362,#1363);
#1100=AXIS2_PLACEMENT_3D('',#1675,#1364,#1365);
#1101=AXIS2_PLACEMENT_3D('',#1677,#1367,#1368);
#1102=AXIS2_PLACEMENT_3D('',#1679,#1370,#1371);
#1103=AXIS2_PLACEMENT_3D('',#1681,#1373,#1374);
#1104=AXIS2_PLACEMENT_3D('',#1682,#1375,#1376);
#1105=AXIS2_PLACEMENT_3D('',#1684,#1377,#1378);
#1106=AXIS2_PLACEMENT_3D('',#1686,#1379,#1380);
#1107=AXIS2_PLACEMENT_3D('',#1688,#1381,#1382);
#1108=AXIS2_PLACEMENT_3D('',#1689,#1383,#1384);
#1109=AXIS2_PLACEMENT_3D('',#1692,#1387,#1388);
#1110=AXIS2_PLACEMENT_3D('',#1695,#1391,#1392);
#1111=AXIS2_PLACEMENT_3D('',#1696,#1393,#1394);
#1112=AXIS2_PLACEMENT_3D('',#1697,#1395,#1396);
#1113=AXIS2_PLACEMENT_3D('',#1698,#1397,#1398);
#1114=AXIS2_PLACEMENT_3D('',#1699,#1399,#1400);
#1115=AXIS2_PLACEMENT_3D('',#1700,#1401,#1402);
#1116=AXIS2_PLACEMENT_3D('',#1701,#1403,#1404);
#1117=AXIS2_PLACEMENT_3D('',#1702,#1405,#1406);
#1118=AXIS2_PLACEMENT_3D('',#1703,#1407,#1408);
#1119=AXIS2_PLACEMENT_3D('',#1704,#1409,#1410);
#1120=AXIS2_PLACEMENT_3D('',#1705,#1411,#1412);
#1121=DIRECTION('',(0.,0.,1.));
#1122=DIRECTION('',(1.,0.,0.));
#1123=DIRECTION('',(-1.09569007907395E-18,1.29300627454592E-33,-1.));
#1124=DIRECTION('',(-1.,0.,1.09569007907395E-18));
#1125=DIRECTION('',(-1.09569007907395E-18,1.29300627454592E-33,-1.));
#1126=DIRECTION('',(-1.,0.,1.09569007907395E-18));
#1127=DIRECTION('',(-1.09569007907395E-18,1.29300627454592E-33,-1.));
#1128=DIRECTION('',(-1.,0.,1.09569007907395E-18));
#1129=DIRECTION('',(1.45173804189046E-9,1.,2.33549744054136E-43));
#1130=DIRECTION('',(1.,-1.45173842225079E-9,-1.09569007907395E-18));
#1131=DIRECTION('',(-1.09569007907395E-18,1.29300627454592E-33,-1.));
#1132=DIRECTION('',(-1.,0.,1.09569007907395E-18));
#1133=DIRECTION('',(-1.09569007907395E-18,1.29300627454592E-33,-1.));
#1134=DIRECTION('',(-1.,0.,1.09569007907395E-18));
#1135=DIRECTION('',(-1.09569007907395E-18,1.29300627454592E-33,-1.));
#1136=DIRECTION('',(-1.,0.,1.09569007907395E-18));
#1137=DIRECTION('',(1.,-1.45173721029826E-9,-1.09569007907395E-18));
#1138=DIRECTION('',(1.45173804189047E-9,1.,-1.59065367690735E-27));
#1139=DIRECTION('',(1.49549650441116E-10,-1.,-9.50718739521031E-21));
#1140=DIRECTION('',(1.45173804189047E-9,1.,-1.59065367690735E-27));
#1141=DIRECTION('',(-1.,1.45173804189046E-9,1.09569007907395E-18));
#1142=DIRECTION('',(-1.09569007907395E-18,1.29300627454592E-33,-1.));
#1143=DIRECTION('',(-1.,0.,1.09569007907395E-18));
#1144=DIRECTION('',(-1.09569007907395E-18,1.29300627454592E-33,-1.));
#1145=DIRECTION('',(-1.,0.,1.09569007907395E-18));
#1146=DIRECTION('',(-1.09569007907395E-18,1.29300627454592E-33,-1.));
#1147=DIRECTION('',(-1.,0.,1.09569007907395E-18));
#1148=DIRECTION('',(-1.,1.45173804189046E-9,1.09569007907395E-18));
#1149=DIRECTION('',(1.,0.,1.03685525752221E-16));
#1150=DIRECTION('',(-1.45173804189046E-9,-1.,2.33549744054136E-43));
#1151=DIRECTION('',(1.,-1.45173804189046E-9,-1.09569007907395E-18));
#1152=DIRECTION('',(-1.45173804189046E-9,-1.,-2.33549744054136E-43));
#1153=DIRECTION('',(1.,-1.45173804189046E-9,-1.09569007907395E-18));
#1154=DIRECTION('',(-0.996194698091746,1.44621374034937E-9,0.0871557427476581));
#1155=DIRECTION('',(0.0871557427476581,0.,0.996194698091746));
#1156=DIRECTION('',(0.0871557427476581,-1.26527307315994E-10,0.996194698091746));
#1157=DIRECTION('',(1.45173804189047E-9,1.,2.38704960939413E-24));
#1158=DIRECTION('',(0.0871557427476581,-1.26527307315994E-10,0.996194698091746));
#1159=DIRECTION('',(-1.03685525752221E-16,1.50524222127913E-25,1.));
#1160=DIRECTION('',(1.,0.,1.03685525752221E-16));
#1161=DIRECTION('',(-1.03685525752221E-16,1.50524222127913E-25,1.));
#1162=DIRECTION('',(1.,0.,1.03685525752221E-16));
#1163=DIRECTION('',(1.,-1.45173804189046E-9,1.03685525752221E-16));
#1164=DIRECTION('',(-1.03685525752221E-16,1.50524222127913E-25,1.));
#1165=DIRECTION('',(1.,0.,1.03685525752221E-16));
#1166=DIRECTION('',(-1.03685525752221E-16,1.50524222127913E-25,1.));
#1167=DIRECTION('',(1.,0.,1.03685525752221E-16));
#1168=DIRECTION('',(-1.03685525752221E-16,1.50524222127913E-25,1.));
#1169=DIRECTION('',(1.,0.,1.03685525752221E-16));
#1170=DIRECTION('',(-1.,1.45173804189047E-9,1.09569007907395E-18));
#1171=DIRECTION('',(-1.45173804189047E-9,-1.,1.59065496991362E-27));
#1172=DIRECTION('',(-1.09569007907395E-18,1.59065496991362E-27,-1.));
#1173=DIRECTION('',(-1.,1.45173804189047E-9,1.09569007907395E-18));
#1174=DIRECTION('',(-1.45173804189047E-9,-1.,0.));
#1175=DIRECTION('',(1.49549650441116E-10,-1.,1.08019432292003E-25));
#1176=DIRECTION('',(-1.,1.45173804189047E-9,1.09569007907395E-18));
#1177=DIRECTION('',(-1.45173804189047E-9,-1.,0.));
#1178=DIRECTION('',(-1.09569007907395E-18,1.59065496991362E-27,-1.));
#1179=DIRECTION('',(-1.,1.45173804189047E-9,1.09569007907395E-18));
#1180=DIRECTION('',(-1.45173804189047E-9,-1.,0.));
#1181=DIRECTION('',(1.45173804189047E-9,1.,-9.38331059958425E-35));
#1182=DIRECTION('',(-1.,1.45173804189047E-9,1.09569007907395E-18));
#1183=DIRECTION('',(-1.45173804189047E-9,-1.,0.));
#1184=DIRECTION('',(-1.09569007907395E-18,1.59065496991362E-27,-1.));
#1185=DIRECTION('',(-1.45173804189046E-9,-1.,-2.33549744054136E-43));
#1186=DIRECTION('',(-1.09569007907395E-18,1.59065496991362E-27,-1.));
#1187=DIRECTION('',(-1.45173804189047E-9,-1.,-7.54743493333139E-10));
#1188=DIRECTION('',(1.09569007907395E-18,-1.59065496991362E-27,1.));
#1189=DIRECTION('',(-1.,1.45173804189047E-9,1.09569007907395E-18));
#1190=DIRECTION('',(-1.45173804189047E-9,-1.,0.));
#1191=DIRECTION('',(-1.45173804189047E-9,-1.,0.));
#1192=DIRECTION('',(-1.,1.45173804189047E-9,1.09569007907395E-18));
#1193=DIRECTION('',(-1.45173804189047E-9,-1.,0.));
#1194=DIRECTION('',(-1.09569007907395E-18,1.59065496991362E-27,-1.));
#1195=DIRECTION('',(-1.45173804189046E-9,-1.,-2.33549744054136E-43));
#1196=DIRECTION('',(1.,-1.45173804189046E-9,0.));
#1197=DIRECTION('',(-1.,1.45173804189046E-9,0.));
#1198=DIRECTION('',(-1.09569007907395E-18,1.59065496991362E-27,-1.));
#1199=DIRECTION('',(-1.45173804189046E-9,-1.,-2.33549744054136E-43));
#1200=DIRECTION('',(1.,-1.45173804189046E-9,0.));
#1201=DIRECTION('',(0.0871557427476581,-1.26527307315994E-10,0.996194698091746));
#1202=DIRECTION('',(-0.0871557427476581,-1.49951432018211E-25,-0.996194698091746));
#1203=DIRECTION('',(-1.03685525752221E-16,1.50524222127913E-25,1.));
#1204=DIRECTION('',(-1.03685525752221E-16,1.50524222127913E-25,1.));
#1205=DIRECTION('',(-1.,-1.49549650441116E-10,6.35721648525763E-11));
#1206=DIRECTION('',(1.49549650441116E-10,-1.,-9.50719503148781E-21));
#1207=DIRECTION('',(-6.35721648525763E-11,9.22901301218169E-20,-1.));
#1208=DIRECTION('',(-1.45173804189046E-9,-1.,-2.33549744054136E-43));
#1209=DIRECTION('',(-1.,-1.49549650441116E-10,6.35721648525763E-11));
#1210=DIRECTION('',(1.49549650441116E-10,-1.,0.));
#1211=DIRECTION('',(-1.,-1.49549650441116E-10,6.35721648525763E-11));
#1212=DIRECTION('',(1.49549650441116E-10,-1.,-9.50719503148781E-21));
#1213=DIRECTION('',(-1.,-1.49549650441116E-10,6.35721648525763E-11));
#1214=DIRECTION('',(1.49549650441116E-10,-1.,0.));
#1215=DIRECTION('',(-1.45173804189046E-9,-1.,-2.33549744054136E-43));
#1216=DIRECTION('',(-6.35721648525763E-11,8.36283597981577E-26,-1.));
#1217=DIRECTION('',(-1.,1.45173804189047E-9,1.09569007907395E-18));
#1218=DIRECTION('',(-1.45173804189047E-9,-1.,1.59065496991362E-27));
#1219=DIRECTION('',(-1.,1.45173804189047E-9,1.09569007907395E-18));
#1220=DIRECTION('',(-1.45173804189047E-9,-1.,0.));
#1221=DIRECTION('',(0.,1.,0.));
#1222=DIRECTION('',(1.09569007907395E-18,0.,1.));
#1223=DIRECTION('',(0.,1.,0.));
#1224=DIRECTION('',(-1.09569007907395E-18,1.59065496991362E-27,-1.));
#1225=DIRECTION('',(-1.45173804189047E-9,-1.,-2.38053429667665E-24));
#1226=DIRECTION('',(-1.45173804189046E-9,-1.,-2.33549744054136E-43));
#1227=DIRECTION('',(1.,-1.45173804189046E-9,0.));
#1228=DIRECTION('',(-0.842076127895695,1.222473949034E-9,-0.539358688470106));
#1229=DIRECTION('',(-1.45173804189046E-9,-1.,-2.33549744054136E-43));
#1230=DIRECTION('',(1.,-1.45173804189046E-9,0.));
#1231=DIRECTION('',(-0.0871557427476587,1.26527307315995E-10,-0.996194698091746));
#1232=DIRECTION('',(0.0871557427476581,-1.26527307315994E-10,0.996194698091746));
#1233=DIRECTION('',(-1.45173804189046E-9,-1.,-2.33549744054136E-43));
#1234=DIRECTION('',(1.,-1.45173804189046E-9,0.));
#1235=DIRECTION('',(1.,-1.45173804189046E-9,1.4462171898862E-9));
#1236=DIRECTION('',(-1.45173804189046E-9,-1.,-2.33549744054136E-43));
#1237=DIRECTION('',(1.,-1.45173804189046E-9,0.));
#1238=DIRECTION('',(0.800932529106099,-1.16274422149087E-9,0.59875461068764));
#1239=DIRECTION('',(1.,-1.45173804189047E-9,-1.09569007907395E-18));
#1240=DIRECTION('',(-1.09569007907395E-18,1.59065496991362E-27,-1.));
#1241=DIRECTION('',(-1.,1.45173804189046E-9,1.09569007907395E-18));
#1242=DIRECTION('',(1.,-1.45173804189046E-9,-6.35721648525763E-11));
#1243=DIRECTION('',(1.45173804189047E-9,1.,2.09952851139373E-18));
#1244=DIRECTION('',(-1.,1.45173804189047E-9,0.));
#1245=DIRECTION('',(-1.45173804189046E-9,-1.,0.));
#1246=DIRECTION('',(1.,-1.45173804189046E-9,0.));
#1247=DIRECTION('',(-1.45173804189046E-9,-1.,-2.33549744054136E-43));
#1248=DIRECTION('',(1.45173804189047E-9,1.,2.09952851139373E-18));
#1249=DIRECTION('',(-1.,1.45173804189047E-9,1.09569007907395E-18));
#1250=DIRECTION('',(-1.45173804189047E-9,-1.,1.59065496991362E-27));
#1251=DIRECTION('',(1.45173804189047E-9,1.,-9.38331059233853E-35));
#1252=DIRECTION('',(-1.,1.45173804189047E-9,1.09569007907395E-18));
#1253=DIRECTION('',(-1.45173804189047E-9,-1.,0.));
#1254=DIRECTION('',(-1.45173804189047E-9,-1.,-7.54743493333139E-10));
#1255=DIRECTION('',(-1.09569007907395E-18,1.59065496991362E-27,-1.));
#1256=DIRECTION('',(-1.,1.45173804189047E-9,1.09569007907395E-18));
#1257=DIRECTION('',(-1.45173804189047E-9,-1.,0.));
#1258=DIRECTION('',(-1.45173804189046E-9,-1.,0.));
#1259=DIRECTION('',(1.,-1.45173804189046E-9,0.));
#1260=DIRECTION('',(-0.0871557427476587,1.26527307315995E-10,-0.996194698091746));
#1261=DIRECTION('',(-1.45173804189046E-9,-1.,0.));
#1262=DIRECTION('',(1.,-1.45173804189046E-9,0.));
#1263=DIRECTION('',(-0.842076127895695,1.222473949034E-9,-0.539358688470106));
#1264=DIRECTION('',(1.,-1.45173804189046E-9,-6.35721648525763E-11));
#1265=DIRECTION('',(-1.,1.45173804189046E-9,1.09569007907395E-18));
#1266=DIRECTION('',(1.,-1.45173804189047E-9,-1.09569007907395E-18));
#1267=DIRECTION('',(0.800932529106099,-1.16274422149087E-9,0.59875461068764));
#1268=DIRECTION('',(-1.,1.45173804189046E-9,-1.4462171898862E-9));
#1269=DIRECTION('',(-1.09569007907395E-18,1.59065496991362E-27,-1.));
#1270=DIRECTION('',(-1.45173804189046E-9,-1.,0.));
#1271=DIRECTION('',(1.,-1.45173804189046E-9,0.));
#1272=DIRECTION('',(-1.,1.45173804189047E-9,1.09569007907395E-18));
#1273=DIRECTION('',(-1.45173804189047E-9,-1.,1.59065496991362E-27));
#1274=DIRECTION('',(0.,-1.,0.));
#1275=DIRECTION('',(-1.,1.45173804189047E-9,1.09569007907395E-18));
#1276=DIRECTION('',(-1.45173804189047E-9,-1.,0.));
#1277=DIRECTION('',(1.09569007907395E-18,-1.59065496991362E-27,1.));
#1278=DIRECTION('',(1.45173804189047E-9,1.,2.38053429667665E-24));
#1279=DIRECTION('',(0.,-1.,0.));
#1280=DIRECTION('',(-1.09569007907395E-18,0.,-1.));
#1281=DIRECTION('',(1.45173804189046E-9,1.,2.33549744054136E-43));
#1282=DIRECTION('',(-1.,1.45173804189046E-9,0.));
#1283=DIRECTION('',(-1.,1.45173804189046E-9,0.));
#1284=DIRECTION('',(-1.03685525752221E-16,1.50524222127913E-25,1.));
#1285=DIRECTION('',(1.,-1.45173804189046E-9,-5.18427628761105E-17));
#1286=DIRECTION('',(-1.03685525752221E-16,1.50524222127913E-25,1.));
#1287=DIRECTION('',(1.45173804189046E-9,1.,2.33549744054136E-43));
#1288=DIRECTION('',(-1.,1.45173804189046E-9,0.));
#1289=DIRECTION('',(2.37932928363612E-25,-7.54743493333139E-10,1.));
#1290=DIRECTION('',(0.,-1.,-7.54743493333139E-10));
#1291=DIRECTION('',(-0.0871557427476581,1.26527293570507E-10,-0.996194698091746));
#1292=DIRECTION('',(-0.996194698091746,0.,0.0871557427476581));
#1293=DIRECTION('',(-0.0871557427476604,0.,-0.996194698091745));
#1294=DIRECTION('',(0.0871557427476581,-1.26527293570507E-10,0.996194698091746));
#1295=DIRECTION('',(0.996194698091746,5.52430094095043E-12,-0.0871557427476581));
#1296=DIRECTION('',(-0.0871557427476604,0.,-0.996194698091745));
#1297=DIRECTION('',(0.0871557427476581,-1.26527293570507E-10,0.996194698091746));
#1298=DIRECTION('',(0.996194698091746,5.52430094095043E-12,-0.0871557427476581));
#1299=DIRECTION('',(0.0871557427476581,-1.26527293570507E-10,0.996194698091746));
#1300=DIRECTION('',(0.996194698091746,5.52430094095043E-12,-0.0871557427476581));
#1301=DIRECTION('',(0.0871557427476581,-1.26527293570507E-10,0.996194698091746));
#1302=DIRECTION('',(0.996194698091746,0.,-0.0871557427476581));
#1303=DIRECTION('',(0.996194698091746,0.,-0.0871557427476565));
#1304=DIRECTION('',(0.0871557427476581,-1.26527293570507E-10,0.996194698091746));
#1305=DIRECTION('',(0.996194698091746,-1.44621358323773E-9,-0.0871557427476581));
#1306=DIRECTION('',(0.,1.,0.));
#1307=DIRECTION('',(0.0871557427476581,-1.26527293570507E-10,0.996194698091746));
#1308=DIRECTION('',(-0.996194698091746,1.44621358323773E-9,0.0871557427476581));
#1309=DIRECTION('',(0.996194698091746,0.,-0.0871557427476565));
#1310=DIRECTION('',(0.0871557427476581,-1.26527293570507E-10,0.996194698091746));
#1311=DIRECTION('',(0.996194698091746,5.52430094095043E-12,-0.0871557427476581));
#1312=DIRECTION('',(0.0871557427476581,-1.26527293570507E-10,0.996194698091746));
#1313=DIRECTION('',(0.996194698091746,0.,-0.0871557427476581));
#1314=DIRECTION('',(0.996194698091746,0.,-0.0871557427476578));
#1315=DIRECTION('',(0.0871557427476581,-1.26527293570507E-10,0.996194698091746));
#1316=DIRECTION('',(0.996194698091746,-1.44621358323773E-9,-0.0871557427476581));
#1317=DIRECTION('',(0.,1.,0.));
#1318=DIRECTION('',(0.0871557427476581,-1.26527293570507E-10,0.996194698091746));
#1319=DIRECTION('',(0.996194698091746,-1.44621358323773E-9,-0.0871557427476581));
#1320=DIRECTION('',(0.996194698091746,0.,-0.0871557427476578));
#1321=DIRECTION('',(0.,-1.,0.));
#1322=DIRECTION('',(1.,0.,0.));
#1323=DIRECTION('',(-1.09569007907395E-18,0.,-1.));
#1324=DIRECTION('',(0.,-1.,0.));
#1325=DIRECTION('',(1.,0.,0.));
#1326=DIRECTION('',(1.09569007907395E-18,0.,1.));
#1327=DIRECTION('',(0.,0.,-1.));
#1328=DIRECTION('',(-1.,0.,0.));
#1329=DIRECTION('',(-1.,1.45173804189046E-9,0.));
#1330=DIRECTION('',(-1.,1.45173804189046E-9,0.));
#1331=DIRECTION('',(0.,0.,1.));
#1332=DIRECTION('',(1.,0.,0.));
#1333=DIRECTION('',(-1.4462171898862E-9,0.,1.));
#1334=DIRECTION('',(1.,0.,1.4462171898862E-9));
#1335=DIRECTION('',(-1.4462171898862E-9,0.,1.));
#1336=DIRECTION('',(1.,0.,1.4462171898862E-9));
#1337=DIRECTION('',(-1.09569007907395E-18,0.,-1.));
#1338=DIRECTION('',(-1.,0.,1.09569007907395E-18));
#1339=DIRECTION('',(-1.09569007907395E-18,0.,-1.));
#1340=DIRECTION('',(-1.,0.,1.09569007907395E-18));
#1341=DIRECTION('',(0.0871557427476581,-1.26527293570507E-10,0.996194698091746));
#1342=DIRECTION('',(0.996194698091746,0.,-0.0871557427476581));
#1343=DIRECTION('',(1.09569007907395E-18,-1.59065487608052E-27,1.));
#1344=DIRECTION('',(1.,0.,-1.09569007907395E-18));
#1345=DIRECTION('',(-1.,1.45173804189046E-9,1.09569007907395E-18));
#1346=DIRECTION('',(-1.,1.45173804189046E-9,1.09569007907395E-18));
#1347=DIRECTION('',(0.,0.,1.));
#1348=DIRECTION('',(1.,0.,0.));
#1349=DIRECTION('',(0.59875461068764,-8.69234846092562E-10,-0.800932529106099));
#1350=DIRECTION('',(-0.800932529106099,0.,-0.59875461068764));
#1351=DIRECTION('',(6.35721648525763E-11,9.50730305092011E-21,1.));
#1352=DIRECTION('',(1.,0.,-6.35721648525763E-11));
#1353=DIRECTION('',(1.49549650441116E-10,-1.,1.08019432292003E-25));
#1354=DIRECTION('',(1.,-1.45173804189046E-9,-6.35721648525763E-11));
#1355=DIRECTION('',(1.,-1.45173804189046E-9,-6.35721648525763E-11));
#1356=DIRECTION('',(1.,-1.45173804189046E-9,-1.09569007907395E-18));
#1357=DIRECTION('',(1.45173804189046E-9,1.,0.));
#1358=DIRECTION('',(1.,-1.45173804189046E-9,-6.35721648525763E-11));
#1359=DIRECTION('',(1.45173804189046E-9,1.,0.));
#1360=DIRECTION('',(-1.,1.45173804189046E-9,6.35721648525763E-11));
#1361=DIRECTION('',(-1.45173804189046E-9,-1.,0.));
#1362=DIRECTION('',(-1.,1.45173804189046E-9,1.09569007907395E-18));
#1363=DIRECTION('',(-1.45173804189046E-9,-1.,0.));
#1364=DIRECTION('',(-0.996194698091746,1.44621374034937E-9,0.0871557427476581));
#1365=DIRECTION('',(0.0871557427476581,-2.53054614631988E-10,0.996194698091746));
#1366=DIRECTION('',(-1.45173804189047E-9,-1.,-2.38704960939413E-24));
#1367=DIRECTION('',(-0.996194698091745,1.44621374034937E-9,0.0871557427476587));
#1368=DIRECTION('',(0.0871557427476587,0.,0.996194698091746));
#1369=DIRECTION('',(-1.45173804189047E-9,-1.,2.58879372529424E-26));
#1370=DIRECTION('',(-0.539358688470106,7.83007526276201E-10,0.842076127895695));
#1371=DIRECTION('',(0.842076127895695,0.,0.539358688470106));
#1372=DIRECTION('',(-1.45173804189047E-9,-1.,0.));
#1373=DIRECTION('',(-5.18427628761105E-17,7.52621110639563E-26,-1.));
#1374=DIRECTION('',(-1.,0.,5.18427628761105E-17));
#1375=DIRECTION('',(-1.03685525752221E-16,1.50524222127913E-25,1.));
#1376=DIRECTION('',(1.,0.,1.03685525752221E-16));
#1377=DIRECTION('',(-5.18427628761105E-17,7.52621110639563E-26,-1.));
#1378=DIRECTION('',(-1.,0.,5.18427628761105E-17));
#1379=DIRECTION('',(-1.03685525752221E-16,1.50524222127913E-25,1.));
#1380=DIRECTION('',(1.,0.,1.03685525752221E-16));
#1381=DIRECTION('',(-5.18427628761105E-17,7.52621110639563E-26,-1.));
#1382=DIRECTION('',(-1.,0.,5.18427628761105E-17));
#1383=DIRECTION('',(-1.03685525752221E-16,1.50524222127913E-25,1.));
#1384=DIRECTION('',(1.,0.,1.03685525752221E-16));
#1385=DIRECTION('',(-1.03685525752221E-16,1.50524222127913E-25,1.));
#1386=DIRECTION('',(-1.03685525752221E-16,1.50524222127913E-25,1.));
#1387=DIRECTION('',(-1.03685525752221E-16,1.50524222127913E-25,1.));
#1388=DIRECTION('',(1.,0.,1.03685525752221E-16));
#1389=DIRECTION('',(-1.03685525752221E-16,1.50524222127913E-25,1.));
#1390=DIRECTION('',(-1.03685525752221E-16,1.50524222127913E-25,1.));
#1391=DIRECTION('',(1.03685525752221E-16,-1.50524222127913E-25,-1.));
#1392=DIRECTION('',(-1.,0.,-1.03685525752221E-16));
#1393=DIRECTION('',(-1.03685525752221E-16,1.50524222127913E-25,1.));
#1394=DIRECTION('',(1.,0.,1.03685525752221E-16));
#1395=DIRECTION('',(-1.03685525752221E-16,1.50524222127913E-25,1.));
#1396=DIRECTION('',(1.,0.,1.03685525752221E-16));
#1397=DIRECTION('',(1.03685525752221E-16,-1.50524222127913E-25,-1.));
#1398=DIRECTION('',(-1.,0.,-1.03685525752221E-16));
#1399=DIRECTION('',(-1.03685525752221E-16,1.50524222127913E-25,1.));
#1400=DIRECTION('',(1.,0.,1.03685525752221E-16));
#1401=DIRECTION('',(-1.03685525752221E-16,1.50524222127913E-25,1.));
#1402=DIRECTION('',(1.,0.,1.03685525752221E-16));
#1403=DIRECTION('',(-1.45173804189046E-9,-1.,-2.38053429667665E-24));
#1404=DIRECTION('',(1.,-1.45173804189046E-9,0.));
#1405=DIRECTION('',(1.45173804189046E-9,1.,2.38053429667665E-24));
#1406=DIRECTION('',(-1.,1.45173804189046E-9,0.));
#1407=DIRECTION('',(-1.45173804189047E-9,-1.,0.));
#1408=DIRECTION('',(1.,-1.45173804189047E-9,0.));
#1409=DIRECTION('',(1.,-1.45173804189046E-9,0.));
#1410=DIRECTION('',(1.45173804189046E-9,1.,0.));
#1411=DIRECTION('',(1.,-1.45173804189046E-9,0.));
#1412=DIRECTION('',(1.45173804189046E-9,1.,0.));
#1413=CARTESIAN_POINT('',(0.,0.,0.));
#1414=CARTESIAN_POINT('',(-0.0905387534370386,0.035237895588437,9.92024139126856E-20));
#1415=CARTESIAN_POINT('',(-0.083006910723537,0.0706529718896647,0.));
#1416=CARTESIAN_POINT('',(-0.085106910723537,0.0706529718896647,2.30094916605529E-21));
#1417=CARTESIAN_POINT('',(-0.0830069107858384,0.0277378948700716,0.));
#1418=CARTESIAN_POINT('',(-0.0851069107858384,0.0277378948700716,2.30094916605529E-21));
#1419=CARTESIAN_POINT('',(-0.100000000057122,0.060652972651433,-1.16774872027068E-45));
#1420=CARTESIAN_POINT('',(-0.100000000057122,0.060652972651433,-1.16774872027068E-45));
#1421=CARTESIAN_POINT('',(-0.100000000049863,0.065652972650671,-8.8990051925706E-56));
#1422=CARTESIAN_POINT('',(-0.0905387533928839,0.0656529726376978,9.92024138643057E-20));
#1423=CARTESIAN_POINT('',(-0.0930069099936968,0.0656529726412809,1.01906748565417E-19));
#1424=CARTESIAN_POINT('',(-0.0930069099864382,0.0706529726412809,0.));
#1425=CARTESIAN_POINT('',(-0.0880069114606358,0.0706529719041821,0.));
#1426=CARTESIAN_POINT('',(-0.083006910723537,0.0706529718896647,0.));
#1427=CARTESIAN_POINT('',(-0.0780069099864382,0.0706529718896647,0.));
#1428=CARTESIAN_POINT('',(-0.0730069114606358,0.0706529726122461,0.));
#1429=CARTESIAN_POINT('',(-0.0730069114678945,0.0656529726122461,7.99929485992021E-20));
#1430=CARTESIAN_POINT('',(-0.0905387533928839,0.0656529726376978,9.92024138643058E-20));
#1431=CARTESIAN_POINT('',(-0.0665387533928839,0.0656529726028561,7.2905851966531E-20));
#1432=CARTESIAN_POINT('',(-0.0665387534370386,0.0352378955535953,7.29058520149108E-20));
#1433=CARTESIAN_POINT('',(-0.0665387540757339,0.0606500320103129,1.14797235584662E-19));
#1434=CARTESIAN_POINT('',(-0.0665387547496122,0.0491924934628458,1.56579718185698E-19));
#1435=CARTESIAN_POINT('',(-0.0665387547478996,0.0377408346799438,7.82354363659846E-20));
#1436=CARTESIAN_POINT('',(-0.0665387534370386,0.0352378955535953,7.29058520149108E-20));
#1437=CARTESIAN_POINT('',(-0.066538753440668,0.032737895583263,0.));
#1438=CARTESIAN_POINT('',(-0.090538753440668,0.0327378956181047,9.92024139166622E-20));
#1439=CARTESIAN_POINT('',(-0.0730069115156785,0.0327378955926531,7.99929486515586E-20));
#1440=CARTESIAN_POINT('',(-0.0730069115229372,0.0277378955926531,0.));
#1441=CARTESIAN_POINT('',(-0.0780069115229372,0.0277378948700716,0.));
#1442=CARTESIAN_POINT('',(-0.0830069107858384,0.0277378948700716,0.));
#1443=CARTESIAN_POINT('',(-0.0880069100487396,0.0277378948700716,0.));
#1444=CARTESIAN_POINT('',(-0.0930069100487396,0.0277378956216878,0.));
#1445=CARTESIAN_POINT('',(-0.0930069100414809,0.0327378956216878,1.01906748617774E-19));
#1446=CARTESIAN_POINT('',(-0.090538753440668,0.0327378956181047,9.92024139166622E-20));
#1447=CARTESIAN_POINT('',(-0.0994750681164915,0.0327378941568802,0.));
#1448=CARTESIAN_POINT('',(-0.124475068116491,0.0327378941568802,-2.59213814380552E-18));
#1449=CARTESIAN_POINT('',(-0.100000000097647,0.0327378941568802,-6.96610782813236E-18));
#1450=CARTESIAN_POINT('',(-0.100000000090388,0.0377378926834447,-1.16774872027068E-45));
#1451=CARTESIAN_POINT('',(-0.100000000090388,0.0377378926834447,-1.16774872027068E-45));
#1452=CARTESIAN_POINT('',(-0.0905387534334093,0.0377378955587694,9.92024139087089E-20));
#1453=CARTESIAN_POINT('',(-0.0863474010754609,0.0377378955526846,9.46099907122017E-20));
#1454=CARTESIAN_POINT('',(-0.0863474010421942,0.0606529755526847,9.46099907122017E-20));
#1455=CARTESIAN_POINT('',(-0.0863474010421942,0.0606529755526847,9.46099907122017E-20));
#1456=CARTESIAN_POINT('',(-0.0905387534001426,0.0606529726537036,9.9202413872259E-20));
#1457=CARTESIAN_POINT('',(-0.0911246614456612,0.0606529726385484,0.10144558453371));
#1458=CARTESIAN_POINT('',(-0.0911246614456612,0.0606529726385484,0.10144558453371));
#1459=CARTESIAN_POINT('',(-0.094344055308397,0.0606529726432221,0.0646477442994507));
#1460=CARTESIAN_POINT('',(-0.0943440553011383,0.0656529726432221,0.0646477442994507));
#1461=CARTESIAN_POINT('',(-0.0943440553011383,0.0656529726432221,0.0646477442994507));
#1462=CARTESIAN_POINT('',(-0.0911246614384025,0.0656529726385483,0.10144558453371));
#1463=CARTESIAN_POINT('',(-0.0749040651194301,0.0227378955954072,0.006));
#1464=CARTESIAN_POINT('',(-0.0830069107858384,0.0277378948700716,0.006));
#1465=CARTESIAN_POINT('',(-0.0809069107858384,0.0277378948700716,0.006));
#1466=CARTESIAN_POINT('',(-0.0749040651049127,0.0327378955954072,0.006));
#1467=CARTESIAN_POINT('',(-0.0930069100414809,0.0327378956216878,0.006));
#1468=CARTESIAN_POINT('',(-0.0730069115156785,0.0327378955926531,0.006));
#1469=CARTESIAN_POINT('',(-0.0930069100487396,0.0277378956216878,0.006));
#1470=CARTESIAN_POINT('',(-0.0880069100487396,0.0277378948700716,0.006));
#1471=CARTESIAN_POINT('',(-0.0830069107858384,0.0277378948700716,0.006));
#1472=CARTESIAN_POINT('',(-0.0780069115229372,0.0277378948700716,0.006));
#1473=CARTESIAN_POINT('',(-0.0730069115229372,0.0277378955926531,0.006));
#1474=CARTESIAN_POINT('',(-0.0665387534167759,0.0491954340930595,0.102540953404969));
#1475=CARTESIAN_POINT('',(-0.0665387534001426,0.0606529726188619,0.102540953404969));
#1476=CARTESIAN_POINT('',(-0.0665387534001426,0.0606529726188619,0.0359476270326326));
#1477=CARTESIAN_POINT('',(-0.0665387534001426,0.0606529726188619,0.0285547726218184));
#1478=CARTESIAN_POINT('',(-0.0665387534074013,0.0556529726188619,0.0285547726218184));
#1479=CARTESIAN_POINT('',(-0.0665387547490809,0.0556529726188619,0.0235547726218184));
#1480=CARTESIAN_POINT('',(-0.0665387547466206,0.0392011978379596,0.0235547726218184));
#1481=CARTESIAN_POINT('',(-0.0665387547471495,0.0427378955832629,0.0235547726218184));
#1482=CARTESIAN_POINT('',(-0.0665387534261506,0.0427378955832629,0.0285547726218184));
#1483=CARTESIAN_POINT('',(-0.0665387534334093,0.0377378955239277,0.0285547726218184));
#1484=CARTESIAN_POINT('',(-0.0665387534334093,0.0377378955239277,0.102540953404969));
#1485=CARTESIAN_POINT('',(-0.0665387534334093,0.0377378955239277,0.0359476270326326));
#1486=CARTESIAN_POINT('',(-0.0665387534261506,0.0427378955832629,0.0359476270326326));
#1487=CARTESIAN_POINT('',(-0.0665387534261506,0.0427378955832629,0.0409476270326326));
#1488=CARTESIAN_POINT('',(-0.0665387534167759,0.0491954340930595,0.0409476270326326));
#1489=CARTESIAN_POINT('',(-0.0665387534074013,0.0556529726188619,0.0409476270326326));
#1490=CARTESIAN_POINT('',(-0.0665387534074013,0.0556529726188619,0.0359476270326326));
#1491=CARTESIAN_POINT('',(-0.0665387534334093,0.037737895583263,0.192581906801291));
#1492=CARTESIAN_POINT('',(-0.0665387534334093,0.037737895583263,0.202418645613426));
#1493=CARTESIAN_POINT('',(-0.0665387534334093,0.0377378955239277,0.170882178984225));
#1494=CARTESIAN_POINT('',(-0.0665387533971158,0.062737895583263,0.202418645613426));
#1495=CARTESIAN_POINT('',(-0.0665387534001426,0.0606529726209007,0.202418645613426));
#1496=CARTESIAN_POINT('',(-0.0665387534001426,0.0606529726188619,0.0854410895007601));
#1497=CARTESIAN_POINT('',(-0.0665387534001426,0.0606529726188619,0.170882178992872));
#1498=CARTESIAN_POINT('',(-0.0665387533971158,0.0627378955239277,0.170882179003094));
#1499=CARTESIAN_POINT('',(-0.0665387533928839,0.0656529726028561,0.202581906809938));
#1500=CARTESIAN_POINT('',(-0.0665387533928839,0.0656529726028561,0.199944554181376));
#1501=CARTESIAN_POINT('',(-0.0665387533986909,0.061652972602856,0.199944554181376));
#1502=CARTESIAN_POINT('',(-0.0665387533986909,0.061652972602856,0.203944554181376));
#1503=CARTESIAN_POINT('',(-0.0665387534167759,0.0491954340930595,0.203944554181376));
#1504=CARTESIAN_POINT('',(-0.066538753434861,0.036737895583263,0.203944554181376));
#1505=CARTESIAN_POINT('',(-0.066538753434861,0.036737895583263,0.199944554181376));
#1506=CARTESIAN_POINT('',(-0.066538753440668,0.032737895583263,0.199944554181376));
#1507=CARTESIAN_POINT('',(-0.066538753440668,0.032737895583263,0.202581906809938));
#1508=CARTESIAN_POINT('',(-0.090538753440668,0.0327378956181047,0.202581906809938));
#1509=CARTESIAN_POINT('',(-0.0905387534001426,0.0327378956181047,0.199944554181376));
#1510=CARTESIAN_POINT('',(-0.090538753440668,0.0327378956181047,0.199944554181376));
#1511=CARTESIAN_POINT('',(-0.090538753440668,0.0327378956181047,0.202581906809938));
#1512=CARTESIAN_POINT('',(-0.090538753440668,0.0327378956181047,0.151803487047109));
#1513=CARTESIAN_POINT('',(-1.09053875344067,0.0327378970698428,0.151803487047109));
#1514=CARTESIAN_POINT('',(-0.0943440553489224,0.0327378926752337,0.064647744299451));
#1515=CARTESIAN_POINT('',(-0.0911246614861865,0.03273789267056,0.10144558453371));
#1516=CARTESIAN_POINT('',(-0.0994750681164915,0.0327378941568802,0.006));
#1517=CARTESIAN_POINT('',(-0.0911246614861314,0.0327378941568802,0.101445584534341));
#1518=CARTESIAN_POINT('',(-0.0930069100414809,0.0327378956216878,0.202581906809938));
#1519=CARTESIAN_POINT('',(-0.0730069115156785,0.0327378955926531,1.16774872027068E-45));
#1520=CARTESIAN_POINT('',(-0.068538754748641,0.0491924934625467,0.0152773863113891));
#1521=CARTESIAN_POINT('',(-0.0685387547458944,0.0606529726217654,0.0854410894993615));
#1522=CARTESIAN_POINT('',(-0.0685387547495108,0.0606529726217654,0.0285547726219455));
#1523=CARTESIAN_POINT('',(-0.068538754713135,0.0606529755548975,0.0235547726270737));
#1524=CARTESIAN_POINT('',(-0.068538754713135,0.0606529755548975,0.0235547726270737));
#1525=CARTESIAN_POINT('',(-0.0685387547203937,0.0556529726217654,0.0235547726270737));
#1526=CARTESIAN_POINT('',(-0.0685387547487631,0.0556529726217654,0.0285547726219455));
#1527=CARTESIAN_POINT('',(-0.068538754748641,0.0491924934625467,0.0152773863113891));
#1528=CARTESIAN_POINT('',(-0.0685387547468316,0.0427378955861664,0.0285547726219455));
#1529=CARTESIAN_POINT('',(-0.0685387547460839,0.0377378955236286,0.0285547726219455));
#1530=CARTESIAN_POINT('',(-0.068538754739143,0.0427378955861664,0.0235547726270737));
#1531=CARTESIAN_POINT('',(-0.068538754713135,0.0606529755548975,0.0235547726270737));
#1532=CARTESIAN_POINT('',(-0.0685387547464017,0.0377378955236286,0.0235547726270737));
#1533=CARTESIAN_POINT('',(-0.0685387547471504,0.0377378955236286,0.0117773863110363));
#1534=CARTESIAN_POINT('',(-0.0905387534167759,0.0491954341279012,0.102540953404969));
#1535=CARTESIAN_POINT('',(-0.090538753434861,0.0367378956181047,0.199944554181376));
#1536=CARTESIAN_POINT('',(-0.0905387534001426,0.0367378956181047,0.203944554181376));
#1537=CARTESIAN_POINT('',(-0.0905387534001426,0.00669543,0.203944554181376));
#1538=CARTESIAN_POINT('',(-0.0905387534001426,0.0381954299985483,0.203944554181376));
#1539=CARTESIAN_POINT('',(-0.0905387534327451,0.0381954299985483,0.198925454993024));
#1540=CARTESIAN_POINT('',(-0.0905387533928839,0.0381954299985483,0.198925454993024));
#1541=CARTESIAN_POINT('',(-0.0905387533928839,0.03519543,0.198925454993024));
#1542=CARTESIAN_POINT('',(-0.0905387533928839,0.0377378956006838,0.198925454993024));
#1543=CARTESIAN_POINT('',(-0.0905387534334093,0.0377378956181047,0.192581906801291));
#1544=CARTESIAN_POINT('',(-0.0905387534334093,0.0377378956181047,0.151803487047109));
#1545=CARTESIAN_POINT('',(-0.090538753440668,0.0327378926697094,0.151803487047109));
#1546=CARTESIAN_POINT('',(-0.0905387534334093,0.0377378956181047,0.192581906801291));
#1547=CARTESIAN_POINT('',(-0.076880118608326,0.0377378955982759,0.0182120406298348));
#1548=CARTESIAN_POINT('',(-0.0843935067756175,0.0377378956091834,0.0133996358440538));
#1549=CARTESIAN_POINT('',(-0.0833147893986773,0.0377378956076174,0.0117154835882624));
#1550=CARTESIAN_POINT('',(-0.0853071787948607,0.0377378956105098,0.0118897950737578));
#1551=CARTESIAN_POINT('',(-0.0862145239610367,0.037737895611827,0.00151879236770879));
#1552=CARTESIAN_POINT('',(-0.0911246614789279,0.03773789267056,0.10144558453371));
#1553=CARTESIAN_POINT('',(-0.0943440553416637,0.0377378926752338,0.064647744299451));
#1554=CARTESIAN_POINT('',(-1.09053875343341,0.0377378970698427,0.151803487047109));
#1555=CARTESIAN_POINT('',(-0.0905387534425834,0.0377378956181047,0.198925454993024));
#1556=CARTESIAN_POINT('',(-0.0735387534232858,0.0377378955934251,0.19892545501761));
#1557=CARTESIAN_POINT('',(-0.0735387534334093,0.0377378955934251,0.20592545501761));
#1558=CARTESIAN_POINT('',(-0.0693474711586492,0.0377378955873405,0.200318927313827));
#1559=CARTESIAN_POINT('',(-0.0679431122960026,0.0377378955853017,0.201368786463646));
#1560=CARTESIAN_POINT('',(-0.0685387534334093,0.0377378955268311,0.170882178984225));
#1561=CARTESIAN_POINT('',(-0.0685387534334093,0.0377378955268311,0.170882178984225));
#1562=CARTESIAN_POINT('',(-0.0685387534334093,0.0377378955268311,0.0854410894921126));
#1563=CARTESIAN_POINT('',(-0.0685387534334093,0.0377378955861664,0.0359476270326326));
#1564=CARTESIAN_POINT('',(-0.0665387534167759,0.037737895583263,0.0359476270326326));
#1565=CARTESIAN_POINT('',(-0.0905387534438368,0.0377378956181047,0.0285547726233441));
#1566=CARTESIAN_POINT('',(-0.073538753416776,0.0491954341032217,0.20592545501761));
#1567=CARTESIAN_POINT('',(-0.0735387534001426,0.0606529726290241,0.20592545501761));
#1568=CARTESIAN_POINT('',(-0.0693474711252758,0.0606529726229394,0.200318927313907));
#1569=CARTESIAN_POINT('',(-0.0735387533900191,0.0606529726290241,0.19892545501761));
#1570=CARTESIAN_POINT('',(-0.0693474711223024,0.0627378955873405,0.200318927313867));
#1571=CARTESIAN_POINT('',(-0.0735387534211698,0.0391954300101622,0.19892545501761));
#1572=CARTESIAN_POINT('',(-0.0685387534167759,0.049195434095963,0.102540953404969));
#1573=CARTESIAN_POINT('',(-0.0685387534089585,0.0545803445231836,0.0409476270326326));
#1574=CARTESIAN_POINT('',(-0.0685387534261506,0.0427378955861664,0.0409476270326326));
#1575=CARTESIAN_POINT('',(-0.0685387534074013,0.0556529726217654,0.0409476270326326));
#1576=CARTESIAN_POINT('',(-0.0685387534261506,0.0427378955861664,0.0359476270326326));
#1577=CARTESIAN_POINT('',(-0.0685387533971158,0.0627378955268312,0.170882179003094));
#1578=CARTESIAN_POINT('',(-0.0685387534001426,0.0606529726217654,0.17088217900152));
#1579=CARTESIAN_POINT('',(-0.0685387534001426,0.0606529726217654,0.0854410895007601));
#1580=CARTESIAN_POINT('',(-0.0685387534001426,0.0606529726217654,0.0359476270326326));
#1581=CARTESIAN_POINT('',(-0.0685387534074013,0.0556529726217654,0.0359476270326326));
#1582=CARTESIAN_POINT('',(-0.0905387534001426,0.0606529726537036,0.0854410895007601));
#1583=CARTESIAN_POINT('',(-0.08621452392777,0.060652975611827,0.00151879236770879));
#1584=CARTESIAN_POINT('',(-0.0853071787615941,0.0606529756105098,0.0118897950737578));
#1585=CARTESIAN_POINT('',(-0.0833147893654106,0.0606529726432163,0.0117154835882624));
#1586=CARTESIAN_POINT('',(-0.0843935067423508,0.0606529756091834,0.0133996358440538));
#1587=CARTESIAN_POINT('',(-0.0768801185750593,0.0606529755982759,0.0182120406298348));
#1588=CARTESIAN_POINT('',(-0.0665387547495014,0.0606529726188619,0.0285547726218184));
#1589=CARTESIAN_POINT('',(-0.0905387534001426,0.0606529726537036,0.0359476270326326));
#1590=CARTESIAN_POINT('',(-0.0685387534001426,0.0606529726217654,0.17088217900152));
#1591=CARTESIAN_POINT('',(-0.138032579376252,0.0606529727226522,0.14897187402747));
#1592=CARTESIAN_POINT('',(-0.0905387535642656,0.0606529726537036,0.198925454993024));
#1593=CARTESIAN_POINT('',(-0.0905387533928839,0.0606529726362827,0.198925454993024));
#1594=CARTESIAN_POINT('',(-0.0905387534001426,0.0606529726537036,0.0854410895007601));
#1595=CARTESIAN_POINT('',(-0.0905387534001426,0.0606529726537036,0.151803487047109));
#1596=CARTESIAN_POINT('',(-1.09053875340014,0.0606529741054416,0.151803487047109));
#1597=CARTESIAN_POINT('',(-0.0905387534167759,0.0491954341279012,0.102540953404969));
#1598=CARTESIAN_POINT('',(-0.0905387534001426,0.08419543,0.203944554181376));
#1599=CARTESIAN_POINT('',(-0.0905387534001426,0.0616529726376978,0.203944554181376));
#1600=CARTESIAN_POINT('',(-0.0905387534001426,0.0601954299985483,0.203944554181376));
#1601=CARTESIAN_POINT('',(-0.0905387533986909,0.0616529726376978,0.199944554181376));
#1602=CARTESIAN_POINT('',(-0.0905387533928839,0.0656529726376978,0.199944554181376));
#1603=CARTESIAN_POINT('',(-0.0905387533928839,0.0656529726376978,0.202581906809938));
#1604=CARTESIAN_POINT('',(-0.0905387533928839,0.0656529726376978,0.151803487047109));
#1605=CARTESIAN_POINT('',(-0.0905387534001426,0.0606529726537036,0.151803487047109));
#1606=CARTESIAN_POINT('',(-0.0905387533928839,0.06419543,0.198925454993024));
#1607=CARTESIAN_POINT('',(-0.0905387533928839,0.0601954299985483,0.198925454993024));
#1608=CARTESIAN_POINT('',(-0.0905387534008068,0.0601954299985483,0.102540953404969));
#1609=CARTESIAN_POINT('',(-0.0905387533928839,0.0656529726376978,0.202581906809938));
#1610=CARTESIAN_POINT('',(-0.0665387533928839,0.0656529726028561,0.199944554181376));
#1611=CARTESIAN_POINT('',(-0.0730069114678945,0.0656529726122461,0.202581906809938));
#1612=CARTESIAN_POINT('',(-0.0730069114678945,0.0656529726122461,0.006));
#1613=CARTESIAN_POINT('',(-0.0749040650571287,0.0656529726150003,0.006));
#1614=CARTESIAN_POINT('',(-0.0930069099936968,0.0656529726412809,0.006));
#1615=CARTESIAN_POINT('',(-0.0930069099936968,0.0656529726412809,-1.16774872027068E-45));
#1616=CARTESIAN_POINT('',(-1.09053875339288,0.0656529740894358,0.151803487047109));
#1617=CARTESIAN_POINT('',(-0.0685387533971158,0.0627378955268312,0.170882179003094));
#1618=CARTESIAN_POINT('',(-0.103538753416886,0.0491954341279012,0.205081906807407));
#1619=CARTESIAN_POINT('',(-0.103756642773756,0.03919543,0.202591420063448));
#1620=CARTESIAN_POINT('',(-0.103538753416886,0.03919543,0.205081906808678));
#1621=CARTESIAN_POINT('',(-0.103974532130625,0.03919543,0.200100933318219));
#1622=CARTESIAN_POINT('',(-0.103538753416886,0.0491954341279012,0.205081906807407));
#1623=CARTESIAN_POINT('',(-0.103538753416886,0.05919543,0.205081906808678));
#1624=CARTESIAN_POINT('',(-0.103756642773756,0.05919543,0.202591420063448));
#1625=CARTESIAN_POINT('',(-0.103974532130514,0.05919543,0.200100933318209));
#1626=CARTESIAN_POINT('',(-0.103974532130625,0.0491954341285339,0.200100933316949));
#1627=CARTESIAN_POINT('',(-0.103538753416886,0.0491954341279012,0.205081906807407));
#1628=CARTESIAN_POINT('',(-0.103538753416997,0.0491954341279012,0.205081906807418));
#1629=CARTESIAN_POINT('',(-0.0965653905303544,0.0491954341279012,0.204471816608184));
#1630=CARTESIAN_POINT('',(-0.0970387534085145,0.03919543,0.204513230495027));
#1631=CARTESIAN_POINT('',(-0.0915387534327451,0.03919543,0.204032042847754));
#1632=CARTESIAN_POINT('',(-0.0915387534327451,0.03819543,0.204032042845087));
#1633=CARTESIAN_POINT('',(-0.0905387534001426,0.03919543,0.203944554181376));
#1634=CARTESIAN_POINT('',(-0.0915387534008068,0.06019543,0.204032042845087));
#1635=CARTESIAN_POINT('',(-0.0915387534008068,0.05919543,0.20403204284496));
#1636=CARTESIAN_POINT('',(-0.0970387534085145,0.05919543,0.204513230495027));
#1637=CARTESIAN_POINT('',(-0.103974532130625,0.0491954341285339,0.200100933316949));
#1638=CARTESIAN_POINT('',(-0.103974532130735,0.0491954341285338,0.200100933316958));
#1639=CARTESIAN_POINT('',(-0.0970011692440928,0.0491954341285338,0.199490843117725));
#1640=CARTESIAN_POINT('',(-0.0972566427617542,0.05919543,0.199513194155622));
#1641=CARTESIAN_POINT('',(-0.0915387534008068,0.05919543,0.199012943657243));
#1642=CARTESIAN_POINT('',(-0.0915387534008068,0.06019543,0.19901294365737));
#1643=CARTESIAN_POINT('',(-0.0905387533928839,0.03919543,0.198925454993024));
#1644=CARTESIAN_POINT('',(-0.0915387534327451,0.03819543,0.19901294365737));
#1645=CARTESIAN_POINT('',(-0.0915387534327451,0.03919543,0.199012943660037));
#1646=CARTESIAN_POINT('',(-0.0972566427617542,0.03919543,0.199513194155622));
#1647=CARTESIAN_POINT('',(-0.0815550367252359,0.05919543,0.201516501229514));
#1648=CARTESIAN_POINT('',(-0.0915387534008068,0.05919543,0.201516501229514));
#1649=CARTESIAN_POINT('',(-0.0815550367252359,0.03919543,0.201516501229514));
#1650=CARTESIAN_POINT('',(-0.0915387534327451,0.03919543,0.203944554181376));
#1651=CARTESIAN_POINT('',(-0.0748371473599949,0.08419543,0.203944554181376));
#1652=CARTESIAN_POINT('',(-0.0905387534059495,0.0616529726376978,0.203944554181376));
#1653=CARTESIAN_POINT('',(-0.066538753434861,0.036737895583263,0.203944554181376));
#1654=CARTESIAN_POINT('',(-0.0865387534001426,0.0491954299985483,0.203944554181376));
#1655=CARTESIAN_POINT('',(-0.0845387534001426,0.0491954299985483,0.203944554181376));
#1656=CARTESIAN_POINT('',(-0.0665387533928839,0.03919543,0.198925455027734));
#1657=CARTESIAN_POINT('',(-0.0865387534001426,0.0491954299985483,0.198925454998809));
#1658=CARTESIAN_POINT('',(-0.0845387534001426,0.0491954299985483,0.198925455001701));
#1659=CARTESIAN_POINT('',(-0.0915387534327451,0.03819543,0.201516501229514));
#1660=CARTESIAN_POINT('',(-0.0915387534008068,0.06019543,0.201516501229514));
#1661=CARTESIAN_POINT('',(-0.105717646985688,0.0491954341310644,0.180177039355124));
#1662=CARTESIAN_POINT('',(-0.0435387534089584,0.0545803444868902,0.0409476270326326));
#1663=CARTESIAN_POINT('',(-0.0685387534261506,0.0427378955861664,0.0409476270326326));
#1664=CARTESIAN_POINT('',(-0.0435387534074013,0.0556529725854719,0.0409476270326326));
#1665=CARTESIAN_POINT('',(-0.0865387534001426,0.0491954299985483,0.193944554181376));
#1666=CARTESIAN_POINT('',(-0.0679431122597091,0.0627378955853017,0.201368786463646));
#1667=CARTESIAN_POINT('',(-0.0685387547466206,0.0392011978376605,0.0235547726219455));
#1668=CARTESIAN_POINT('',(-0.0685387547466206,0.0392011978376605,0.0235547726219455));
#1669=CARTESIAN_POINT('',(-0.0685387547414862,0.0427378955861664,0.0235547726219455));
#1670=CARTESIAN_POINT('',(-0.0685387547570873,0.0556529726217654,0.0235547726219455));
#1671=CARTESIAN_POINT('',(-0.0435387534261506,0.042737895549873,0.0359476270326326));
#1672=CARTESIAN_POINT('',(-0.0685387547411683,0.0427378955861664,0.0285547726219455));
#1673=CARTESIAN_POINT('',(-0.0905387534110177,0.0556529726537036,0.0285547726233441));
#1674=CARTESIAN_POINT('',(-0.0905387534074013,0.0556529726537036,0.0359476270326326));
#1675=CARTESIAN_POINT('',(-0.0911246614789279,0.03773789267056,0.10144558453371));
#1676=CARTESIAN_POINT('',(-0.0943440553416637,0.0377378926592279,0.064647744299451));
#1677=CARTESIAN_POINT('',(-0.08621452392777,0.060652975611827,0.00151879236770879));
#1678=CARTESIAN_POINT('',(-0.0853071787615941,0.0606529756105098,0.0118897950737578));
#1679=CARTESIAN_POINT('',(-0.0768801185750593,0.0606529755982759,0.0182120406298348));
#1680=CARTESIAN_POINT('',(-0.0843935067423508,0.0606529756091834,0.0133996358440538));
#1681=CARTESIAN_POINT('',(-0.0749040650426113,0.0756529726150003,0.006));
#1682=CARTESIAN_POINT('',(-0.083006910723537,0.0706529718896647,0.006));
#1683=CARTESIAN_POINT('',(-0.080906910723537,0.0706529718896647,0.006));
#1684=CARTESIAN_POINT('',(-0.0730069114606358,0.0706529726122461,0.006));
#1685=CARTESIAN_POINT('',(-0.0780069099864382,0.0706529718896647,0.006));
#1686=CARTESIAN_POINT('',(-0.083006910723537,0.0706529718896647,0.006));
#1687=CARTESIAN_POINT('',(-0.0880069114606358,0.0706529719041821,0.006));
#1688=CARTESIAN_POINT('',(-0.0930069099864382,0.0706529726412809,0.006));
#1689=CARTESIAN_POINT('',(-0.0830069107858384,0.0277378948700716,-0.019));
#1690=CARTESIAN_POINT('',(-0.0780069115229372,0.0277378948700716,-0.019));
#1691=CARTESIAN_POINT('',(-0.0880069100487396,0.0277378948700716,-0.019));
#1692=CARTESIAN_POINT('',(-0.083006910723537,0.0706529718896647,-0.019));
#1693=CARTESIAN_POINT('',(-0.0880069114606358,0.0706529719041821,-0.019));
#1694=CARTESIAN_POINT('',(-0.0780069099864382,0.0706529718896647,-0.019));
#1695=CARTESIAN_POINT('',(-0.0730069115229372,0.0277378955926531,-0.019));
#1696=CARTESIAN_POINT('',(-0.0930069100487396,0.0277378956216878,0.202581906809938));
#1697=CARTESIAN_POINT('',(-0.0730069114606358,0.0706529726122461,0.202581906809938));
#1698=CARTESIAN_POINT('',(-0.0930069099864382,0.0706529726412809,-0.019));
#1699=CARTESIAN_POINT('',(-0.083006910723537,0.0706529718896647,-0.019));
#1700=CARTESIAN_POINT('',(-0.0830069107858384,0.0277378948700716,-0.019));
#1701=CARTESIAN_POINT('',(-1.09053875340014,0.0606529740894358,0.151803487047109));
#1702=CARTESIAN_POINT('',(-1.09053875341678,0.0491954355796393,0.151803487047109));
#1703=CARTESIAN_POINT('',(-0.0833147893654106,0.0606529756076174,0.0117154835882624));
#1704=CARTESIAN_POINT('',(-0.0748371473927206,0.0616529726149031,0.199944554181376));
#1705=CARTESIAN_POINT('',(-0.090538753434861,0.0367378956181047,0.199944554181376));
#1706=MECHANICAL_DESIGN_GEOMETRIC_PRESENTATION_REPRESENTATION('',(#1013),
#1707);
#1707=(
GEOMETRIC_REPRESENTATION_CONTEXT(3)
GLOBAL_UNCERTAINTY_ASSIGNED_CONTEXT((#1708))
GLOBAL_UNIT_ASSIGNED_CONTEXT((#1711,#1710,#1709))
REPRESENTATION_CONTEXT('Part 11','TOP_LEVEL_ASSEMBLY_PART')
);
#1708=UNCERTAINTY_MEASURE_WITH_UNIT(LENGTH_MEASURE(3.1759529285226E-5),
#1711,'DISTANCE_ACCURACY_VALUE','Maximum Tolerance applied to model');
#1709=(
NAMED_UNIT(*)
SI_UNIT($,.STERADIAN.)
SOLID_ANGLE_UNIT()
);
#1710=(
NAMED_UNIT(*)
PLANE_ANGLE_UNIT()
SI_UNIT($,.RADIAN.)
);
#1711=(
LENGTH_UNIT()
NAMED_UNIT(*)
SI_UNIT($,.METRE.)
);
#1712=PRODUCT_DEFINITION_SHAPE('','',#1713);
#1713=PRODUCT_DEFINITION('','',#1715,#1714);
#1714=PRODUCT_DEFINITION_CONTEXT('',#1721,'design');
#1715=PRODUCT_DEFINITION_FORMATION_WITH_SPECIFIED_SOURCE('','',#1717,
 .NOT_KNOWN.);
#1716=PRODUCT_RELATED_PRODUCT_CATEGORY('','',(#1717));
#1717=PRODUCT('Part 11','Part 11','Part 11',(#1719));
#1718=PRODUCT_CATEGORY('','');
#1719=PRODUCT_CONTEXT('',#1721,'mechanical');
#1720=APPLICATION_PROTOCOL_DEFINITION('international standard',
'ap242_managed_model_based_3d_engineering',2020,#1721);
#1721=APPLICATION_CONTEXT('managed model based 3d engineering');
ENDSEC;
END-ISO-10303-21;
