ISO-10303-21;
HEADER;
/* Generated by software containing ST-Developer
 * from STEP Tools, Inc. (www.steptools.com) 
 */
/* OPTION: using custom renumber hook */

FILE_DESCRIPTION(
/* description */ ('STEP AP242 Edition 2',
'CAx-IF Rec.Pracs.---Representation and Presentation of Product Manufa
cturing Information (PMI)---4.0---2014-10-13',
'CAx-IF Rec.Pracs.---3D Tessellated Geometry---0.4---2014-09-14','2;1',
'CAx-IF Rec.Pracs.---User Defined Attributes---1.5---2016-08-15'),
/* implementation_level */ '2;1');

FILE_NAME(
/* name */ 'Assembly 1 - Part 14',
/* time_stamp */ '2026-07-25T03:56:15Z',
/* author */ (''),
/* organization */ (''),
/* preprocessor_version */ 'ST-DEVELOPER v20',
/* originating_system */ 'ONSHAPE BY PTC INC, 1.218',
/* authorisation */ '  ');

FILE_SCHEMA (('AP242_MANAGED_MODEL_BASED_3D_ENGINEERING_MIM_LF { 1 0 10303 442 3 1 4 }'));
ENDSEC;

DATA;
#10=SHAPE_REPRESENTATION_RELATIONSHIP('','',#89,#11);
#11=ADVANCED_BREP_SHAPE_REPRESENTATION('',(#87),#149);
#12=PLANE('',#99);
#13=PLANE('',#100);
#14=CIRCLE('',#94,0.002);
#15=CIRCLE('',#95,0.002);
#16=CIRCLE('',#97,0.005);
#17=CIRCLE('',#98,0.005);
#18=ELLIPSE('',#92,0.00200000000000081,0.00200000000000069);
#19=LINE('',#133,#21);
#20=LINE('',#137,#22);
#21=VECTOR('',#105,1.);
#22=VECTOR('',#108,1.);
#23=ORIENTED_EDGE('',*,*,#39,.T.);
#24=ORIENTED_EDGE('',*,*,#40,.F.);
#25=ORIENTED_EDGE('',*,*,#41,.F.);
#26=ORIENTED_EDGE('',*,*,#42,.T.);
#27=ORIENTED_EDGE('',*,*,#43,.T.);
#28=ORIENTED_EDGE('',*,*,#42,.F.);
#29=ORIENTED_EDGE('',*,*,#44,.F.);
#30=ORIENTED_EDGE('',*,*,#40,.T.);
#31=ORIENTED_EDGE('',*,*,#45,.F.);
#32=ORIENTED_EDGE('',*,*,#46,.T.);
#33=ORIENTED_EDGE('',*,*,#41,.T.);
#34=ORIENTED_EDGE('',*,*,#44,.T.);
#35=ORIENTED_EDGE('',*,*,#45,.T.);
#36=ORIENTED_EDGE('',*,*,#39,.F.);
#37=ORIENTED_EDGE('',*,*,#43,.F.);
#38=ORIENTED_EDGE('',*,*,#46,.F.);
#39=EDGE_CURVE('',#47,#48,#53,.T.);
#40=EDGE_CURVE('',#49,#48,#19,.T.);
#41=EDGE_CURVE('',#50,#49,#18,.T.);
#42=EDGE_CURVE('',#50,#47,#20,.T.);
#43=EDGE_CURVE('',#48,#47,#14,.T.);
#44=EDGE_CURVE('',#49,#50,#15,.T.);
#45=EDGE_CURVE('',#51,#51,#16,.T.);
#46=EDGE_CURVE('',#52,#52,#17,.T.);
#47=VERTEX_POINT('',#131);
#48=VERTEX_POINT('',#132);
#49=VERTEX_POINT('',#134);
#50=VERTEX_POINT('',#136);
#51=VERTEX_POINT('',#143);
#52=VERTEX_POINT('',#145);
#53=(
BOUNDED_CURVE()
B_SPLINE_CURVE(3,(#127,#128,#129,#130),.CIRCULAR_ARC.,.F.,.F.)
B_SPLINE_CURVE_WITH_KNOTS((4,4),(0.,1.),.PIECEWISE_BEZIER_KNOTS.)
CURVE()
GEOMETRIC_REPRESENTATION_ITEM()
RATIONAL_B_SPLINE_CURVE((1.,0.333333333368158,0.333333333368158,1.))
REPRESENTATION_ITEM('')
);
#54=EDGE_LOOP('',(#23,#24,#25,#26));
#55=EDGE_LOOP('',(#27,#28,#29,#30));
#56=EDGE_LOOP('',(#31));
#57=EDGE_LOOP('',(#32));
#58=EDGE_LOOP('',(#33,#34));
#59=EDGE_LOOP('',(#35));
#60=EDGE_LOOP('',(#36,#37));
#61=EDGE_LOOP('',(#38));
#62=FACE_BOUND('',#54,.T.);
#63=FACE_BOUND('',#55,.T.);
#64=FACE_BOUND('',#56,.T.);
#65=FACE_BOUND('',#57,.T.);
#66=FACE_BOUND('',#58,.T.);
#67=FACE_BOUND('',#59,.T.);
#68=FACE_BOUND('',#60,.T.);
#69=FACE_BOUND('',#61,.T.);
#70=CYLINDRICAL_SURFACE('',#91,0.002);
#71=CYLINDRICAL_SURFACE('',#93,0.002);
#72=CYLINDRICAL_SURFACE('',#96,0.005);
#73=ADVANCED_FACE('',(#62),#70,.F.);
#74=ADVANCED_FACE('',(#63),#71,.F.);
#75=ADVANCED_FACE('',(#64,#65),#72,.T.);
#76=ADVANCED_FACE('',(#66,#67),#12,.T.);
#77=ADVANCED_FACE('',(#68,#69),#13,.F.);
#78=CLOSED_SHELL('',(#73,#74,#75,#76,#77));
#79=STYLED_ITEM('',(#80),#87);
#80=PRESENTATION_STYLE_ASSIGNMENT((#81));
#81=SURFACE_STYLE_USAGE(.BOTH.,#82);
#82=SURFACE_SIDE_STYLE('',(#83));
#83=SURFACE_STYLE_FILL_AREA(#84);
#84=FILL_AREA_STYLE('',(#85));
#85=FILL_AREA_STYLE_COLOUR('',#86);
#86=COLOUR_RGB('',0.917647058823529,0.917647058823529,0.917647058823529);
#87=MANIFOLD_SOLID_BREP('Part 14',#78);
#88=SHAPE_DEFINITION_REPRESENTATION(#154,#89);
#89=SHAPE_REPRESENTATION('Part 14',(#90),#149);
#90=AXIS2_PLACEMENT_3D('',#125,#101,#102);
#91=AXIS2_PLACEMENT_3D('',#126,#103,#104);
#92=AXIS2_PLACEMENT_3D('',#135,#106,#107);
#93=AXIS2_PLACEMENT_3D('',#138,#109,#110);
#94=AXIS2_PLACEMENT_3D('',#139,#111,#112);
#95=AXIS2_PLACEMENT_3D('',#140,#113,#114);
#96=AXIS2_PLACEMENT_3D('',#141,#115,#116);
#97=AXIS2_PLACEMENT_3D('',#142,#117,#118);
#98=AXIS2_PLACEMENT_3D('',#144,#119,#120);
#99=AXIS2_PLACEMENT_3D('',#146,#121,#122);
#100=AXIS2_PLACEMENT_3D('',#147,#123,#124);
#101=DIRECTION('',(0.,0.,1.));
#102=DIRECTION('',(1.,0.,0.));
#103=DIRECTION('',(6.12323404942065E-17,5.55111512312578E-16,1.));
#104=DIRECTION('',(5.22498710964216E-11,-1.,0.));
#105=DIRECTION('',(6.12323404942065E-17,5.55111512312578E-16,1.));
#106=DIRECTION('',(0.,0.,1.));
#107=DIRECTION('',(-0.165670423435531,-0.986181175443281,0.));
#108=DIRECTION('',(6.12323404942065E-17,5.55111512312578E-16,1.));
#109=DIRECTION('',(6.12323404942065E-17,5.55111512312578E-16,1.));
#110=DIRECTION('',(0.,-1.,5.55111512312578E-16));
#111=DIRECTION('',(6.12323404942065E-17,5.55111512312578E-16,1.));
#112=DIRECTION('',(0.,-1.,5.55111512312578E-16));
#113=DIRECTION('',(6.12323404942065E-17,5.55111512312578E-16,1.));
#114=DIRECTION('',(0.,-1.,5.55111512312578E-16));
#115=DIRECTION('',(6.12323404942065E-17,5.55111512312578E-16,1.));
#116=DIRECTION('',(0.,-1.,5.55111512312578E-16));
#117=DIRECTION('',(-6.12323404942065E-17,-5.55111512312578E-16,-1.));
#118=DIRECTION('',(0.,1.,-5.55111512312578E-16));
#119=DIRECTION('',(-6.12323404942065E-17,-5.55111512312578E-16,-1.));
#120=DIRECTION('',(0.,1.,-5.55111512312578E-16));
#121=DIRECTION('',(-6.12323404942065E-17,-5.55111512312578E-16,-1.));
#122=DIRECTION('',(1.,-3.39907771341777E-32,-6.12323404942065E-17));
#123=DIRECTION('',(-6.12323404942065E-17,-5.55111512312578E-16,-1.));
#124=DIRECTION('',(1.,-3.39907771341777E-32,-6.12323404942065E-17));
#125=CARTESIAN_POINT('',(0.,0.,0.));
#126=CARTESIAN_POINT('',(0.0690849229717045,-0.00573930999479011,0.10158209222867));
#127=CARTESIAN_POINT('',(0.0670849229717045,-0.00573930999499903,0.13686850222867));
#128=CARTESIAN_POINT('',(0.0670849229721224,-0.00973930999458114,0.13686850222867));
#129=CARTESIAN_POINT('',(0.0710849229717046,-0.0097393099943722,0.13686850222867));
#130=CARTESIAN_POINT('',(0.0710849229717045,-0.00573930999479008,0.13686850222867));
#131=CARTESIAN_POINT('',(0.0670849229717045,-0.00573930999499903,0.13686850222867));
#132=CARTESIAN_POINT('',(0.0710849229717045,-0.00573930999458114,0.13686850222867));
#133=CARTESIAN_POINT('',(0.0710849229717045,-0.00573930999458116,0.10158209222867));
#134=CARTESIAN_POINT('',(0.0710849229717045,-0.00573930999458116,0.10158209222867));
#135=CARTESIAN_POINT('',(0.0690849229717045,-0.00573930999479,0.10158209222867));
#136=CARTESIAN_POINT('',(0.0670849229717045,-0.00573930999499905,0.10158209222867));
#137=CARTESIAN_POINT('',(0.0670849229717045,-0.00573930999499905,0.10158209222867));
#138=CARTESIAN_POINT('',(0.0690849229717045,-0.0057393099947901,0.10158209222867));
#139=CARTESIAN_POINT('',(0.0690849229717045,-0.00573930999479008,0.13686850222867));
#140=CARTESIAN_POINT('',(0.0690849229717045,-0.0057393099947901,0.10158209222867));
#141=CARTESIAN_POINT('',(0.0690849229717045,-0.0057393099947901,0.10158209222867));
#142=CARTESIAN_POINT('',(0.0690849229717045,-0.0057393099947901,0.10158209222867));
#143=CARTESIAN_POINT('',(0.0690849229717045,-0.0007393099947901,0.10158209222867));
#144=CARTESIAN_POINT('',(0.0690849229717045,-0.00573930999479008,0.13686850222867));
#145=CARTESIAN_POINT('',(0.0690849229717045,-0.00073930999479008,0.13686850222867));
#146=CARTESIAN_POINT('',(0.0671393725864722,-0.00557452276958466,0.10158209222867));
#147=CARTESIAN_POINT('',(0.0671393725864722,-0.00557452276958464,0.13686850222867));
#148=MECHANICAL_DESIGN_GEOMETRIC_PRESENTATION_REPRESENTATION('',(#79),#149);
#149=(
GEOMETRIC_REPRESENTATION_CONTEXT(3)
GLOBAL_UNCERTAINTY_ASSIGNED_CONTEXT((#150))
GLOBAL_UNIT_ASSIGNED_CONTEXT((#153,#152,#151))
REPRESENTATION_CONTEXT('Part 14','TOP_LEVEL_ASSEMBLY_PART')
);
#150=UNCERTAINTY_MEASURE_WITH_UNIT(LENGTH_MEASURE(1.E-8),#153,
'DISTANCE_ACCURACY_VALUE','Maximum Tolerance applied to model');
#151=(
NAMED_UNIT(*)
SI_UNIT($,.STERADIAN.)
SOLID_ANGLE_UNIT()
);
#152=(
NAMED_UNIT(*)
PLANE_ANGLE_UNIT()
SI_UNIT($,.RADIAN.)
);
#153=(
LENGTH_UNIT()
NAMED_UNIT(*)
SI_UNIT($,.METRE.)
);
#154=PRODUCT_DEFINITION_SHAPE('','',#155);
#155=PRODUCT_DEFINITION('','',#157,#156);
#156=PRODUCT_DEFINITION_CONTEXT('',#163,'design');
#157=PRODUCT_DEFINITION_FORMATION_WITH_SPECIFIED_SOURCE('','',#159,
 .NOT_KNOWN.);
#158=PRODUCT_RELATED_PRODUCT_CATEGORY('','',(#159));
#159=PRODUCT('Part 14','Part 14','Part 14',(#161));
#160=PRODUCT_CATEGORY('','');
#161=PRODUCT_CONTEXT('',#163,'mechanical');
#162=APPLICATION_PROTOCOL_DEFINITION('international standard',
'ap242_managed_model_based_3d_engineering',2020,#163);
#163=APPLICATION_CONTEXT('managed model based 3d engineering');
ENDSEC;
END-ISO-10303-21;
