ISO-10303-21;
HEADER;
/* Generated by software containing ST-Developer
 * from STEP Tools, Inc. (www.steptools.com) 
 */
/* OPTION: using custom renumber hook */

FILE_DESCRIPTION(
/* description */ ('STEP AP242 Edition 2',
'CAx-IF Rec.Pracs.---Representation and Presentation of Product Manufa
cturing Information (PMI)---4.0---2014-10-13',
'CAx-IF Rec.Pracs.---3D Tessellated Geometry---0.4---2014-09-14','2;1',
'CAx-IF Rec.Pracs.---User Defined Attributes---1.5---2016-08-15'),
/* implementation_level */ '2;1');

FILE_NAME(
/* name */ 'Assembly 1 - Part 9',
/* time_stamp */ '2026-07-25T03:56:16Z',
/* author */ (''),
/* organization */ (''),
/* preprocessor_version */ 'ST-DEVELOPER v20',
/* originating_system */ 'ONSHAPE BY PTC INC, 1.218',
/* authorisation */ '  ');

FILE_SCHEMA (('AP242_MANAGED_MODEL_BASED_3D_ENGINEERING_MIM_LF { 1 0 10303 442 3 1 4 }'));
ENDSEC;

DATA;
#10=SHAPE_REPRESENTATION_RELATIONSHIP('','',#199,#11);
#11=ADVANCED_BREP_SHAPE_REPRESENTATION('',(#197),#317);
#12=CYLINDRICAL_SURFACE('',#211,0.01);
#13=CYLINDRICAL_SURFACE('',#215,0.0021);
#14=LINE('',#270,#32);
#15=LINE('',#273,#33);
#16=LINE('',#275,#34);
#17=LINE('',#277,#35);
#18=LINE('',#279,#36);
#19=LINE('',#281,#37);
#20=LINE('',#283,#38);
#21=LINE('',#286,#39);
#22=LINE('',#288,#40);
#23=LINE('',#290,#41);
#24=LINE('',#292,#42);
#25=LINE('',#294,#43);
#26=LINE('',#298,#44);
#27=LINE('',#299,#45);
#28=LINE('',#301,#46);
#29=LINE('',#303,#47);
#30=LINE('',#305,#48);
#31=LINE('',#307,#49);
#32=VECTOR('',#222,1.);
#33=VECTOR('',#223,1.);
#34=VECTOR('',#224,1.);
#35=VECTOR('',#225,1.);
#36=VECTOR('',#226,1.);
#37=VECTOR('',#227,1.);
#38=VECTOR('',#230,1.);
#39=VECTOR('',#231,1.);
#40=VECTOR('',#232,1.);
#41=VECTOR('',#233,1.);
#42=VECTOR('',#234,1.);
#43=VECTOR('',#235,1.);
#44=VECTOR('',#240,1.);
#45=VECTOR('',#241,1.);
#46=VECTOR('',#244,1.);
#47=VECTOR('',#247,1.);
#48=VECTOR('',#250,1.);
#49=VECTOR('',#253,1.);
#50=ORIENTED_EDGE('',*,*,#94,.T.);
#51=ORIENTED_EDGE('',*,*,#95,.T.);
#52=ORIENTED_EDGE('',*,*,#96,.T.);
#53=ORIENTED_EDGE('',*,*,#97,.T.);
#54=ORIENTED_EDGE('',*,*,#98,.T.);
#55=ORIENTED_EDGE('',*,*,#99,.T.);
#56=ORIENTED_EDGE('',*,*,#100,.T.);
#57=ORIENTED_EDGE('',*,*,#101,.F.);
#58=ORIENTED_EDGE('',*,*,#102,.F.);
#59=ORIENTED_EDGE('',*,*,#103,.F.);
#60=ORIENTED_EDGE('',*,*,#104,.F.);
#61=ORIENTED_EDGE('',*,*,#105,.F.);
#62=ORIENTED_EDGE('',*,*,#106,.F.);
#63=ORIENTED_EDGE('',*,*,#107,.T.);
#64=ORIENTED_EDGE('',*,*,#97,.F.);
#65=ORIENTED_EDGE('',*,*,#108,.T.);
#66=ORIENTED_EDGE('',*,*,#101,.T.);
#67=ORIENTED_EDGE('',*,*,#109,.F.);
#68=ORIENTED_EDGE('',*,*,#98,.F.);
#69=ORIENTED_EDGE('',*,*,#109,.T.);
#70=ORIENTED_EDGE('',*,*,#106,.T.);
#71=ORIENTED_EDGE('',*,*,#110,.F.);
#72=ORIENTED_EDGE('',*,*,#99,.F.);
#73=ORIENTED_EDGE('',*,*,#110,.T.);
#74=ORIENTED_EDGE('',*,*,#105,.T.);
#75=ORIENTED_EDGE('',*,*,#111,.F.);
#76=ORIENTED_EDGE('',*,*,#100,.F.);
#77=ORIENTED_EDGE('',*,*,#111,.T.);
#78=ORIENTED_EDGE('',*,*,#104,.T.);
#79=ORIENTED_EDGE('',*,*,#112,.F.);
#80=ORIENTED_EDGE('',*,*,#95,.F.);
#81=ORIENTED_EDGE('',*,*,#112,.T.);
#82=ORIENTED_EDGE('',*,*,#103,.T.);
#83=ORIENTED_EDGE('',*,*,#113,.F.);
#84=ORIENTED_EDGE('',*,*,#96,.F.);
#85=ORIENTED_EDGE('',*,*,#113,.T.);
#86=ORIENTED_EDGE('',*,*,#102,.T.);
#87=ORIENTED_EDGE('',*,*,#108,.F.);
#88=ORIENTED_EDGE('',*,*,#107,.F.);
#89=ORIENTED_EDGE('',*,*,#114,.T.);
#90=ORIENTED_EDGE('',*,*,#114,.F.);
#91=ORIENTED_EDGE('',*,*,#115,.F.);
#92=ORIENTED_EDGE('',*,*,#115,.T.);
#93=ORIENTED_EDGE('',*,*,#94,.F.);
#94=EDGE_CURVE('',#116,#116,#132,.F.);
#95=EDGE_CURVE('',#117,#118,#14,.T.);
#96=EDGE_CURVE('',#118,#119,#15,.T.);
#97=EDGE_CURVE('',#119,#120,#16,.T.);
#98=EDGE_CURVE('',#120,#121,#17,.T.);
#99=EDGE_CURVE('',#121,#122,#18,.T.);
#100=EDGE_CURVE('',#122,#117,#19,.T.);
#101=EDGE_CURVE('',#123,#124,#20,.T.);
#102=EDGE_CURVE('',#125,#123,#21,.T.);
#103=EDGE_CURVE('',#126,#125,#22,.T.);
#104=EDGE_CURVE('',#127,#126,#23,.T.);
#105=EDGE_CURVE('',#128,#127,#24,.T.);
#106=EDGE_CURVE('',#124,#128,#25,.T.);
#107=EDGE_CURVE('',#129,#129,#133,.T.);
#108=EDGE_CURVE('',#119,#123,#26,.T.);
#109=EDGE_CURVE('',#120,#124,#27,.T.);
#110=EDGE_CURVE('',#121,#128,#28,.T.);
#111=EDGE_CURVE('',#122,#127,#29,.T.);
#112=EDGE_CURVE('',#117,#126,#30,.T.);
#113=EDGE_CURVE('',#118,#125,#31,.T.);
#114=EDGE_CURVE('',#130,#130,#134,.T.);
#115=EDGE_CURVE('',#131,#131,#135,.F.);
#116=VERTEX_POINT('',#269);
#117=VERTEX_POINT('',#271);
#118=VERTEX_POINT('',#272);
#119=VERTEX_POINT('',#274);
#120=VERTEX_POINT('',#276);
#121=VERTEX_POINT('',#278);
#122=VERTEX_POINT('',#280);
#123=VERTEX_POINT('',#284);
#124=VERTEX_POINT('',#285);
#125=VERTEX_POINT('',#287);
#126=VERTEX_POINT('',#289);
#127=VERTEX_POINT('',#291);
#128=VERTEX_POINT('',#293);
#129=VERTEX_POINT('',#296);
#130=VERTEX_POINT('',#311);
#131=VERTEX_POINT('',#314);
#132=CIRCLE('',#202,0.0021);
#133=CIRCLE('',#204,0.01);
#134=CIRCLE('',#212,0.01);
#135=CIRCLE('',#214,0.0021);
#136=EDGE_LOOP('',(#50));
#137=EDGE_LOOP('',(#51,#52,#53,#54,#55,#56));
#138=EDGE_LOOP('',(#57,#58,#59,#60,#61,#62));
#139=EDGE_LOOP('',(#63));
#140=EDGE_LOOP('',(#64,#65,#66,#67));
#141=EDGE_LOOP('',(#68,#69,#70,#71));
#142=EDGE_LOOP('',(#72,#73,#74,#75));
#143=EDGE_LOOP('',(#76,#77,#78,#79));
#144=EDGE_LOOP('',(#80,#81,#82,#83));
#145=EDGE_LOOP('',(#84,#85,#86,#87));
#146=EDGE_LOOP('',(#88));
#147=EDGE_LOOP('',(#89));
#148=EDGE_LOOP('',(#90));
#149=EDGE_LOOP('',(#91));
#150=EDGE_LOOP('',(#92));
#151=EDGE_LOOP('',(#93));
#152=FACE_BOUND('',#136,.T.);
#153=FACE_BOUND('',#137,.T.);
#154=FACE_BOUND('',#138,.T.);
#155=FACE_BOUND('',#139,.T.);
#156=FACE_BOUND('',#140,.T.);
#157=FACE_BOUND('',#141,.T.);
#158=FACE_BOUND('',#142,.T.);
#159=FACE_BOUND('',#143,.T.);
#160=FACE_BOUND('',#144,.T.);
#161=FACE_BOUND('',#145,.T.);
#162=FACE_BOUND('',#146,.T.);
#163=FACE_BOUND('',#147,.T.);
#164=FACE_BOUND('',#148,.T.);
#165=FACE_BOUND('',#149,.T.);
#166=FACE_BOUND('',#150,.T.);
#167=FACE_BOUND('',#151,.T.);
#168=PLANE('',#201);
#169=PLANE('',#203);
#170=PLANE('',#205);
#171=PLANE('',#206);
#172=PLANE('',#207);
#173=PLANE('',#208);
#174=PLANE('',#209);
#175=PLANE('',#210);
#176=PLANE('',#213);
#177=ADVANCED_FACE('',(#152,#153),#168,.T.);
#178=ADVANCED_FACE('',(#154,#155),#169,.T.);
#179=ADVANCED_FACE('',(#156),#170,.F.);
#180=ADVANCED_FACE('',(#157),#171,.F.);
#181=ADVANCED_FACE('',(#158),#172,.F.);
#182=ADVANCED_FACE('',(#159),#173,.F.);
#183=ADVANCED_FACE('',(#160),#174,.F.);
#184=ADVANCED_FACE('',(#161),#175,.F.);
#185=ADVANCED_FACE('',(#162,#163),#12,.T.);
#186=ADVANCED_FACE('',(#164,#165),#176,.F.);
#187=ADVANCED_FACE('',(#166,#167),#13,.F.);
#188=CLOSED_SHELL('',(#177,#178,#179,#180,#181,#182,#183,#184,#185,#186,
#187));
#189=STYLED_ITEM('',(#190),#197);
#190=PRESENTATION_STYLE_ASSIGNMENT((#191));
#191=SURFACE_STYLE_USAGE(.BOTH.,#192);
#192=SURFACE_SIDE_STYLE('',(#193));
#193=SURFACE_STYLE_FILL_AREA(#194);
#194=FILL_AREA_STYLE('',(#195));
#195=FILL_AREA_STYLE_COLOUR('',#196);
#196=COLOUR_RGB('',0.917647058823529,0.917647058823529,0.917647058823529);
#197=MANIFOLD_SOLID_BREP('Part 9',#188);
#198=SHAPE_DEFINITION_REPRESENTATION(#322,#199);
#199=SHAPE_REPRESENTATION('Part 9',(#200),#317);
#200=AXIS2_PLACEMENT_3D('',#266,#216,#217);
#201=AXIS2_PLACEMENT_3D('',#267,#218,#219);
#202=AXIS2_PLACEMENT_3D('',#268,#220,#221);
#203=AXIS2_PLACEMENT_3D('',#282,#228,#229);
#204=AXIS2_PLACEMENT_3D('',#295,#236,#237);
#205=AXIS2_PLACEMENT_3D('',#297,#238,#239);
#206=AXIS2_PLACEMENT_3D('',#300,#242,#243);
#207=AXIS2_PLACEMENT_3D('',#302,#245,#246);
#208=AXIS2_PLACEMENT_3D('',#304,#248,#249);
#209=AXIS2_PLACEMENT_3D('',#306,#251,#252);
#210=AXIS2_PLACEMENT_3D('',#308,#254,#255);
#211=AXIS2_PLACEMENT_3D('',#309,#256,#257);
#212=AXIS2_PLACEMENT_3D('',#310,#258,#259);
#213=AXIS2_PLACEMENT_3D('',#312,#260,#261);
#214=AXIS2_PLACEMENT_3D('',#313,#262,#263);
#215=AXIS2_PLACEMENT_3D('',#315,#264,#265);
#216=DIRECTION('',(0.,0.,1.));
#217=DIRECTION('',(1.,0.,0.));
#218=DIRECTION('',(0.0871557427476581,-1.26527293570507E-10,0.996194698091746));
#219=DIRECTION('',(0.996194698091746,1.10697038140359E-11,-0.0871557427476581));
#220=DIRECTION('',(0.0871557427476581,-1.26527293570507E-10,0.996194698091746));
#221=DIRECTION('',(0.996194698091746,0.,-0.0871557427476581));
#222=DIRECTION('',(-5.51725812759455E-12,-1.,-1.26527909736835E-10));
#223=DIRECTION('',(0.862729915660063,-0.499999999995208,-0.0754790873684373));
#224=DIRECTION('',(0.862729915665578,0.500000000004793,-0.0754790872419092));
#225=DIRECTION('',(5.51725812759455E-12,1.,1.26527909736835E-10));
#226=DIRECTION('',(-0.862729915660063,0.499999999995208,0.0754790873684373));
#227=DIRECTION('',(-0.862729915665579,-0.500000000004792,0.0754790872419092));
#228=DIRECTION('',(0.0871557427476581,-1.26527293570507E-10,0.996194698091746));
#229=DIRECTION('',(0.996194698091746,5.52430094095043E-12,-0.0871557427476581));
#230=DIRECTION('',(0.862729915665578,0.500000000004793,-0.0754790872419092));
#231=DIRECTION('',(0.862729915660063,-0.499999999995208,-0.0754790873684373));
#232=DIRECTION('',(-5.51725812759454E-12,-1.,-1.26527909736835E-10));
#233=DIRECTION('',(-0.862729915665579,-0.500000000004792,0.0754790872419092));
#234=DIRECTION('',(-0.862729915660063,0.499999999995208,0.0754790873684373));
#235=DIRECTION('',(5.51725812759454E-12,1.,1.26527909736835E-10));
#236=DIRECTION('',(0.0871557427476581,-1.26527293570507E-10,0.996194698091746));
#237=DIRECTION('',(0.996194698091746,5.52430094095043E-12,-0.0871557427476581));
#238=DIRECTION('',(-0.498097349041097,0.866025403781672,0.0435778714834057));
#239=DIRECTION('',(-0.862729915665578,-0.500000000004793,0.0754790872419092));
#240=DIRECTION('',(-0.0871557427476581,1.26527293570507E-10,-0.996194698091746));
#241=DIRECTION('',(-0.0871557427476581,1.26527293570507E-10,-0.996194698091746));
#242=DIRECTION('',(-0.996194698091746,-5.5313706567092E-12,0.0871557427476581));
#243=DIRECTION('',(-5.51725812759454E-12,-1.,-1.26527909736835E-10));
#244=DIRECTION('',(-0.0871557427476581,1.26527293570507E-10,-0.996194698091746));
#245=DIRECTION('',(-0.49809734905065,-0.866025403787205,0.0435778712642525));
#246=DIRECTION('',(0.862729915660063,-0.499999999995208,-0.0754790873684373));
#247=DIRECTION('',(-0.0871557427476581,1.26527293570507E-10,-0.996194698091746));
#248=DIRECTION('',(0.498097349041096,-0.866025403781672,-0.0435778714834056));
#249=DIRECTION('',(0.862729915665579,0.500000000004792,-0.0754790872419092));
#250=DIRECTION('',(-0.0871557427476581,1.26527293570507E-10,-0.996194698091746));
#251=DIRECTION('',(0.996194698091746,5.5313706567092E-12,-0.0871557427476581));
#252=DIRECTION('',(5.51725812759454E-12,1.,1.26527909736835E-10));
#253=DIRECTION('',(-0.0871557427476581,1.26527293570507E-10,-0.996194698091746));
#254=DIRECTION('',(0.49809734905065,0.866025403787205,-0.0435778712642525));
#255=DIRECTION('',(-0.862729915660063,0.499999999995208,0.0754790873684373));
#256=DIRECTION('',(-0.0871557427476581,1.26527293570507E-10,-0.996194698091746));
#257=DIRECTION('',(-0.996194698091746,-5.52430094095043E-12,0.0871557427476581));
#258=DIRECTION('',(0.0871557427476581,-1.26527293570507E-10,0.996194698091746));
#259=DIRECTION('',(0.996194698091746,5.52430094095043E-12,-0.0871557427476581));
#260=DIRECTION('',(0.0871557427476581,-1.26527293570507E-10,0.996194698091746));
#261=DIRECTION('',(0.996194698091746,5.52430094095043E-12,-0.0871557427476581));
#262=DIRECTION('',(0.0871557427476581,-1.26527293570507E-10,0.996194698091746));
#263=DIRECTION('',(0.996194698091746,5.52430094095043E-12,-0.0871557427476581));
#264=DIRECTION('',(0.0871557427476581,-1.26527293570507E-10,0.996194698091746));
#265=DIRECTION('',(0.996194698091746,5.52430094095043E-12,-0.0871557427476581));
#266=CARTESIAN_POINT('',(0.,0.,0.));
#267=CARTESIAN_POINT('',(-0.103756642773756,0.0491954341282175,0.202591420062179));
#268=CARTESIAN_POINT('',(-0.103756642773756,0.0491954341282175,0.202591420062179));
#269=CARTESIAN_POINT('',(-0.101664633907763,0.0491954341282175,0.202408393002408));
#270=CARTESIAN_POINT('',(-0.107143704747267,0.0491954341281988,0.20288774958752));
#271=CARTESIAN_POINT('',(-0.107143704747257,0.0511584250434435,0.202887749587768));
#272=CARTESIAN_POINT('',(-0.107143704747257,0.047232443212954,0.202887749587519));
#273=CARTESIAN_POINT('',(-0.105450173760528,0.0462509477553411,0.202739584824477));
#274=CARTESIAN_POINT('',(-0.103756642773777,0.0452694522977281,0.202591420061681));
#275=CARTESIAN_POINT('',(-0.102063111787016,0.0462509477553598,0.202443255299135));
#276=CARTESIAN_POINT('',(-0.10036958079949,0.0472324432134345,0.202295090536521));
#277=CARTESIAN_POINT('',(-0.100369580800244,0.0491954341282363,0.202295090536837));
#278=CARTESIAN_POINT('',(-0.100369580800254,0.0511584250434811,0.202295090536837));
#279=CARTESIAN_POINT('',(-0.102063111786983,0.052139920501094,0.20244325529988));
#280=CARTESIAN_POINT('',(-0.103756642773734,0.053121415958707,0.202591420062675));
#281=CARTESIAN_POINT('',(-0.105450173760495,0.0521399205010752,0.202739584825222));
#282=CARTESIAN_POINT('',(-0.104061687873372,0.0491954341286604,0.199104738618857));
#283=CARTESIAN_POINT('',(-0.102368156886633,0.0462509477558027,0.198956573855814));
#284=CARTESIAN_POINT('',(-0.104061687873394,0.0452694522981709,0.199104738618361));
#285=CARTESIAN_POINT('',(-0.100674625899871,0.0472324432134345,0.198808409093267));
#286=CARTESIAN_POINT('',(-0.105755218860145,0.0462509477557839,0.199252903381156));
#287=CARTESIAN_POINT('',(-0.107448749846895,0.0472324432133969,0.199401068143951));
#288=CARTESIAN_POINT('',(-0.107448749846884,0.0491954341286416,0.1994010681442));
#289=CARTESIAN_POINT('',(-0.107448749846873,0.0511584250438863,0.199401068144447));
#290=CARTESIAN_POINT('',(-0.105755218860112,0.0521399205015181,0.199252903381901));
#291=CARTESIAN_POINT('',(-0.104061687873351,0.0531214159591498,0.199104738619354));
#292=CARTESIAN_POINT('',(-0.1023681568866,0.0521399205015369,0.198956573856559));
#293=CARTESIAN_POINT('',(-0.10067462589985,0.0511584250439239,0.198808409093763));
#294=CARTESIAN_POINT('',(-0.10067462589986,0.0491954341286792,0.198808409093515));
#295=CARTESIAN_POINT('',(-0.104061687873372,0.0491954341286604,0.199104738618857));
#296=CARTESIAN_POINT('',(-0.0940997408924549,0.0491954341287156,0.19823318119138));
#297=CARTESIAN_POINT('',(-0.102019533915642,0.0462509477552966,0.202941352648181));
#298=CARTESIAN_POINT('',(-0.103713064902403,0.0452694522976648,0.203089517410728));
#299=CARTESIAN_POINT('',(-0.100326002928881,0.0472324432129284,0.202793187885634));
#300=CARTESIAN_POINT('',(-0.10032600292887,0.0491954341281731,0.202793187885882));
#301=CARTESIAN_POINT('',(-0.100326002928859,0.0511584250434178,0.20279318788613));
#302=CARTESIAN_POINT('',(-0.10201953391561,0.0521399205010308,0.202941352648926));
#303=CARTESIAN_POINT('',(-0.10371306490236,0.0531214159586437,0.203089517411721));
#304=CARTESIAN_POINT('',(-0.105406595889121,0.052139920501012,0.203237682174268));
#305=CARTESIAN_POINT('',(-0.107100126875883,0.0511584250433802,0.203385846936814));
#306=CARTESIAN_POINT('',(-0.107100126875894,0.0491954341281355,0.203385846936566));
#307=CARTESIAN_POINT('',(-0.107100126875904,0.0472324432128908,0.203385846936318));
#308=CARTESIAN_POINT('',(-0.105406595889154,0.0462509477552778,0.203237682173523));
#309=CARTESIAN_POINT('',(-0.104061687873372,0.0491954341286604,0.199104738618857));
#310=CARTESIAN_POINT('',(-0.104410310844363,0.0491954341291665,0.19511995982649));
#311=CARTESIAN_POINT('',(-0.0944483638634455,0.0491954341292217,0.194248402399013));
#312=CARTESIAN_POINT('',(-0.104410310844363,0.0491954341291665,0.19511995982649));
#313=CARTESIAN_POINT('',(-0.104410310844363,0.0491954341291665,0.19511995982649));
#314=CARTESIAN_POINT('',(-0.10231830197837,0.0491954341291781,0.19493693276672));
#315=CARTESIAN_POINT('',(-0.105891958471073,0.0491954341313175,0.17818464995893));
#316=MECHANICAL_DESIGN_GEOMETRIC_PRESENTATION_REPRESENTATION('',(#189),
#317);
#317=(
GEOMETRIC_REPRESENTATION_CONTEXT(3)
GLOBAL_UNCERTAINTY_ASSIGNED_CONTEXT((#318))
GLOBAL_UNIT_ASSIGNED_CONTEXT((#321,#320,#319))
REPRESENTATION_CONTEXT('Part 9','TOP_LEVEL_ASSEMBLY_PART')
);
#318=UNCERTAINTY_MEASURE_WITH_UNIT(LENGTH_MEASURE(1.E-8),#321,
'DISTANCE_ACCURACY_VALUE','Maximum Tolerance applied to model');
#319=(
NAMED_UNIT(*)
SI_UNIT($,.STERADIAN.)
SOLID_ANGLE_UNIT()
);
#320=(
NAMED_UNIT(*)
PLANE_ANGLE_UNIT()
SI_UNIT($,.RADIAN.)
);
#321=(
LENGTH_UNIT()
NAMED_UNIT(*)
SI_UNIT($,.METRE.)
);
#322=PRODUCT_DEFINITION_SHAPE('','',#323);
#323=PRODUCT_DEFINITION('','',#325,#324);
#324=PRODUCT_DEFINITION_CONTEXT('',#331,'design');
#325=PRODUCT_DEFINITION_FORMATION_WITH_SPECIFIED_SOURCE('','',#327,
 .NOT_KNOWN.);
#326=PRODUCT_RELATED_PRODUCT_CATEGORY('','',(#327));
#327=PRODUCT('Part 9','Part 9','Part 9',(#329));
#328=PRODUCT_CATEGORY('','');
#329=PRODUCT_CONTEXT('',#331,'mechanical');
#330=APPLICATION_PROTOCOL_DEFINITION('international standard',
'ap242_managed_model_based_3d_engineering',2020,#331);
#331=APPLICATION_CONTEXT('managed model based 3d engineering');
ENDSEC;
END-ISO-10303-21;
