ISO-10303-21;
HEADER;
/* Generated by software containing ST-Developer
 * from STEP Tools, Inc. (www.steptools.com) 
 */
/* OPTION: using custom renumber hook */

FILE_DESCRIPTION(
/* description */ ('STEP AP242 Edition 2',
'CAx-IF Rec.Pracs.---Representation and Presentation of Product Manufa
cturing Information (PMI)---4.0---2014-10-13',
'CAx-IF Rec.Pracs.---3D Tessellated Geometry---0.4---2014-09-14','2;1',
'CAx-IF Rec.Pracs.---User Defined Attributes---1.5---2016-08-15'),
/* implementation_level */ '2;1');

FILE_NAME(
/* name */ 'Assembly 1 - Part 13',
/* time_stamp */ '2026-07-25T03:56:15Z',
/* author */ (''),
/* organization */ (''),
/* preprocessor_version */ 'ST-DEVELOPER v20',
/* originating_system */ 'ONSHAPE BY PTC INC, 1.218',
/* authorisation */ '  ');

FILE_SCHEMA (('AP242_MANAGED_MODEL_BASED_3D_ENGINEERING_MIM_LF { 1 0 10303 442 3 1 4 }'));
ENDSEC;

DATA;
#10=SHAPE_REPRESENTATION_RELATIONSHIP('','',#116,#11);
#11=ADVANCED_BREP_SHAPE_REPRESENTATION('',(#114),#184);
#12=CYLINDRICAL_SURFACE('',#124,0.002);
#13=CIRCLE('',#120,0.002);
#14=CIRCLE('',#125,0.002);
#15=ORIENTED_EDGE('',*,*,#37,.F.);
#16=ORIENTED_EDGE('',*,*,#38,.F.);
#17=ORIENTED_EDGE('',*,*,#39,.T.);
#18=ORIENTED_EDGE('',*,*,#40,.T.);
#19=ORIENTED_EDGE('',*,*,#41,.T.);
#20=ORIENTED_EDGE('',*,*,#38,.T.);
#21=ORIENTED_EDGE('',*,*,#42,.T.);
#22=ORIENTED_EDGE('',*,*,#43,.F.);
#23=ORIENTED_EDGE('',*,*,#44,.F.);
#24=ORIENTED_EDGE('',*,*,#45,.F.);
#25=ORIENTED_EDGE('',*,*,#40,.F.);
#26=ORIENTED_EDGE('',*,*,#46,.T.);
#27=ORIENTED_EDGE('',*,*,#43,.T.);
#28=ORIENTED_EDGE('',*,*,#39,.F.);
#29=ORIENTED_EDGE('',*,*,#44,.T.);
#30=ORIENTED_EDGE('',*,*,#46,.F.);
#31=ORIENTED_EDGE('',*,*,#37,.T.);
#32=ORIENTED_EDGE('',*,*,#45,.T.);
#33=ORIENTED_EDGE('',*,*,#42,.F.);
#34=ORIENTED_EDGE('',*,*,#47,.F.);
#35=ORIENTED_EDGE('',*,*,#41,.F.);
#36=ORIENTED_EDGE('',*,*,#47,.T.);
#37=EDGE_CURVE('',#48,#49,#56,.T.);
#38=EDGE_CURVE('',#50,#48,#57,.T.);
#39=EDGE_CURVE('',#50,#51,#58,.T.);
#40=EDGE_CURVE('',#51,#49,#59,.T.);
#41=EDGE_CURVE('',#52,#52,#13,.T.);
#42=EDGE_CURVE('',#48,#53,#60,.T.);
#43=EDGE_CURVE('',#54,#53,#61,.T.);
#44=EDGE_CURVE('',#50,#54,#62,.T.);
#45=EDGE_CURVE('',#49,#53,#63,.T.);
#46=EDGE_CURVE('',#51,#54,#64,.T.);
#47=EDGE_CURVE('',#55,#55,#14,.T.);
#48=VERTEX_POINT('',#159);
#49=VERTEX_POINT('',#160);
#50=VERTEX_POINT('',#162);
#51=VERTEX_POINT('',#164);
#52=VERTEX_POINT('',#168);
#53=VERTEX_POINT('',#170);
#54=VERTEX_POINT('',#172);
#55=VERTEX_POINT('',#181);
#56=LINE('',#158,#65);
#57=LINE('',#161,#66);
#58=LINE('',#163,#67);
#59=LINE('',#165,#68);
#60=LINE('',#169,#69);
#61=LINE('',#171,#70);
#62=LINE('',#173,#71);
#63=LINE('',#175,#72);
#64=LINE('',#176,#73);
#65=VECTOR('',#131,1.);
#66=VECTOR('',#132,1.);
#67=VECTOR('',#133,1.);
#68=VECTOR('',#134,1.);
#69=VECTOR('',#139,1.);
#70=VECTOR('',#140,1.);
#71=VECTOR('',#141,1.);
#72=VECTOR('',#144,1.);
#73=VECTOR('',#145,1.);
#74=EDGE_LOOP('',(#15,#16,#17,#18));
#75=EDGE_LOOP('',(#19));
#76=EDGE_LOOP('',(#20,#21,#22,#23));
#77=EDGE_LOOP('',(#24,#25,#26,#27));
#78=EDGE_LOOP('',(#28,#29,#30));
#79=EDGE_LOOP('',(#31,#32,#33));
#80=EDGE_LOOP('',(#34));
#81=EDGE_LOOP('',(#35));
#82=EDGE_LOOP('',(#36));
#83=FACE_BOUND('',#74,.T.);
#84=FACE_BOUND('',#75,.T.);
#85=FACE_BOUND('',#76,.T.);
#86=FACE_BOUND('',#77,.T.);
#87=FACE_BOUND('',#78,.T.);
#88=FACE_BOUND('',#79,.T.);
#89=FACE_BOUND('',#80,.T.);
#90=FACE_BOUND('',#81,.T.);
#91=FACE_BOUND('',#82,.T.);
#92=PLANE('',#118);
#93=PLANE('',#119);
#94=PLANE('',#121);
#95=PLANE('',#122);
#96=PLANE('',#123);
#97=PLANE('',#126);
#98=ADVANCED_FACE('',(#83),#92,.T.);
#99=ADVANCED_FACE('',(#84,#85),#93,.F.);
#100=ADVANCED_FACE('',(#86),#94,.T.);
#101=ADVANCED_FACE('',(#87),#95,.T.);
#102=ADVANCED_FACE('',(#88),#96,.F.);
#103=ADVANCED_FACE('',(#89,#90),#12,.F.);
#104=ADVANCED_FACE('',(#91),#97,.T.);
#105=CLOSED_SHELL('',(#98,#99,#100,#101,#102,#103,#104));
#106=STYLED_ITEM('',(#107),#114);
#107=PRESENTATION_STYLE_ASSIGNMENT((#108));
#108=SURFACE_STYLE_USAGE(.BOTH.,#109);
#109=SURFACE_SIDE_STYLE('',(#110));
#110=SURFACE_STYLE_FILL_AREA(#111);
#111=FILL_AREA_STYLE('',(#112));
#112=FILL_AREA_STYLE_COLOUR('',#113);
#113=COLOUR_RGB('',0.917647058823529,0.917647058823529,0.917647058823529);
#114=MANIFOLD_SOLID_BREP('Part 13',#105);
#115=SHAPE_DEFINITION_REPRESENTATION(#189,#116);
#116=SHAPE_REPRESENTATION('Part 13',(#117),#184);
#117=AXIS2_PLACEMENT_3D('',#156,#127,#128);
#118=AXIS2_PLACEMENT_3D('',#157,#129,#130);
#119=AXIS2_PLACEMENT_3D('',#166,#135,#136);
#120=AXIS2_PLACEMENT_3D('',#167,#137,#138);
#121=AXIS2_PLACEMENT_3D('',#174,#142,#143);
#122=AXIS2_PLACEMENT_3D('',#177,#146,#147);
#123=AXIS2_PLACEMENT_3D('',#178,#148,#149);
#124=AXIS2_PLACEMENT_3D('',#179,#150,#151);
#125=AXIS2_PLACEMENT_3D('',#180,#152,#153);
#126=AXIS2_PLACEMENT_3D('',#182,#154,#155);
#127=DIRECTION('',(0.,0.,1.));
#128=DIRECTION('',(1.,0.,0.));
#129=DIRECTION('',(-1.,1.45173804189046E-9,1.09569007907395E-18));
#130=DIRECTION('',(-1.45173804189046E-9,-1.,0.));
#131=DIRECTION('',(-1.09569007907395E-18,1.59065496991362E-27,-1.));
#132=DIRECTION('',(-1.45173804189046E-9,-1.,-2.33549744054136E-43));
#133=DIRECTION('',(-1.09569007907395E-18,1.59065496991362E-27,-1.));
#134=DIRECTION('',(-1.45173804189046E-9,-1.,-2.33549744054136E-43));
#135=DIRECTION('',(1.4462171898862E-9,-2.09952851139373E-18,-1.));
#136=DIRECTION('',(-1.,0.,-1.4462171898862E-9));
#137=DIRECTION('',(1.4462171898862E-9,-2.09952851139373E-18,-1.));
#138=DIRECTION('',(-1.,0.,-1.4462171898862E-9));
#139=DIRECTION('',(1.,-1.45173804189046E-9,1.4462171898862E-9));
#140=DIRECTION('',(-1.45173804189046E-9,-1.,-2.33549744054136E-43));
#141=DIRECTION('',(1.,-1.45173804189046E-9,1.4462171898862E-9));
#142=DIRECTION('',(0.531499152850659,-7.71597539425857E-10,-0.847058823529412));
#143=DIRECTION('',(-0.847058823529412,0.,-0.531499152850659));
#144=DIRECTION('',(0.847058823529412,-1.22970751783663E-9,0.531499152850659));
#145=DIRECTION('',(0.847058823529412,-1.22970751783663E-9,0.531499152850659));
#146=DIRECTION('',(1.45173804189046E-9,1.,2.33549744054136E-43));
#147=DIRECTION('',(-1.,1.45173804189046E-9,3.39053048117171E-52));
#148=DIRECTION('',(1.45173804189046E-9,1.,2.33549744054136E-43));
#149=DIRECTION('',(-1.,1.45173804189046E-9,3.39053048117171E-52));
#150=DIRECTION('',(0.,0.,1.));
#151=DIRECTION('',(1.,0.,0.));
#152=DIRECTION('',(0.,0.,1.));
#153=DIRECTION('',(1.,0.,0.));
#154=DIRECTION('',(0.,0.,1.));
#155=DIRECTION('',(1.,0.,0.));
#156=CARTESIAN_POINT('',(0.,0.,0.));
#157=CARTESIAN_POINT('',(-0.0905387534043745,0.0577378956181047,0.192581906801291));
#158=CARTESIAN_POINT('',(-0.0905387534331189,0.0379378956181047,0.192581906801291));
#159=CARTESIAN_POINT('',(-0.0905387533925935,0.0379378956006838,0.198925454993024));
#160=CARTESIAN_POINT('',(-0.0905387534331189,0.0379378956055699,0.188089969411917));
#161=CARTESIAN_POINT('',(-0.0905387533638491,0.0577378956006838,0.198925454993024));
#162=CARTESIAN_POINT('',(-0.0905387533599075,0.0604529756006838,0.198925454993024));
#163=CARTESIAN_POINT('',(-0.0905387534004329,0.0604529756181047,0.192581906801291));
#164=CARTESIAN_POINT('',(-0.0905387534004329,0.0604529756181047,0.188089969411917));
#165=CARTESIAN_POINT('',(-0.0905387534043745,0.0577378956181047,0.188089969411917));
#166=CARTESIAN_POINT('',(-0.0905387534135487,0.0577378956181047,0.198925454993024));
#167=CARTESIAN_POINT('',(-0.0865387534001426,0.0491954299985483,0.198925454998809));
#168=CARTESIAN_POINT('',(-0.0885387534001426,0.0491954299985483,0.198925454995917));
#169=CARTESIAN_POINT('',(-0.0905387534422931,0.0379378956181047,0.198925454993024));
#170=CARTESIAN_POINT('',(-0.0732700642157804,0.0379378955930351,0.198925455017998));
#171=CARTESIAN_POINT('',(-0.073270064187036,0.0577378955930351,0.198925455017998));
#172=CARTESIAN_POINT('',(-0.0732700641830944,0.0604529755930351,0.198925455017998));
#173=CARTESIAN_POINT('',(-0.0905387534096071,0.0604529756181047,0.198925454993024));
#174=CARTESIAN_POINT('',(-0.0732049503573889,0.0577378955929405,0.198966311620084));
#175=CARTESIAN_POINT('',(-0.0732049503861333,0.0379378955929406,0.198966311620084));
#176=CARTESIAN_POINT('',(-0.0732049503534474,0.0604529755929405,0.198966311620084));
#177=CARTESIAN_POINT('',(-0.0785387533921163,0.0604529756006838,0.103795192812887));
#178=CARTESIAN_POINT('',(-0.0785387534248023,0.0379378956006838,0.103795192812887));
#179=CARTESIAN_POINT('',(-0.0865387534001426,0.0491954299985483,0.193944554181376));
#180=CARTESIAN_POINT('',(-0.0865387534001426,0.0491954299985483,0.193944554181376));
#181=CARTESIAN_POINT('',(-0.0845387534001426,0.0491954299985483,0.193944554181376));
#182=CARTESIAN_POINT('',(-0.0785387533965132,0.0491954341017699,0.193944554181376));
#183=MECHANICAL_DESIGN_GEOMETRIC_PRESENTATION_REPRESENTATION('',(#106),
#184);
#184=(
GEOMETRIC_REPRESENTATION_CONTEXT(3)
GLOBAL_UNCERTAINTY_ASSIGNED_CONTEXT((#185))
GLOBAL_UNIT_ASSIGNED_CONTEXT((#188,#187,#186))
REPRESENTATION_CONTEXT('Part 13','TOP_LEVEL_ASSEMBLY_PART')
);
#185=UNCERTAINTY_MEASURE_WITH_UNIT(LENGTH_MEASURE(1.E-8),#188,
'DISTANCE_ACCURACY_VALUE','Maximum Tolerance applied to model');
#186=(
NAMED_UNIT(*)
SI_UNIT($,.STERADIAN.)
SOLID_ANGLE_UNIT()
);
#187=(
NAMED_UNIT(*)
PLANE_ANGLE_UNIT()
SI_UNIT($,.RADIAN.)
);
#188=(
LENGTH_UNIT()
NAMED_UNIT(*)
SI_UNIT($,.METRE.)
);
#189=PRODUCT_DEFINITION_SHAPE('','',#190);
#190=PRODUCT_DEFINITION('','',#192,#191);
#191=PRODUCT_DEFINITION_CONTEXT('',#198,'design');
#192=PRODUCT_DEFINITION_FORMATION_WITH_SPECIFIED_SOURCE('','',#194,
 .NOT_KNOWN.);
#193=PRODUCT_RELATED_PRODUCT_CATEGORY('','',(#194));
#194=PRODUCT('Part 13','Part 13','Part 13',(#196));
#195=PRODUCT_CATEGORY('','');
#196=PRODUCT_CONTEXT('',#198,'mechanical');
#197=APPLICATION_PROTOCOL_DEFINITION('international standard',
'ap242_managed_model_based_3d_engineering',2020,#198);
#198=APPLICATION_CONTEXT('managed model based 3d engineering');
ENDSEC;
END-ISO-10303-21;
