ISO-10303-21;
HEADER;
/* Generated by software containing ST-Developer
 * from STEP Tools, Inc. (www.steptools.com) 
 */
/* OPTION: using custom renumber hook */

FILE_DESCRIPTION(
/* description */ ('STEP AP242 Edition 2',
'CAx-IF Rec.Pracs.---Representation and Presentation of Product Manufa
cturing Information (PMI)---4.0---2014-10-13',
'CAx-IF Rec.Pracs.---3D Tessellated Geometry---0.4---2014-09-14','2;1',
'CAx-IF Rec.Pracs.---User Defined Attributes---1.5---2016-08-15'),
/* implementation_level */ '2;1');

FILE_NAME(
/* name */ 'Assembly 1 - Part 10',
/* time_stamp */ '2026-07-25T03:56:15Z',
/* author */ (''),
/* organization */ (''),
/* preprocessor_version */ 'ST-DEVELOPER v20',
/* originating_system */ 'ONSHAPE BY PTC INC, 1.218',
/* authorisation */ '  ');

FILE_SCHEMA (('AP242_MANAGED_MODEL_BASED_3D_ENGINEERING_MIM_LF { 1 0 10303 442 3 1 4 }'));
ENDSEC;

DATA;
#10=SHAPE_REPRESENTATION_RELATIONSHIP('','',#294,#11);
#11=ADVANCED_BREP_SHAPE_REPRESENTATION('',(#292),#477);
#12=CYLINDRICAL_SURFACE('',#313,0.0021);
#13=CYLINDRICAL_SURFACE('',#317,0.01);
#14=CYLINDRICAL_SURFACE('',#318,0.01);
#15=CYLINDRICAL_SURFACE('',#319,0.007);
#16=LINE('',#405,#42);
#17=LINE('',#410,#43);
#18=LINE('',#419,#44);
#19=LINE('',#423,#45);
#20=LINE('',#425,#46);
#21=LINE('',#426,#47);
#22=LINE('',#428,#48);
#23=LINE('',#429,#49);
#24=LINE('',#431,#50);
#25=LINE('',#434,#51);
#26=LINE('',#436,#52);
#27=LINE('',#438,#53);
#28=LINE('',#440,#54);
#29=LINE('',#443,#55);
#30=LINE('',#444,#56);
#31=LINE('',#446,#57);
#32=LINE('',#449,#58);
#33=LINE('',#450,#59);
#34=LINE('',#452,#60);
#35=LINE('',#455,#61);
#36=LINE('',#456,#62);
#37=LINE('',#458,#63);
#38=LINE('',#461,#64);
#39=LINE('',#462,#65);
#40=LINE('',#464,#66);
#41=LINE('',#465,#67);
#42=VECTOR('',#329,1.);
#43=VECTOR('',#332,1.);
#44=VECTOR('',#341,1.);
#45=VECTOR('',#344,1.);
#46=VECTOR('',#347,1.);
#47=VECTOR('',#348,1.);
#48=VECTOR('',#351,1.);
#49=VECTOR('',#352,1.);
#50=VECTOR('',#355,1.);
#51=VECTOR('',#356,1.);
#52=VECTOR('',#357,1.);
#53=VECTOR('',#358,1.);
#54=VECTOR('',#361,1.);
#55=VECTOR('',#362,1.);
#56=VECTOR('',#363,1.);
#57=VECTOR('',#366,1.);
#58=VECTOR('',#367,1.);
#59=VECTOR('',#368,1.);
#60=VECTOR('',#371,1.);
#61=VECTOR('',#372,1.);
#62=VECTOR('',#373,1.);
#63=VECTOR('',#376,1.);
#64=VECTOR('',#377,1.);
#65=VECTOR('',#378,1.);
#66=VECTOR('',#381,1.);
#67=VECTOR('',#382,1.);
#68=ORIENTED_EDGE('',*,*,#138,.F.);
#69=ORIENTED_EDGE('',*,*,#139,.F.);
#70=ORIENTED_EDGE('',*,*,#140,.T.);
#71=ORIENTED_EDGE('',*,*,#141,.T.);
#72=ORIENTED_EDGE('',*,*,#142,.F.);
#73=ORIENTED_EDGE('',*,*,#143,.T.);
#74=ORIENTED_EDGE('',*,*,#144,.T.);
#75=ORIENTED_EDGE('',*,*,#145,.F.);
#76=ORIENTED_EDGE('',*,*,#146,.T.);
#77=ORIENTED_EDGE('',*,*,#147,.T.);
#78=ORIENTED_EDGE('',*,*,#148,.F.);
#79=ORIENTED_EDGE('',*,*,#146,.F.);
#80=ORIENTED_EDGE('',*,*,#149,.T.);
#81=ORIENTED_EDGE('',*,*,#140,.F.);
#82=ORIENTED_EDGE('',*,*,#150,.T.);
#83=ORIENTED_EDGE('',*,*,#151,.F.);
#84=ORIENTED_EDGE('',*,*,#148,.T.);
#85=ORIENTED_EDGE('',*,*,#152,.F.);
#86=ORIENTED_EDGE('',*,*,#142,.T.);
#87=ORIENTED_EDGE('',*,*,#153,.T.);
#88=ORIENTED_EDGE('',*,*,#154,.T.);
#89=ORIENTED_EDGE('',*,*,#155,.F.);
#90=ORIENTED_EDGE('',*,*,#156,.F.);
#91=ORIENTED_EDGE('',*,*,#157,.T.);
#92=ORIENTED_EDGE('',*,*,#158,.T.);
#93=ORIENTED_EDGE('',*,*,#153,.F.);
#94=ORIENTED_EDGE('',*,*,#159,.F.);
#95=ORIENTED_EDGE('',*,*,#160,.T.);
#96=ORIENTED_EDGE('',*,*,#161,.T.);
#97=ORIENTED_EDGE('',*,*,#157,.F.);
#98=ORIENTED_EDGE('',*,*,#162,.F.);
#99=ORIENTED_EDGE('',*,*,#163,.T.);
#100=ORIENTED_EDGE('',*,*,#164,.T.);
#101=ORIENTED_EDGE('',*,*,#160,.F.);
#102=ORIENTED_EDGE('',*,*,#165,.F.);
#103=ORIENTED_EDGE('',*,*,#166,.T.);
#104=ORIENTED_EDGE('',*,*,#167,.T.);
#105=ORIENTED_EDGE('',*,*,#163,.F.);
#106=ORIENTED_EDGE('',*,*,#168,.F.);
#107=ORIENTED_EDGE('',*,*,#155,.T.);
#108=ORIENTED_EDGE('',*,*,#169,.T.);
#109=ORIENTED_EDGE('',*,*,#166,.F.);
#110=ORIENTED_EDGE('',*,*,#170,.F.);
#111=ORIENTED_EDGE('',*,*,#171,.T.);
#112=ORIENTED_EDGE('',*,*,#139,.T.);
#113=ORIENTED_EDGE('',*,*,#172,.F.);
#114=ORIENTED_EDGE('',*,*,#156,.T.);
#115=ORIENTED_EDGE('',*,*,#170,.T.);
#116=ORIENTED_EDGE('',*,*,#168,.T.);
#117=ORIENTED_EDGE('',*,*,#165,.T.);
#118=ORIENTED_EDGE('',*,*,#162,.T.);
#119=ORIENTED_EDGE('',*,*,#159,.T.);
#120=ORIENTED_EDGE('',*,*,#143,.F.);
#121=ORIENTED_EDGE('',*,*,#152,.T.);
#122=ORIENTED_EDGE('',*,*,#147,.F.);
#123=ORIENTED_EDGE('',*,*,#150,.F.);
#124=ORIENTED_EDGE('',*,*,#172,.T.);
#125=ORIENTED_EDGE('',*,*,#145,.T.);
#126=ORIENTED_EDGE('',*,*,#151,.T.);
#127=ORIENTED_EDGE('',*,*,#141,.F.);
#128=ORIENTED_EDGE('',*,*,#149,.F.);
#129=ORIENTED_EDGE('',*,*,#138,.T.);
#130=ORIENTED_EDGE('',*,*,#144,.F.);
#131=ORIENTED_EDGE('',*,*,#171,.F.);
#132=ORIENTED_EDGE('',*,*,#158,.F.);
#133=ORIENTED_EDGE('',*,*,#161,.F.);
#134=ORIENTED_EDGE('',*,*,#164,.F.);
#135=ORIENTED_EDGE('',*,*,#167,.F.);
#136=ORIENTED_EDGE('',*,*,#169,.F.);
#137=ORIENTED_EDGE('',*,*,#154,.F.);
#138=EDGE_CURVE('',#173,#173,#198,.T.);
#139=EDGE_CURVE('',#174,#174,#199,.T.);
#140=EDGE_CURVE('',#175,#176,#16,.T.);
#141=EDGE_CURVE('',#176,#177,#200,.T.);
#142=EDGE_CURVE('',#178,#177,#17,.T.);
#143=EDGE_CURVE('',#178,#175,#201,.T.);
#144=EDGE_CURVE('',#179,#179,#202,.T.);
#145=EDGE_CURVE('',#180,#181,#203,.T.);
#146=EDGE_CURVE('',#180,#182,#18,.T.);
#147=EDGE_CURVE('',#182,#183,#204,.T.);
#148=EDGE_CURVE('',#181,#183,#19,.T.);
#149=EDGE_CURVE('',#180,#176,#20,.T.);
#150=EDGE_CURVE('',#175,#182,#21,.T.);
#151=EDGE_CURVE('',#181,#177,#22,.T.);
#152=EDGE_CURVE('',#178,#183,#23,.T.);
#153=EDGE_CURVE('',#184,#185,#24,.T.);
#154=EDGE_CURVE('',#185,#186,#25,.T.);
#155=EDGE_CURVE('',#187,#186,#26,.T.);
#156=EDGE_CURVE('',#184,#187,#27,.T.);
#157=EDGE_CURVE('',#188,#189,#28,.T.);
#158=EDGE_CURVE('',#189,#185,#29,.T.);
#159=EDGE_CURVE('',#188,#184,#30,.T.);
#160=EDGE_CURVE('',#190,#191,#31,.T.);
#161=EDGE_CURVE('',#191,#189,#32,.T.);
#162=EDGE_CURVE('',#190,#188,#33,.T.);
#163=EDGE_CURVE('',#192,#193,#34,.T.);
#164=EDGE_CURVE('',#193,#191,#35,.T.);
#165=EDGE_CURVE('',#192,#190,#36,.T.);
#166=EDGE_CURVE('',#194,#195,#37,.T.);
#167=EDGE_CURVE('',#195,#193,#38,.T.);
#168=EDGE_CURVE('',#194,#192,#39,.T.);
#169=EDGE_CURVE('',#186,#195,#40,.T.);
#170=EDGE_CURVE('',#187,#194,#41,.T.);
#171=EDGE_CURVE('',#196,#196,#205,.F.);
#172=EDGE_CURVE('',#197,#197,#206,.T.);
#173=VERTEX_POINT('',#402);
#174=VERTEX_POINT('',#404);
#175=VERTEX_POINT('',#406);
#176=VERTEX_POINT('',#407);
#177=VERTEX_POINT('',#409);
#178=VERTEX_POINT('',#411);
#179=VERTEX_POINT('',#415);
#180=VERTEX_POINT('',#417);
#181=VERTEX_POINT('',#418);
#182=VERTEX_POINT('',#420);
#183=VERTEX_POINT('',#422);
#184=VERTEX_POINT('',#432);
#185=VERTEX_POINT('',#433);
#186=VERTEX_POINT('',#435);
#187=VERTEX_POINT('',#437);
#188=VERTEX_POINT('',#441);
#189=VERTEX_POINT('',#442);
#190=VERTEX_POINT('',#447);
#191=VERTEX_POINT('',#448);
#192=VERTEX_POINT('',#453);
#193=VERTEX_POINT('',#454);
#194=VERTEX_POINT('',#459);
#195=VERTEX_POINT('',#460);
#196=VERTEX_POINT('',#468);
#197=VERTEX_POINT('',#471);
#198=CIRCLE('',#297,0.007);
#199=CIRCLE('',#298,0.0021);
#200=CIRCLE('',#299,0.01);
#201=CIRCLE('',#300,0.01);
#202=CIRCLE('',#302,0.007);
#203=CIRCLE('',#303,0.01);
#204=CIRCLE('',#304,0.01);
#205=CIRCLE('',#314,0.0021);
#206=CIRCLE('',#316,0.01);
#207=EDGE_LOOP('',(#68));
#208=EDGE_LOOP('',(#69));
#209=EDGE_LOOP('',(#70,#71,#72,#73));
#210=EDGE_LOOP('',(#74));
#211=EDGE_LOOP('',(#75,#76,#77,#78));
#212=EDGE_LOOP('',(#79,#80,#81,#82));
#213=EDGE_LOOP('',(#83,#84,#85,#86));
#214=EDGE_LOOP('',(#87,#88,#89,#90));
#215=EDGE_LOOP('',(#91,#92,#93,#94));
#216=EDGE_LOOP('',(#95,#96,#97,#98));
#217=EDGE_LOOP('',(#99,#100,#101,#102));
#218=EDGE_LOOP('',(#103,#104,#105,#106));
#219=EDGE_LOOP('',(#107,#108,#109,#110));
#220=EDGE_LOOP('',(#111));
#221=EDGE_LOOP('',(#112));
#222=EDGE_LOOP('',(#113));
#223=EDGE_LOOP('',(#114,#115,#116,#117,#118,#119));
#224=EDGE_LOOP('',(#120,#121,#122,#123));
#225=EDGE_LOOP('',(#124));
#226=EDGE_LOOP('',(#125,#126,#127,#128));
#227=EDGE_LOOP('',(#129));
#228=EDGE_LOOP('',(#130));
#229=EDGE_LOOP('',(#131));
#230=EDGE_LOOP('',(#132,#133,#134,#135,#136,#137));
#231=FACE_BOUND('',#207,.T.);
#232=FACE_BOUND('',#208,.T.);
#233=FACE_BOUND('',#209,.T.);
#234=FACE_BOUND('',#210,.T.);
#235=FACE_BOUND('',#211,.T.);
#236=FACE_BOUND('',#212,.T.);
#237=FACE_BOUND('',#213,.T.);
#238=FACE_BOUND('',#214,.T.);
#239=FACE_BOUND('',#215,.T.);
#240=FACE_BOUND('',#216,.T.);
#241=FACE_BOUND('',#217,.T.);
#242=FACE_BOUND('',#218,.T.);
#243=FACE_BOUND('',#219,.T.);
#244=FACE_BOUND('',#220,.T.);
#245=FACE_BOUND('',#221,.T.);
#246=FACE_BOUND('',#222,.T.);
#247=FACE_BOUND('',#223,.T.);
#248=FACE_BOUND('',#224,.T.);
#249=FACE_BOUND('',#225,.T.);
#250=FACE_BOUND('',#226,.T.);
#251=FACE_BOUND('',#227,.T.);
#252=FACE_BOUND('',#228,.T.);
#253=FACE_BOUND('',#229,.T.);
#254=FACE_BOUND('',#230,.T.);
#255=PLANE('',#296);
#256=PLANE('',#301);
#257=PLANE('',#305);
#258=PLANE('',#306);
#259=PLANE('',#307);
#260=PLANE('',#308);
#261=PLANE('',#309);
#262=PLANE('',#310);
#263=PLANE('',#311);
#264=PLANE('',#312);
#265=PLANE('',#315);
#266=PLANE('',#320);
#267=ADVANCED_FACE('',(#231,#232,#233),#255,.T.);
#268=ADVANCED_FACE('',(#234,#235),#256,.F.);
#269=ADVANCED_FACE('',(#236),#257,.T.);
#270=ADVANCED_FACE('',(#237),#258,.F.);
#271=ADVANCED_FACE('',(#238),#259,.F.);
#272=ADVANCED_FACE('',(#239),#260,.F.);
#273=ADVANCED_FACE('',(#240),#261,.F.);
#274=ADVANCED_FACE('',(#241),#262,.F.);
#275=ADVANCED_FACE('',(#242),#263,.F.);
#276=ADVANCED_FACE('',(#243),#264,.F.);
#277=ADVANCED_FACE('',(#244,#245),#12,.F.);
#278=ADVANCED_FACE('',(#246,#247),#265,.F.);
#279=ADVANCED_FACE('',(#248,#249),#13,.T.);
#280=ADVANCED_FACE('',(#250),#14,.T.);
#281=ADVANCED_FACE('',(#251,#252),#15,.F.);
#282=ADVANCED_FACE('',(#253,#254),#266,.F.);
#283=CLOSED_SHELL('',(#267,#268,#269,#270,#271,#272,#273,#274,#275,#276,
#277,#278,#279,#280,#281,#282));
#284=STYLED_ITEM('',(#285),#292);
#285=PRESENTATION_STYLE_ASSIGNMENT((#286));
#286=SURFACE_STYLE_USAGE(.BOTH.,#287);
#287=SURFACE_SIDE_STYLE('',(#288));
#288=SURFACE_STYLE_FILL_AREA(#289);
#289=FILL_AREA_STYLE('',(#290));
#290=FILL_AREA_STYLE_COLOUR('',#291);
#291=COLOUR_RGB('',0.917647058823529,0.917647058823529,0.917647058823529);
#292=MANIFOLD_SOLID_BREP('Part 10',#283);
#293=SHAPE_DEFINITION_REPRESENTATION(#482,#294);
#294=SHAPE_REPRESENTATION('Part 10',(#295),#477);
#295=AXIS2_PLACEMENT_3D('',#399,#321,#322);
#296=AXIS2_PLACEMENT_3D('',#400,#323,#324);
#297=AXIS2_PLACEMENT_3D('',#401,#325,#326);
#298=AXIS2_PLACEMENT_3D('',#403,#327,#328);
#299=AXIS2_PLACEMENT_3D('',#408,#330,#331);
#300=AXIS2_PLACEMENT_3D('',#412,#333,#334);
#301=AXIS2_PLACEMENT_3D('',#413,#335,#336);
#302=AXIS2_PLACEMENT_3D('',#414,#337,#338);
#303=AXIS2_PLACEMENT_3D('',#416,#339,#340);
#304=AXIS2_PLACEMENT_3D('',#421,#342,#343);
#305=AXIS2_PLACEMENT_3D('',#424,#345,#346);
#306=AXIS2_PLACEMENT_3D('',#427,#349,#350);
#307=AXIS2_PLACEMENT_3D('',#430,#353,#354);
#308=AXIS2_PLACEMENT_3D('',#439,#359,#360);
#309=AXIS2_PLACEMENT_3D('',#445,#364,#365);
#310=AXIS2_PLACEMENT_3D('',#451,#369,#370);
#311=AXIS2_PLACEMENT_3D('',#457,#374,#375);
#312=AXIS2_PLACEMENT_3D('',#463,#379,#380);
#313=AXIS2_PLACEMENT_3D('',#466,#383,#384);
#314=AXIS2_PLACEMENT_3D('',#467,#385,#386);
#315=AXIS2_PLACEMENT_3D('',#469,#387,#388);
#316=AXIS2_PLACEMENT_3D('',#470,#389,#390);
#317=AXIS2_PLACEMENT_3D('',#472,#391,#392);
#318=AXIS2_PLACEMENT_3D('',#473,#393,#394);
#319=AXIS2_PLACEMENT_3D('',#474,#395,#396);
#320=AXIS2_PLACEMENT_3D('',#475,#397,#398);
#321=DIRECTION('',(0.,0.,1.));
#322=DIRECTION('',(1.,0.,0.));
#323=DIRECTION('',(0.0871557427476581,-1.26527293570507E-10,0.996194698091746));
#324=DIRECTION('',(0.996194698091746,5.52430094095043E-12,-0.0871557427476581));
#325=DIRECTION('',(0.0871557427476581,-1.26527293570507E-10,0.996194698091746));
#326=DIRECTION('',(0.996194698091746,5.52430094095043E-12,-0.0871557427476581));
#327=DIRECTION('',(0.0871557427476581,-1.26527293570507E-10,0.996194698091746));
#328=DIRECTION('',(0.996194698091746,5.52430094095043E-12,-0.0871557427476581));
#329=DIRECTION('',(0.996194698091746,5.52430094095043E-12,-0.0871557427476581));
#330=DIRECTION('',(0.0871557427476581,-1.26527293570507E-10,0.996194698091746));
#331=DIRECTION('',(0.996194698091746,5.52430094095043E-12,-0.0871557427476581));
#332=DIRECTION('',(0.996194698091746,5.52430094095043E-12,-0.0871557427476581));
#333=DIRECTION('',(0.0871557427476581,-1.26527293570507E-10,0.996194698091746));
#334=DIRECTION('',(0.996194698091746,5.52430094095043E-12,-0.0871557427476581));
#335=DIRECTION('',(0.0871557427476581,-1.26527293570507E-10,0.996194698091746));
#336=DIRECTION('',(0.996194698091746,5.52430094095043E-12,-0.0871557427476581));
#337=DIRECTION('',(0.0871557427476581,-1.26527293570507E-10,0.996194698091746));
#338=DIRECTION('',(0.996194698091746,5.52430094095043E-12,-0.0871557427476581));
#339=DIRECTION('',(0.0871557427476581,-1.26527293570507E-10,0.996194698091746));
#340=DIRECTION('',(0.996194698091746,5.52430094095043E-12,-0.0871557427476581));
#341=DIRECTION('',(-0.996194698091746,-5.52430094095043E-12,0.0871557427476581));
#342=DIRECTION('',(0.0871557427476581,-1.26527293570507E-10,0.996194698091746));
#343=DIRECTION('',(0.996194698091746,5.52430094095043E-12,-0.0871557427476581));
#344=DIRECTION('',(-0.996194698091746,-5.52430094095043E-12,0.0871557427476581));
#345=DIRECTION('',(-5.52430094095043E-12,-1.,-1.26527293570507E-10));
#346=DIRECTION('',(0.996194698091746,5.52430094095043E-12,-0.0871557427476581));
#347=DIRECTION('',(0.0871557427476581,-1.26527293570507E-10,0.996194698091746));
#348=DIRECTION('',(-0.0871557427476581,1.26527293570507E-10,-0.996194698091746));
#349=DIRECTION('',(-5.52430094095043E-12,-1.,-1.26527293570507E-10));
#350=DIRECTION('',(0.996194698091746,5.52430094095043E-12,-0.0871557427476581));
#351=DIRECTION('',(0.0871557427476581,-1.26527293570507E-10,0.996194698091746));
#352=DIRECTION('',(-0.0871557427476581,1.26527293570507E-10,-0.996194698091746));
#353=DIRECTION('',(0.49809734905065,0.866025403787205,-0.0435778712642525));
#354=DIRECTION('',(-0.862729915660063,0.499999999995208,0.0754790873684373));
#355=DIRECTION('',(-0.0871557427476581,1.26527293570507E-10,-0.996194698091746));
#356=DIRECTION('',(0.862729915660063,-0.499999999995208,-0.0754790873684373));
#357=DIRECTION('',(-0.0871557427476581,1.26527293570507E-10,-0.996194698091746));
#358=DIRECTION('',(0.862729915660063,-0.499999999995208,-0.0754790873684373));
#359=DIRECTION('',(0.996194698091746,5.5313706567092E-12,-0.0871557427476581));
#360=DIRECTION('',(5.51725812759454E-12,1.,1.26527909736835E-10));
#361=DIRECTION('',(-0.0871557427476581,1.26527293570507E-10,-0.996194698091746));
#362=DIRECTION('',(-5.51725812759455E-12,-1.,-1.26527909736835E-10));
#363=DIRECTION('',(-5.51725812759454E-12,-1.,-1.26527909736835E-10));
#364=DIRECTION('',(0.498097349041096,-0.866025403781672,-0.0435778714834056));
#365=DIRECTION('',(0.862729915665579,0.500000000004792,-0.0754790872419092));
#366=DIRECTION('',(-0.0871557427476581,1.26527293570507E-10,-0.996194698091746));
#367=DIRECTION('',(-0.862729915665579,-0.500000000004792,0.0754790872419092));
#368=DIRECTION('',(-0.862729915665579,-0.500000000004792,0.0754790872419092));
#369=DIRECTION('',(-0.49809734905065,-0.866025403787205,0.0435778712642525));
#370=DIRECTION('',(0.862729915660063,-0.499999999995208,-0.0754790873684373));
#371=DIRECTION('',(-0.0871557427476581,1.26527293570507E-10,-0.996194698091746));
#372=DIRECTION('',(-0.862729915660063,0.499999999995208,0.0754790873684373));
#373=DIRECTION('',(-0.862729915660063,0.499999999995208,0.0754790873684373));
#374=DIRECTION('',(-0.996194698091746,-5.5313706567092E-12,0.0871557427476581));
#375=DIRECTION('',(-5.51725812759454E-12,-1.,-1.26527909736835E-10));
#376=DIRECTION('',(-0.0871557427476581,1.26527293570507E-10,-0.996194698091746));
#377=DIRECTION('',(5.51725812759455E-12,1.,1.26527909736835E-10));
#378=DIRECTION('',(5.51725812759454E-12,1.,1.26527909736835E-10));
#379=DIRECTION('',(-0.498097349041097,0.866025403781672,0.0435778714834057));
#380=DIRECTION('',(-0.862729915665578,-0.500000000004793,0.0754790872419092));
#381=DIRECTION('',(0.862729915665578,0.500000000004793,-0.0754790872419092));
#382=DIRECTION('',(0.862729915665578,0.500000000004793,-0.0754790872419092));
#383=DIRECTION('',(0.0871557427476581,-1.26527293570507E-10,0.996194698091746));
#384=DIRECTION('',(0.996194698091746,5.52430094095043E-12,-0.0871557427476581));
#385=DIRECTION('',(0.0871557427476581,-1.26527293570507E-10,0.996194698091746));
#386=DIRECTION('',(0.996194698091746,0.,-0.0871557427476581));
#387=DIRECTION('',(0.0871557427476581,-1.26527293570507E-10,0.996194698091746));
#388=DIRECTION('',(0.996194698091746,5.52430094095043E-12,-0.0871557427476581));
#389=DIRECTION('',(0.0871557427476581,-1.26527293570507E-10,0.996194698091746));
#390=DIRECTION('',(0.996194698091746,5.52430094095043E-12,-0.0871557427476581));
#391=DIRECTION('',(-0.0871557427476581,1.26527293570507E-10,-0.996194698091746));
#392=DIRECTION('',(-0.996194698091746,-5.52430094095043E-12,0.0871557427476581));
#393=DIRECTION('',(0.0871557427476581,-1.26527293570507E-10,0.996194698091746));
#394=DIRECTION('',(0.996194698091746,5.52430094095043E-12,-0.0871557427476581));
#395=DIRECTION('',(0.0871557427476581,-1.26527293570507E-10,0.996194698091746));
#396=DIRECTION('',(0.996194698091746,5.52430094095043E-12,-0.0871557427476581));
#397=DIRECTION('',(0.0871557427476581,-1.26527293570507E-10,0.996194698091746));
#398=DIRECTION('',(0.996194698091746,1.10697038140359E-11,-0.0871557427476581));
#399=CARTESIAN_POINT('',(0.,0.,0.));
#400=CARTESIAN_POINT('',(-0.101708482819186,0.0491954341252441,0.226001995467335));
#401=CARTESIAN_POINT('',(-0.076803615366892,0.049195429997481,0.223823101898643));
#402=CARTESIAN_POINT('',(-0.0698302524802498,0.0491954299975197,0.223213011699409));
#403=CARTESIAN_POINT('',(-0.101708482819186,0.0491954341252441,0.226001995467335));
#404=CARTESIAN_POINT('',(-0.0996164739531929,0.0491954341252557,0.225818968407564));
#405=CARTESIAN_POINT('',(-0.0842750756026354,0.0391954299974396,0.224476769967985));
#406=CARTESIAN_POINT('',(-0.101708482819241,0.039195429997343,0.226001995466069));
#407=CARTESIAN_POINT('',(-0.0768036153669472,0.0391954299974811,0.223823101897378));
#408=CARTESIAN_POINT('',(-0.076803615366892,0.049195429997481,0.223823101898643));
#409=CARTESIAN_POINT('',(-0.0768036153668368,0.059195429997481,0.223823101899908));
#410=CARTESIAN_POINT('',(-0.0842750756025249,0.0591954299974396,0.224476769970515));
#411=CARTESIAN_POINT('',(-0.10170848281913,0.0591954299973429,0.2260019954686));
#412=CARTESIAN_POINT('',(-0.101708482819186,0.0491954341252441,0.226001995467335));
#413=CARTESIAN_POINT('',(-0.0847108543162631,0.0591954299980722,0.219495796480057));
#414=CARTESIAN_POINT('',(-0.0772393940806303,0.0491954299981137,0.218842128408184));
#415=CARTESIAN_POINT('',(-0.0702660311939881,0.0491954299981524,0.21823203820895));
#416=CARTESIAN_POINT('',(-0.0772393940806303,0.0491954299981137,0.218842128408184));
#417=CARTESIAN_POINT('',(-0.0772393940806855,0.0391954299981137,0.218842128406919));
#418=CARTESIAN_POINT('',(-0.077239394080575,0.0591954299981137,0.218842128409449));
#419=CARTESIAN_POINT('',(-0.0847108543163736,0.0391954299980723,0.219495796477526));
#420=CARTESIAN_POINT('',(-0.102144261532979,0.0391954299979756,0.221021021975611));
#421=CARTESIAN_POINT('',(-0.102144261532924,0.0491954341258768,0.221021021976876));
#422=CARTESIAN_POINT('',(-0.102144261532869,0.0591954299979756,0.221021021978141));
#423=CARTESIAN_POINT('',(-0.0847108543162631,0.0591954299980722,0.219495796480057));
#424=CARTESIAN_POINT('',(-0.0844929649595045,0.039195429997756,0.221986283222756));
#425=CARTESIAN_POINT('',(-0.0789825089356387,0.0391954300006442,0.198918234445084));
#426=CARTESIAN_POINT('',(-0.10192637217611,0.0391954299976593,0.223511508720839));
#427=CARTESIAN_POINT('',(-0.084492964959394,0.0591954299977559,0.221986283225286));
#428=CARTESIAN_POINT('',(-0.0789825089355282,0.0591954300006442,0.198918234447615));
#429=CARTESIAN_POINT('',(-0.101926372175999,0.0591954299976593,0.22351150872337));
#430=CARTESIAN_POINT('',(-0.105406595889154,0.0462509477552778,0.203237682173523));
#431=CARTESIAN_POINT('',(-0.107100126875904,0.0472324432128908,0.203385846936318));
#432=CARTESIAN_POINT('',(-0.106838659647662,0.0472324432125112,0.206374431030593));
#433=CARTESIAN_POINT('',(-0.107143704747278,0.0472324432125112,0.202887749587272));
#434=CARTESIAN_POINT('',(-0.105450173760528,0.0462509477553411,0.202739584824477));
#435=CARTESIAN_POINT('',(-0.103756642774541,0.0452694522972852,0.202591420061748));
#436=CARTESIAN_POINT('',(-0.103713064902403,0.0452694522976648,0.203089517410728));
#437=CARTESIAN_POINT('',(-0.10345159767416,0.0452694522972852,0.206078101505002));
#438=CARTESIAN_POINT('',(-0.105145128660911,0.0462509477548982,0.206226266267798));
#439=CARTESIAN_POINT('',(-0.107100126875894,0.0491954341281355,0.203385846936566));
#440=CARTESIAN_POINT('',(-0.107100126875883,0.0511584250433802,0.203385846936814));
#441=CARTESIAN_POINT('',(-0.10683865964764,0.0511584250430007,0.20637443103109));
#442=CARTESIAN_POINT('',(-0.107143704748021,0.0511584250430007,0.202887749587835));
#443=CARTESIAN_POINT('',(-0.107143704747267,0.0491954341281988,0.20288774958752));
#444=CARTESIAN_POINT('',(-0.106838659647651,0.0491954341277559,0.206374431030841));
#445=CARTESIAN_POINT('',(-0.105406595889121,0.052139920501012,0.203237682174268));
#446=CARTESIAN_POINT('',(-0.10371306490236,0.0531214159586437,0.203089517411721));
#447=CARTESIAN_POINT('',(-0.103451597674117,0.0531214159582642,0.206078101505996));
#448=CARTESIAN_POINT('',(-0.103756642774498,0.0531214159591498,0.202591420062742));
#449=CARTESIAN_POINT('',(-0.105450173760495,0.0521399205010752,0.202739584825222));
#450=CARTESIAN_POINT('',(-0.105145128660878,0.0521399205006324,0.206226266268543));
#451=CARTESIAN_POINT('',(-0.10201953391561,0.0521399205010308,0.202941352648926));
#452=CARTESIAN_POINT('',(-0.100326002928859,0.0511584250434178,0.20279318788613));
#453=CARTESIAN_POINT('',(-0.100064535700616,0.0511584250430382,0.205781771980406));
#454=CARTESIAN_POINT('',(-0.100369580800233,0.0511584250439239,0.202295090537084));
#455=CARTESIAN_POINT('',(-0.102063111786983,0.052139920501094,0.20244325529988));
#456=CARTESIAN_POINT('',(-0.101758066687367,0.0521399205006512,0.205929936743201));
#457=CARTESIAN_POINT('',(-0.10032600292887,0.0491954341281731,0.202793187885882));
#458=CARTESIAN_POINT('',(-0.100326002928881,0.0472324432129284,0.202793187885634));
#459=CARTESIAN_POINT('',(-0.100064535700638,0.0472324432125488,0.205781771979909));
#460=CARTESIAN_POINT('',(-0.100369580800254,0.0472324432129916,0.202295090536588));
#461=CARTESIAN_POINT('',(-0.100369580800244,0.0491954341282363,0.202295090536837));
#462=CARTESIAN_POINT('',(-0.100064535700627,0.0491954341277935,0.205781771980157));
#463=CARTESIAN_POINT('',(-0.102019533915642,0.0462509477552966,0.202941352648181));
#464=CARTESIAN_POINT('',(-0.102063111787016,0.0462509477553598,0.202443255299135));
#465=CARTESIAN_POINT('',(-0.101758066687399,0.046250947754917,0.205929936742456));
#466=CARTESIAN_POINT('',(-0.105891958471073,0.0491954341313175,0.17818464995893));
#467=CARTESIAN_POINT('',(-0.103756642773756,0.0491954341282175,0.202591420062179));
#468=CARTESIAN_POINT('',(-0.101664633907763,0.0491954341282175,0.202408393002408));
#469=CARTESIAN_POINT('',(-0.103451597674139,0.0491954341277747,0.206078101505499));
#470=CARTESIAN_POINT('',(-0.103451597674139,0.0491954341277747,0.206078101505499));
#471=CARTESIAN_POINT('',(-0.0934896506932213,0.0491954341278299,0.205206544078023));
#472=CARTESIAN_POINT('',(-0.101708482819186,0.0491954341252441,0.226001995467335));
#473=CARTESIAN_POINT('',(-0.0789825089355835,0.0491954300006442,0.198918234446349));
#474=CARTESIAN_POINT('',(-0.0789825089355835,0.0491954300006442,0.198918234446349));
#475=CARTESIAN_POINT('',(-0.103756642773756,0.0491954341282175,0.202591420062179));
#476=MECHANICAL_DESIGN_GEOMETRIC_PRESENTATION_REPRESENTATION('',(#284),
#477);
#477=(
GEOMETRIC_REPRESENTATION_CONTEXT(3)
GLOBAL_UNCERTAINTY_ASSIGNED_CONTEXT((#478))
GLOBAL_UNIT_ASSIGNED_CONTEXT((#481,#480,#479))
REPRESENTATION_CONTEXT('Part 10','TOP_LEVEL_ASSEMBLY_PART')
);
#478=UNCERTAINTY_MEASURE_WITH_UNIT(LENGTH_MEASURE(1.E-8),#481,
'DISTANCE_ACCURACY_VALUE','Maximum Tolerance applied to model');
#479=(
NAMED_UNIT(*)
SI_UNIT($,.STERADIAN.)
SOLID_ANGLE_UNIT()
);
#480=(
NAMED_UNIT(*)
PLANE_ANGLE_UNIT()
SI_UNIT($,.RADIAN.)
);
#481=(
LENGTH_UNIT()
NAMED_UNIT(*)
SI_UNIT($,.METRE.)
);
#482=PRODUCT_DEFINITION_SHAPE('','',#483);
#483=PRODUCT_DEFINITION('','',#485,#484);
#484=PRODUCT_DEFINITION_CONTEXT('',#491,'design');
#485=PRODUCT_DEFINITION_FORMATION_WITH_SPECIFIED_SOURCE('','',#487,
 .NOT_KNOWN.);
#486=PRODUCT_RELATED_PRODUCT_CATEGORY('','',(#487));
#487=PRODUCT('Part 10','Part 10','Part 10',(#489));
#488=PRODUCT_CATEGORY('','');
#489=PRODUCT_CONTEXT('',#491,'mechanical');
#490=APPLICATION_PROTOCOL_DEFINITION('international standard',
'ap242_managed_model_based_3d_engineering',2020,#491);
#491=APPLICATION_CONTEXT('managed model based 3d engineering');
ENDSEC;
END-ISO-10303-21;
