ISO-10303-21;
HEADER;
/* Generated by software containing ST-Developer
 * from STEP Tools, Inc. (www.steptools.com) 
 */
/* OPTION: using custom renumber hook */

FILE_DESCRIPTION(
/* description */ ('STEP AP242 Edition 2',
'CAx-IF Rec.Pracs.---Representation and Presentation of Product Manufa
cturing Information (PMI)---4.0---2014-10-13',
'CAx-IF Rec.Pracs.---3D Tessellated Geometry---0.4---2014-09-14','2;1',
'CAx-IF Rec.Pracs.---User Defined Attributes---1.5---2016-08-15'),
/* implementation_level */ '2;1');

FILE_NAME(
/* name */ 'Assembly 1 - Part 5',
/* time_stamp */ '2026-07-25T03:56:15Z',
/* author */ (''),
/* organization */ (''),
/* preprocessor_version */ 'ST-DEVELOPER v20',
/* originating_system */ 'ONSHAPE BY PTC INC, 1.218',
/* authorisation */ '  ');

FILE_SCHEMA (('AP242_MANAGED_MODEL_BASED_3D_ENGINEERING_MIM_LF { 1 0 10303 442 3 1 4 }'));
ENDSEC;

DATA;
#10=SHAPE_REPRESENTATION_RELATIONSHIP('','',#289,#11);
#11=ADVANCED_BREP_SHAPE_REPRESENTATION('',(#287),#853);
#12=B_SPLINE_SURFACE_WITH_KNOTS('',3,3,((#461,#462,#463,#464,#465,#466,
#467,#468,#469,#470,#471,#472,#473,#474,#475,#476,#477,#478,#479,#480,#481,
#482,#483,#484,#485,#486,#487,#488,#489,#490,#491,#492,#493,#494,#495,#496,
#497,#498,#499),(#500,#501,#502,#503,#504,#505,#506,#507,#508,#509,#510,
#511,#512,#513,#514,#515,#516,#517,#518,#519,#520,#521,#522,#523,#524,#525,
#526,#527,#528,#529,#530,#531,#532,#533,#534,#535,#536,#537,#538),(#539,
#540,#541,#542,#543,#544,#545,#546,#547,#548,#549,#550,#551,#552,#553,#554,
#555,#556,#557,#558,#559,#560,#561,#562,#563,#564,#565,#566,#567,#568,#569,
#570,#571,#572,#573,#574,#575,#576,#577),(#578,#579,#580,#581,#582,#583,
#584,#585,#586,#587,#588,#589,#590,#591,#592,#593,#594,#595,#596,#597,#598,
#599,#600,#601,#602,#603,#604,#605,#606,#607,#608,#609,#610,#611,#612,#613,
#614,#615,#616)),.UNSPECIFIED.,.F.,.F.,.F.,(4,4),(4,1,1,1,1,1,1,1,1,1,1,
1,1,1,1,1,1,1,1,1,1,1,1,1,1,1,1,1,1,1,1,1,1,1,1,1,4),(-0.144693055426833,
0.867201715264253),(0.0056482161368909,0.00612303998344711,0.00636045190672522,
0.00667700113776269,0.00707268767655954,0.00754751152311575,0.00802233536967196,
0.00849715921622817,0.00897198306278438,0.0094468069093406,0.00984249344813744,
0.0101590426791749,0.010396454602453,0.0106338665257311,0.0109504157567686,
0.0113461022955654,0.0118209261421217,0.0122957499886779,0.0127705738352341,
0.0132453976817903,0.0137202215283465,0.0141159080671434,0.0144324572981808,
0.0147490065292183,0.0151446930680151,0.0156195169145714,0.0160943407611276,
0.0164900272999244,0.0168065765309619,0.0171231257619994,0.0175188123007962,
0.0179936361473524,0.0184684599939086,0.0189432838404648,0.0194181076870211,
0.0198929315335773,0.0208425792266897),.UNSPECIFIED.);
#13=B_SPLINE_SURFACE_WITH_KNOTS('',3,3,((#673,#674,#675,#676,#677,#678,
#679,#680,#681,#682,#683,#684,#685,#686,#687,#688,#689,#690,#691,#692,#693,
#694,#695,#696,#697,#698,#699,#700,#701,#702,#703,#704,#705,#706,#707,#708,
#709),(#710,#711,#712,#713,#714,#715,#716,#717,#718,#719,#720,#721,#722,
#723,#724,#725,#726,#727,#728,#729,#730,#731,#732,#733,#734,#735,#736,#737,
#738,#739,#740,#741,#742,#743,#744,#745,#746),(#747,#748,#749,#750,#751,
#752,#753,#754,#755,#756,#757,#758,#759,#760,#761,#762,#763,#764,#765,#766,
#767,#768,#769,#770,#771,#772,#773,#774,#775,#776,#777,#778,#779,#780,#781,
#782,#783),(#784,#785,#786,#787,#788,#789,#790,#791,#792,#793,#794,#795,
#796,#797,#798,#799,#800,#801,#802,#803,#804,#805,#806,#807,#808,#809,#810,
#811,#812,#813,#814,#815,#816,#817,#818,#819,#820)),.UNSPECIFIED.,.F.,.F.,
 .F.,(4,4),(4,1,1,1,1,1,1,1,1,1,1,1,1,1,1,1,1,1,1,1,1,1,1,1,1,1,1,1,1,1,
1,1,1,1,4),(0.132805015486335,1.14469262268825),(0.,0.000893211104310157,
0.00133981665646524,0.0017119879499278,0.00200972498469785,0.00230746201946791,
0.00267963331293047,0.00312623886508555,0.00357284441724063,0.00401944996939571,
0.00446605552155079,0.00491266107370586,0.00535926662586094,0.00580587217801602,
0.00617804347147859,0.00647578050624864,0.00677351754101869,0.00714568883448126,
0.00759229438663634,0.0079644656800989,0.00826220271486895,0.00855993974963901,
0.00893211104310157,0.00937871659525665,0.00982532214741173,0.0102719276995668,
0.0107185332517219,0.011165138803877,0.011611744356032,0.0120583499081871,
0.0124305212016497,0.0127282582364197,0.0130259952711898,0.0133981665646524,
0.0142913776689625),.UNSPECIFIED.);
#14=CYLINDRICAL_SURFACE('',#306,0.01);
#15=CYLINDRICAL_SURFACE('',#307,0.0075);
#16=CYLINDRICAL_SURFACE('',#308,0.0055);
#17=CYLINDRICAL_SURFACE('',#312,0.001);
#18=CYLINDRICAL_SURFACE('',#313,0.001);
#19=B_SPLINE_CURVE_WITH_KNOTS('',3,(#425,#426,#427,#428,#429,#430),
 .UNSPECIFIED.,.F.,.F.,(4,1,1,4),(0.0018325541700138,0.00603969733023793,
0.00814326891034999,0.0102468404904621),.UNSPECIFIED.);
#20=B_SPLINE_CURVE_WITH_KNOTS('',3,(#434,#435,#436,#437,#438),
 .UNSPECIFIED.,.F.,.F.,(4,1,4),(5.85170454458657E-5,0.00423234298877322,
0.00840616893210057),.UNSPECIFIED.);
#21=B_SPLINE_CURVE_WITH_KNOTS('',3,(#445,#446,#447,#448),.UNSPECIFIED.,
 .F.,.F.,(4,4),(5.85170454318112E-5,0.00600590861253641),.UNSPECIFIED.);
#22=B_SPLINE_CURVE_WITH_KNOTS('',3,(#452,#453,#454,#455,#456,#457),
 .UNSPECIFIED.,.F.,.F.,(4,1,1,4),(0.00183255417001386,0.00603969733025365,
0.00814326891037354,0.0102468404904934),.UNSPECIFIED.);
#23=B_SPLINE_CURVE_WITH_KNOTS('',3,(#617,#618,#619,#620,#621,#622,#623,
#624,#625,#626,#627,#628,#629,#630,#631,#632,#633),.UNSPECIFIED.,.F.,.F.,
(4,1,1,1,1,1,1,1,1,1,1,1,1,1,4),(1.41511915192607,1.41949092031258,1.42167680450584,
1.4238626886991,1.42604857289235,1.42823445708561,1.43042034127886,1.43260622547212,
1.43479210966538,1.43697799385863,1.43916387805189,1.44134976224515,1.4435356464384,
1.44572153063166,1.45009329901817),.UNSPECIFIED.);
#24=B_SPLINE_CURVE_WITH_KNOTS('',3,(#634,#635,#636,#637,#638,#639,#640,
#641,#642,#643,#644,#645,#646,#647,#648,#649,#650,#651,#652),
 .UNSPECIFIED.,.F.,.F.,(4,1,1,1,1,1,1,1,1,1,1,1,1,1,1,1,4),(0.0217362399530072,
0.0246837631414342,0.0276312863298611,0.030578809518288,0.0335263327067149,
0.0364738558951418,0.0394213790835688,0.0423689022719957,0.0453164254604226,
0.0482639486488495,0.0512114718372765,0.0541589950257034,0.0571065182141303,
0.0600540414025572,0.0630015645909842,0.0659490877794111,0.068896610967838),
 .UNSPECIFIED.);
#25=B_SPLINE_CURVE_WITH_KNOTS('',3,(#654,#655,#656,#657,#658,#659,#660,
#661,#662,#663,#664,#665,#666,#667,#668,#669,#670,#671,#672),
 .UNSPECIFIED.,.F.,.F.,(4,1,1,1,1,1,1,1,1,1,1,1,1,1,1,1,4),(0.00642541952826967,
0.00937305103326514,0.0123206825382606,0.0152683140432561,0.0182159455482516,
0.021163577053247,0.0241112085582425,0.027058840063238,0.0300064715682334,
0.0329541030732289,0.0359017345782244,0.0388493660832199,0.0417969975882153,
0.0447446290932108,0.0476922605982063,0.0506398921032017,0.0535875236081972),
 .UNSPECIFIED.);
#26=B_SPLINE_CURVE_WITH_KNOTS('',3,(#821,#822,#823,#824),.UNSPECIFIED.,
 .F.,.F.,(4,4),(0.0101741213001727,0.0108726802353634),.UNSPECIFIED.);
#27=B_SPLINE_CURVE_WITH_KNOTS('',3,(#826,#827,#828,#829,#830,#831,#832,
#833,#834,#835,#836,#837,#838,#839,#840,#841),.UNSPECIFIED.,.F.,.F.,(4,
1,1,1,1,1,1,1,1,1,1,1,1,4),(1.39065939138435,1.39476705324358,1.39682088417319,
1.39887471510281,1.40092854603243,1.40298237696204,1.40709003882127,1.40914386975089,
1.41119770068051,1.41325153161012,1.41530536253974,1.41941302439897,1.42146685532859,
1.4235206862582),.UNSPECIFIED.);
#28=CIRCLE('',#299,0.01);
#29=CIRCLE('',#300,0.0055);
#30=CIRCLE('',#301,0.0075);
#31=CIRCLE('',#303,0.01);
#32=CIRCLE('',#304,0.0075);
#33=CIRCLE('',#305,0.0055);
#34=ELLIPSE('',#293,0.00100042873340882,0.001);
#35=ELLIPSE('',#294,0.00100042873340882,0.001);
#36=ELLIPSE('',#296,0.00100042873305287,0.001);
#37=ELLIPSE('',#297,0.00100042873305287,0.001);
#38=ORIENTED_EDGE('',*,*,#116,.F.);
#39=ORIENTED_EDGE('',*,*,#117,.F.);
#40=ORIENTED_EDGE('',*,*,#118,.F.);
#41=ORIENTED_EDGE('',*,*,#119,.T.);
#42=ORIENTED_EDGE('',*,*,#120,.T.);
#43=ORIENTED_EDGE('',*,*,#121,.T.);
#44=ORIENTED_EDGE('',*,*,#122,.F.);
#45=ORIENTED_EDGE('',*,*,#119,.F.);
#46=ORIENTED_EDGE('',*,*,#123,.T.);
#47=ORIENTED_EDGE('',*,*,#124,.T.);
#48=ORIENTED_EDGE('',*,*,#125,.F.);
#49=ORIENTED_EDGE('',*,*,#126,.T.);
#50=ORIENTED_EDGE('',*,*,#127,.T.);
#51=ORIENTED_EDGE('',*,*,#128,.T.);
#52=ORIENTED_EDGE('',*,*,#129,.F.);
#53=ORIENTED_EDGE('',*,*,#130,.T.);
#54=ORIENTED_EDGE('',*,*,#131,.T.);
#55=ORIENTED_EDGE('',*,*,#132,.F.);
#56=ORIENTED_EDGE('',*,*,#133,.F.);
#57=ORIENTED_EDGE('',*,*,#117,.T.);
#58=ORIENTED_EDGE('',*,*,#134,.F.);
#59=ORIENTED_EDGE('',*,*,#123,.F.);
#60=ORIENTED_EDGE('',*,*,#118,.T.);
#61=ORIENTED_EDGE('',*,*,#133,.T.);
#62=ORIENTED_EDGE('',*,*,#135,.F.);
#63=ORIENTED_EDGE('',*,*,#136,.T.);
#64=ORIENTED_EDGE('',*,*,#137,.T.);
#65=ORIENTED_EDGE('',*,*,#138,.T.);
#66=ORIENTED_EDGE('',*,*,#131,.F.);
#67=ORIENTED_EDGE('',*,*,#139,.T.);
#68=ORIENTED_EDGE('',*,*,#125,.T.);
#69=ORIENTED_EDGE('',*,*,#140,.T.);
#70=ORIENTED_EDGE('',*,*,#141,.F.);
#71=ORIENTED_EDGE('',*,*,#142,.F.);
#72=ORIENTED_EDGE('',*,*,#143,.F.);
#73=ORIENTED_EDGE('',*,*,#144,.F.);
#74=ORIENTED_EDGE('',*,*,#145,.T.);
#75=ORIENTED_EDGE('',*,*,#124,.F.);
#76=ORIENTED_EDGE('',*,*,#134,.T.);
#77=ORIENTED_EDGE('',*,*,#132,.T.);
#78=ORIENTED_EDGE('',*,*,#140,.F.);
#79=ORIENTED_EDGE('',*,*,#146,.F.);
#80=ORIENTED_EDGE('',*,*,#144,.T.);
#81=ORIENTED_EDGE('',*,*,#147,.T.);
#82=ORIENTED_EDGE('',*,*,#136,.F.);
#83=ORIENTED_EDGE('',*,*,#147,.F.);
#84=ORIENTED_EDGE('',*,*,#143,.T.);
#85=ORIENTED_EDGE('',*,*,#148,.T.);
#86=ORIENTED_EDGE('',*,*,#137,.F.);
#87=ORIENTED_EDGE('',*,*,#148,.F.);
#88=ORIENTED_EDGE('',*,*,#142,.T.);
#89=ORIENTED_EDGE('',*,*,#149,.F.);
#90=ORIENTED_EDGE('',*,*,#150,.T.);
#91=ORIENTED_EDGE('',*,*,#138,.F.);
#92=ORIENTED_EDGE('',*,*,#135,.T.);
#93=ORIENTED_EDGE('',*,*,#150,.F.);
#94=ORIENTED_EDGE('',*,*,#151,.F.);
#95=ORIENTED_EDGE('',*,*,#145,.F.);
#96=ORIENTED_EDGE('',*,*,#146,.T.);
#97=ORIENTED_EDGE('',*,*,#141,.T.);
#98=ORIENTED_EDGE('',*,*,#151,.T.);
#99=ORIENTED_EDGE('',*,*,#149,.T.);
#100=ORIENTED_EDGE('',*,*,#120,.F.);
#101=ORIENTED_EDGE('',*,*,#152,.T.);
#102=ORIENTED_EDGE('',*,*,#129,.T.);
#103=ORIENTED_EDGE('',*,*,#153,.T.);
#104=ORIENTED_EDGE('',*,*,#122,.T.);
#105=ORIENTED_EDGE('',*,*,#154,.T.);
#106=ORIENTED_EDGE('',*,*,#127,.F.);
#107=ORIENTED_EDGE('',*,*,#116,.T.);
#108=ORIENTED_EDGE('',*,*,#126,.F.);
#109=ORIENTED_EDGE('',*,*,#139,.F.);
#110=ORIENTED_EDGE('',*,*,#130,.F.);
#111=ORIENTED_EDGE('',*,*,#152,.F.);
#112=ORIENTED_EDGE('',*,*,#128,.F.);
#113=ORIENTED_EDGE('',*,*,#154,.F.);
#114=ORIENTED_EDGE('',*,*,#121,.F.);
#115=ORIENTED_EDGE('',*,*,#153,.F.);
#116=EDGE_CURVE('',#155,#156,#181,.T.);
#117=EDGE_CURVE('',#157,#155,#182,.T.);
#118=EDGE_CURVE('',#158,#157,#183,.T.);
#119=EDGE_CURVE('',#158,#156,#184,.T.);
#120=EDGE_CURVE('',#159,#160,#185,.T.);
#121=EDGE_CURVE('',#160,#161,#34,.T.);
#122=EDGE_CURVE('',#156,#161,#186,.T.);
#123=EDGE_CURVE('',#158,#162,#187,.T.);
#124=EDGE_CURVE('',#162,#163,#188,.T.);
#125=EDGE_CURVE('',#164,#163,#189,.T.);
#126=EDGE_CURVE('',#164,#159,#35,.F.);
#127=EDGE_CURVE('',#155,#165,#190,.T.);
#128=EDGE_CURVE('',#165,#166,#36,.F.);
#129=EDGE_CURVE('',#167,#166,#191,.T.);
#130=EDGE_CURVE('',#167,#168,#37,.T.);
#131=EDGE_CURVE('',#168,#169,#192,.T.);
#132=EDGE_CURVE('',#170,#169,#193,.T.);
#133=EDGE_CURVE('',#157,#170,#194,.T.);
#134=EDGE_CURVE('',#162,#170,#28,.T.);
#135=EDGE_CURVE('',#171,#172,#29,.F.);
#136=EDGE_CURVE('',#171,#173,#19,.T.);
#137=EDGE_CURVE('',#173,#174,#30,.T.);
#138=EDGE_CURVE('',#174,#172,#20,.T.);
#139=EDGE_CURVE('',#168,#164,#195,.F.);
#140=EDGE_CURVE('',#163,#169,#31,.T.);
#141=EDGE_CURVE('',#175,#176,#196,.T.);
#142=EDGE_CURVE('',#177,#175,#21,.T.);
#143=EDGE_CURVE('',#178,#177,#32,.T.);
#144=EDGE_CURVE('',#179,#178,#22,.T.);
#145=EDGE_CURVE('',#179,#176,#33,.T.);
#146=EDGE_CURVE('',#179,#171,#23,.T.);
#147=EDGE_CURVE('',#178,#173,#24,.T.);
#148=EDGE_CURVE('',#177,#174,#25,.T.);
#149=EDGE_CURVE('',#180,#175,#26,.F.);
#150=EDGE_CURVE('',#180,#172,#27,.T.);
#151=EDGE_CURVE('',#176,#180,#197,.F.);
#152=EDGE_CURVE('',#159,#167,#198,.T.);
#153=EDGE_CURVE('',#166,#160,#199,.T.);
#154=EDGE_CURVE('',#161,#165,#200,.F.);
#155=VERTEX_POINT('',#385);
#156=VERTEX_POINT('',#386);
#157=VERTEX_POINT('',#388);
#158=VERTEX_POINT('',#390);
#159=VERTEX_POINT('',#394);
#160=VERTEX_POINT('',#395);
#161=VERTEX_POINT('',#397);
#162=VERTEX_POINT('',#400);
#163=VERTEX_POINT('',#402);
#164=VERTEX_POINT('',#404);
#165=VERTEX_POINT('',#408);
#166=VERTEX_POINT('',#410);
#167=VERTEX_POINT('',#412);
#168=VERTEX_POINT('',#414);
#169=VERTEX_POINT('',#416);
#170=VERTEX_POINT('',#418);
#171=VERTEX_POINT('',#423);
#172=VERTEX_POINT('',#424);
#173=VERTEX_POINT('',#431);
#174=VERTEX_POINT('',#433);
#175=VERTEX_POINT('',#443);
#176=VERTEX_POINT('',#444);
#177=VERTEX_POINT('',#449);
#178=VERTEX_POINT('',#451);
#179=VERTEX_POINT('',#458);
#180=VERTEX_POINT('',#825);
#181=LINE('',#384,#201);
#182=LINE('',#387,#202);
#183=LINE('',#389,#203);
#184=LINE('',#391,#204);
#185=LINE('',#393,#205);
#186=LINE('',#398,#206);
#187=LINE('',#399,#207);
#188=LINE('',#401,#208);
#189=LINE('',#403,#209);
#190=LINE('',#407,#210);
#191=LINE('',#411,#211);
#192=LINE('',#415,#212);
#193=LINE('',#417,#213);
#194=LINE('',#419,#214);
#195=LINE('',#440,#215);
#196=LINE('',#442,#216);
#197=LINE('',#843,#217);
#198=LINE('',#846,#218);
#199=LINE('',#847,#219);
#200=LINE('',#849,#220);
#201=VECTOR('',#318,1.);
#202=VECTOR('',#319,1.);
#203=VECTOR('',#320,1.);
#204=VECTOR('',#321,1.);
#205=VECTOR('',#324,1.);
#206=VECTOR('',#327,1.);
#207=VECTOR('',#328,1.);
#208=VECTOR('',#329,1.);
#209=VECTOR('',#330,1.);
#210=VECTOR('',#335,1.);
#211=VECTOR('',#338,1.);
#212=VECTOR('',#341,1.);
#213=VECTOR('',#342,1.);
#214=VECTOR('',#343,1.);
#215=VECTOR('',#354,1.);
#216=VECTOR('',#357,1.);
#217=VECTOR('',#368,1.);
#218=VECTOR('',#373,1.);
#219=VECTOR('',#374,1.);
#220=VECTOR('',#377,1.);
#221=EDGE_LOOP('',(#38,#39,#40,#41));
#222=EDGE_LOOP('',(#42,#43,#44,#45,#46,#47,#48,#49));
#223=EDGE_LOOP('',(#50,#51,#52,#53,#54,#55,#56,#57));
#224=EDGE_LOOP('',(#58,#59,#60,#61));
#225=EDGE_LOOP('',(#62,#63,#64,#65));
#226=EDGE_LOOP('',(#66,#67,#68,#69));
#227=EDGE_LOOP('',(#70,#71,#72,#73,#74));
#228=EDGE_LOOP('',(#75,#76,#77,#78));
#229=EDGE_LOOP('',(#79,#80,#81,#82));
#230=EDGE_LOOP('',(#83,#84,#85,#86));
#231=EDGE_LOOP('',(#87,#88,#89,#90,#91));
#232=EDGE_LOOP('',(#92,#93,#94,#95,#96));
#233=EDGE_LOOP('',(#97,#98,#99));
#234=EDGE_LOOP('',(#100,#101,#102,#103));
#235=EDGE_LOOP('',(#104,#105,#106,#107));
#236=EDGE_LOOP('',(#108,#109,#110,#111));
#237=EDGE_LOOP('',(#112,#113,#114,#115));
#238=FACE_BOUND('',#221,.T.);
#239=FACE_BOUND('',#222,.T.);
#240=FACE_BOUND('',#223,.T.);
#241=FACE_BOUND('',#224,.T.);
#242=FACE_BOUND('',#225,.T.);
#243=FACE_BOUND('',#226,.T.);
#244=FACE_BOUND('',#227,.T.);
#245=FACE_BOUND('',#228,.T.);
#246=FACE_BOUND('',#229,.T.);
#247=FACE_BOUND('',#230,.T.);
#248=FACE_BOUND('',#231,.T.);
#249=FACE_BOUND('',#232,.T.);
#250=FACE_BOUND('',#233,.T.);
#251=FACE_BOUND('',#234,.T.);
#252=FACE_BOUND('',#235,.T.);
#253=FACE_BOUND('',#236,.T.);
#254=FACE_BOUND('',#237,.T.);
#255=PLANE('',#291);
#256=PLANE('',#292);
#257=PLANE('',#295);
#258=PLANE('',#298);
#259=PLANE('',#302);
#260=PLANE('',#309);
#261=PLANE('',#310);
#262=PLANE('',#311);
#263=ADVANCED_FACE('',(#238),#255,.F.);
#264=ADVANCED_FACE('',(#239),#256,.T.);
#265=ADVANCED_FACE('',(#240),#257,.F.);
#266=ADVANCED_FACE('',(#241,#242),#258,.F.);
#267=ADVANCED_FACE('',(#243,#244),#259,.T.);
#268=ADVANCED_FACE('',(#245),#14,.T.);
#269=ADVANCED_FACE('',(#246),#12,.F.);
#270=ADVANCED_FACE('',(#247),#15,.F.);
#271=ADVANCED_FACE('',(#248),#13,.F.);
#272=ADVANCED_FACE('',(#249),#16,.F.);
#273=ADVANCED_FACE('',(#250),#260,.F.);
#274=ADVANCED_FACE('',(#251),#261,.T.);
#275=ADVANCED_FACE('',(#252),#262,.F.);
#276=ADVANCED_FACE('',(#253),#17,.F.);
#277=ADVANCED_FACE('',(#254),#18,.T.);
#278=CLOSED_SHELL('',(#263,#264,#265,#266,#267,#268,#269,#270,#271,#272,
#273,#274,#275,#276,#277));
#279=STYLED_ITEM('',(#280),#287);
#280=PRESENTATION_STYLE_ASSIGNMENT((#281));
#281=SURFACE_STYLE_USAGE(.BOTH.,#282);
#282=SURFACE_SIDE_STYLE('',(#283));
#283=SURFACE_STYLE_FILL_AREA(#284);
#284=FILL_AREA_STYLE('',(#285));
#285=FILL_AREA_STYLE_COLOUR('',#286);
#286=COLOUR_RGB('',0.917647058823529,0.917647058823529,0.917647058823529);
#287=MANIFOLD_SOLID_BREP('Part 5',#278);
#288=SHAPE_DEFINITION_REPRESENTATION(#858,#289);
#289=SHAPE_REPRESENTATION('Part 5',(#290),#853);
#290=AXIS2_PLACEMENT_3D('',#382,#314,#315);
#291=AXIS2_PLACEMENT_3D('',#383,#316,#317);
#292=AXIS2_PLACEMENT_3D('',#392,#322,#323);
#293=AXIS2_PLACEMENT_3D('',#396,#325,#326);
#294=AXIS2_PLACEMENT_3D('',#405,#331,#332);
#295=AXIS2_PLACEMENT_3D('',#406,#333,#334);
#296=AXIS2_PLACEMENT_3D('',#409,#336,#337);
#297=AXIS2_PLACEMENT_3D('',#413,#339,#340);
#298=AXIS2_PLACEMENT_3D('',#420,#344,#345);
#299=AXIS2_PLACEMENT_3D('',#421,#346,#347);
#300=AXIS2_PLACEMENT_3D('',#422,#348,#349);
#301=AXIS2_PLACEMENT_3D('',#432,#350,#351);
#302=AXIS2_PLACEMENT_3D('',#439,#352,#353);
#303=AXIS2_PLACEMENT_3D('',#441,#355,#356);
#304=AXIS2_PLACEMENT_3D('',#450,#358,#359);
#305=AXIS2_PLACEMENT_3D('',#459,#360,#361);
#306=AXIS2_PLACEMENT_3D('',#460,#362,#363);
#307=AXIS2_PLACEMENT_3D('',#653,#364,#365);
#308=AXIS2_PLACEMENT_3D('',#842,#366,#367);
#309=AXIS2_PLACEMENT_3D('',#844,#369,#370);
#310=AXIS2_PLACEMENT_3D('',#845,#371,#372);
#311=AXIS2_PLACEMENT_3D('',#848,#375,#376);
#312=AXIS2_PLACEMENT_3D('',#850,#378,#379);
#313=AXIS2_PLACEMENT_3D('',#851,#380,#381);
#314=DIRECTION('',(0.,0.,1.));
#315=DIRECTION('',(1.,0.,0.));
#316=DIRECTION('',(-0.996194698091746,-5.52430094095043E-12,0.0871557427476581));
#317=DIRECTION('',(0.0871557427476581,-1.26527293570507E-10,0.996194698091746));
#318=DIRECTION('',(6.05688736138935E-9,1.,-4.02898441605876E-10));
#319=DIRECTION('',(0.0871557427476581,-1.26527293570507E-10,0.996194698091746));
#320=DIRECTION('',(-5.52430094095043E-12,-1.,-1.26527293570507E-10));
#321=DIRECTION('',(0.0871557427476581,-1.26527293570507E-10,0.996194698091746));
#322=DIRECTION('',(-0.0291617232880773,0.999571450502402,0.00255132032354286));
#323=DIRECTION('',(-0.995767779354692,-0.0292731163445867,0.0871183921942011));
#324=DIRECTION('',(0.841849790055554,0.0231840192134592,0.539213716662076));
#325=DIRECTION('',(-0.0291617232880773,0.999571450502402,0.00255132032354286));
#326=DIRECTION('',(-0.995767779354691,-0.0292731163445867,0.0871183921942034));
#327=DIRECTION('',(-3.72241449613404E-5,-0.00255349182190101,0.999996739141623));
#328=DIRECTION('',(-0.995767779354692,-0.0292731163445867,0.0871183921942011));
#329=DIRECTION('',(0.0871557427476581,-1.26527293570507E-10,0.996194698091746));
#330=DIRECTION('',(-0.995767779354692,-0.0292731163445867,0.0871183921942011));
#331=DIRECTION('',(-0.0291617232880773,0.999571450502402,0.00255132032354286));
#332=DIRECTION('',(0.995767779354692,0.0292731163445867,-0.0871183921942011));
#333=DIRECTION('',(0.0291617232991211,0.999571450502726,-0.00255132007059672));
#334=DIRECTION('',(-0.995767779354368,0.0292731163335428,0.0871183922016087));
#335=DIRECTION('',(-3.7224114029018E-5,0.00255349156794606,0.999996739142272));
#336=DIRECTION('',(0.0291617232991211,0.999571450502726,-0.00255132007059672));
#337=DIRECTION('',(0.995767779354369,-0.0292731163335428,-0.0871183922016064));
#338=DIRECTION('',(0.841849789962583,-0.0231840193561362,0.539213716801093));
#339=DIRECTION('',(0.0291617232991211,0.999571450502726,-0.00255132007059672));
#340=DIRECTION('',(-0.995767779354368,0.0292731163335428,0.0871183922016088));
#341=DIRECTION('',(-0.995767779354368,0.0292731163335428,0.0871183922016087));
#342=DIRECTION('',(0.0871557427476581,-1.26527293570507E-10,0.996194698091746));
#343=DIRECTION('',(-0.995767779354368,0.0292731163335428,0.0871183922016087));
#344=DIRECTION('',(0.0871557427476581,-1.26527293570507E-10,0.996194698091746));
#345=DIRECTION('',(0.996194698091746,5.52430094095043E-12,-0.0871557427476581));
#346=DIRECTION('',(0.0871557427476581,-1.26527293570507E-10,0.996194698091746));
#347=DIRECTION('',(0.996194698091746,5.52430094095043E-12,-0.0871557427476581));
#348=DIRECTION('',(0.0871557427476581,-1.26527293570507E-10,0.996194698091746));
#349=DIRECTION('',(0.996194698091746,5.52430094095043E-12,-0.0871557427476581));
#350=DIRECTION('',(0.0871557427476581,-1.26527293570507E-10,0.996194698091746));
#351=DIRECTION('',(0.996194698091746,5.52430094095043E-12,-0.0871557427476581));
#352=DIRECTION('',(0.0871557427476581,-1.26527293570507E-10,0.996194698091746));
#353=DIRECTION('',(0.996194698091746,5.52430094095043E-12,-0.0871557427476581));
#354=DIRECTION('',(-6.0568874554933E-9,-1.,4.02898381331297E-10));
#355=DIRECTION('',(0.0871557427476581,-1.26527293570507E-10,0.996194698091746));
#356=DIRECTION('',(0.996194698091746,5.52430094095043E-12,-0.0871557427476581));
#357=DIRECTION('',(-0.996194698091746,-5.52430094095043E-12,0.0871557427476581));
#358=DIRECTION('',(0.0871557427476581,-1.26527293570507E-10,0.996194698091746));
#359=DIRECTION('',(0.996194698091746,5.52430094095043E-12,-0.0871557427476581));
#360=DIRECTION('',(-0.0871557427476581,1.26527293570507E-10,-0.996194698091746));
#361=DIRECTION('',(-0.996194698091746,-5.52430094095043E-12,0.0871557427476581));
#362=DIRECTION('',(0.0871557427476581,-1.26527293570507E-10,0.996194698091746));
#363=DIRECTION('',(0.996194698091746,5.52430094095043E-12,-0.0871557427476581));
#364=DIRECTION('',(-0.0871557427476581,1.26527293570507E-10,-0.996194698091746));
#365=DIRECTION('',(0.996194698091746,5.52430094095043E-12,-0.0871557427476581));
#366=DIRECTION('',(0.0871557427476581,-1.26527293570507E-10,0.996194698091746));
#367=DIRECTION('',(-0.996194698091746,-5.52430094095043E-12,0.0871557427476581));
#368=DIRECTION('',(0.0871557427476581,-1.26527293570507E-10,0.996194698091746));
#369=DIRECTION('',(5.52430094095043E-12,1.,1.26527293570507E-10));
#370=DIRECTION('',(0.996194698091746,5.52430094095043E-12,-0.0871557427476581));
#371=DIRECTION('',(-0.539358688525238,3.60610598341251E-9,0.842076127860383));
#372=DIRECTION('',(0.842076127860383,0.,0.539358688525238));
#373=DIRECTION('',(-6.0568874554933E-9,-1.,4.02898381331297E-10));
#374=DIRECTION('',(6.05688736138935E-9,1.,-4.02898441605874E-10));
#375=DIRECTION('',(-0.999999999307178,6.05687235960034E-9,-3.72242508523869E-5));
#376=DIRECTION('',(-3.72242508523869E-5,0.,0.999999999307178));
#377=DIRECTION('',(6.05688736138935E-9,1.,-4.02898441605875E-10));
#378=DIRECTION('',(6.0568874554933E-9,1.,-4.02898381331297E-10));
#379=DIRECTION('',(-1.,6.0568874554933E-9,0.));
#380=DIRECTION('',(-6.05688736138935E-9,-1.,4.02898441605875E-10));
#381=DIRECTION('',(1.,-6.05688736138935E-9,0.));
#382=CARTESIAN_POINT('',(0.,0.,0.));
#383=CARTESIAN_POINT('',(-0.0871499987515592,0.0436954341534681,0.00229997945609831));
#384=CARTESIAN_POINT('',(-0.0867142201891519,0.0351954341528355,0.0072809529587172));
#385=CARTESIAN_POINT('',(-0.0867142201709813,0.0381954341530254,0.00728095295750851));
#386=CARTESIAN_POINT('',(-0.0867142200377297,0.0601954341528355,0.00728095294864493));
#387=CARTESIAN_POINT('',(-0.0871499987515896,0.0381954341534681,0.00229997945540241));
#388=CARTESIAN_POINT('',(-0.0871499987515896,0.0381954341534681,0.00229997945540241));
#389=CARTESIAN_POINT('',(-0.0871499987515592,0.0436954341534681,0.00229997945609831));
#390=CARTESIAN_POINT('',(-0.087149998751468,0.0601954341534681,0.002299979458186));
#391=CARTESIAN_POINT('',(-0.087149998751468,0.0601954341534681,0.002299979458186));
#392=CARTESIAN_POINT('',(-0.104231117235498,0.0596932914058862,0.00379438368581801));
#393=CARTESIAN_POINT('',(-0.101632388679448,0.0597794726073734,-0.000266598162916061));
#394=CARTESIAN_POINT('',(-0.0891850502747781,0.0601222645592622,0.00770605406437739));
#395=CARTESIAN_POINT('',(-0.0882535854141296,0.0601479165217394,0.00830266718394268));
#396=CARTESIAN_POINT('',(-0.087714226725496,0.0601658012209882,0.00746059105607509));
#397=CARTESIAN_POINT('',(-0.0867142267260121,0.0601949753518494,0.00746062828031419));
#398=CARTESIAN_POINT('',(-0.0867140903255948,0.0602043321107636,0.00379634068680906));
#399=CARTESIAN_POINT('',(-0.104231117235498,0.0596932914058862,0.00379438368581801));
#400=CARTESIAN_POINT('',(-0.121312235719529,0.0591911486583043,0.00528878791345001));
#401=CARTESIAN_POINT('',(-0.121312235719529,0.0591911486583043,0.00528878791345001));
#402=CARTESIAN_POINT('',(-0.120876457005791,0.0591911486576717,0.0102697614039087));
#403=CARTESIAN_POINT('',(-0.10379533852176,0.0596932914052536,0.00877535717627674));
#404=CARTESIAN_POINT('',(-0.0898115647061594,0.0601043798601399,0.00755193549415323));
#405=CARTESIAN_POINT('',(-0.0897244089634117,0.0601043798600134,0.00854813019224498));
#406=CARTESIAN_POINT('',(-0.104231117235614,0.0386975769008606,0.00379438368316148));
#407=CARTESIAN_POINT('',(-0.0867140904589536,0.0381865361996749,0.00379634068346651));
#408=CARTESIAN_POINT('',(-0.0867142268592581,0.0381958929576897,0.00746062828917759));
#409=CARTESIAN_POINT('',(-0.0877142268583886,0.0382250670885515,0.00746059106491498));
#410=CARTESIAN_POINT('',(-0.0882535855468055,0.0382429517875868,0.00830266719276816));
#411=CARTESIAN_POINT('',(-0.101632388721194,0.0386113957017568,-0.000266598099004132));
#412=CARTESIAN_POINT('',(-0.0891850504071433,0.0382686037502162,0.00770605407318219));
#413=CARTESIAN_POINT('',(-0.0897244090955602,0.0382864884492515,0.00854813020103537));
#414=CARTESIAN_POINT('',(-0.0898115648383079,0.038286488449378,0.00755193550294362));
#415=CARTESIAN_POINT('',(-0.103795338521876,0.038697576900228,0.00877535717362021));
#416=CARTESIAN_POINT('',(-0.120876457005901,0.0391997196476204,0.0102697614013793));
#417=CARTESIAN_POINT('',(-0.121312235719639,0.039199719648253,0.00528878791092055));
#418=CARTESIAN_POINT('',(-0.121312235719639,0.039199719648253,0.00528878791092055));
#419=CARTESIAN_POINT('',(-0.104231117235614,0.0386975769008606,0.00379438368316148));
#420=CARTESIAN_POINT('',(-0.121020618486648,0.0491954341532803,0.00526327471021458));
#421=CARTESIAN_POINT('',(-0.121020618486648,0.0491954341532803,0.00526327471021458));
#422=CARTESIAN_POINT('',(-0.121020618486648,0.0491954341532803,0.00526327471021458));
#423=CARTESIAN_POINT('',(-0.123890652091893,0.0538805017304189,0.00551437011520702));
#424=CARTESIAN_POINT('',(-0.11597489236937,0.0513392100955419,0.00482183087596494));
#425=CARTESIAN_POINT('',(-0.123890652091893,0.0538805017304189,0.00551437011520701));
#426=CARTESIAN_POINT('',(-0.125246877174216,0.0534740647182703,0.00563302443504814));
#427=CARTESIAN_POINT('',(-0.127030381492222,0.0521325948785931,0.00578906084405283));
#428=CARTESIAN_POINT('',(-0.128163569027092,0.0494982051908189,0.00588820190666823));
#429=CARTESIAN_POINT('',(-0.128292109480554,0.0480791225650774,0.00589944773897038));
#430=CARTESIAN_POINT('',(-0.128267011555618,0.0473684529428914,0.00589725195497023));
#431=CARTESIAN_POINT('',(-0.128267011555618,0.0473684529428914,0.00589725195497024));
#432=CARTESIAN_POINT('',(-0.121020618486648,0.0491954341532803,0.00526327471021458));
#433=CARTESIAN_POINT('',(-0.11612232518771,0.0435321248888271,0.00483472957521313));
#434=CARTESIAN_POINT('',(-0.11612232518771,0.0435321248888269,0.00483472957521317));
#435=CARTESIAN_POINT('',(-0.115273263711029,0.0446544856835583,0.00476044632150957));
#436=CARTESIAN_POINT('',(-0.114309976795103,0.0473836910447648,0.00467616963698984));
#437=CARTESIAN_POINT('',(-0.115076049797656,0.0502482277257989,0.00474319234051034));
#438=CARTESIAN_POINT('',(-0.115974892369364,0.0513392100955453,0.00482183087596782));
#439=CARTESIAN_POINT('',(-0.12058483977291,0.0491954341526477,0.0102442482006733));
#440=CARTESIAN_POINT('',(-0.0898115647060986,0.0601144178705052,0.00755193549414919));
#441=CARTESIAN_POINT('',(-0.12058483977291,0.0491954341526477,0.0102442482006733));
#442=CARTESIAN_POINT('',(-0.12058483977291,0.0491954341526477,0.0102442482006733));
#443=CARTESIAN_POINT('',(-0.114483653160151,0.0491954341526815,0.00971046353800218));
#444=CARTESIAN_POINT('',(-0.115105768933405,0.0491954341526781,0.0097648916155612));
#445=CARTESIAN_POINT('',(-0.11568654647398,0.0435321248881831,0.00981570306567266));
#446=CARTESIAN_POINT('',(-0.11447669701333,0.0451314055521257,0.00970985495349596));
#447=CARTESIAN_POINT('',(-0.114023134497688,0.0472396817067038,0.00967017337544473));
#448=CARTESIAN_POINT('',(-0.114483653160154,0.0491954341526811,0.00971046353800102));
#449=CARTESIAN_POINT('',(-0.115686546473983,0.0435321248881846,0.00981570306567135));
#450=CARTESIAN_POINT('',(-0.12058483977291,0.0491954341526477,0.0102442482006733));
#451=CARTESIAN_POINT('',(-0.127831232841872,0.0473684529422271,0.0108782254454317));
#452=CARTESIAN_POINT('',(-0.123454873378155,0.0538805017297862,0.0104953436056658));
#453=CARTESIAN_POINT('',(-0.124811098460483,0.053474064717636,0.0106139979255073));
#454=CARTESIAN_POINT('',(-0.126594602778495,0.0521325948779508,0.0107700343345125));
#455=CARTESIAN_POINT('',(-0.12772779031336,0.0494982051901629,0.0108691753971275));
#456=CARTESIAN_POINT('',(-0.127856330766817,0.0480791225644155,0.0108804212294293));
#457=CARTESIAN_POINT('',(-0.127831232841879,0.047368452942227,0.0108782254454289));
#458=CARTESIAN_POINT('',(-0.123454873378155,0.0538805017297862,0.0104953436056658));
#459=CARTESIAN_POINT('',(-0.12058483977291,0.0491954341526477,0.0102442482006733));
#460=CARTESIAN_POINT('',(-0.121020618486648,0.0491954341532803,0.00526327471021458));
#461=CARTESIAN_POINT('',(-0.127749598129841,0.0470354502880421,0.0109019813378811));
#462=CARTESIAN_POINT('',(-0.127928844356708,0.0476127068705108,0.0108524523333622));
#463=CARTESIAN_POINT('',(-0.128085388387417,0.0484986080096151,0.01077133564003));
#464=CARTESIAN_POINT('',(-0.128093319171779,0.0497323763849764,0.0106542070308317));
#465=CARTESIAN_POINT('',(-0.127944974844078,0.0509096720027688,0.0105189036183448));
#466=CARTESIAN_POINT('',(-0.127487976245861,0.0523584887566465,0.0103132219803678));
#467=CARTESIAN_POINT('',(-0.126609016575275,0.0538618561558669,0.0100416125891992));
#468=CARTESIAN_POINT('',(-0.125335811006364,0.0551516885039003,0.00973169059081106));
#469=CARTESIAN_POINT('',(-0.123896271609273,0.056052121187575,0.00944309065357613));
#470=CARTESIAN_POINT('',(-0.122204818707888,0.0566298188163138,0.00910494881977592));
#471=CARTESIAN_POINT('',(-0.120482632192433,0.0567672200159358,0.00875986952112782));
#472=CARTESIAN_POINT('',(-0.118988734625057,0.0565445475101209,0.00846059675929204));
#473=CARTESIAN_POINT('',(-0.117869516843442,0.0561587489495573,0.00823559589088479));
#474=CARTESIAN_POINT('',(-0.117021901837602,0.0557297957312109,0.00806631353979342));
#475=CARTESIAN_POINT('',(-0.116226606349369,0.0552054991901372,0.00790320181112033));
#476=CARTESIAN_POINT('',(-0.115333098048605,0.0544217709254051,0.00769848631572181));
#477=CARTESIAN_POINT('',(-0.114392152295853,0.053228076062205,0.00744825055716929));
#478=CARTESIAN_POINT('',(-0.113646951542367,0.0516531238722092,0.00718846212843862));
#479=CARTESIAN_POINT('',(-0.113295457212646,0.049884870258942,0.0069656307388247));
#480=CARTESIAN_POINT('',(-0.113346289262601,0.0481696936617381,0.00680806385248232));
#481=CARTESIAN_POINT('',(-0.113818647979791,0.0463976404254377,0.00665223540558106));
#482=CARTESIAN_POINT('',(-0.114673409960525,0.0448612933688322,0.00653229051320434));
#483=CARTESIAN_POINT('',(-0.115694024462788,0.0437198171717919,0.006455254820997));
#484=CARTESIAN_POINT('',(-0.116711301009968,0.042926912664101,0.00641059080481747));
#485=CARTESIAN_POINT('',(-0.117790039259306,0.0423213715702815,0.00638821488464141));
#486=CARTESIAN_POINT('',(-0.119215795634294,0.0418143254372094,0.00635448411207334));
#487=CARTESIAN_POINT('',(-0.120958882177829,0.0416082748852227,0.00631444032134095));
#488=CARTESIAN_POINT('',(-0.12269946610049,0.0418284293036436,0.00627420728062365));
#489=CARTESIAN_POINT('',(-0.124112756197523,0.0423423709384814,0.00623959898593352));
#490=CARTESIAN_POINT('',(-0.125188334373898,0.0429549227309108,0.00621693343398218));
#491=CARTESIAN_POINT('',(-0.126205491735872,0.0437593876501722,0.00617209900703157));
#492=CARTESIAN_POINT('',(-0.127218380617673,0.0449105361933667,0.00609432424936537));
#493=CARTESIAN_POINT('',(-0.128060770610468,0.0464538827767246,0.00597329546993301));
#494=CARTESIAN_POINT('',(-0.128517830421595,0.0482223577728176,0.00581630239640211));
#495=CARTESIAN_POINT('',(-0.128557995424011,0.0499354572804416,0.00565786344784336));
#496=CARTESIAN_POINT('',(-0.128191564495875,0.0517098029145942,0.00543347112855409));
#497=CARTESIAN_POINT('',(-0.127121889599029,0.0539256593256317,0.00506532843330511));
#498=CARTESIAN_POINT('',(-0.125765004775919,0.0551902320002912,0.0047473030110926));
#499=CARTESIAN_POINT('',(-0.124785597589063,0.0557396709775946,0.00455293748951616));
#500=CARTESIAN_POINT('',(-0.127079020330055,0.0472381215721143,0.0111814836421301));
#501=CARTESIAN_POINT('',(-0.127241941632113,0.0477637035290321,0.0111305312308655));
#502=CARTESIAN_POINT('',(-0.127384076193111,0.0485694542497592,0.0110482184515517));
#503=CARTESIAN_POINT('',(-0.127390920184219,0.0496923257161687,0.0109310017038905));
#504=CARTESIAN_POINT('',(-0.127255383931462,0.05076455001704,0.0107967445318822));
#505=CARTESIAN_POINT('',(-0.126838836511198,0.0520828432413829,0.0105945797286719));
#506=CARTESIAN_POINT('',(-0.126038441144738,0.0534500996962406,0.0103298379870585));
#507=CARTESIAN_POINT('',(-0.124880108346281,0.0546220060362812,0.0100300310493707));
#508=CARTESIAN_POINT('',(-0.123570627818566,0.0554397962137554,0.00975285291294782));
#509=CARTESIAN_POINT('',(-0.12203083468077,0.0559639621852217,0.00942787928961013));
#510=CARTESIAN_POINT('',(-0.120464579325744,0.0560867595208698,0.00909643120219059));
#511=CARTESIAN_POINT('',(-0.119106776179841,0.0558823320819712,0.00880909614125391));
#512=CARTESIAN_POINT('',(-0.118089819911228,0.055529912191169,0.0085930693037845));
#513=CARTESIAN_POINT('',(-0.117320299930518,0.0551390065016953,0.00843069431120387));
#514=CARTESIAN_POINT('',(-0.116597087008839,0.0546604881970124,0.00827382317553618));
#515=CARTESIAN_POINT('',(-0.115785497002565,0.0539457990970562,0.0080762403517882));
#516=CARTESIAN_POINT('',(-0.114931620043478,0.0528578865304635,0.00783359003547861));
#517=CARTESIAN_POINT('',(-0.114256926094242,0.0514234916408143,0.0075799777118104));
#518=CARTESIAN_POINT('',(-0.113940695500181,0.0498146550543484,0.00736032202477874));
#519=CARTESIAN_POINT('',(-0.113990033417278,0.048253339661394,0.00720260507375426));
#520=CARTESIAN_POINT('',(-0.114423881260338,0.0466402038413866,0.00704333233070279));
#521=CARTESIAN_POINT('',(-0.115205303601813,0.0452429409320542,0.00691697250734997));
#522=CARTESIAN_POINT('',(-0.116136774640212,0.0442054316426727,0.00683216173367552));
#523=CARTESIAN_POINT('',(-0.117063980935128,0.0434853558252184,0.00677968569674652));
#524=CARTESIAN_POINT('',(-0.118047248951253,0.0429353828531762,0.00674896837739995));
#525=CARTESIAN_POINT('',(-0.119347824151902,0.0424751777423251,0.00670418962972521));
#526=CARTESIAN_POINT('',(-0.120936183286395,0.0422898347782321,0.00665059998349043));
#527=CARTESIAN_POINT('',(-0.122521552731803,0.0424923834423755,0.00659679655525231));
#528=CARTESIAN_POINT('',(-0.123807581622305,0.0429613744419448,0.0065511446249592));
#529=CARTESIAN_POINT('',(-0.124786851700854,0.0435200382302752,0.00652005151248475));
#530=CARTESIAN_POINT('',(-0.125713406231942,0.044253946426425,0.00646721849092041));
#531=CARTESIAN_POINT('',(-0.126635327219873,0.0453031341153375,0.00638146178733064));
#532=CARTESIAN_POINT('',(-0.127401646501803,0.0467089194635899,0.00625377497802102));
#533=CARTESIAN_POINT('',(-0.127816900155637,0.0483182812481758,0.00609319665397206));
#534=CARTESIAN_POINT('',(-0.127852943686938,0.0498772435822845,0.00593442303288111));
#535=CARTESIAN_POINT('',(-0.12751860818381,0.0514927988738543,0.00571274508225407));
#536=CARTESIAN_POINT('',(-0.126544280040209,0.0535082880835127,0.00535293424654471));
#537=CARTESIAN_POINT('',(-0.12530975031365,0.0546571358707904,0.00504567210127106));
#538=CARTESIAN_POINT('',(-0.124419179437288,0.0551558489609447,0.00485913523095278));
#539=CARTESIAN_POINT('',(-0.126408704072077,0.0474418118605186,0.0114608919345531));
#540=CARTESIAN_POINT('',(-0.126555214439283,0.047915735623951,0.0114085099747585));
#541=CARTESIAN_POINT('',(-0.126682815047948,0.0486412637814729,0.0113250084856747));
#542=CARTESIAN_POINT('',(-0.126688422215657,0.049653222132298,0.0112076924355897));
#543=CARTESIAN_POINT('',(-0.126565521388565,0.0506204444993997,0.0110744453810614));
#544=CARTESIAN_POINT('',(-0.126189208442429,0.0518081583380545,0.0108757721411358));
#545=CARTESIAN_POINT('',(-0.125467162615499,0.053039168533551,0.0106178776141586));
#546=CARTESIAN_POINT('',(-0.12442359179906,0.054092903309764,0.0103281944649368));
#547=CARTESIAN_POINT('',(-0.123244119169789,0.0548278430575506,0.0100624458647057));
#548=CARTESIAN_POINT('',(-0.121855794316581,0.0552982771811985,0.00975059531000641));
#549=CARTESIAN_POINT('',(-0.120445450954514,0.0554062067177032,0.0094327736241978));
#550=CARTESIAN_POINT('',(-0.119223820106533,0.0552198237474895,0.00915739186180808));
#551=CARTESIAN_POINT('',(-0.118309217435708,0.0549006385370441,0.00895035486122465));
#552=CARTESIAN_POINT('',(-0.117617935258658,0.0545477301167224,0.00879492089189188));
#553=CARTESIAN_POINT('',(-0.116966803959751,0.0541148378312812,0.00864427167124304));
#554=CARTESIAN_POINT('',(-0.116237218796392,0.0534690345503324,0.00845381938226691));
#555=CARTESIAN_POINT('',(-0.115470563318263,0.0524867447811041,0.00821875876530285));
#556=CARTESIAN_POINT('',(-0.114866619112766,0.0511928131102022,0.00797134595631368));
#557=CARTESIAN_POINT('',(-0.114585902720409,0.0497434728748556,0.00775491351576085));
#558=CARTESIAN_POINT('',(-0.114633957860002,0.048336005955835,0.00759705952071329));
#559=CARTESIAN_POINT('',(-0.115029572852405,0.0468817723784451,0.00743434554970402));
#560=CARTESIAN_POINT('',(-0.115737872085942,0.0456237303148655,0.00730159014106208));
#561=CARTESIAN_POINT('',(-0.116580334724688,0.0446903611850388,0.0072090229136893));
#562=CARTESIAN_POINT('',(-0.117417492230065,0.0440433022045306,0.00714875600249435));
#563=CARTESIAN_POINT('',(-0.118305343128939,0.0435490371437558,0.00710970508288619));
#564=CARTESIAN_POINT('',(-0.119480921213705,0.0431358324731248,0.00705386729284641));
#565=CARTESIAN_POINT('',(-0.120914580036056,0.0429714542717898,0.00698673159253606));
#566=CARTESIAN_POINT('',(-0.122344679940065,0.0431566466043061,0.00691935557174684));
#567=CARTESIAN_POINT('',(-0.123503260377723,0.0435808202401987,0.00686266916705074));
#568=CARTESIAN_POINT('',(-0.124386145358109,0.044085724170325,0.00682314128143001));
#569=CARTESIAN_POINT('',(-0.125222055430134,0.0447492706096749,0.00676228569102071));
#570=CARTESIAN_POINT('',(-0.126052851504994,0.0456966568227826,0.00666852668264006));
#571=CARTESIAN_POINT('',(-0.126742871140613,0.0469649937932466,0.00653416105798006));
#572=CARTESIAN_POINT('',(-0.127116053362122,0.0484151999845134,0.0063699947631038));
#573=CARTESIAN_POINT('',(-0.127147769763885,0.0498199849079806,0.00621087580347392));
#574=CARTESIAN_POINT('',(-0.126845259571859,0.0512768037088225,0.00599186208600326));
#575=CARTESIAN_POINT('',(-0.125965952277761,0.053091754805299,0.00564035176895996));
#576=CARTESIAN_POINT('',(-0.124853662849893,0.0541246242903115,0.00534385949639052));
#577=CARTESIAN_POINT('',(-0.124051936066962,0.0545724516604721,0.00516516790766033));
#578=CARTESIAN_POINT('',(-0.125739039900362,0.0476483606711639,0.0117398406206339));
#579=CARTESIAN_POINT('',(-0.125868899787269,0.0480706651310633,0.0116860138708981));
#580=CARTESIAN_POINT('',(-0.12598163123283,0.0487157714605452,0.0116013728913595));
#581=CARTESIAN_POINT('',(-0.125985582660179,0.0496167607412635,0.0114839293586702));
#582=CARTESIAN_POINT('',(-0.125874826390298,0.0504791432443196,0.0113515590292364));
#583=CARTESIAN_POINT('',(-0.125538151806118,0.0515360954720364,0.0111562986571584));
#584=CARTESIAN_POINT('',(-0.124893872557988,0.0526304626460533,0.0109051931790344));
#585=CARTESIAN_POINT('',(-0.12396476995204,0.0535653479184804,0.0106256867457363));
#586=CARTESIAN_POINT('',(-0.12291517082448,0.0542168589651367,0.0103714084154336));
#587=CARTESIAN_POINT('',(-0.121677818637049,0.0546329686334235,0.0100725157963664));
#588=CARTESIAN_POINT('',(-0.120423363036527,0.0547252957007045,0.00976830527688688));
#589=CARTESIAN_POINT('',(-0.119338130815375,0.0545564085832572,0.00950493404891045));
#590=CARTESIAN_POINT('',(-0.118526142819919,0.0542700664554894,0.00930694264319338));
#591=CARTESIAN_POINT('',(-0.117913481884278,0.0539550260132755,0.00915857462944668));
#592=CARTESIAN_POINT('',(-0.117334459812492,0.0535673347504417,0.00901406944367621));
#593=CARTESIAN_POINT('',(-0.116687143869447,0.0529900007824901,0.00883072940541317));
#594=CARTESIAN_POINT('',(-0.116008157269896,0.052112908117083,0.00860325888825161));
#595=CARTESIAN_POINT('',(-0.115475643224336,0.0509592008250363,0.0083621141134179));
#596=CARTESIAN_POINT('',(-0.115231116099451,0.0496695824178855,0.00814907379153115));
#597=CARTESIAN_POINT('',(-0.115278485394364,0.0484159495143345,0.00799111143125824));
#598=CARTESIAN_POINT('',(-0.115636648504314,0.0471206192765512,0.00782493368087316));
#599=CARTESIAN_POINT('',(-0.116272412044106,0.0460021981894969,0.00768583597150952));
#600=CARTESIAN_POINT('',(-0.117026226745954,0.0451734568207025,0.00758557257208413));
#601=CARTESIAN_POINT('',(-0.117773383984668,0.0445999273117299,0.00751760181573052));
#602=CARTESIAN_POINT('',(-0.118565956873885,0.0441617644412809,0.00747024311493133));
#603=CARTESIAN_POINT('',(-0.119617025192004,0.0437960371299948,0.00740327215208872));
#604=CARTESIAN_POINT('',(-0.120896031331023,0.0436533411973438,0.00732258407455744));
#605=CARTESIAN_POINT('',(-0.122170688589033,0.0438218632187119,0.00724163101803746));
#606=CARTESIAN_POINT('',(-0.12320130460838,0.0442015733407222,0.00717397471585291));
#607=CARTESIAN_POINT('',(-0.123987578089838,0.0446530709169044,0.00712599015284303));
#608=CARTESIAN_POINT('',(-0.12473269672715,0.0452467922015597,0.00705701173708822));
#609=CARTESIAN_POINT('',(-0.125471911809976,0.0460928016483935,0.00695518261029727));
#610=CARTESIAN_POINT('',(-0.126084986022592,0.047223981539796,0.00681407827569873));
#611=CARTESIAN_POINT('',(-0.126415370729356,0.0485149041512796,0.00664634804616028));
#612=CARTESIAN_POINT('',(-0.126442187842699,0.0497653885089146,0.00648686522803632));
#613=CARTESIAN_POINT('',(-0.126170743499879,0.0510635745596997,0.00627033570526321));
#614=CARTESIAN_POINT('',(-0.125385570867686,0.0526774787935037,0.00592703666143156));
#615=CARTESIAN_POINT('',(-0.124395218152905,0.0535936703873584,0.00564135818855958));
#616=CARTESIAN_POINT('',(-0.12368236025866,0.053990175707708,0.00547058306711215));
#617=CARTESIAN_POINT('',(-0.123454873378155,0.0538805017297863,0.0104953436056657));
#618=CARTESIAN_POINT('',(-0.122249672549159,0.0546348359898097,0.0101960943873232));
#619=CARTESIAN_POINT('',(-0.119992929400813,0.0549966829146384,0.00965131432671888));
#620=CARTESIAN_POINT('',(-0.117364110120296,0.0537625370827397,0.00903345876262546));
#621=CARTESIAN_POINT('',(-0.115903660961089,0.052148931818877,0.00858586496765935));
#622=CARTESIAN_POINT('',(-0.115171282055035,0.0500884451067002,0.00818892171850773));
#623=CARTESIAN_POINT('',(-0.115278438279673,0.0478853618802538,0.00791761555244335));
#624=CARTESIAN_POINT('',(-0.116221393793632,0.0458881597661493,0.00766174873454559));
#625=CARTESIAN_POINT('',(-0.117856348101852,0.0443886882885338,0.00749336290706001));
#626=CARTESIAN_POINT('',(-0.119943953826185,0.0436225954455509,0.00738117065834397));
#627=CARTESIAN_POINT('',(-0.122161176368357,0.0437061312476915,0.00723146389001635));
#628=CARTESIAN_POINT('',(-0.124181651077831,0.044625392364039,0.00712172112979287));
#629=CARTESIAN_POINT('',(-0.125698779274316,0.0462388289705548,0.00693358772885122));
#630=CARTESIAN_POINT('',(-0.126489733877061,0.0482982268054078,0.00667050212454443));
#631=CARTESIAN_POINT('',(-0.126418011381997,0.0512412916814933,0.0062874437692942));
#632=CARTESIAN_POINT('',(-0.125098177968458,0.053124712224933,0.0058141966387181));
#633=CARTESIAN_POINT('',(-0.123890652091894,0.0538805017304187,0.00551437011520711));
#634=CARTESIAN_POINT('',(-0.127831232841872,0.0473684529422271,0.0108782254454318));
#635=CARTESIAN_POINT('',(-0.128077438873928,0.0483160257665849,0.0107947714428511));
#636=CARTESIAN_POINT('',(-0.128194189974961,0.0503217943912402,0.0106187903957986));
#637=CARTESIAN_POINT('',(-0.127217244827012,0.0531451813338361,0.0102038244939334));
#638=CARTESIAN_POINT('',(-0.125238140735797,0.0553740342648281,0.0097044154855976));
#639=CARTESIAN_POINT('',(-0.122553945449651,0.0566602468455021,0.00918589890620608));
#640=CARTESIAN_POINT('',(-0.119599966686722,0.0568074428316197,0.00858488535112792));
#641=CARTESIAN_POINT('',(-0.116809773599043,0.0557979721891898,0.00804059005858288));
#642=CARTESIAN_POINT('',(-0.114619961612293,0.0537832499702534,0.00754451712974784));
#643=CARTESIAN_POINT('',(-0.113369502235822,0.051073989789552,0.00709387769115434));
#644=CARTESIAN_POINT('',(-0.113243729548936,0.0480705827507576,0.00680069507041917));
#645=CARTESIAN_POINT('',(-0.114280401863537,0.0452410054052024,0.00656206247029685));
#646=CARTESIAN_POINT('',(-0.116315487275208,0.0430166082729547,0.00641405872564708));
#647=CARTESIAN_POINT('',(-0.119044899587602,0.0417315083563301,0.00636962863775421));
#648=CARTESIAN_POINT('',(-0.122056934897857,0.0415830715362216,0.00629066228165086));
#649=CARTESIAN_POINT('',(-0.124899885208812,0.042590335209433,0.00623940903403136));
#650=CARTESIAN_POINT('',(-0.127146072464327,0.0446084334725148,0.00613003896617568));
#651=CARTESIAN_POINT('',(-0.128018116096594,0.0464105293245621,0.00598161756578274));
#652=CARTESIAN_POINT('',(-0.128267011555618,0.0473684529428914,0.00589725195497021));
#653=CARTESIAN_POINT('',(-0.155447136871973,0.0491954342032586,-0.388233631036025));
#654=CARTESIAN_POINT('',(-0.115686546473983,0.0435321248881845,0.00981570306567138));
#655=CARTESIAN_POINT('',(-0.116430514365083,0.0428915077140035,0.0097779946500139));
#656=CARTESIAN_POINT('',(-0.11818373866519,0.0418951816196651,0.0097451071807785));
#657=CARTESIAN_POINT('',(-0.121175429392759,0.041519591071704,0.00966943445031781));
#658=CARTESIAN_POINT('',(-0.124091313251288,0.0423098219811344,0.00961018096031332));
#659=CARTESIAN_POINT('',(-0.126483529999109,0.0441539423451527,0.0095273633053715));
#660=CARTESIAN_POINT('',(-0.127992988347998,0.0467588769325205,0.00931520609021786));
#661=CARTESIAN_POINT('',(-0.128393704631584,0.0497381690248794,0.00906214014857078));
#662=CARTESIAN_POINT('',(-0.127632904270197,0.052631844468611,0.00867728536735227));
#663=CARTESIAN_POINT('',(-0.125832910680461,0.0550031711803104,0.00818516333964564));
#664=CARTESIAN_POINT('',(-0.12325623810454,0.0564950001225294,0.00767925722232395));
#665=CARTESIAN_POINT('',(-0.120316147933585,0.0568714974849041,0.00708426074692218));
#666=CARTESIAN_POINT('',(-0.117458325587073,0.0560795503965435,0.00652013557248989));
#667=CARTESIAN_POINT('',(-0.115119868964458,0.0542385009186765,0.00602387473281437));
#668=CARTESIAN_POINT('',(-0.11366974324907,0.0516352922244998,0.00555288589291052));
#669=CARTESIAN_POINT('',(-0.11331683724076,0.0486563810152019,0.00523400315027827));
#670=CARTESIAN_POINT('',(-0.114134945759535,0.0457578939738574,0.00498629980252779));
#671=CARTESIAN_POINT('',(-0.115369641594327,0.0441802469951914,0.00487287975096345));
#672=CARTESIAN_POINT('',(-0.11612232518771,0.0435321248888269,0.00483472957521316));
#673=CARTESIAN_POINT('',(-0.115145279095336,0.0492562724082313,0.00945607431221449));
#674=CARTESIAN_POINT('',(-0.115141043403753,0.0484784393367166,0.00935328529628349));
#675=CARTESIAN_POINT('',(-0.115411866893538,0.047229305361344,0.0091916172352494));
#676=CARTESIAN_POINT('',(-0.116280943951087,0.0458413003255524,0.00901980434497309));
#677=CARTESIAN_POINT('',(-0.117010863780015,0.0450846894888879,0.00892926124978612));
#678=CARTESIAN_POINT('',(-0.117724968304229,0.0445573576702054,0.00886955997682811));
#679=CARTESIAN_POINT('',(-0.118473977396796,0.0441537731949832,0.008824591729161));
#680=CARTESIAN_POINT('',(-0.119456203748213,0.0438115274229313,0.00875973575101759));
#681=CARTESIAN_POINT('',(-0.120652990995663,0.0436598706963483,0.00868399855391051));
#682=CARTESIAN_POINT('',(-0.121929362337653,0.043790353925435,0.00860296341491635));
#683=CARTESIAN_POINT('',(-0.123113705882853,0.0441978228753968,0.00852904244689602));
#684=CARTESIAN_POINT('',(-0.124126144025384,0.0448114166533222,0.00846458474833506));
#685=CARTESIAN_POINT('',(-0.125040375564342,0.0456769293717974,0.00835932338898088));
#686=CARTESIAN_POINT('',(-0.125744484038584,0.0467451695051258,0.00822773783774937));
#687=CARTESIAN_POINT('',(-0.12616030559709,0.0478696806060305,0.00808487766821006));
#688=CARTESIAN_POINT('',(-0.126308714820513,0.0488823327551088,0.00795630296040689));
#689=CARTESIAN_POINT('',(-0.126296849411767,0.0497288784328748,0.0078430507808583));
#690=CARTESIAN_POINT('',(-0.126159008251433,0.0506034411574894,0.00770284252203213));
#691=CARTESIAN_POINT('',(-0.125825141297421,0.051590038104383,0.00751670502616852));
#692=CARTESIAN_POINT('',(-0.125249789414812,0.0525552346620006,0.0072938488208175));
#693=CARTESIAN_POINT('',(-0.124545677494076,0.053310766720012,0.00707790962908071));
#694=CARTESIAN_POINT('',(-0.1238524040668,0.0538370596601503,0.00689523622297194));
#695=CARTESIAN_POINT('',(-0.123122081107215,0.0542397762108568,0.00672077038637544));
#696=CARTESIAN_POINT('',(-0.122165299870543,0.0545809443850228,0.00648615721135964));
#697=CARTESIAN_POINT('',(-0.120999594507889,0.0547310809046689,0.00620369730719488));
#698=CARTESIAN_POINT('',(-0.119756887124213,0.0545989707858844,0.00590229338072588));
#699=CARTESIAN_POINT('',(-0.118604217022922,0.0541901761664657,0.00562409123137881));
#700=CARTESIAN_POINT('',(-0.117619017835145,0.0535753611029476,0.00538479080804374));
#701=CARTESIAN_POINT('',(-0.116737817300986,0.052708492413756,0.00512232634552011));
#702=CARTESIAN_POINT('',(-0.116068614484449,0.051639381074625,0.00487059592427614));
#703=CARTESIAN_POINT('',(-0.115685384593741,0.0505143170890013,0.00465783833461546));
#704=CARTESIAN_POINT('',(-0.115562822339813,0.0495022105188745,0.00450582187911133));
#705=CARTESIAN_POINT('',(-0.115595177538551,0.0486552890383469,0.00439628084441131));
#706=CARTESIAN_POINT('',(-0.115756412375371,0.0477807819592567,0.00428217035139438));
#707=CARTESIAN_POINT('',(-0.11626359518232,0.0463996112731022,0.00410674177188537));
#708=CARTESIAN_POINT('',(-0.11703671227414,0.0454278708034327,0.00398825977960156));
#709=CARTESIAN_POINT('',(-0.117681823654364,0.0449216206937266,0.00393005244600662));
#710=CARTESIAN_POINT('',(-0.114443515834387,0.0492486398933503,0.00973242862127903));
#711=CARTESIAN_POINT('',(-0.114439666091041,0.0483738868765948,0.0096295409441982));
#712=CARTESIAN_POINT('',(-0.114746148705498,0.0469706538586342,0.00947082677128917));
#713=CARTESIAN_POINT('',(-0.11572368733529,0.045414939687583,0.00930854964705707));
#714=CARTESIAN_POINT('',(-0.116543925205138,0.0445678896529447,0.00922596035506324));
#715=CARTESIAN_POINT('',(-0.117344547338695,0.0439789270499493,0.00917404789454349));
#716=CARTESIAN_POINT('',(-0.118186470143561,0.0435271294938911,0.00913708687339947));
#717=CARTESIAN_POINT('',(-0.1192900179643,0.043145348957669,0.00908270803254561));
#718=CARTESIAN_POINT('',(-0.12063290583942,0.0429787305517009,0.00901970862146194));
#719=CARTESIAN_POINT('',(-0.122063543849883,0.0431293986848038,0.00895220378196356));
#720=CARTESIAN_POINT('',(-0.123388441139925,0.0435898477009781,0.0088908247714646));
#721=CARTESIAN_POINT('',(-0.12452297165441,0.0442820453903384,0.00883693672831091));
#722=CARTESIAN_POINT('',(-0.125545958999525,0.045257671052144,0.00874103471166341));
#723=CARTESIAN_POINT('',(-0.126331222156449,0.0464594583866518,0.00861655431541009));
#724=CARTESIAN_POINT('',(-0.126792469885113,0.0477234810891287,0.008477693800269));
#725=CARTESIAN_POINT('',(-0.126954306145286,0.0488582017777747,0.00835062438780163));
#726=CARTESIAN_POINT('',(-0.12693757899063,0.0498105811078097,0.00823674509212298));
#727=CARTESIAN_POINT('',(-0.126778668263081,0.050792996846923,0.00809460256088376));
#728=CARTESIAN_POINT('',(-0.126398805711198,0.0519004882393909,0.00790435745135022));
#729=CARTESIAN_POINT('',(-0.125747913061526,0.0529822698829281,0.00767492926384786));
#730=CARTESIAN_POINT('',(-0.124953351222427,0.0538281135540588,0.00745112747467467));
#731=CARTESIAN_POINT('',(-0.124173497793793,0.0544159004518298,0.00726110096516049));
#732=CARTESIAN_POINT('',(-0.123350182117752,0.0548667467174755,0.00707837226405824));
#733=CARTESIAN_POINT('',(-0.122272037973752,0.0552472958871836,0.00683300741384809));
#734=CARTESIAN_POINT('',(-0.120960210832393,0.0554122097931076,0.00653771881224109));
#735=CARTESIAN_POINT('',(-0.119563266089673,0.0552597136624484,0.00622285521179675));
#736=CARTESIAN_POINT('',(-0.118270119589987,0.0547977891342733,0.00593260947882747));
#737=CARTESIAN_POINT('',(-0.117162904651497,0.0541042055541573,0.00568251833522416));
#738=CARTESIAN_POINT('',(-0.116173098319152,0.0531270653617464,0.00541039820968995));
#739=CARTESIAN_POINT('',(-0.115422910439524,0.0519243038463243,0.0051515875774846));
#740=CARTESIAN_POINT('',(-0.114994434723659,0.050659680826002,0.00493489870351329));
#741=CARTESIAN_POINT('',(-0.114858537029098,0.0495255489428451,0.00478204287044877));
#742=CARTESIAN_POINT('',(-0.114895915495978,0.0485727567006416,0.00467274024215074));
#743=CARTESIAN_POINT('',(-0.115078379108898,0.0475904072604981,0.00456039592662457));
#744=CARTESIAN_POINT('',(-0.115650143254987,0.0460400262919833,0.00439050584176545));
#745=CARTESIAN_POINT('',(-0.116519323603433,0.0449518588614535,0.00428051354478028));
#746=CARTESIAN_POINT('',(-0.117243302191232,0.0443858500376404,0.00422931633824654));
#747=CARTESIAN_POINT('',(-0.113741920996095,0.0492436216699586,0.0100092090766775));
#748=CARTESIAN_POINT('',(-0.113738122429249,0.048272180341808,0.00990625806342712));
#749=CARTESIAN_POINT('',(-0.114079528643995,0.0467149707475781,0.00975051380489344));
#750=CARTESIAN_POINT('',(-0.11516476564673,0.044991088730026,0.00959768304139666));
#751=CARTESIAN_POINT('',(-0.116074908659103,0.04405318119852,0.00952298636410525));
#752=CARTESIAN_POINT('',(-0.116962000901742,0.0434020392495121,0.00947875163923009));
#753=CARTESIAN_POINT('',(-0.11789648307777,0.0429018023687146,0.00944982614313566));
#754=CARTESIAN_POINT('',(-0.119120961436662,0.0424800714702678,0.00940595683001106));
#755=CARTESIAN_POINT('',(-0.12060976315766,0.042297868719214,0.00935570029228059));
#756=CARTESIAN_POINT('',(-0.122194725428654,0.0424680028556878,0.00930171457205709));
#757=CARTESIAN_POINT('',(-0.123660684149252,0.0429808888430203,0.00925280273295748));
#758=CARTESIAN_POINT('',(-0.124917410011152,0.0437511418976754,0.00920954791624417));
#759=CARTESIAN_POINT('',(-0.12604940413,0.0448362391301564,0.00912310269555022));
#760=CARTESIAN_POINT('',(-0.126916375030559,0.046171159601716,0.00900577330387805));
#761=CARTESIAN_POINT('',(-0.127423685884119,0.0475744342684092,0.00887095611085074));
#762=CARTESIAN_POINT('',(-0.127599561506379,0.0488315853702853,0.00874528451212994));
#763=CARTESIAN_POINT('',(-0.127578326292923,0.0498894884891079,0.00863090742053142));
#764=CARTESIAN_POINT('',(-0.127398810405527,0.0509796798265181,0.00848691536719813));
#765=CARTESIAN_POINT('',(-0.126973511996843,0.05220810704787,0.0082926521145476));
#766=CARTESIAN_POINT('',(-0.126247611956415,0.0534067990235607,0.00805668064175278));
#767=CARTESIAN_POINT('',(-0.125363017340772,0.0543433717770464,0.00782502829820581));
#768=CARTESIAN_POINT('',(-0.124496646594206,0.0549932029918534,0.00762754619147922));
#769=CARTESIAN_POINT('',(-0.123580687956216,0.0554924008575678,0.00743664715058704));
#770=CARTESIAN_POINT('',(-0.122381556178422,0.0559127504933294,0.00718062842985433));
#771=CARTESIAN_POINT('',(-0.120923789862613,0.0560930640437506,0.00687254870110967));
#772=CARTESIAN_POINT('',(-0.119372551322482,0.0559209011159297,0.00654420396419613));
#773=CARTESIAN_POINT('',(-0.117938438929253,0.0554063877664816,0.00624175193021302));
#774=CARTESIAN_POINT('',(-0.116709099766779,0.0546345862199244,0.00598091693128881));
#775=CARTESIAN_POINT('',(-0.115610420491196,0.0535478147656789,0.00569919245231338));
#776=CARTESIAN_POINT('',(-0.11477869431979,0.0522118164883913,0.00543325066203996));
#777=CARTESIAN_POINT('',(-0.114304336982196,0.0508078907157655,0.00521256192709065));
#778=CARTESIAN_POINT('',(-0.114154521287739,0.0495513754125449,0.00505865628491999));
#779=CARTESIAN_POINT('',(-0.114196551387652,0.0484930207871774,0.00494965758386862));
#780=CARTESIAN_POINT('',(-0.114399771027665,0.0474029058000267,0.00483908229105314));
#781=CARTESIAN_POINT('',(-0.115035327866377,0.0456832505914002,0.00467471582005523));
#782=CARTESIAN_POINT('',(-0.116000022459466,0.0444781705825043,0.00457312389876459));
#783=CARTESIAN_POINT('',(-0.116802702380939,0.0438519851058741,0.00452886879735027));
#784=CARTESIAN_POINT('',(-0.113040363982964,0.0492395380867513,0.0102860852380459));
#785=CARTESIAN_POINT('',(-0.113036493740335,0.0481714918592028,0.010183075073304));
#786=CARTESIAN_POINT('',(-0.113412554396549,0.0464603452741904,0.010030296075909));
#787=CARTESIAN_POINT('',(-0.114605221746865,0.044568120265598,0.00988688293210521));
#788=CARTESIAN_POINT('',(-0.115605128317439,0.0435391988093559,0.00982006051501104));
#789=CARTESIAN_POINT('',(-0.116578685716466,0.0428256798553934,0.00978347828034644));
#790=CARTESIAN_POINT('',(-0.117605599730988,0.0422769196724642,0.00976259089371483));
#791=CARTESIAN_POINT('',(-0.118950869125463,0.0418150841891965,0.0097292344698509));
#792=CARTESIAN_POINT('',(-0.120585523539446,0.0416170703682905,0.00969172053115628));
#793=CARTESIAN_POINT('',(-0.122324840905765,0.0418064130299463,0.00965125274779083));
#794=CARTESIAN_POINT('',(-0.123932053324109,0.0423715533502674,0.00961479713264547));
#795=CARTESIAN_POINT('',(-0.125311015107462,0.04321966408882,0.00958219176241631));
#796=CARTESIAN_POINT('',(-0.126552112663885,0.0444140004337943,0.0095052294724325));
#797=CARTESIAN_POINT('',(-0.127500995161082,0.0458819116856192,0.00939506837815613));
#798=CARTESIAN_POINT('',(-0.128054601717044,0.0474243544473046,0.00926431188322159));
#799=CARTESIAN_POINT('',(-0.12824472557482,0.048804081930905,0.0091400190123596));
#800=CARTESIAN_POINT('',(-0.128219115899172,0.049967396083784,0.00902517858860502));
#801=CARTESIAN_POINT('',(-0.128019164727017,0.051165337991893,0.0088793622109214));
#802=CARTESIAN_POINT('',(-0.127548633636163,0.0525147206010649,0.00868110809383566));
#803=CARTESIAN_POINT('',(-0.126747913011211,0.0538304470172854,0.0084386054839885));
#804=CARTESIAN_POINT('',(-0.125773428239001,0.0548579049686985,0.00819910923726976));
#805=CARTESIAN_POINT('',(-0.124820548129999,0.0555699787492272,0.00799414717388039));
#806=CARTESIAN_POINT('',(-0.123812073968118,0.0561176107004494,0.00779510329273139));
#807=CARTESIAN_POINT('',(-0.12249208972722,0.0565779163776441,0.0075284577196695));
#808=CARTESIAN_POINT('',(-0.120888444355574,0.0567738561413174,0.00720759723649269));
#809=CARTESIAN_POINT('',(-0.119182881229594,0.056582283977204,0.00686576471737164));
#810=CARTESIAN_POINT('',(-0.1176076146089,0.0560153636461171,0.00655106197794428));
#811=CARTESIAN_POINT('',(-0.116256109926927,0.0551655426864912,0.00627949259744442));
#812=CARTESIAN_POINT('',(-0.115048456844247,0.0539693719460712,0.00598817242983102));
#813=CARTESIAN_POINT('',(-0.114134988406469,0.0525002790133582,0.00571508109042444));
#814=CARTESIAN_POINT('',(-0.113614517102727,0.0509571330882532,0.0054903689879454));
#815=CARTESIAN_POINT('',(-0.113450581617789,0.0495780898664143,0.00533535889037592));
#816=CARTESIAN_POINT('',(-0.11349712549849,0.0484142850549601,0.00522667475397082));
#817=CARTESIAN_POINT('',(-0.113720929248078,0.0472164293167213,0.0051178637985037));
#818=CARTESIAN_POINT('',(-0.11441999391551,0.0453274703476018,0.00495900872801814));
#819=CARTESIAN_POINT('',(-0.115480012814623,0.0440052939610148,0.00486579084783071));
#820=CARTESIAN_POINT('',(-0.116361342830365,0.0433187795915732,0.004828460870944));
#821=CARTESIAN_POINT('',(-0.114483653160151,0.0491954341526815,0.00971046353800216));
#822=CARTESIAN_POINT('',(-0.114700132874608,0.0491954341526935,0.00962469033097686));
#823=CARTESIAN_POINT('',(-0.114916601330667,0.0491954341527056,0.00953888870366394));
#824=CARTESIAN_POINT('',(-0.115133052179648,0.0491954341527177,0.00945304268401712));
#825=CARTESIAN_POINT('',(-0.115133052179648,0.0491954341527177,0.00945304268401713));
#826=CARTESIAN_POINT('',(-0.115133052179648,0.0491954341527177,0.00945304268401714));
#827=CARTESIAN_POINT('',(-0.115148556944189,0.0478482301190533,0.00927582241428386));
#828=CARTESIAN_POINT('',(-0.115953608764874,0.0458357930372978,0.00901379649089984));
#829=CARTESIAN_POINT('',(-0.118164607713671,0.0441729052362101,0.00884373279009496));
#830=CARTESIAN_POINT('',(-0.120158492463457,0.0435977951441891,0.00872327361135658));
#831=CARTESIAN_POINT('',(-0.122224679660728,0.0437712350925175,0.0085873722878104));
#832=CARTESIAN_POINT('',(-0.12472157788759,0.0449693240919595,0.00845342664294731));
#833=CARTESIAN_POINT('',(-0.126295149668656,0.0473902250596424,0.0081521200459122));
#834=CARTESIAN_POINT('',(-0.126364500854853,0.0501389679935929,0.00780590661689435));
#835=CARTESIAN_POINT('',(-0.125686348445177,0.0520659284304923,0.00743614598636694));
#836=CARTESIAN_POINT('',(-0.12436515553029,0.0536110085058271,0.00701649067784798));
#837=CARTESIAN_POINT('',(-0.121974174266944,0.0548931750456153,0.00645088542402169));
#838=CARTESIAN_POINT('',(-0.11915975802109,0.054701577486825,0.00577118796232837));
#839=CARTESIAN_POINT('',(-0.116960439687914,0.0530993563979601,0.00522155421851042));
#840=CARTESIAN_POINT('',(-0.116229646731944,0.0519644742390652,0.00494643446864871));
#841=CARTESIAN_POINT('',(-0.11597489236937,0.0513392100955425,0.00482183087596507));
#842=CARTESIAN_POINT('',(-0.155447136871973,0.0491954342032586,-0.388233631036025));
#843=CARTESIAN_POINT('',(-0.115105768933405,0.0491954341526781,0.0097648916155612));
#844=CARTESIAN_POINT('',(-0.116967424715467,0.0491954341524772,0.0114334951481941));
#845=CARTESIAN_POINT('',(-0.0880931697145209,0.0351954341616406,0.00840541524730478));
#846=CARTESIAN_POINT('',(-0.0891850504070954,0.0382765073870046,0.00770605407317901));
#847=CARTESIAN_POINT('',(-0.0882535854138728,0.0601903076368576,0.0083026671839256));
#848=CARTESIAN_POINT('',(-0.086714313249779,0.0351954341538433,0.00978095295698514));
#849=CARTESIAN_POINT('',(-0.0867142268592298,0.0382005606804065,0.00746062828917571));
#850=CARTESIAN_POINT('',(-0.0897244091142824,0.0351954341715784,0.00854813020228075));
#851=CARTESIAN_POINT('',(-0.0877142268767387,0.0351954341589648,0.00746059106613561));
#852=MECHANICAL_DESIGN_GEOMETRIC_PRESENTATION_REPRESENTATION('',(#279),
#853);
#853=(
GEOMETRIC_REPRESENTATION_CONTEXT(3)
GLOBAL_UNCERTAINTY_ASSIGNED_CONTEXT((#854))
GLOBAL_UNIT_ASSIGNED_CONTEXT((#857,#856,#855))
REPRESENTATION_CONTEXT('Part 5','TOP_LEVEL_ASSEMBLY_PART')
);
#854=UNCERTAINTY_MEASURE_WITH_UNIT(LENGTH_MEASURE(2.E-5),#857,
'DISTANCE_ACCURACY_VALUE','Maximum Tolerance applied to model');
#855=(
NAMED_UNIT(*)
SI_UNIT($,.STERADIAN.)
SOLID_ANGLE_UNIT()
);
#856=(
NAMED_UNIT(*)
PLANE_ANGLE_UNIT()
SI_UNIT($,.RADIAN.)
);
#857=(
LENGTH_UNIT()
NAMED_UNIT(*)
SI_UNIT($,.METRE.)
);
#858=PRODUCT_DEFINITION_SHAPE('','',#859);
#859=PRODUCT_DEFINITION('','',#861,#860);
#860=PRODUCT_DEFINITION_CONTEXT('',#867,'design');
#861=PRODUCT_DEFINITION_FORMATION_WITH_SPECIFIED_SOURCE('','',#863,
 .NOT_KNOWN.);
#862=PRODUCT_RELATED_PRODUCT_CATEGORY('','',(#863));
#863=PRODUCT('Part 5','Part 5','Part 5',(#865));
#864=PRODUCT_CATEGORY('','');
#865=PRODUCT_CONTEXT('',#867,'mechanical');
#866=APPLICATION_PROTOCOL_DEFINITION('international standard',
'ap242_managed_model_based_3d_engineering',2020,#867);
#867=APPLICATION_CONTEXT('managed model based 3d engineering');
ENDSEC;
END-ISO-10303-21;
