ISO-10303-21;
HEADER;
/* Generated by software containing ST-Developer
 * from STEP Tools, Inc. (www.steptools.com) 
 */
/* OPTION: using custom renumber hook */

FILE_DESCRIPTION(
/* description */ ('STEP AP242 Edition 2',
'CAx-IF Rec.Pracs.---Representation and Presentation of Product Manufa
cturing Information (PMI)---4.0---2014-10-13',
'CAx-IF Rec.Pracs.---3D Tessellated Geometry---0.4---2014-09-14','2;1',
'CAx-IF Rec.Pracs.---User Defined Attributes---1.5---2016-08-15'),
/* implementation_level */ '2;1');

FILE_NAME(
/* name */ 'Assembly 1 - Part 16',
/* time_stamp */ '2026-07-25T03:56:15Z',
/* author */ (''),
/* organization */ (''),
/* preprocessor_version */ 'ST-DEVELOPER v20',
/* originating_system */ 'ONSHAPE BY PTC INC, 1.218',
/* authorisation */ '  ');

FILE_SCHEMA (('AP242_MANAGED_MODEL_BASED_3D_ENGINEERING_MIM_LF { 1 0 10303 442 3 1 4 }'));
ENDSEC;

DATA;
#10=SHAPE_REPRESENTATION_RELATIONSHIP('','',#285,#11);
#11=ADVANCED_BREP_SHAPE_REPRESENTATION('',(#283),#505);
#12=TOROIDAL_SURFACE('',#314,0.008,0.003);
#13=TOROIDAL_SURFACE('',#317,0.008,0.003);
#14=B_SPLINE_CURVE_WITH_KNOTS('',3,(#431,#432,#433,#434),.UNSPECIFIED.,
 .F.,.F.,(4,4),(0.,0.00187248089455186),.UNSPECIFIED.);
#15=B_SPLINE_CURVE_WITH_KNOTS('',3,(#437,#438,#439,#440),.UNSPECIFIED.,
 .F.,.F.,(4,4),(0.,0.00187248089455172),.UNSPECIFIED.);
#16=B_SPLINE_CURVE_WITH_KNOTS('',3,(#453,#454,#455,#456),.UNSPECIFIED.,
 .F.,.F.,(4,4),(0.,0.00187231720698727),.UNSPECIFIED.);
#17=B_SPLINE_CURVE_WITH_KNOTS('',3,(#462,#463,#464,#465),.UNSPECIFIED.,
 .F.,.F.,(4,4),(0.,0.001872317206987),.UNSPECIFIED.);
#18=B_SPLINE_CURVE_WITH_KNOTS('',3,(#478,#479,#480,#481,#482),
 .UNSPECIFIED.,.F.,.F.,(4,1,4),(0.,0.00173259216116574,0.00346518432233148),
 .UNSPECIFIED.);
#19=B_SPLINE_CURVE_WITH_KNOTS('',3,(#484,#485,#486,#487,#488),
 .UNSPECIFIED.,.F.,.F.,(4,1,4),(0.,0.00173259216116574,0.00346518432233149),
 .UNSPECIFIED.);
#20=B_SPLINE_CURVE_WITH_KNOTS('',3,(#491,#492,#493,#494,#495),
 .UNSPECIFIED.,.F.,.F.,(4,1,4),(0.,0.00173259216116598,0.00346518432233196),
 .UNSPECIFIED.);
#21=B_SPLINE_CURVE_WITH_KNOTS('',3,(#497,#498,#499,#500,#501),
 .UNSPECIFIED.,.F.,.F.,(4,1,4),(0.,0.00173259216116598,0.00346518432233196),
 .UNSPECIFIED.);
#22=PLANE('',#291);
#23=PLANE('',#296);
#24=PLANE('',#299);
#25=PLANE('',#304);
#26=PLANE('',#308);
#27=PLANE('',#318);
#28=LINE('',#404,#40);
#29=LINE('',#408,#41);
#30=LINE('',#410,#42);
#31=LINE('',#415,#43);
#32=LINE('',#426,#44);
#33=LINE('',#429,#45);
#34=LINE('',#435,#46);
#35=LINE('',#447,#47);
#36=LINE('',#451,#48);
#37=LINE('',#458,#49);
#38=LINE('',#460,#50);
#39=LINE('',#467,#51);
#40=VECTOR('',#327,1.);
#41=VECTOR('',#330,1.);
#42=VECTOR('',#333,1.);
#43=VECTOR('',#336,1.);
#44=VECTOR('',#351,1.);
#45=VECTOR('',#352,1.);
#46=VECTOR('',#353,1.);
#47=VECTOR('',#360,1.);
#48=VECTOR('',#363,1.);
#49=VECTOR('',#366,1.);
#50=VECTOR('',#367,1.);
#51=VECTOR('',#368,1.);
#52=ORIENTED_EDGE('',*,*,#124,.T.);
#53=ORIENTED_EDGE('',*,*,#125,.T.);
#54=ORIENTED_EDGE('',*,*,#126,.T.);
#55=ORIENTED_EDGE('',*,*,#127,.F.);
#56=ORIENTED_EDGE('',*,*,#128,.T.);
#57=ORIENTED_EDGE('',*,*,#129,.T.);
#58=ORIENTED_EDGE('',*,*,#130,.T.);
#59=ORIENTED_EDGE('',*,*,#131,.F.);
#60=ORIENTED_EDGE('',*,*,#132,.T.);
#61=ORIENTED_EDGE('',*,*,#127,.T.);
#62=ORIENTED_EDGE('',*,*,#133,.T.);
#63=ORIENTED_EDGE('',*,*,#134,.F.);
#64=ORIENTED_EDGE('',*,*,#124,.F.);
#65=ORIENTED_EDGE('',*,*,#135,.T.);
#66=ORIENTED_EDGE('',*,*,#135,.F.);
#67=ORIENTED_EDGE('',*,*,#134,.T.);
#68=ORIENTED_EDGE('',*,*,#136,.T.);
#69=ORIENTED_EDGE('',*,*,#137,.T.);
#70=ORIENTED_EDGE('',*,*,#138,.T.);
#71=ORIENTED_EDGE('',*,*,#129,.F.);
#72=ORIENTED_EDGE('',*,*,#139,.T.);
#73=ORIENTED_EDGE('',*,*,#140,.T.);
#74=ORIENTED_EDGE('',*,*,#141,.F.);
#75=ORIENTED_EDGE('',*,*,#142,.T.);
#76=ORIENTED_EDGE('',*,*,#143,.T.);
#77=ORIENTED_EDGE('',*,*,#144,.T.);
#78=ORIENTED_EDGE('',*,*,#145,.T.);
#79=ORIENTED_EDGE('',*,*,#146,.T.);
#80=ORIENTED_EDGE('',*,*,#147,.T.);
#81=ORIENTED_EDGE('',*,*,#148,.F.);
#82=ORIENTED_EDGE('',*,*,#149,.T.);
#83=ORIENTED_EDGE('',*,*,#150,.T.);
#84=ORIENTED_EDGE('',*,*,#131,.T.);
#85=ORIENTED_EDGE('',*,*,#151,.T.);
#86=ORIENTED_EDGE('',*,*,#152,.F.);
#87=ORIENTED_EDGE('',*,*,#136,.F.);
#88=ORIENTED_EDGE('',*,*,#153,.T.);
#89=ORIENTED_EDGE('',*,*,#148,.T.);
#90=ORIENTED_EDGE('',*,*,#154,.T.);
#91=ORIENTED_EDGE('',*,*,#144,.F.);
#92=ORIENTED_EDGE('',*,*,#155,.T.);
#93=ORIENTED_EDGE('',*,*,#152,.T.);
#94=ORIENTED_EDGE('',*,*,#147,.F.);
#95=ORIENTED_EDGE('',*,*,#156,.F.);
#96=ORIENTED_EDGE('',*,*,#145,.F.);
#97=ORIENTED_EDGE('',*,*,#154,.F.);
#98=ORIENTED_EDGE('',*,*,#155,.F.);
#99=ORIENTED_EDGE('',*,*,#143,.F.);
#100=ORIENTED_EDGE('',*,*,#157,.F.);
#101=ORIENTED_EDGE('',*,*,#137,.F.);
#102=ORIENTED_EDGE('',*,*,#146,.F.);
#103=ORIENTED_EDGE('',*,*,#130,.F.);
#104=ORIENTED_EDGE('',*,*,#138,.F.);
#105=ORIENTED_EDGE('',*,*,#157,.T.);
#106=ORIENTED_EDGE('',*,*,#142,.F.);
#107=ORIENTED_EDGE('',*,*,#156,.T.);
#108=ORIENTED_EDGE('',*,*,#133,.F.);
#109=ORIENTED_EDGE('',*,*,#126,.F.);
#110=ORIENTED_EDGE('',*,*,#158,.F.);
#111=ORIENTED_EDGE('',*,*,#139,.F.);
#112=ORIENTED_EDGE('',*,*,#150,.F.);
#113=ORIENTED_EDGE('',*,*,#159,.F.);
#114=ORIENTED_EDGE('',*,*,#128,.F.);
#115=ORIENTED_EDGE('',*,*,#132,.F.);
#116=ORIENTED_EDGE('',*,*,#158,.T.);
#117=ORIENTED_EDGE('',*,*,#125,.F.);
#118=ORIENTED_EDGE('',*,*,#159,.T.);
#119=ORIENTED_EDGE('',*,*,#149,.F.);
#120=ORIENTED_EDGE('',*,*,#153,.F.);
#121=ORIENTED_EDGE('',*,*,#140,.F.);
#122=ORIENTED_EDGE('',*,*,#141,.T.);
#123=ORIENTED_EDGE('',*,*,#151,.F.);
#124=EDGE_CURVE('',#160,#160,#186,.T.);
#125=EDGE_CURVE('',#161,#162,#187,.F.);
#126=EDGE_CURVE('',#162,#163,#28,.F.);
#127=EDGE_CURVE('',#164,#163,#188,.T.);
#128=EDGE_CURVE('',#164,#161,#29,.T.);
#129=EDGE_CURVE('',#165,#166,#30,.T.);
#130=EDGE_CURVE('',#166,#167,#189,.F.);
#131=EDGE_CURVE('',#168,#167,#31,.T.);
#132=EDGE_CURVE('',#168,#164,#190,.F.);
#133=EDGE_CURVE('',#163,#165,#191,.F.);
#134=EDGE_CURVE('',#169,#169,#192,.T.);
#135=EDGE_CURVE('',#170,#170,#193,.T.);
#136=EDGE_CURVE('',#171,#172,#32,.T.);
#137=EDGE_CURVE('',#172,#173,#33,.F.);
#138=EDGE_CURVE('',#173,#166,#14,.T.);
#139=EDGE_CURVE('',#165,#174,#34,.T.);
#140=EDGE_CURVE('',#174,#171,#15,.T.);
#141=EDGE_CURVE('',#175,#175,#194,.F.);
#142=EDGE_CURVE('',#176,#177,#195,.T.);
#143=EDGE_CURVE('',#177,#178,#35,.F.);
#144=EDGE_CURVE('',#178,#179,#196,.T.);
#145=EDGE_CURVE('',#179,#176,#36,.T.);
#146=EDGE_CURVE('',#167,#180,#16,.T.);
#147=EDGE_CURVE('',#180,#181,#37,.F.);
#148=EDGE_CURVE('',#182,#181,#38,.T.);
#149=EDGE_CURVE('',#182,#183,#17,.T.);
#150=EDGE_CURVE('',#183,#168,#39,.T.);
#151=EDGE_CURVE('',#184,#184,#197,.F.);
#152=EDGE_CURVE('',#185,#185,#198,.T.);
#153=EDGE_CURVE('',#171,#182,#199,.T.);
#154=EDGE_CURVE('',#181,#179,#200,.T.);
#155=EDGE_CURVE('',#178,#172,#201,.T.);
#156=EDGE_CURVE('',#176,#180,#18,.F.);
#157=EDGE_CURVE('',#173,#177,#19,.T.);
#158=EDGE_CURVE('',#174,#162,#20,.T.);
#159=EDGE_CURVE('',#161,#183,#21,.F.);
#160=VERTEX_POINT('',#400);
#161=VERTEX_POINT('',#402);
#162=VERTEX_POINT('',#403);
#163=VERTEX_POINT('',#405);
#164=VERTEX_POINT('',#407);
#165=VERTEX_POINT('',#411);
#166=VERTEX_POINT('',#412);
#167=VERTEX_POINT('',#414);
#168=VERTEX_POINT('',#416);
#169=VERTEX_POINT('',#420);
#170=VERTEX_POINT('',#423);
#171=VERTEX_POINT('',#427);
#172=VERTEX_POINT('',#428);
#173=VERTEX_POINT('',#430);
#174=VERTEX_POINT('',#436);
#175=VERTEX_POINT('',#443);
#176=VERTEX_POINT('',#445);
#177=VERTEX_POINT('',#446);
#178=VERTEX_POINT('',#448);
#179=VERTEX_POINT('',#450);
#180=VERTEX_POINT('',#457);
#181=VERTEX_POINT('',#459);
#182=VERTEX_POINT('',#461);
#183=VERTEX_POINT('',#466);
#184=VERTEX_POINT('',#470);
#185=VERTEX_POINT('',#472);
#186=CIRCLE('',#288,0.005);
#187=CIRCLE('',#289,0.005);
#188=CIRCLE('',#290,0.005);
#189=CIRCLE('',#292,0.008);
#190=CIRCLE('',#293,0.003);
#191=CIRCLE('',#294,0.003);
#192=CIRCLE('',#295,0.002);
#193=CIRCLE('',#297,0.002);
#194=CIRCLE('',#301,0.005);
#195=CIRCLE('',#302,0.005);
#196=CIRCLE('',#303,0.005);
#197=CIRCLE('',#306,0.002);
#198=CIRCLE('',#307,0.002);
#199=CIRCLE('',#309,0.008);
#200=CIRCLE('',#310,0.003);
#201=CIRCLE('',#311,0.003);
#202=EDGE_LOOP('',(#52));
#203=EDGE_LOOP('',(#53,#54,#55,#56));
#204=EDGE_LOOP('',(#57,#58,#59,#60,#61,#62));
#205=EDGE_LOOP('',(#63));
#206=EDGE_LOOP('',(#64));
#207=EDGE_LOOP('',(#65));
#208=EDGE_LOOP('',(#66));
#209=EDGE_LOOP('',(#67));
#210=EDGE_LOOP('',(#68,#69,#70,#71,#72,#73));
#211=EDGE_LOOP('',(#74));
#212=EDGE_LOOP('',(#75,#76,#77,#78));
#213=EDGE_LOOP('',(#79,#80,#81,#82,#83,#84));
#214=EDGE_LOOP('',(#85));
#215=EDGE_LOOP('',(#86));
#216=EDGE_LOOP('',(#87,#88,#89,#90,#91,#92));
#217=EDGE_LOOP('',(#93));
#218=EDGE_LOOP('',(#94,#95,#96,#97));
#219=EDGE_LOOP('',(#98,#99,#100,#101));
#220=EDGE_LOOP('',(#102,#103,#104,#105,#106,#107));
#221=EDGE_LOOP('',(#108,#109,#110,#111));
#222=EDGE_LOOP('',(#112,#113,#114,#115));
#223=EDGE_LOOP('',(#116,#117,#118,#119,#120,#121));
#224=EDGE_LOOP('',(#122));
#225=EDGE_LOOP('',(#123));
#226=FACE_BOUND('',#202,.T.);
#227=FACE_BOUND('',#203,.T.);
#228=FACE_BOUND('',#204,.T.);
#229=FACE_BOUND('',#205,.T.);
#230=FACE_BOUND('',#206,.T.);
#231=FACE_BOUND('',#207,.T.);
#232=FACE_BOUND('',#208,.T.);
#233=FACE_BOUND('',#209,.T.);
#234=FACE_BOUND('',#210,.T.);
#235=FACE_BOUND('',#211,.T.);
#236=FACE_BOUND('',#212,.T.);
#237=FACE_BOUND('',#213,.T.);
#238=FACE_BOUND('',#214,.T.);
#239=FACE_BOUND('',#215,.T.);
#240=FACE_BOUND('',#216,.T.);
#241=FACE_BOUND('',#217,.T.);
#242=FACE_BOUND('',#218,.T.);
#243=FACE_BOUND('',#219,.T.);
#244=FACE_BOUND('',#220,.T.);
#245=FACE_BOUND('',#221,.T.);
#246=FACE_BOUND('',#222,.T.);
#247=FACE_BOUND('',#223,.T.);
#248=FACE_BOUND('',#224,.T.);
#249=FACE_BOUND('',#225,.T.);
#250=CYLINDRICAL_SURFACE('',#287,0.005);
#251=CYLINDRICAL_SURFACE('',#298,0.002);
#252=CYLINDRICAL_SURFACE('',#300,0.005);
#253=CYLINDRICAL_SURFACE('',#305,0.002);
#254=CYLINDRICAL_SURFACE('',#312,0.003);
#255=CYLINDRICAL_SURFACE('',#313,0.003);
#256=CYLINDRICAL_SURFACE('',#315,0.003);
#257=CYLINDRICAL_SURFACE('',#316,0.003);
#258=ADVANCED_FACE('',(#226,#227),#250,.T.);
#259=ADVANCED_FACE('',(#228,#229),#22,.T.);
#260=ADVANCED_FACE('',(#230,#231),#23,.F.);
#261=ADVANCED_FACE('',(#232,#233),#251,.F.);
#262=ADVANCED_FACE('',(#234),#24,.T.);
#263=ADVANCED_FACE('',(#235,#236),#252,.T.);
#264=ADVANCED_FACE('',(#237),#25,.F.);
#265=ADVANCED_FACE('',(#238,#239),#253,.F.);
#266=ADVANCED_FACE('',(#240,#241),#26,.F.);
#267=ADVANCED_FACE('',(#242),#254,.F.);
#268=ADVANCED_FACE('',(#243),#255,.F.);
#269=ADVANCED_FACE('',(#244),#12,.F.);
#270=ADVANCED_FACE('',(#245),#256,.F.);
#271=ADVANCED_FACE('',(#246),#257,.F.);
#272=ADVANCED_FACE('',(#247),#13,.F.);
#273=ADVANCED_FACE('',(#248,#249),#27,.F.);
#274=CLOSED_SHELL('',(#258,#259,#260,#261,#262,#263,#264,#265,#266,#267,
#268,#269,#270,#271,#272,#273));
#275=STYLED_ITEM('',(#276),#283);
#276=PRESENTATION_STYLE_ASSIGNMENT((#277));
#277=SURFACE_STYLE_USAGE(.BOTH.,#278);
#278=SURFACE_SIDE_STYLE('',(#279));
#279=SURFACE_STYLE_FILL_AREA(#280);
#280=FILL_AREA_STYLE('',(#281));
#281=FILL_AREA_STYLE_COLOUR('',#282);
#282=COLOUR_RGB('',0.917647058823529,0.917647058823529,0.917647058823529);
#283=MANIFOLD_SOLID_BREP('Part 16',#274);
#284=SHAPE_DEFINITION_REPRESENTATION(#510,#285);
#285=SHAPE_REPRESENTATION('Part 16',(#286),#505);
#286=AXIS2_PLACEMENT_3D('',#397,#319,#320);
#287=AXIS2_PLACEMENT_3D('',#398,#321,#322);
#288=AXIS2_PLACEMENT_3D('',#399,#323,#324);
#289=AXIS2_PLACEMENT_3D('',#401,#325,#326);
#290=AXIS2_PLACEMENT_3D('',#406,#328,#329);
#291=AXIS2_PLACEMENT_3D('',#409,#331,#332);
#292=AXIS2_PLACEMENT_3D('',#413,#334,#335);
#293=AXIS2_PLACEMENT_3D('',#417,#337,#338);
#294=AXIS2_PLACEMENT_3D('',#418,#339,#340);
#295=AXIS2_PLACEMENT_3D('',#419,#341,#342);
#296=AXIS2_PLACEMENT_3D('',#421,#343,#344);
#297=AXIS2_PLACEMENT_3D('',#422,#345,#346);
#298=AXIS2_PLACEMENT_3D('',#424,#347,#348);
#299=AXIS2_PLACEMENT_3D('',#425,#349,#350);
#300=AXIS2_PLACEMENT_3D('',#441,#354,#355);
#301=AXIS2_PLACEMENT_3D('',#442,#356,#357);
#302=AXIS2_PLACEMENT_3D('',#444,#358,#359);
#303=AXIS2_PLACEMENT_3D('',#449,#361,#362);
#304=AXIS2_PLACEMENT_3D('',#452,#364,#365);
#305=AXIS2_PLACEMENT_3D('',#468,#369,#370);
#306=AXIS2_PLACEMENT_3D('',#469,#371,#372);
#307=AXIS2_PLACEMENT_3D('',#471,#373,#374);
#308=AXIS2_PLACEMENT_3D('',#473,#375,#376);
#309=AXIS2_PLACEMENT_3D('',#474,#377,#378);
#310=AXIS2_PLACEMENT_3D('',#475,#379,#380);
#311=AXIS2_PLACEMENT_3D('',#476,#381,#382);
#312=AXIS2_PLACEMENT_3D('',#477,#383,#384);
#313=AXIS2_PLACEMENT_3D('',#483,#385,#386);
#314=AXIS2_PLACEMENT_3D('',#489,#387,#388);
#315=AXIS2_PLACEMENT_3D('',#490,#389,#390);
#316=AXIS2_PLACEMENT_3D('',#496,#391,#392);
#317=AXIS2_PLACEMENT_3D('',#502,#393,#394);
#318=AXIS2_PLACEMENT_3D('',#503,#395,#396);
#319=DIRECTION('',(0.,0.,1.));
#320=DIRECTION('',(1.,0.,0.));
#321=DIRECTION('',(-1.09568983619763E-18,-7.54743493333139E-10,1.));
#322=DIRECTION('',(0.,-1.,-7.54743493333139E-10));
#323=DIRECTION('',(1.09568983619763E-18,7.54743493333139E-10,-1.));
#324=DIRECTION('',(0.,1.,7.54743493333139E-10));
#325=DIRECTION('',(1.09568983619763E-18,7.54743493333139E-10,-1.));
#326=DIRECTION('',(0.,1.,7.54743493333139E-10));
#327=DIRECTION('',(-1.09568983619763E-18,-7.54743493333139E-10,1.));
#328=DIRECTION('',(1.09568983619763E-18,7.54743493333139E-10,-1.));
#329=DIRECTION('',(0.,1.,7.54743493333139E-10));
#330=DIRECTION('',(-1.09568983619763E-18,-7.54743493333139E-10,1.));
#331=DIRECTION('',(1.09568983619763E-18,7.54743493333139E-10,-1.));
#332=DIRECTION('',(1.,-8.26964774581418E-28,1.09568983619763E-18));
#333=DIRECTION('',(-6.98948251176144E-35,1.,7.54743493333139E-10));
#334=DIRECTION('',(1.09568983619763E-18,7.54743493333139E-10,-1.));
#335=DIRECTION('',(0.,1.,7.54743493333139E-10));
#336=DIRECTION('',(-6.98948251176144E-35,1.,7.54743493333139E-10));
#337=DIRECTION('',(1.09568983619763E-18,7.54743493333139E-10,-1.));
#338=DIRECTION('',(0.,1.,7.54743493333139E-10));
#339=DIRECTION('',(1.09568983619763E-18,7.54743493333139E-10,-1.));
#340=DIRECTION('',(0.,1.,7.54743493333139E-10));
#341=DIRECTION('',(1.09568983619763E-18,7.54743493333139E-10,-1.));
#342=DIRECTION('',(0.,1.,7.54743493333139E-10));
#343=DIRECTION('',(1.09568983619763E-18,7.54743493333139E-10,-1.));
#344=DIRECTION('',(1.,-8.26964774581418E-28,1.09568983619763E-18));
#345=DIRECTION('',(1.09568983619763E-18,7.54743493333139E-10,-1.));
#346=DIRECTION('',(0.,1.,7.54743493333139E-10));
#347=DIRECTION('',(1.09568983619763E-18,7.54743493333139E-10,-1.));
#348=DIRECTION('',(0.,1.,7.54743493333139E-10));
#349=DIRECTION('',(-1.,8.26964704686593E-28,-1.09568983619763E-18));
#350=DIRECTION('',(-1.09568983619763E-18,0.,1.));
#351=DIRECTION('',(-6.98948251176144E-35,1.,7.54743493333139E-10));
#352=DIRECTION('',(-1.09568983619763E-18,-7.54743493333139E-10,1.));
#353=DIRECTION('',(-1.09568983619763E-18,-7.54743493333139E-10,1.));
#354=DIRECTION('',(1.09568983619763E-18,7.54743493333139E-10,-1.));
#355=DIRECTION('',(0.,1.,7.54743493333139E-10));
#356=DIRECTION('',(0.,0.,1.));
#357=DIRECTION('',(1.,0.,0.));
#358=DIRECTION('',(1.09568983619763E-18,7.54743493333139E-10,-1.));
#359=DIRECTION('',(0.,1.,7.54743493333139E-10));
#360=DIRECTION('',(1.09568983619763E-18,7.54743493333139E-10,-1.));
#361=DIRECTION('',(1.09568983619763E-18,7.54743493333139E-10,-1.));
#362=DIRECTION('',(0.,1.,7.54743493333139E-10));
#363=DIRECTION('',(1.09568983619763E-18,7.54743493333139E-10,-1.));
#364=DIRECTION('',(-1.,8.26964704686593E-28,-1.09568983619763E-18));
#365=DIRECTION('',(-1.09568983619763E-18,0.,1.));
#366=DIRECTION('',(1.09568983619763E-18,7.54743493333139E-10,-1.));
#367=DIRECTION('',(-6.98948251176144E-35,1.,7.54743493333139E-10));
#368=DIRECTION('',(1.09568983619763E-18,7.54743493333139E-10,-1.));
#369=DIRECTION('',(1.09568983619763E-18,7.54743493333139E-10,-1.));
#370=DIRECTION('',(0.,1.,7.54743493333139E-10));
#371=DIRECTION('',(0.,0.,1.));
#372=DIRECTION('',(1.,0.,0.));
#373=DIRECTION('',(1.09568983619763E-18,7.54743493333139E-10,-1.));
#374=DIRECTION('',(0.,1.,7.54743493333139E-10));
#375=DIRECTION('',(1.09568983619763E-18,7.54743493333139E-10,-1.));
#376=DIRECTION('',(1.,-8.26964774581418E-28,1.09568983619763E-18));
#377=DIRECTION('',(1.09568983619763E-18,7.54743493333139E-10,-1.));
#378=DIRECTION('',(0.,1.,7.54743493333139E-10));
#379=DIRECTION('',(1.09568983619763E-18,7.54743493333139E-10,-1.));
#380=DIRECTION('',(0.,1.,7.54743493333139E-10));
#381=DIRECTION('',(1.09568983619763E-18,7.54743493333139E-10,-1.));
#382=DIRECTION('',(0.,1.,7.54743493333139E-10));
#383=DIRECTION('',(1.09568983619763E-18,7.54743493333139E-10,-1.));
#384=DIRECTION('',(0.,1.,7.54743493333139E-10));
#385=DIRECTION('',(1.09568983619763E-18,7.54743493333139E-10,-1.));
#386=DIRECTION('',(0.,1.,7.54743493333139E-10));
#387=DIRECTION('',(1.09568983619763E-18,7.54743493333139E-10,-1.));
#388=DIRECTION('',(0.,1.,7.54743493333139E-10));
#389=DIRECTION('',(-1.09568983619763E-18,-7.54743493333139E-10,1.));
#390=DIRECTION('',(0.,-1.,-7.54743493333139E-10));
#391=DIRECTION('',(-1.09568983619763E-18,-7.54743493333139E-10,1.));
#392=DIRECTION('',(0.,-1.,-7.54743493333139E-10));
#393=DIRECTION('',(1.09568983619763E-18,7.54743493333139E-10,-1.));
#394=DIRECTION('',(0.,1.,7.54743493333139E-10));
#395=DIRECTION('',(0.,0.,1.));
#396=DIRECTION('',(1.,0.,0.));
#397=CARTESIAN_POINT('',(0.,0.,0.));
#398=CARTESIAN_POINT('',(-0.0515387534001426,0.0491954355923115,0.153858131672135));
#399=CARTESIAN_POINT('',(-0.0515387534001426,0.0491954355847641,0.163858131672136));
#400=CARTESIAN_POINT('',(-0.0515387534001426,0.0541954355847641,0.163858131675909));
#401=CARTESIAN_POINT('',(-0.0515387534001426,0.0491954355862736,0.161858131672136));
#402=CARTESIAN_POINT('',(-0.0481012534001426,0.052826357473343,0.161858131674876));
#403=CARTESIAN_POINT('',(-0.0549762534001426,0.052826357473343,0.161858131674876));
#404=CARTESIAN_POINT('',(-0.0549762534001426,0.052826357479381,0.153858131674876));
#405=CARTESIAN_POINT('',(-0.0549762534016498,0.052826357477954,0.153858131674876));
#406=CARTESIAN_POINT('',(-0.0515387534001426,0.0491954355923115,0.153858131672135));
#407=CARTESIAN_POINT('',(-0.0481012533986354,0.052826357477954,0.153858131674876));
#408=CARTESIAN_POINT('',(-0.0481012534001426,0.052826357479381,0.153858131674876));
#409=CARTESIAN_POINT('',(-0.0515387534001426,0.0491954355842255,0.153858131672135));
#410=CARTESIAN_POINT('',(-0.0540387534001426,0.0540303720828504,0.153858131675784));
#411=CARTESIAN_POINT('',(-0.0540387534001426,0.0550049106116226,0.15385813167652));
#412=CARTESIAN_POINT('',(-0.0540387534001426,0.0555960935155262,0.153858131676966));
#413=CARTESIAN_POINT('',(-0.0515387534001426,0.0631954355923115,0.153858131682702));
#414=CARTESIAN_POINT('',(-0.0490387534001426,0.0555960935155262,0.153858131676966));
#415=CARTESIAN_POINT('',(-0.0490387534001426,0.0540303720828504,0.153858131675784));
#416=CARTESIAN_POINT('',(-0.0490387534001426,0.0550049106116226,0.15385813167652));
#417=CARTESIAN_POINT('',(-0.0460387534001426,0.0550049106116226,0.15385813167652));
#418=CARTESIAN_POINT('',(-0.0570387534001426,0.0550049106116226,0.15385813167652));
#419=CARTESIAN_POINT('',(-0.0515387534001426,0.0491954355923115,0.153858131672135));
#420=CARTESIAN_POINT('',(-0.0515387534001426,0.0511954355923115,0.153858131673645));
#421=CARTESIAN_POINT('',(-0.0515387534001426,0.049195435576678,0.163858131672136));
#422=CARTESIAN_POINT('',(-0.0515387534001426,0.0491954355847641,0.163858131672136));
#423=CARTESIAN_POINT('',(-0.0515387534001426,0.0511954355847641,0.163858131673645));
#424=CARTESIAN_POINT('',(-0.0515387534001426,0.0491954355847641,0.163858131672136));
#425=CARTESIAN_POINT('',(-0.0540387534001426,0.0540303720790767,0.158858131675784));
#426=CARTESIAN_POINT('',(-0.0540387534001426,0.0540303720790767,0.158858131675784));
#427=CARTESIAN_POINT('',(-0.0540387534001426,0.0567947776653231,0.158858131677871));
#428=CARTESIAN_POINT('',(-0.0540387534001426,0.0573859605692267,0.158858131678317));
#429=CARTESIAN_POINT('',(-0.0540387534001426,0.0573859605730004,0.153858131678317));
#430=CARTESIAN_POINT('',(-0.0540387534001426,0.0573859605733864,0.153346682486596));
#431=CARTESIAN_POINT('',(-0.0540387534001426,0.0573859605733864,0.153346682486596));
#432=CARTESIAN_POINT('',(-0.0540387534001426,0.0568475252317327,0.153679666996534));
#433=CARTESIAN_POINT('',(-0.0540387534001426,0.0562292552112864,0.153858131677444));
#434=CARTESIAN_POINT('',(-0.0540387534001426,0.0555960935155262,0.153858131676966));
#435=CARTESIAN_POINT('',(-0.0540387534001426,0.0550049106078489,0.15885813167652));
#436=CARTESIAN_POINT('',(-0.0540387534001426,0.0550049106074629,0.15936958086824));
#437=CARTESIAN_POINT('',(-0.0540387534001426,0.0550049106074629,0.15936958086824));
#438=CARTESIAN_POINT('',(-0.0540387534001426,0.0555433459491166,0.159036596358303));
#439=CARTESIAN_POINT('',(-0.0540387534001426,0.056161615969563,0.158858131677393));
#440=CARTESIAN_POINT('',(-0.0540387534001426,0.0567947776653231,0.158858131677871));
#441=CARTESIAN_POINT('',(-0.0515387534001426,0.0631954355885378,0.158858131682702));
#442=CARTESIAN_POINT('',(-0.0515387534001426,0.0631954356895664,0.025));
#443=CARTESIAN_POINT('',(-0.0465387534001426,0.0631954356895664,0.025));
#444=CARTESIAN_POINT('',(-0.0515387534001426,0.0631954355945757,0.150858131682702));
#445=CARTESIAN_POINT('',(-0.0481012534001426,0.0595645137075063,0.150858131679962));
#446=CARTESIAN_POINT('',(-0.0549762534001426,0.0595645137075063,0.150858131679962));
#447=CARTESIAN_POINT('',(-0.0549762534001426,0.0595645137014683,0.158858131679962));
#448=CARTESIAN_POINT('',(-0.0549762534016498,0.0595645137028953,0.158858131679962));
#449=CARTESIAN_POINT('',(-0.0515387534001426,0.0631954355885378,0.158858131682702));
#450=CARTESIAN_POINT('',(-0.0481012533986354,0.0595645137028953,0.158858131679962));
#451=CARTESIAN_POINT('',(-0.0481012534001426,0.0595645137014683,0.158858131679962));
#452=CARTESIAN_POINT('',(-0.0490387534001426,0.0540303720790767,0.158858131675784));
#453=CARTESIAN_POINT('',(-0.0490387534001426,0.0555960935155262,0.153858131676966));
#454=CARTESIAN_POINT('',(-0.0490387534001426,0.056229353850419,0.153858131677444));
#455=CARTESIAN_POINT('',(-0.0490387534001426,0.0568475314773687,0.153679663134046));
#456=CARTESIAN_POINT('',(-0.0490387534001426,0.0573859605733864,0.153346682486596));
#457=CARTESIAN_POINT('',(-0.0490387534001426,0.0573859605733864,0.153346682486596));
#458=CARTESIAN_POINT('',(-0.0490387534001426,0.0573859605692267,0.158858131678317));
#459=CARTESIAN_POINT('',(-0.0490387534001426,0.0573859605692267,0.158858131678317));
#460=CARTESIAN_POINT('',(-0.0490387534001426,0.0540303720790767,0.158858131675784));
#461=CARTESIAN_POINT('',(-0.0490387534001426,0.0567947776653231,0.158858131677871));
#462=CARTESIAN_POINT('',(-0.0490387534001426,0.0567947776653231,0.158858131677871));
#463=CARTESIAN_POINT('',(-0.0490387534001426,0.0561615173304304,0.158858131677393));
#464=CARTESIAN_POINT('',(-0.0490387534001426,0.0555433397034806,0.159036600220791));
#465=CARTESIAN_POINT('',(-0.0490387534001426,0.0550049106074629,0.15936958086824));
#466=CARTESIAN_POINT('',(-0.0490387534001426,0.0550049106074629,0.15936958086824));
#467=CARTESIAN_POINT('',(-0.0490387534001426,0.0550049106116226,0.15385813167652));
#468=CARTESIAN_POINT('',(-0.0515387534001426,0.0631954355885378,0.158858131682702));
#469=CARTESIAN_POINT('',(-0.0515387534001426,0.0631954356895664,0.025));
#470=CARTESIAN_POINT('',(-0.0495387534001426,0.0631954356895664,0.025));
#471=CARTESIAN_POINT('',(-0.0515387534001426,0.0631954355885378,0.158858131682702));
#472=CARTESIAN_POINT('',(-0.0515387534001426,0.0651954355885378,0.158858131684212));
#473=CARTESIAN_POINT('',(-0.0515387534001426,0.0561954355885378,0.158858131677418));
#474=CARTESIAN_POINT('',(-0.0515387534001426,0.0491954355885378,0.158858131672135));
#475=CARTESIAN_POINT('',(-0.0460387534001426,0.0573859605692267,0.158858131678317));
#476=CARTESIAN_POINT('',(-0.0570387534001426,0.0573859605692267,0.158858131678317));
#477=CARTESIAN_POINT('',(-0.0460387534001426,0.0573859605692267,0.158858131678317));
#478=CARTESIAN_POINT('',(-0.0490387534001426,0.0573859605733864,0.153346682486597));
#479=CARTESIAN_POINT('',(-0.0490387534001426,0.0578889725335574,0.153035604854627));
#480=CARTESIAN_POINT('',(-0.0488089058638663,0.0587176790252815,0.152244482944766));
#481=CARTESIAN_POINT('',(-0.0483613506100884,0.0593182720674384,0.151311183987689));
#482=CARTESIAN_POINT('',(-0.0481012534001426,0.0595645137075063,0.150858131679962));
#483=CARTESIAN_POINT('',(-0.0570387534001426,0.0573859605692267,0.158858131678317));
#484=CARTESIAN_POINT('',(-0.0540387534001426,0.0573859605733864,0.153346682486596));
#485=CARTESIAN_POINT('',(-0.0540387534001426,0.0578889725335574,0.153035604854627));
#486=CARTESIAN_POINT('',(-0.054268600936419,0.0587176790252816,0.152244482944766));
#487=CARTESIAN_POINT('',(-0.0547161561901966,0.0593182720674383,0.151311183987688));
#488=CARTESIAN_POINT('',(-0.0549762534001426,0.0595645137075063,0.150858131679962));
#489=CARTESIAN_POINT('',(-0.0515387534001426,0.0631954355945757,0.150858131682702));
#490=CARTESIAN_POINT('',(-0.0570387534001426,0.0550049106116226,0.15385813167652));
#491=CARTESIAN_POINT('',(-0.0540387534001426,0.0550049106074629,0.15936958086824));
#492=CARTESIAN_POINT('',(-0.0540387534001426,0.0545018986472918,0.15968065850021));
#493=CARTESIAN_POINT('',(-0.0542686009364107,0.0536731921555758,0.16047178041008));
#494=CARTESIAN_POINT('',(-0.0547161561902131,0.0530725991133954,0.161405079367131));
#495=CARTESIAN_POINT('',(-0.0549762534001426,0.052826357473343,0.161858131674876));
#496=CARTESIAN_POINT('',(-0.0460387534001426,0.0550049106116226,0.15385813167652));
#497=CARTESIAN_POINT('',(-0.0490387534001426,0.0550049106074629,0.15936958086824));
#498=CARTESIAN_POINT('',(-0.0490387534001426,0.0545018986472918,0.15968065850021));
#499=CARTESIAN_POINT('',(-0.0488089058638746,0.0536731921555759,0.16047178041008));
#500=CARTESIAN_POINT('',(-0.0483613506100719,0.0530725991133953,0.161405079367131));
#501=CARTESIAN_POINT('',(-0.0481012534001426,0.052826357473343,0.161858131674876));
#502=CARTESIAN_POINT('',(-0.0515387534001426,0.0491954355862736,0.161858131672136));
#503=CARTESIAN_POINT('',(-0.013132285693193,0.,0.025));
#504=MECHANICAL_DESIGN_GEOMETRIC_PRESENTATION_REPRESENTATION('',(#275),
#505);
#505=(
GEOMETRIC_REPRESENTATION_CONTEXT(3)
GLOBAL_UNCERTAINTY_ASSIGNED_CONTEXT((#506))
GLOBAL_UNIT_ASSIGNED_CONTEXT((#509,#508,#507))
REPRESENTATION_CONTEXT('Part 16','TOP_LEVEL_ASSEMBLY_PART')
);
#506=UNCERTAINTY_MEASURE_WITH_UNIT(LENGTH_MEASURE(2.E-5),#509,
'DISTANCE_ACCURACY_VALUE','Maximum Tolerance applied to model');
#507=(
NAMED_UNIT(*)
SI_UNIT($,.STERADIAN.)
SOLID_ANGLE_UNIT()
);
#508=(
NAMED_UNIT(*)
PLANE_ANGLE_UNIT()
SI_UNIT($,.RADIAN.)
);
#509=(
LENGTH_UNIT()
NAMED_UNIT(*)
SI_UNIT($,.METRE.)
);
#510=PRODUCT_DEFINITION_SHAPE('','',#511);
#511=PRODUCT_DEFINITION('','',#513,#512);
#512=PRODUCT_DEFINITION_CONTEXT('',#519,'design');
#513=PRODUCT_DEFINITION_FORMATION_WITH_SPECIFIED_SOURCE('','',#515,
 .NOT_KNOWN.);
#514=PRODUCT_RELATED_PRODUCT_CATEGORY('','',(#515));
#515=PRODUCT('Part 16','Part 16','Part 16',(#517));
#516=PRODUCT_CATEGORY('','');
#517=PRODUCT_CONTEXT('',#519,'mechanical');
#518=APPLICATION_PROTOCOL_DEFINITION('international standard',
'ap242_managed_model_based_3d_engineering',2020,#519);
#519=APPLICATION_CONTEXT('managed model based 3d engineering');
ENDSEC;
END-ISO-10303-21;
