ISO-10303-21;
HEADER;
/* Generated by software containing ST-Developer
 * from STEP Tools, Inc. (www.steptools.com) 
 */
/* OPTION: using custom renumber hook */

FILE_DESCRIPTION(
/* description */ ('STEP AP242 Edition 2',
'CAx-IF Rec.Pracs.---Representation and Presentation of Product Manufa
cturing Information (PMI)---4.0---2014-10-13',
'CAx-IF Rec.Pracs.---3D Tessellated Geometry---0.4---2014-09-14','2;1',
'CAx-IF Rec.Pracs.---User Defined Attributes---1.5---2016-08-15'),
/* implementation_level */ '2;1');

FILE_NAME(
/* name */ 'Assembly 1 - Part 15',
/* time_stamp */ '2026-07-25T03:56:15Z',
/* author */ (''),
/* organization */ (''),
/* preprocessor_version */ 'ST-DEVELOPER v20',
/* originating_system */ 'ONSHAPE BY PTC INC, 1.218',
/* authorisation */ '  ');

FILE_SCHEMA (('AP242_MANAGED_MODEL_BASED_3D_ENGINEERING_MIM_LF { 1 0 10303 442 3 1 4 }'));
ENDSEC;

DATA;
#10=SHAPE_REPRESENTATION_RELATIONSHIP('','',#162,#11);
#11=ADVANCED_BREP_SHAPE_REPRESENTATION('',(#160),#269);
#12=PLANE('',#170);
#13=PLANE('',#172);
#14=PLANE('',#175);
#15=PLANE('',#178);
#16=PLANE('',#179);
#17=CIRCLE('',#165,0.005);
#18=CIRCLE('',#166,0.005);
#19=CIRCLE('',#168,0.002);
#20=CIRCLE('',#169,0.002);
#21=CIRCLE('',#171,0.005);
#22=CIRCLE('',#173,0.0021);
#23=CIRCLE('',#174,0.005);
#24=CIRCLE('',#177,0.005);
#25=CIRCLE('',#180,0.0021);
#26=ORIENTED_EDGE('',*,*,#60,.F.);
#27=ORIENTED_EDGE('',*,*,#61,.T.);
#28=ORIENTED_EDGE('',*,*,#62,.T.);
#29=ORIENTED_EDGE('',*,*,#63,.F.);
#30=ORIENTED_EDGE('',*,*,#64,.F.);
#31=ORIENTED_EDGE('',*,*,#65,.T.);
#32=ORIENTED_EDGE('',*,*,#66,.F.);
#33=ORIENTED_EDGE('',*,*,#67,.T.);
#34=ORIENTED_EDGE('',*,*,#63,.T.);
#35=ORIENTED_EDGE('',*,*,#68,.F.);
#36=ORIENTED_EDGE('',*,*,#64,.T.);
#37=ORIENTED_EDGE('',*,*,#69,.F.);
#38=ORIENTED_EDGE('',*,*,#65,.F.);
#39=ORIENTED_EDGE('',*,*,#61,.F.);
#40=ORIENTED_EDGE('',*,*,#70,.F.);
#41=ORIENTED_EDGE('',*,*,#71,.F.);
#42=ORIENTED_EDGE('',*,*,#72,.T.);
#43=ORIENTED_EDGE('',*,*,#68,.T.);
#44=ORIENTED_EDGE('',*,*,#62,.F.);
#45=ORIENTED_EDGE('',*,*,#72,.F.);
#46=ORIENTED_EDGE('',*,*,#73,.T.);
#47=ORIENTED_EDGE('',*,*,#74,.F.);
#48=ORIENTED_EDGE('',*,*,#75,.T.);
#49=ORIENTED_EDGE('',*,*,#66,.T.);
#50=ORIENTED_EDGE('',*,*,#73,.F.);
#51=ORIENTED_EDGE('',*,*,#71,.T.);
#52=ORIENTED_EDGE('',*,*,#67,.F.);
#53=ORIENTED_EDGE('',*,*,#75,.F.);
#54=ORIENTED_EDGE('',*,*,#70,.T.);
#55=ORIENTED_EDGE('',*,*,#60,.T.);
#56=ORIENTED_EDGE('',*,*,#76,.T.);
#57=ORIENTED_EDGE('',*,*,#74,.T.);
#58=ORIENTED_EDGE('',*,*,#69,.T.);
#59=ORIENTED_EDGE('',*,*,#76,.F.);
#60=EDGE_CURVE('',#77,#78,#90,.T.);
#61=EDGE_CURVE('',#77,#79,#17,.T.);
#62=EDGE_CURVE('',#79,#80,#91,.T.);
#63=EDGE_CURVE('',#78,#80,#18,.T.);
#64=EDGE_CURVE('',#81,#81,#19,.T.);
#65=EDGE_CURVE('',#82,#82,#20,.T.);
#66=EDGE_CURVE('',#83,#84,#21,.T.);
#67=EDGE_CURVE('',#83,#78,#92,.T.);
#68=EDGE_CURVE('',#84,#80,#93,.T.);
#69=EDGE_CURVE('',#85,#85,#22,.T.);
#70=EDGE_CURVE('',#86,#77,#94,.T.);
#71=EDGE_CURVE('',#87,#86,#23,.T.);
#72=EDGE_CURVE('',#87,#79,#95,.T.);
#73=EDGE_CURVE('',#87,#84,#96,.T.);
#74=EDGE_CURVE('',#88,#88,#24,.F.);
#75=EDGE_CURVE('',#86,#83,#97,.T.);
#76=EDGE_CURVE('',#89,#89,#25,.T.);
#77=VERTEX_POINT('',#231);
#78=VERTEX_POINT('',#232);
#79=VERTEX_POINT('',#234);
#80=VERTEX_POINT('',#236);
#81=VERTEX_POINT('',#240);
#82=VERTEX_POINT('',#242);
#83=VERTEX_POINT('',#245);
#84=VERTEX_POINT('',#246);
#85=VERTEX_POINT('',#251);
#86=VERTEX_POINT('',#253);
#87=VERTEX_POINT('',#255);
#88=VERTEX_POINT('',#261);
#89=VERTEX_POINT('',#266);
#90=LINE('',#230,#98);
#91=LINE('',#235,#99);
#92=LINE('',#247,#100);
#93=LINE('',#248,#101);
#94=LINE('',#252,#102);
#95=LINE('',#256,#103);
#96=LINE('',#258,#104);
#97=LINE('',#262,#105);
#98=VECTOR('',#186,1.);
#99=VECTOR('',#189,1.);
#100=VECTOR('',#202,1.);
#101=VECTOR('',#203,1.);
#102=VECTOR('',#208,1.);
#103=VECTOR('',#211,1.);
#104=VECTOR('',#214,1.);
#105=VECTOR('',#219,1.);
#106=EDGE_LOOP('',(#26,#27,#28,#29));
#107=EDGE_LOOP('',(#30));
#108=EDGE_LOOP('',(#31));
#109=EDGE_LOOP('',(#32,#33,#34,#35));
#110=EDGE_LOOP('',(#36));
#111=EDGE_LOOP('',(#37));
#112=EDGE_LOOP('',(#38));
#113=EDGE_LOOP('',(#39,#40,#41,#42));
#114=EDGE_LOOP('',(#43,#44,#45,#46));
#115=EDGE_LOOP('',(#47));
#116=EDGE_LOOP('',(#48,#49,#50,#51));
#117=EDGE_LOOP('',(#52,#53,#54,#55));
#118=EDGE_LOOP('',(#56));
#119=EDGE_LOOP('',(#57));
#120=EDGE_LOOP('',(#58));
#121=EDGE_LOOP('',(#59));
#122=FACE_BOUND('',#106,.T.);
#123=FACE_BOUND('',#107,.T.);
#124=FACE_BOUND('',#108,.T.);
#125=FACE_BOUND('',#109,.T.);
#126=FACE_BOUND('',#110,.T.);
#127=FACE_BOUND('',#111,.T.);
#128=FACE_BOUND('',#112,.T.);
#129=FACE_BOUND('',#113,.T.);
#130=FACE_BOUND('',#114,.T.);
#131=FACE_BOUND('',#115,.T.);
#132=FACE_BOUND('',#116,.T.);
#133=FACE_BOUND('',#117,.T.);
#134=FACE_BOUND('',#118,.T.);
#135=FACE_BOUND('',#119,.T.);
#136=FACE_BOUND('',#120,.T.);
#137=FACE_BOUND('',#121,.T.);
#138=CYLINDRICAL_SURFACE('',#164,0.005);
#139=CYLINDRICAL_SURFACE('',#167,0.002);
#140=CYLINDRICAL_SURFACE('',#176,0.005);
#141=CYLINDRICAL_SURFACE('',#181,0.0021);
#142=ADVANCED_FACE('',(#122),#138,.T.);
#143=ADVANCED_FACE('',(#123,#124),#139,.F.);
#144=ADVANCED_FACE('',(#125,#126),#12,.T.);
#145=ADVANCED_FACE('',(#127,#128,#129),#13,.F.);
#146=ADVANCED_FACE('',(#130),#14,.F.);
#147=ADVANCED_FACE('',(#131,#132),#140,.T.);
#148=ADVANCED_FACE('',(#133),#15,.T.);
#149=ADVANCED_FACE('',(#134,#135),#16,.F.);
#150=ADVANCED_FACE('',(#136,#137),#141,.F.);
#151=CLOSED_SHELL('',(#142,#143,#144,#145,#146,#147,#148,#149,#150));
#152=STYLED_ITEM('',(#153),#160);
#153=PRESENTATION_STYLE_ASSIGNMENT((#154));
#154=SURFACE_STYLE_USAGE(.BOTH.,#155);
#155=SURFACE_SIDE_STYLE('',(#156));
#156=SURFACE_STYLE_FILL_AREA(#157);
#157=FILL_AREA_STYLE('',(#158));
#158=FILL_AREA_STYLE_COLOUR('',#159);
#159=COLOUR_RGB('',0.917647058823529,0.917647058823529,0.917647058823529);
#160=MANIFOLD_SOLID_BREP('Part 15',#151);
#161=SHAPE_DEFINITION_REPRESENTATION(#274,#162);
#162=SHAPE_REPRESENTATION('Part 15',(#163),#269);
#163=AXIS2_PLACEMENT_3D('',#228,#182,#183);
#164=AXIS2_PLACEMENT_3D('',#229,#184,#185);
#165=AXIS2_PLACEMENT_3D('',#233,#187,#188);
#166=AXIS2_PLACEMENT_3D('',#237,#190,#191);
#167=AXIS2_PLACEMENT_3D('',#238,#192,#193);
#168=AXIS2_PLACEMENT_3D('',#239,#194,#195);
#169=AXIS2_PLACEMENT_3D('',#241,#196,#197);
#170=AXIS2_PLACEMENT_3D('',#243,#198,#199);
#171=AXIS2_PLACEMENT_3D('',#244,#200,#201);
#172=AXIS2_PLACEMENT_3D('',#249,#204,#205);
#173=AXIS2_PLACEMENT_3D('',#250,#206,#207);
#174=AXIS2_PLACEMENT_3D('',#254,#209,#210);
#175=AXIS2_PLACEMENT_3D('',#257,#212,#213);
#176=AXIS2_PLACEMENT_3D('',#259,#215,#216);
#177=AXIS2_PLACEMENT_3D('',#260,#217,#218);
#178=AXIS2_PLACEMENT_3D('',#263,#220,#221);
#179=AXIS2_PLACEMENT_3D('',#264,#222,#223);
#180=AXIS2_PLACEMENT_3D('',#265,#224,#225);
#181=AXIS2_PLACEMENT_3D('',#267,#226,#227);
#182=DIRECTION('',(0.,0.,1.));
#183=DIRECTION('',(1.,0.,0.));
#184=DIRECTION('',(6.12323404942065E-17,5.55111512312578E-16,1.));
#185=DIRECTION('',(0.,-1.,5.55111512312578E-16));
#186=DIRECTION('',(-6.12323404942065E-17,-5.55111512312578E-16,-1.));
#187=DIRECTION('',(-6.12323404942065E-17,-5.55111512312578E-16,-1.));
#188=DIRECTION('',(0.,1.,-5.55111512312578E-16));
#189=DIRECTION('',(-6.12323404942065E-17,-5.55111512312578E-16,-1.));
#190=DIRECTION('',(-6.12323404942065E-17,-5.55111512312578E-16,-1.));
#191=DIRECTION('',(0.,1.,-5.55111512312578E-16));
#192=DIRECTION('',(6.12323404942065E-17,5.55111512312578E-16,1.));
#193=DIRECTION('',(0.,-1.,5.55111512312578E-16));
#194=DIRECTION('',(6.12323404942065E-17,5.55111512312578E-16,1.));
#195=DIRECTION('',(0.,-1.,5.55111512312578E-16));
#196=DIRECTION('',(6.12323404942065E-17,5.55111512312578E-16,1.));
#197=DIRECTION('',(0.,-1.,5.55111512312578E-16));
#198=DIRECTION('',(-6.12323404942065E-17,-5.55111512312578E-16,-1.));
#199=DIRECTION('',(1.,-3.39907771341777E-32,-6.12323404942065E-17));
#200=DIRECTION('',(-6.12323404942065E-17,-5.55111512312578E-16,-1.));
#201=DIRECTION('',(0.,1.,-5.55111512312578E-16));
#202=DIRECTION('',(3.39907771341777E-32,-1.,5.55111512312578E-16));
#203=DIRECTION('',(3.39907771341777E-32,-1.,5.55111512312578E-16));
#204=DIRECTION('',(-6.12323404942065E-17,-5.55111512312578E-16,-1.));
#205=DIRECTION('',(1.,-3.39907771341777E-32,-6.12323404942065E-17));
#206=DIRECTION('',(6.12323404942065E-17,5.55111512312578E-16,1.));
#207=DIRECTION('',(0.,-1.,5.55111512312578E-16));
#208=DIRECTION('',(3.39907771341777E-32,-1.,5.55111512312578E-16));
#209=DIRECTION('',(-6.12323404942065E-17,-5.55111512312578E-16,-1.));
#210=DIRECTION('',(0.,1.,-5.55111512312578E-16));
#211=DIRECTION('',(3.39907771341777E-32,-1.,5.55111512312578E-16));
#212=DIRECTION('',(1.,0.,-6.12323404942065E-17));
#213=DIRECTION('',(-6.12323404942065E-17,0.,-1.));
#214=DIRECTION('',(-6.12323404942065E-17,-5.55111512312578E-16,-1.));
#215=DIRECTION('',(-6.12323404942065E-17,-5.55111512312578E-16,-1.));
#216=DIRECTION('',(0.,1.,-5.55111512312578E-16));
#217=DIRECTION('',(0.,0.,1.));
#218=DIRECTION('',(1.,0.,0.));
#219=DIRECTION('',(-6.12323404942065E-17,-5.55111512312578E-16,-1.));
#220=DIRECTION('',(1.,0.,-6.12323404942065E-17));
#221=DIRECTION('',(-6.12323404942065E-17,0.,-1.));
#222=DIRECTION('',(0.,0.,1.));
#223=DIRECTION('',(1.,0.,0.));
#224=DIRECTION('',(0.,0.,1.));
#225=DIRECTION('',(1.,0.,0.));
#226=DIRECTION('',(6.12323404942065E-17,5.55111512312578E-16,1.));
#227=DIRECTION('',(0.,-1.,5.55111512312578E-16));
#228=CARTESIAN_POINT('',(0.,0.,0.));
#229=CARTESIAN_POINT('',(0.0207123074645898,0.0292606900045831,0.13186850222867));
#230=CARTESIAN_POINT('',(0.0257123074645898,0.0292606900045831,0.13686850222867));
#231=CARTESIAN_POINT('',(0.0257123074645898,0.0292606900045831,0.13686850222867));
#232=CARTESIAN_POINT('',(0.0257123074645898,0.0292606900045831,0.13186850222867));
#233=CARTESIAN_POINT('',(0.0207123074645898,0.0292606900045831,0.13686850222867));
#234=CARTESIAN_POINT('',(0.0157123074645898,0.0292606900045831,0.13686850222867));
#235=CARTESIAN_POINT('',(0.0157123074645898,0.0292606900045831,0.13686850222867));
#236=CARTESIAN_POINT('',(0.0157123074645898,0.0292606900045831,0.13186850222867));
#237=CARTESIAN_POINT('',(0.0207123074645898,0.0292606900045831,0.13186850222867));
#238=CARTESIAN_POINT('',(0.0207123074645898,0.0292606900045831,0.13186850222867));
#239=CARTESIAN_POINT('',(0.0207123074645898,0.0292606900045831,0.13186850222867));
#240=CARTESIAN_POINT('',(0.0207123074645898,0.0272606900045831,0.13186850222867));
#241=CARTESIAN_POINT('',(0.0207123074645898,0.0292606900045831,0.13686850222867));
#242=CARTESIAN_POINT('',(0.0207123074645898,0.0272606900045831,0.13686850222867));
#243=CARTESIAN_POINT('',(0.0207123074645898,0.0287260486786932,0.13186850222867));
#244=CARTESIAN_POINT('',(0.0207123074645898,0.0392606900045831,0.13186850222867));
#245=CARTESIAN_POINT('',(0.0257123074645898,0.0392606900045831,0.13186850222867));
#246=CARTESIAN_POINT('',(0.0157123074645898,0.0392606900045831,0.13186850222867));
#247=CARTESIAN_POINT('',(0.0257123074645898,0.0342606900045831,0.13186850222867));
#248=CARTESIAN_POINT('',(0.0157123074645898,0.0342606900045831,0.13186850222867));
#249=CARTESIAN_POINT('',(0.0207123074645898,0.0287260486786932,0.13686850222867));
#250=CARTESIAN_POINT('',(0.0207123074645898,0.0392606900045831,0.13686850222867));
#251=CARTESIAN_POINT('',(0.0207123074645898,0.0371606900045831,0.13686850222867));
#252=CARTESIAN_POINT('',(0.0257123074645898,0.0342606900045831,0.13686850222867));
#253=CARTESIAN_POINT('',(0.0257123074645898,0.0392606900045831,0.13686850222867));
#254=CARTESIAN_POINT('',(0.0207123074645898,0.0392606900045831,0.13686850222867));
#255=CARTESIAN_POINT('',(0.0157123074645898,0.0392606900045831,0.13686850222867));
#256=CARTESIAN_POINT('',(0.0157123074645898,0.0342606900045831,0.13686850222867));
#257=CARTESIAN_POINT('',(0.0157123074645898,0.0342606900045831,0.13686850222867));
#258=CARTESIAN_POINT('',(0.0157123074645898,0.0392606900045831,0.13686850222867));
#259=CARTESIAN_POINT('',(0.0207123074645898,0.0392606900045831,0.13686850222867));
#260=CARTESIAN_POINT('',(0.0207123074645897,0.039260690004583,0.025));
#261=CARTESIAN_POINT('',(0.0257123074645897,0.039260690004583,0.025));
#262=CARTESIAN_POINT('',(0.0257123074645898,0.0392606900045831,0.13686850222867));
#263=CARTESIAN_POINT('',(0.0257123074645898,0.0342606900045831,0.13686850222867));
#264=CARTESIAN_POINT('',(-0.013132285693193,0.,0.025));
#265=CARTESIAN_POINT('',(0.0207123074645897,0.039260690004583,0.025));
#266=CARTESIAN_POINT('',(0.0228123074645897,0.039260690004583,0.025));
#267=CARTESIAN_POINT('',(0.0207123074645897,0.039260690004583,-0.13373149777133));
#268=MECHANICAL_DESIGN_GEOMETRIC_PRESENTATION_REPRESENTATION('',(#152),
#269);
#269=(
GEOMETRIC_REPRESENTATION_CONTEXT(3)
GLOBAL_UNCERTAINTY_ASSIGNED_CONTEXT((#270))
GLOBAL_UNIT_ASSIGNED_CONTEXT((#273,#272,#271))
REPRESENTATION_CONTEXT('Part 15','TOP_LEVEL_ASSEMBLY_PART')
);
#270=UNCERTAINTY_MEASURE_WITH_UNIT(LENGTH_MEASURE(1.E-8),#273,
'DISTANCE_ACCURACY_VALUE','Maximum Tolerance applied to model');
#271=(
NAMED_UNIT(*)
SI_UNIT($,.STERADIAN.)
SOLID_ANGLE_UNIT()
);
#272=(
NAMED_UNIT(*)
PLANE_ANGLE_UNIT()
SI_UNIT($,.RADIAN.)
);
#273=(
LENGTH_UNIT()
NAMED_UNIT(*)
SI_UNIT($,.METRE.)
);
#274=PRODUCT_DEFINITION_SHAPE('','',#275);
#275=PRODUCT_DEFINITION('','',#277,#276);
#276=PRODUCT_DEFINITION_CONTEXT('',#283,'design');
#277=PRODUCT_DEFINITION_FORMATION_WITH_SPECIFIED_SOURCE('','',#279,
 .NOT_KNOWN.);
#278=PRODUCT_RELATED_PRODUCT_CATEGORY('','',(#279));
#279=PRODUCT('Part 15','Part 15','Part 15',(#281));
#280=PRODUCT_CATEGORY('','');
#281=PRODUCT_CONTEXT('',#283,'mechanical');
#282=APPLICATION_PROTOCOL_DEFINITION('international standard',
'ap242_managed_model_based_3d_engineering',2020,#283);
#283=APPLICATION_CONTEXT('managed model based 3d engineering');
ENDSEC;
END-ISO-10303-21;
