ISO-10303-21;
HEADER;
/* Generated by software containing ST-Developer
 * from STEP Tools, Inc. (www.steptools.com) 
 */
/* OPTION: using custom renumber hook */

FILE_DESCRIPTION(
/* description */ ('STEP AP242 Edition 2',
'CAx-IF Rec.Pracs.---Representation and Presentation of Product Manufa
cturing Information (PMI)---4.0---2014-10-13',
'CAx-IF Rec.Pracs.---3D Tessellated Geometry---0.4---2014-09-14','2;1',
'CAx-IF Rec.Pracs.---User Defined Attributes---1.5---2016-08-15'),
/* implementation_level */ '2;1');

FILE_NAME(
/* name */ 'Assembly 1 - Part 8',
/* time_stamp */ '2026-07-25T03:56:16Z',
/* author */ (''),
/* organization */ (''),
/* preprocessor_version */ 'ST-DEVELOPER v20',
/* originating_system */ 'ONSHAPE BY PTC INC, 1.218',
/* authorisation */ '  ');

FILE_SCHEMA (('AP242_MANAGED_MODEL_BASED_3D_ENGINEERING_MIM_LF { 1 0 10303 442 3 1 4 }'));
ENDSEC;

DATA;
#10=SHAPE_REPRESENTATION_RELATIONSHIP('','',#199,#11);
#11=ADVANCED_BREP_SHAPE_REPRESENTATION('',(#197),#317);
#12=CIRCLE('',#207,0.002);
#13=CIRCLE('',#208,0.002);
#14=CIRCLE('',#212,0.01);
#15=CIRCLE('',#214,0.01);
#16=CYLINDRICAL_SURFACE('',#206,0.002);
#17=CYLINDRICAL_SURFACE('',#213,0.01);
#18=ORIENTED_EDGE('',*,*,#62,.T.);
#19=ORIENTED_EDGE('',*,*,#63,.F.);
#20=ORIENTED_EDGE('',*,*,#64,.F.);
#21=ORIENTED_EDGE('',*,*,#65,.T.);
#22=ORIENTED_EDGE('',*,*,#66,.T.);
#23=ORIENTED_EDGE('',*,*,#67,.F.);
#24=ORIENTED_EDGE('',*,*,#68,.F.);
#25=ORIENTED_EDGE('',*,*,#63,.T.);
#26=ORIENTED_EDGE('',*,*,#69,.T.);
#27=ORIENTED_EDGE('',*,*,#70,.F.);
#28=ORIENTED_EDGE('',*,*,#71,.F.);
#29=ORIENTED_EDGE('',*,*,#67,.T.);
#30=ORIENTED_EDGE('',*,*,#72,.T.);
#31=ORIENTED_EDGE('',*,*,#73,.F.);
#32=ORIENTED_EDGE('',*,*,#74,.F.);
#33=ORIENTED_EDGE('',*,*,#70,.T.);
#34=ORIENTED_EDGE('',*,*,#75,.T.);
#35=ORIENTED_EDGE('',*,*,#76,.F.);
#36=ORIENTED_EDGE('',*,*,#77,.F.);
#37=ORIENTED_EDGE('',*,*,#73,.T.);
#38=ORIENTED_EDGE('',*,*,#78,.F.);
#39=ORIENTED_EDGE('',*,*,#79,.T.);
#40=ORIENTED_EDGE('',*,*,#80,.T.);
#41=ORIENTED_EDGE('',*,*,#65,.F.);
#42=ORIENTED_EDGE('',*,*,#81,.F.);
#43=ORIENTED_EDGE('',*,*,#76,.T.);
#44=ORIENTED_EDGE('',*,*,#78,.T.);
#45=ORIENTED_EDGE('',*,*,#62,.F.);
#46=ORIENTED_EDGE('',*,*,#80,.F.);
#47=ORIENTED_EDGE('',*,*,#75,.F.);
#48=ORIENTED_EDGE('',*,*,#72,.F.);
#49=ORIENTED_EDGE('',*,*,#69,.F.);
#50=ORIENTED_EDGE('',*,*,#66,.F.);
#51=ORIENTED_EDGE('',*,*,#82,.F.);
#52=ORIENTED_EDGE('',*,*,#81,.T.);
#53=ORIENTED_EDGE('',*,*,#64,.T.);
#54=ORIENTED_EDGE('',*,*,#68,.T.);
#55=ORIENTED_EDGE('',*,*,#71,.T.);
#56=ORIENTED_EDGE('',*,*,#74,.T.);
#57=ORIENTED_EDGE('',*,*,#77,.T.);
#58=ORIENTED_EDGE('',*,*,#83,.F.);
#59=ORIENTED_EDGE('',*,*,#82,.T.);
#60=ORIENTED_EDGE('',*,*,#83,.T.);
#61=ORIENTED_EDGE('',*,*,#79,.F.);
#62=EDGE_CURVE('',#84,#85,#100,.T.);
#63=EDGE_CURVE('',#86,#85,#101,.T.);
#64=EDGE_CURVE('',#87,#86,#102,.T.);
#65=EDGE_CURVE('',#87,#84,#103,.T.);
#66=EDGE_CURVE('',#85,#88,#104,.T.);
#67=EDGE_CURVE('',#89,#88,#105,.T.);
#68=EDGE_CURVE('',#86,#89,#106,.T.);
#69=EDGE_CURVE('',#88,#90,#107,.T.);
#70=EDGE_CURVE('',#91,#90,#108,.T.);
#71=EDGE_CURVE('',#89,#91,#109,.T.);
#72=EDGE_CURVE('',#90,#92,#110,.T.);
#73=EDGE_CURVE('',#93,#92,#111,.T.);
#74=EDGE_CURVE('',#91,#93,#112,.T.);
#75=EDGE_CURVE('',#92,#94,#113,.T.);
#76=EDGE_CURVE('',#95,#94,#114,.T.);
#77=EDGE_CURVE('',#93,#95,#115,.T.);
#78=EDGE_CURVE('',#96,#96,#12,.T.);
#79=EDGE_CURVE('',#97,#97,#13,.T.);
#80=EDGE_CURVE('',#94,#84,#116,.T.);
#81=EDGE_CURVE('',#95,#87,#117,.T.);
#82=EDGE_CURVE('',#98,#98,#14,.T.);
#83=EDGE_CURVE('',#99,#99,#15,.T.);
#84=VERTEX_POINT('',#269);
#85=VERTEX_POINT('',#270);
#86=VERTEX_POINT('',#272);
#87=VERTEX_POINT('',#274);
#88=VERTEX_POINT('',#278);
#89=VERTEX_POINT('',#280);
#90=VERTEX_POINT('',#284);
#91=VERTEX_POINT('',#286);
#92=VERTEX_POINT('',#290);
#93=VERTEX_POINT('',#292);
#94=VERTEX_POINT('',#296);
#95=VERTEX_POINT('',#298);
#96=VERTEX_POINT('',#302);
#97=VERTEX_POINT('',#304);
#98=VERTEX_POINT('',#311);
#99=VERTEX_POINT('',#314);
#100=LINE('',#268,#118);
#101=LINE('',#271,#119);
#102=LINE('',#273,#120);
#103=LINE('',#275,#121);
#104=LINE('',#277,#122);
#105=LINE('',#279,#123);
#106=LINE('',#281,#124);
#107=LINE('',#283,#125);
#108=LINE('',#285,#126);
#109=LINE('',#287,#127);
#110=LINE('',#289,#128);
#111=LINE('',#291,#129);
#112=LINE('',#293,#130);
#113=LINE('',#295,#131);
#114=LINE('',#297,#132);
#115=LINE('',#299,#133);
#116=LINE('',#306,#134);
#117=LINE('',#307,#135);
#118=VECTOR('',#220,1.);
#119=VECTOR('',#221,1.);
#120=VECTOR('',#222,1.);
#121=VECTOR('',#223,1.);
#122=VECTOR('',#226,1.);
#123=VECTOR('',#227,1.);
#124=VECTOR('',#228,1.);
#125=VECTOR('',#231,1.);
#126=VECTOR('',#232,1.);
#127=VECTOR('',#233,1.);
#128=VECTOR('',#236,1.);
#129=VECTOR('',#237,1.);
#130=VECTOR('',#238,1.);
#131=VECTOR('',#241,1.);
#132=VECTOR('',#242,1.);
#133=VECTOR('',#243,1.);
#134=VECTOR('',#252,1.);
#135=VECTOR('',#253,1.);
#136=EDGE_LOOP('',(#18,#19,#20,#21));
#137=EDGE_LOOP('',(#22,#23,#24,#25));
#138=EDGE_LOOP('',(#26,#27,#28,#29));
#139=EDGE_LOOP('',(#30,#31,#32,#33));
#140=EDGE_LOOP('',(#34,#35,#36,#37));
#141=EDGE_LOOP('',(#38));
#142=EDGE_LOOP('',(#39));
#143=EDGE_LOOP('',(#40,#41,#42,#43));
#144=EDGE_LOOP('',(#44));
#145=EDGE_LOOP('',(#45,#46,#47,#48,#49,#50));
#146=EDGE_LOOP('',(#51));
#147=EDGE_LOOP('',(#52,#53,#54,#55,#56,#57));
#148=EDGE_LOOP('',(#58));
#149=EDGE_LOOP('',(#59));
#150=EDGE_LOOP('',(#60));
#151=EDGE_LOOP('',(#61));
#152=FACE_BOUND('',#136,.T.);
#153=FACE_BOUND('',#137,.T.);
#154=FACE_BOUND('',#138,.T.);
#155=FACE_BOUND('',#139,.T.);
#156=FACE_BOUND('',#140,.T.);
#157=FACE_BOUND('',#141,.T.);
#158=FACE_BOUND('',#142,.T.);
#159=FACE_BOUND('',#143,.T.);
#160=FACE_BOUND('',#144,.T.);
#161=FACE_BOUND('',#145,.T.);
#162=FACE_BOUND('',#146,.T.);
#163=FACE_BOUND('',#147,.T.);
#164=FACE_BOUND('',#148,.T.);
#165=FACE_BOUND('',#149,.T.);
#166=FACE_BOUND('',#150,.T.);
#167=FACE_BOUND('',#151,.T.);
#168=PLANE('',#201);
#169=PLANE('',#202);
#170=PLANE('',#203);
#171=PLANE('',#204);
#172=PLANE('',#205);
#173=PLANE('',#209);
#174=PLANE('',#210);
#175=PLANE('',#211);
#176=PLANE('',#215);
#177=ADVANCED_FACE('',(#152),#168,.F.);
#178=ADVANCED_FACE('',(#153),#169,.F.);
#179=ADVANCED_FACE('',(#154),#170,.F.);
#180=ADVANCED_FACE('',(#155),#171,.F.);
#181=ADVANCED_FACE('',(#156),#172,.F.);
#182=ADVANCED_FACE('',(#157,#158),#16,.F.);
#183=ADVANCED_FACE('',(#159),#173,.F.);
#184=ADVANCED_FACE('',(#160,#161),#174,.F.);
#185=ADVANCED_FACE('',(#162,#163),#175,.F.);
#186=ADVANCED_FACE('',(#164,#165),#17,.T.);
#187=ADVANCED_FACE('',(#166,#167),#176,.T.);
#188=CLOSED_SHELL('',(#177,#178,#179,#180,#181,#182,#183,#184,#185,#186,
#187));
#189=STYLED_ITEM('',(#190),#197);
#190=PRESENTATION_STYLE_ASSIGNMENT((#191));
#191=SURFACE_STYLE_USAGE(.BOTH.,#192);
#192=SURFACE_SIDE_STYLE('',(#193));
#193=SURFACE_STYLE_FILL_AREA(#194);
#194=FILL_AREA_STYLE('',(#195));
#195=FILL_AREA_STYLE_COLOUR('',#196);
#196=COLOUR_RGB('',0.917647058823529,0.917647058823529,0.917647058823529);
#197=MANIFOLD_SOLID_BREP('Part 8',#188);
#198=SHAPE_DEFINITION_REPRESENTATION(#322,#199);
#199=SHAPE_REPRESENTATION('Part 8',(#200),#317);
#200=AXIS2_PLACEMENT_3D('',#266,#216,#217);
#201=AXIS2_PLACEMENT_3D('',#267,#218,#219);
#202=AXIS2_PLACEMENT_3D('',#276,#224,#225);
#203=AXIS2_PLACEMENT_3D('',#282,#229,#230);
#204=AXIS2_PLACEMENT_3D('',#288,#234,#235);
#205=AXIS2_PLACEMENT_3D('',#294,#239,#240);
#206=AXIS2_PLACEMENT_3D('',#300,#244,#245);
#207=AXIS2_PLACEMENT_3D('',#301,#246,#247);
#208=AXIS2_PLACEMENT_3D('',#303,#248,#249);
#209=AXIS2_PLACEMENT_3D('',#305,#250,#251);
#210=AXIS2_PLACEMENT_3D('',#308,#254,#255);
#211=AXIS2_PLACEMENT_3D('',#309,#256,#257);
#212=AXIS2_PLACEMENT_3D('',#310,#258,#259);
#213=AXIS2_PLACEMENT_3D('',#312,#260,#261);
#214=AXIS2_PLACEMENT_3D('',#313,#262,#263);
#215=AXIS2_PLACEMENT_3D('',#315,#264,#265);
#216=DIRECTION('',(0.,0.,1.));
#217=DIRECTION('',(1.,0.,0.));
#218=DIRECTION('',(-0.498097349041091,0.866025403781675,0.0435778714834051));
#219=DIRECTION('',(-0.862729915665582,-0.500000000004787,0.0754790872419095));
#220=DIRECTION('',(0.862729915665582,0.500000000004787,-0.0754790872419095));
#221=DIRECTION('',(-0.0871557427476581,1.26527293570507E-10,-0.996194698091746));
#222=DIRECTION('',(0.862729915665582,0.500000000004787,-0.0754790872419095));
#223=DIRECTION('',(-0.0871557427476581,1.26527293570507E-10,-0.996194698091746));
#224=DIRECTION('',(-0.996194698091746,-5.52430094095043E-12,0.0871557427476581));
#225=DIRECTION('',(0.0871557427476581,-1.26527293570507E-10,0.996194698091746));
#226=DIRECTION('',(5.52430094095043E-12,1.,1.26527293570507E-10));
#227=DIRECTION('',(-0.0871557427476581,1.26527293570507E-10,-0.996194698091746));
#228=DIRECTION('',(5.52430094095043E-12,1.,1.26527293570507E-10));
#229=DIRECTION('',(-0.498097349050655,-0.866025403787202,0.043577871264253));
#230=DIRECTION('',(0.86272991566006,-0.499999999995214,-0.075479087368437));
#231=DIRECTION('',(-0.86272991566006,0.499999999995214,0.075479087368437));
#232=DIRECTION('',(-0.0871557427476581,1.26527293570507E-10,-0.996194698091746));
#233=DIRECTION('',(-0.86272991566006,0.499999999995214,0.075479087368437));
#234=DIRECTION('',(0.49809734904109,-0.866025403781676,-0.043577871483405));
#235=DIRECTION('',(0.862729915665582,0.500000000004785,-0.0754790872419096));
#236=DIRECTION('',(-0.862729915665582,-0.500000000004785,0.0754790872419096));
#237=DIRECTION('',(-0.0871557427476581,1.26527293570507E-10,-0.996194698091746));
#238=DIRECTION('',(-0.862729915665582,-0.500000000004785,0.0754790872419096));
#239=DIRECTION('',(0.996194698091746,5.52430094095043E-12,-0.0871557427476581));
#240=DIRECTION('',(-0.0871557427476581,1.26527293570507E-10,-0.996194698091746));
#241=DIRECTION('',(-5.52430094095043E-12,-1.,-1.26527293570507E-10));
#242=DIRECTION('',(-0.0871557427476581,1.26527293570507E-10,-0.996194698091746));
#243=DIRECTION('',(-5.52430094095043E-12,-1.,-1.26527293570507E-10));
#244=DIRECTION('',(-0.0871557427476581,1.26527293570507E-10,-0.996194698091746));
#245=DIRECTION('',(-0.996194698091746,-5.52430094095043E-12,0.0871557427476581));
#246=DIRECTION('',(0.0871557427476581,-1.26527293570507E-10,0.996194698091746));
#247=DIRECTION('',(0.996194698091746,5.52430094095043E-12,-0.0871557427476581));
#248=DIRECTION('',(0.0871557427476581,-1.26527293570507E-10,0.996194698091746));
#249=DIRECTION('',(0.996194698091746,5.52430094095043E-12,-0.0871557427476581));
#250=DIRECTION('',(0.498097349050655,0.866025403787202,-0.043577871264253));
#251=DIRECTION('',(-0.86272991566006,0.499999999995214,0.075479087368437));
#252=DIRECTION('',(0.86272991566006,-0.499999999995214,-0.075479087368437));
#253=DIRECTION('',(0.86272991566006,-0.499999999995214,-0.075479087368437));
#254=DIRECTION('',(0.0871557427476581,-1.26527293570507E-10,0.996194698091746));
#255=DIRECTION('',(0.996194698091746,5.52430094095043E-12,-0.0871557427476581));
#256=DIRECTION('',(0.0871557427476581,-1.26527293570507E-10,0.996194698091746));
#257=DIRECTION('',(0.996194698091746,5.52430094095043E-12,-0.0871557427476581));
#258=DIRECTION('',(0.0871557427476581,-1.26527293570507E-10,0.996194698091746));
#259=DIRECTION('',(0.996194698091746,5.52430094095043E-12,-0.0871557427476581));
#260=DIRECTION('',(-0.0871557427476581,1.26527293570507E-10,-0.996194698091746));
#261=DIRECTION('',(-0.996194698091746,-5.52430094095043E-12,0.0871557427476581));
#262=DIRECTION('',(0.0871557427476581,-1.26527293570507E-10,0.996194698091746));
#263=DIRECTION('',(0.996194698091746,5.52430094095043E-12,-0.0871557427476581));
#264=DIRECTION('',(0.0871557427476581,-1.26527293570507E-10,0.996194698091746));
#265=DIRECTION('',(0.996194698091746,5.52430094095043E-12,-0.0871557427476581));
#266=CARTESIAN_POINT('',(0.,0.,0.));
#267=CARTESIAN_POINT('',(-0.0750229286374047,0.0462509436244968,0.224671131833691));
#268=CARTESIAN_POINT('',(-0.0753715516083953,0.0462509436250029,0.220686353041324));
#269=CARTESIAN_POINT('',(-0.0770650825951567,0.0452694481673712,0.220834517803871));
#270=CARTESIAN_POINT('',(-0.0736780206216339,0.0472324390826347,0.220538188278777));
#271=CARTESIAN_POINT('',(-0.0733293976506433,0.0472324390821286,0.224522967071144));
#272=CARTESIAN_POINT('',(-0.0733293976506433,0.0472324390821286,0.224522967071144));
#273=CARTESIAN_POINT('',(-0.0750229286374047,0.0462509436244968,0.224671131833691));
#274=CARTESIAN_POINT('',(-0.076716459624166,0.0452694481668651,0.224819296596238));
#275=CARTESIAN_POINT('',(-0.076716459624166,0.0452694481668651,0.224819296596238));
#276=CARTESIAN_POINT('',(-0.0733293976506324,0.0491954299973733,0.224522967071392));
#277=CARTESIAN_POINT('',(-0.073678020621623,0.0491954299978794,0.220538188279025));
#278=CARTESIAN_POINT('',(-0.0736780206216122,0.0511584209131241,0.220538188279274));
#279=CARTESIAN_POINT('',(-0.0733293976506216,0.051158420912618,0.224522967071641));
#280=CARTESIAN_POINT('',(-0.0733293976506216,0.051158420912618,0.224522967071641));
#281=CARTESIAN_POINT('',(-0.0733293976506324,0.0491954299973733,0.224522967071392));
#282=CARTESIAN_POINT('',(-0.0750229286373721,0.052139916370231,0.224671131834436));
#283=CARTESIAN_POINT('',(-0.0753715516083628,0.0521399163707371,0.220686353042069));
#284=CARTESIAN_POINT('',(-0.0770650825951133,0.0531214118283501,0.220834517804865));
#285=CARTESIAN_POINT('',(-0.0767164596241227,0.053121411827844,0.224819296597231));
#286=CARTESIAN_POINT('',(-0.0767164596241227,0.053121411827844,0.224819296597231));
#287=CARTESIAN_POINT('',(-0.0750229286373721,0.052139916370231,0.224671131834436));
#288=CARTESIAN_POINT('',(-0.0784099906108841,0.0521399163702122,0.224967461359778));
#289=CARTESIAN_POINT('',(-0.0787586135818747,0.0521399163707183,0.220982682567411));
#290=CARTESIAN_POINT('',(-0.080452144568636,0.0511584209130866,0.221130847329958));
#291=CARTESIAN_POINT('',(-0.0801035215976454,0.0511584209125805,0.225115626122325));
#292=CARTESIAN_POINT('',(-0.0801035215976454,0.0511584209125805,0.225115626122325));
#293=CARTESIAN_POINT('',(-0.0784099906108841,0.0521399163702122,0.224967461359778));
#294=CARTESIAN_POINT('',(-0.0801035215976563,0.0491954299973357,0.225115626122077));
#295=CARTESIAN_POINT('',(-0.0804521445686469,0.0491954299978419,0.22113084732971));
#296=CARTESIAN_POINT('',(-0.0804521445686578,0.0472324390825971,0.221130847329462));
#297=CARTESIAN_POINT('',(-0.0801035215976671,0.047232439082091,0.225115626121829));
#298=CARTESIAN_POINT('',(-0.0801035215976671,0.047232439082091,0.225115626121829));
#299=CARTESIAN_POINT('',(-0.0801035215976563,0.0491954299973357,0.225115626122077));
#300=CARTESIAN_POINT('',(-0.0767164596241443,0.0491954299973545,0.224819296596734));
#301=CARTESIAN_POINT('',(-0.077065082595135,0.0491954299978606,0.220834517804367));
#302=CARTESIAN_POINT('',(-0.0750726931989515,0.0491954299978716,0.220660206318872));
#303=CARTESIAN_POINT('',(-0.0754091234829295,0.0491954299954566,0.239762217068111));
#304=CARTESIAN_POINT('',(-0.073416734086746,0.0491954299954676,0.239587905582616));
#305=CARTESIAN_POINT('',(-0.0784099906109166,0.046250943624478,0.224967461359033));
#306=CARTESIAN_POINT('',(-0.0787586135819072,0.0462509436249841,0.220982682566666));
#307=CARTESIAN_POINT('',(-0.0784099906109166,0.046250943624478,0.224967461359033));
#308=CARTESIAN_POINT('',(-0.0895175163212818,0.0491954320617422,0.221923964588713));
#309=CARTESIAN_POINT('',(-0.0767164596241443,0.0491954299973545,0.224819296596734));
#310=CARTESIAN_POINT('',(-0.0767164596241443,0.0491954299973545,0.224819296596734));
#311=CARTESIAN_POINT('',(-0.0667545126432268,0.0491954299974097,0.223947739169258));
#312=CARTESIAN_POINT('',(-0.0754091234829295,0.0491954299954566,0.239762217068111));
#313=CARTESIAN_POINT('',(-0.0754091234829295,0.0491954299954566,0.239762217068111));
#314=CARTESIAN_POINT('',(-0.065447176502012,0.0491954299955118,0.238890659640634));
#315=CARTESIAN_POINT('',(-0.0754091234829295,0.0491954299954566,0.239762217068111));
#316=MECHANICAL_DESIGN_GEOMETRIC_PRESENTATION_REPRESENTATION('',(#189),
#317);
#317=(
GEOMETRIC_REPRESENTATION_CONTEXT(3)
GLOBAL_UNCERTAINTY_ASSIGNED_CONTEXT((#318))
GLOBAL_UNIT_ASSIGNED_CONTEXT((#321,#320,#319))
REPRESENTATION_CONTEXT('Part 8','TOP_LEVEL_ASSEMBLY_PART')
);
#318=UNCERTAINTY_MEASURE_WITH_UNIT(LENGTH_MEASURE(1.E-8),#321,
'DISTANCE_ACCURACY_VALUE','Maximum Tolerance applied to model');
#319=(
NAMED_UNIT(*)
SI_UNIT($,.STERADIAN.)
SOLID_ANGLE_UNIT()
);
#320=(
NAMED_UNIT(*)
PLANE_ANGLE_UNIT()
SI_UNIT($,.RADIAN.)
);
#321=(
LENGTH_UNIT()
NAMED_UNIT(*)
SI_UNIT($,.METRE.)
);
#322=PRODUCT_DEFINITION_SHAPE('','',#323);
#323=PRODUCT_DEFINITION('','',#325,#324);
#324=PRODUCT_DEFINITION_CONTEXT('',#331,'design');
#325=PRODUCT_DEFINITION_FORMATION_WITH_SPECIFIED_SOURCE('','',#327,
 .NOT_KNOWN.);
#326=PRODUCT_RELATED_PRODUCT_CATEGORY('','',(#327));
#327=PRODUCT('Part 8','Part 8','Part 8',(#329));
#328=PRODUCT_CATEGORY('','');
#329=PRODUCT_CONTEXT('',#331,'mechanical');
#330=APPLICATION_PROTOCOL_DEFINITION('international standard',
'ap242_managed_model_based_3d_engineering',2020,#331);
#331=APPLICATION_CONTEXT('managed model based 3d engineering');
ENDSEC;
END-ISO-10303-21;
