ISO-10303-21;
HEADER;
/* Generated by software containing ST-Developer
 * from STEP Tools, Inc. (www.steptools.com) 
 */
/* OPTION: using custom renumber hook */

FILE_DESCRIPTION(
/* description */ ('STEP AP242 Edition 2',
'CAx-IF Rec.Pracs.---Representation and Presentation of Product Manufa
cturing Information (PMI)---4.0---2014-10-13',
'CAx-IF Rec.Pracs.---3D Tessellated Geometry---0.4---2014-09-14','2;1',
'CAx-IF Rec.Pracs.---User Defined Attributes---1.5---2016-08-15'),
/* implementation_level */ '2;1');

FILE_NAME(
/* name */ 'Assembly 1 - Part 7',
/* time_stamp */ '2026-07-25T03:56:16Z',
/* author */ (''),
/* organization */ (''),
/* preprocessor_version */ 'ST-DEVELOPER v20',
/* originating_system */ 'ONSHAPE BY PTC INC, 1.218',
/* authorisation */ '  ');

FILE_SCHEMA (('AP242_MANAGED_MODEL_BASED_3D_ENGINEERING_MIM_LF { 1 0 10303 442 3 1 4 }'));
ENDSEC;

DATA;
#10=SHAPE_REPRESENTATION_RELATIONSHIP('','',#199,#11);
#11=ADVANCED_BREP_SHAPE_REPRESENTATION('',(#197),#317);
#12=LINE('',#273,#30);
#13=LINE('',#276,#31);
#14=LINE('',#278,#32);
#15=LINE('',#280,#33);
#16=LINE('',#282,#34);
#17=LINE('',#284,#35);
#18=LINE('',#286,#36);
#19=LINE('',#288,#37);
#20=LINE('',#290,#38);
#21=LINE('',#292,#39);
#22=LINE('',#294,#40);
#23=LINE('',#296,#41);
#24=LINE('',#298,#42);
#25=LINE('',#300,#43);
#26=LINE('',#302,#44);
#27=LINE('',#304,#45);
#28=LINE('',#306,#46);
#29=LINE('',#307,#47);
#30=VECTOR('',#226,1.);
#31=VECTOR('',#227,1.);
#32=VECTOR('',#228,1.);
#33=VECTOR('',#229,1.);
#34=VECTOR('',#232,1.);
#35=VECTOR('',#233,1.);
#36=VECTOR('',#234,1.);
#37=VECTOR('',#237,1.);
#38=VECTOR('',#238,1.);
#39=VECTOR('',#239,1.);
#40=VECTOR('',#242,1.);
#41=VECTOR('',#243,1.);
#42=VECTOR('',#244,1.);
#43=VECTOR('',#247,1.);
#44=VECTOR('',#248,1.);
#45=VECTOR('',#249,1.);
#46=VECTOR('',#252,1.);
#47=VECTOR('',#253,1.);
#48=PLANE('',#204);
#49=PLANE('',#205);
#50=PLANE('',#206);
#51=PLANE('',#207);
#52=PLANE('',#208);
#53=PLANE('',#209);
#54=PLANE('',#213);
#55=PLANE('',#214);
#56=PLANE('',#215);
#57=ORIENTED_EDGE('',*,*,#101,.T.);
#58=ORIENTED_EDGE('',*,*,#102,.T.);
#59=ORIENTED_EDGE('',*,*,#103,.F.);
#60=ORIENTED_EDGE('',*,*,#104,.F.);
#61=ORIENTED_EDGE('',*,*,#105,.T.);
#62=ORIENTED_EDGE('',*,*,#106,.T.);
#63=ORIENTED_EDGE('',*,*,#107,.F.);
#64=ORIENTED_EDGE('',*,*,#106,.F.);
#65=ORIENTED_EDGE('',*,*,#108,.T.);
#66=ORIENTED_EDGE('',*,*,#109,.T.);
#67=ORIENTED_EDGE('',*,*,#110,.F.);
#68=ORIENTED_EDGE('',*,*,#109,.F.);
#69=ORIENTED_EDGE('',*,*,#111,.T.);
#70=ORIENTED_EDGE('',*,*,#112,.T.);
#71=ORIENTED_EDGE('',*,*,#113,.F.);
#72=ORIENTED_EDGE('',*,*,#112,.F.);
#73=ORIENTED_EDGE('',*,*,#114,.T.);
#74=ORIENTED_EDGE('',*,*,#115,.T.);
#75=ORIENTED_EDGE('',*,*,#116,.F.);
#76=ORIENTED_EDGE('',*,*,#115,.F.);
#77=ORIENTED_EDGE('',*,*,#117,.T.);
#78=ORIENTED_EDGE('',*,*,#118,.T.);
#79=ORIENTED_EDGE('',*,*,#119,.F.);
#80=ORIENTED_EDGE('',*,*,#118,.F.);
#81=ORIENTED_EDGE('',*,*,#120,.T.);
#82=ORIENTED_EDGE('',*,*,#104,.T.);
#83=ORIENTED_EDGE('',*,*,#121,.F.);
#84=ORIENTED_EDGE('',*,*,#122,.T.);
#85=ORIENTED_EDGE('',*,*,#101,.F.);
#86=ORIENTED_EDGE('',*,*,#121,.T.);
#87=ORIENTED_EDGE('',*,*,#105,.F.);
#88=ORIENTED_EDGE('',*,*,#120,.F.);
#89=ORIENTED_EDGE('',*,*,#117,.F.);
#90=ORIENTED_EDGE('',*,*,#114,.F.);
#91=ORIENTED_EDGE('',*,*,#111,.F.);
#92=ORIENTED_EDGE('',*,*,#108,.F.);
#93=ORIENTED_EDGE('',*,*,#122,.F.);
#94=ORIENTED_EDGE('',*,*,#102,.F.);
#95=ORIENTED_EDGE('',*,*,#103,.T.);
#96=ORIENTED_EDGE('',*,*,#107,.T.);
#97=ORIENTED_EDGE('',*,*,#110,.T.);
#98=ORIENTED_EDGE('',*,*,#113,.T.);
#99=ORIENTED_EDGE('',*,*,#116,.T.);
#100=ORIENTED_EDGE('',*,*,#119,.T.);
#101=EDGE_CURVE('',#123,#123,#139,.T.);
#102=EDGE_CURVE('',#124,#124,#140,.T.);
#103=EDGE_CURVE('',#125,#126,#12,.T.);
#104=EDGE_CURVE('',#127,#125,#13,.T.);
#105=EDGE_CURVE('',#127,#128,#14,.T.);
#106=EDGE_CURVE('',#128,#126,#15,.T.);
#107=EDGE_CURVE('',#126,#129,#16,.T.);
#108=EDGE_CURVE('',#128,#130,#17,.T.);
#109=EDGE_CURVE('',#130,#129,#18,.T.);
#110=EDGE_CURVE('',#129,#131,#19,.T.);
#111=EDGE_CURVE('',#130,#132,#20,.T.);
#112=EDGE_CURVE('',#132,#131,#21,.T.);
#113=EDGE_CURVE('',#131,#133,#22,.T.);
#114=EDGE_CURVE('',#132,#134,#23,.T.);
#115=EDGE_CURVE('',#134,#133,#24,.T.);
#116=EDGE_CURVE('',#133,#135,#25,.T.);
#117=EDGE_CURVE('',#134,#136,#26,.T.);
#118=EDGE_CURVE('',#136,#135,#27,.T.);
#119=EDGE_CURVE('',#135,#125,#28,.T.);
#120=EDGE_CURVE('',#136,#127,#29,.T.);
#121=EDGE_CURVE('',#137,#137,#141,.T.);
#122=EDGE_CURVE('',#138,#138,#142,.T.);
#123=VERTEX_POINT('',#269);
#124=VERTEX_POINT('',#271);
#125=VERTEX_POINT('',#274);
#126=VERTEX_POINT('',#275);
#127=VERTEX_POINT('',#277);
#128=VERTEX_POINT('',#279);
#129=VERTEX_POINT('',#283);
#130=VERTEX_POINT('',#285);
#131=VERTEX_POINT('',#289);
#132=VERTEX_POINT('',#291);
#133=VERTEX_POINT('',#295);
#134=VERTEX_POINT('',#297);
#135=VERTEX_POINT('',#301);
#136=VERTEX_POINT('',#303);
#137=VERTEX_POINT('',#310);
#138=VERTEX_POINT('',#312);
#139=CIRCLE('',#202,0.002);
#140=CIRCLE('',#203,0.002);
#141=CIRCLE('',#211,0.0055);
#142=CIRCLE('',#212,0.0055);
#143=EDGE_LOOP('',(#57));
#144=EDGE_LOOP('',(#58));
#145=EDGE_LOOP('',(#59,#60,#61,#62));
#146=EDGE_LOOP('',(#63,#64,#65,#66));
#147=EDGE_LOOP('',(#67,#68,#69,#70));
#148=EDGE_LOOP('',(#71,#72,#73,#74));
#149=EDGE_LOOP('',(#75,#76,#77,#78));
#150=EDGE_LOOP('',(#79,#80,#81,#82));
#151=EDGE_LOOP('',(#83));
#152=EDGE_LOOP('',(#84));
#153=EDGE_LOOP('',(#85));
#154=EDGE_LOOP('',(#86));
#155=EDGE_LOOP('',(#87,#88,#89,#90,#91,#92));
#156=EDGE_LOOP('',(#93));
#157=EDGE_LOOP('',(#94));
#158=EDGE_LOOP('',(#95,#96,#97,#98,#99,#100));
#159=FACE_BOUND('',#143,.T.);
#160=FACE_BOUND('',#144,.T.);
#161=FACE_BOUND('',#145,.T.);
#162=FACE_BOUND('',#146,.T.);
#163=FACE_BOUND('',#147,.T.);
#164=FACE_BOUND('',#148,.T.);
#165=FACE_BOUND('',#149,.T.);
#166=FACE_BOUND('',#150,.T.);
#167=FACE_BOUND('',#151,.T.);
#168=FACE_BOUND('',#152,.T.);
#169=FACE_BOUND('',#153,.T.);
#170=FACE_BOUND('',#154,.T.);
#171=FACE_BOUND('',#155,.T.);
#172=FACE_BOUND('',#156,.T.);
#173=FACE_BOUND('',#157,.T.);
#174=FACE_BOUND('',#158,.T.);
#175=CYLINDRICAL_SURFACE('',#201,0.002);
#176=CYLINDRICAL_SURFACE('',#210,0.0055);
#177=ADVANCED_FACE('',(#159,#160),#175,.F.);
#178=ADVANCED_FACE('',(#161),#48,.T.);
#179=ADVANCED_FACE('',(#162),#49,.T.);
#180=ADVANCED_FACE('',(#163),#50,.T.);
#181=ADVANCED_FACE('',(#164),#51,.T.);
#182=ADVANCED_FACE('',(#165),#52,.T.);
#183=ADVANCED_FACE('',(#166),#53,.T.);
#184=ADVANCED_FACE('',(#167,#168),#176,.T.);
#185=ADVANCED_FACE('',(#169,#170),#54,.T.);
#186=ADVANCED_FACE('',(#171,#172),#55,.F.);
#187=ADVANCED_FACE('',(#173,#174),#56,.T.);
#188=CLOSED_SHELL('',(#177,#178,#179,#180,#181,#182,#183,#184,#185,#186,
#187));
#189=STYLED_ITEM('',(#190),#197);
#190=PRESENTATION_STYLE_ASSIGNMENT((#191));
#191=SURFACE_STYLE_USAGE(.BOTH.,#192);
#192=SURFACE_SIDE_STYLE('',(#193));
#193=SURFACE_STYLE_FILL_AREA(#194);
#194=FILL_AREA_STYLE('',(#195));
#195=FILL_AREA_STYLE_COLOUR('',#196);
#196=COLOUR_RGB('',0.917647058823529,0.917647058823529,0.917647058823529);
#197=MANIFOLD_SOLID_BREP('Part 7',#188);
#198=SHAPE_DEFINITION_REPRESENTATION(#322,#199);
#199=SHAPE_REPRESENTATION('Part 7',(#200),#317);
#200=AXIS2_PLACEMENT_3D('',#266,#216,#217);
#201=AXIS2_PLACEMENT_3D('',#267,#218,#219);
#202=AXIS2_PLACEMENT_3D('',#268,#220,#221);
#203=AXIS2_PLACEMENT_3D('',#270,#222,#223);
#204=AXIS2_PLACEMENT_3D('',#272,#224,#225);
#205=AXIS2_PLACEMENT_3D('',#281,#230,#231);
#206=AXIS2_PLACEMENT_3D('',#287,#235,#236);
#207=AXIS2_PLACEMENT_3D('',#293,#240,#241);
#208=AXIS2_PLACEMENT_3D('',#299,#245,#246);
#209=AXIS2_PLACEMENT_3D('',#305,#250,#251);
#210=AXIS2_PLACEMENT_3D('',#308,#254,#255);
#211=AXIS2_PLACEMENT_3D('',#309,#256,#257);
#212=AXIS2_PLACEMENT_3D('',#311,#258,#259);
#213=AXIS2_PLACEMENT_3D('',#313,#260,#261);
#214=AXIS2_PLACEMENT_3D('',#314,#262,#263);
#215=AXIS2_PLACEMENT_3D('',#315,#264,#265);
#216=DIRECTION('',(0.,0.,1.));
#217=DIRECTION('',(1.,0.,0.));
#218=DIRECTION('',(-0.0871557427476581,1.26527293570507E-10,-0.996194698091746));
#219=DIRECTION('',(-0.996194698091746,-5.52430094095043E-12,0.0871557427476581));
#220=DIRECTION('',(-0.0871557427476581,1.26527293570507E-10,-0.996194698091746));
#221=DIRECTION('',(-0.996194698091746,-5.52430094095043E-12,0.0871557427476581));
#222=DIRECTION('',(0.0871557427476581,-1.26527293570507E-10,0.996194698091746));
#223=DIRECTION('',(0.996194698091746,5.52430094095043E-12,-0.0871557427476581));
#224=DIRECTION('',(0.498097349041091,-0.866025403781675,-0.0435778714834051));
#225=DIRECTION('',(0.862729915665582,0.500000000004787,-0.0754790872419095));
#226=DIRECTION('',(0.862729915665582,0.500000000004787,-0.0754790872419095));
#227=DIRECTION('',(0.0871557427476581,-1.26527293570507E-10,0.996194698091746));
#228=DIRECTION('',(0.862729915665582,0.500000000004787,-0.0754790872419095));
#229=DIRECTION('',(0.0871557427476581,-1.26527293570507E-10,0.996194698091746));
#230=DIRECTION('',(0.996194698091746,5.52430094095043E-12,-0.0871557427476581));
#231=DIRECTION('',(-0.0871557427476581,1.26527293570507E-10,-0.996194698091746));
#232=DIRECTION('',(5.52430094095043E-12,1.,1.26527293570507E-10));
#233=DIRECTION('',(5.52430094095043E-12,1.,1.26527293570507E-10));
#234=DIRECTION('',(0.0871557427476581,-1.26527293570507E-10,0.996194698091746));
#235=DIRECTION('',(0.498097349050655,0.866025403787202,-0.043577871264253));
#236=DIRECTION('',(-0.86272991566006,0.499999999995214,0.075479087368437));
#237=DIRECTION('',(-0.86272991566006,0.499999999995214,0.075479087368437));
#238=DIRECTION('',(-0.86272991566006,0.499999999995214,0.075479087368437));
#239=DIRECTION('',(0.0871557427476581,-1.26527293570507E-10,0.996194698091746));
#240=DIRECTION('',(-0.49809734904109,0.866025403781676,0.043577871483405));
#241=DIRECTION('',(-0.862729915665583,-0.500000000004785,0.0754790872419096));
#242=DIRECTION('',(-0.862729915665582,-0.500000000004785,0.0754790872419096));
#243=DIRECTION('',(-0.862729915665582,-0.500000000004785,0.0754790872419096));
#244=DIRECTION('',(0.0871557427476581,-1.26527293570507E-10,0.996194698091746));
#245=DIRECTION('',(-0.996194698091746,-5.52430094095043E-12,0.0871557427476581));
#246=DIRECTION('',(0.0871557427476581,-1.26527293570507E-10,0.996194698091746));
#247=DIRECTION('',(-5.52430094095043E-12,-1.,-1.26527293570507E-10));
#248=DIRECTION('',(-5.52430094095043E-12,-1.,-1.26527293570507E-10));
#249=DIRECTION('',(0.0871557427476581,-1.26527293570507E-10,0.996194698091746));
#250=DIRECTION('',(-0.498097349050655,-0.866025403787202,0.043577871264253));
#251=DIRECTION('',(0.86272991566006,-0.499999999995214,-0.075479087368437));
#252=DIRECTION('',(0.86272991566006,-0.499999999995214,-0.075479087368437));
#253=DIRECTION('',(0.86272991566006,-0.499999999995214,-0.075479087368437));
#254=DIRECTION('',(0.0871557427476581,-1.26527293570507E-10,0.996194698091746));
#255=DIRECTION('',(0.996194698091746,5.52430094095043E-12,-0.0871557427476581));
#256=DIRECTION('',(-0.0871557427476581,1.26527293570507E-10,-0.996194698091746));
#257=DIRECTION('',(-0.996194698091746,-5.52430094095043E-12,0.0871557427476581));
#258=DIRECTION('',(-0.0871557427476581,1.26527293570507E-10,-0.996194698091746));
#259=DIRECTION('',(-0.996194698091746,-5.52430094095043E-12,0.0871557427476581));
#260=DIRECTION('',(-0.0871557427476581,1.26527293570507E-10,-0.996194698091746));
#261=DIRECTION('',(0.996194698091746,5.52430094095043E-12,-0.0871557427476581));
#262=DIRECTION('',(-0.0871557427476581,1.26527293570507E-10,-0.996194698091746));
#263=DIRECTION('',(0.996194698091746,5.52430094095043E-12,-0.0871557427476581));
#264=DIRECTION('',(0.0871557427476581,-1.26527293570507E-10,0.996194698091746));
#265=DIRECTION('',(0.996194698091746,5.52430094095043E-12,-0.0871557427476581));
#266=CARTESIAN_POINT('',(0.,0.,0.));
#267=CARTESIAN_POINT('',(-0.0753219677401818,0.0491954299953301,0.240758411766202));
#268=CARTESIAN_POINT('',(-0.0775008613088733,0.0491954299984933,0.215853544313909));
#269=CARTESIAN_POINT('',(-0.0794932507050568,0.0491954299984822,0.216027855799404));
#270=CARTESIAN_POINT('',(-0.077065082595135,0.0491954299978606,0.220834517804367));
#271=CARTESIAN_POINT('',(-0.0750726931989515,0.0491954299978716,0.220660206318872));
#272=CARTESIAN_POINT('',(-0.0756330188366383,0.0462509436253825,0.217697768947049));
#273=CARTESIAN_POINT('',(-0.0753715516083953,0.0462509436250029,0.220686353041324));
#274=CARTESIAN_POINT('',(-0.0770650825951567,0.0452694481673712,0.220834517803871));
#275=CARTESIAN_POINT('',(-0.0736780206216339,0.0472324390826347,0.220538188278777));
#276=CARTESIAN_POINT('',(-0.0773265498233997,0.0452694481677507,0.217845933709595));
#277=CARTESIAN_POINT('',(-0.0773265498233997,0.0452694481677507,0.217845933709595));
#278=CARTESIAN_POINT('',(-0.0756330188366383,0.0462509436253825,0.217697768947049));
#279=CARTESIAN_POINT('',(-0.0739394878498769,0.0472324390830143,0.217549604184502));
#280=CARTESIAN_POINT('',(-0.0739394878498769,0.0472324390830143,0.217549604184502));
#281=CARTESIAN_POINT('',(-0.073939487849866,0.049195429998259,0.217549604184751));
#282=CARTESIAN_POINT('',(-0.073678020621623,0.0491954299978794,0.220538188279025));
#283=CARTESIAN_POINT('',(-0.0736780206216122,0.0511584209131241,0.220538188279274));
#284=CARTESIAN_POINT('',(-0.073939487849866,0.049195429998259,0.217549604184751));
#285=CARTESIAN_POINT('',(-0.0739394878498552,0.0511584209135037,0.217549604184998));
#286=CARTESIAN_POINT('',(-0.0739394878498552,0.0511584209135037,0.217549604184998));
#287=CARTESIAN_POINT('',(-0.0756330188366057,0.0521399163711167,0.217697768947794));
#288=CARTESIAN_POINT('',(-0.0753715516083628,0.0521399163707371,0.220686353042069));
#289=CARTESIAN_POINT('',(-0.0770650825951133,0.0531214118283501,0.220834517804865));
#290=CARTESIAN_POINT('',(-0.0756330188366057,0.0521399163711167,0.217697768947794));
#291=CARTESIAN_POINT('',(-0.0773265498233563,0.0531214118287296,0.217845933710589));
#292=CARTESIAN_POINT('',(-0.0773265498233563,0.0531214118287296,0.217845933710589));
#293=CARTESIAN_POINT('',(-0.0790200808101177,0.0521399163710979,0.217994098473136));
#294=CARTESIAN_POINT('',(-0.0787586135818747,0.0521399163707183,0.220982682567411));
#295=CARTESIAN_POINT('',(-0.080452144568636,0.0511584209130866,0.221130847329958));
#296=CARTESIAN_POINT('',(-0.0790200808101177,0.0521399163710979,0.217994098473136));
#297=CARTESIAN_POINT('',(-0.080713611796879,0.0511584209134662,0.218142263235683));
#298=CARTESIAN_POINT('',(-0.080713611796879,0.0511584209134662,0.218142263235683));
#299=CARTESIAN_POINT('',(-0.0807136117968899,0.0491954299982214,0.218142263235435));
#300=CARTESIAN_POINT('',(-0.0804521445686469,0.0491954299978419,0.22113084732971));
#301=CARTESIAN_POINT('',(-0.0804521445686578,0.0472324390825971,0.221130847329462));
#302=CARTESIAN_POINT('',(-0.0807136117968899,0.0491954299982214,0.218142263235435));
#303=CARTESIAN_POINT('',(-0.0807136117969007,0.0472324390829767,0.218142263235186));
#304=CARTESIAN_POINT('',(-0.0807136117969007,0.0472324390829767,0.218142263235186));
#305=CARTESIAN_POINT('',(-0.0790200808101502,0.0462509436253637,0.217994098472391));
#306=CARTESIAN_POINT('',(-0.0787586135819072,0.0462509436249841,0.220982682566666));
#307=CARTESIAN_POINT('',(-0.0790200808101502,0.0462509436253637,0.217994098472391));
#308=CARTESIAN_POINT('',(-0.0775008613088733,0.0491954299984933,0.215853544313909));
#309=CARTESIAN_POINT('',(-0.0775008613088733,0.0491954299984933,0.215853544313909));
#310=CARTESIAN_POINT('',(-0.0829799321483779,0.0491954299984629,0.216332900899021));
#311=CARTESIAN_POINT('',(-0.0773265498233779,0.0491954299982402,0.217845933710093));
#312=CARTESIAN_POINT('',(-0.0828056206628825,0.0491954299982098,0.218325290295205));
#313=CARTESIAN_POINT('',(-0.0775008613088733,0.0491954299984933,0.215853544313909));
#314=CARTESIAN_POINT('',(-0.0773265498233779,0.0491954299982402,0.217845933710093));
#315=CARTESIAN_POINT('',(-0.0895175163212818,0.0491954320617422,0.221923964588713));
#316=MECHANICAL_DESIGN_GEOMETRIC_PRESENTATION_REPRESENTATION('',(#189),
#317);
#317=(
GEOMETRIC_REPRESENTATION_CONTEXT(3)
GLOBAL_UNCERTAINTY_ASSIGNED_CONTEXT((#318))
GLOBAL_UNIT_ASSIGNED_CONTEXT((#321,#320,#319))
REPRESENTATION_CONTEXT('Part 7','TOP_LEVEL_ASSEMBLY_PART')
);
#318=UNCERTAINTY_MEASURE_WITH_UNIT(LENGTH_MEASURE(1.E-8),#321,
'DISTANCE_ACCURACY_VALUE','Maximum Tolerance applied to model');
#319=(
NAMED_UNIT(*)
SI_UNIT($,.STERADIAN.)
SOLID_ANGLE_UNIT()
);
#320=(
NAMED_UNIT(*)
PLANE_ANGLE_UNIT()
SI_UNIT($,.RADIAN.)
);
#321=(
LENGTH_UNIT()
NAMED_UNIT(*)
SI_UNIT($,.METRE.)
);
#322=PRODUCT_DEFINITION_SHAPE('','',#323);
#323=PRODUCT_DEFINITION('','',#325,#324);
#324=PRODUCT_DEFINITION_CONTEXT('',#331,'design');
#325=PRODUCT_DEFINITION_FORMATION_WITH_SPECIFIED_SOURCE('','',#327,
 .NOT_KNOWN.);
#326=PRODUCT_RELATED_PRODUCT_CATEGORY('','',(#327));
#327=PRODUCT('Part 7','Part 7','Part 7',(#329));
#328=PRODUCT_CATEGORY('','');
#329=PRODUCT_CONTEXT('',#331,'mechanical');
#330=APPLICATION_PROTOCOL_DEFINITION('international standard',
'ap242_managed_model_based_3d_engineering',2020,#331);
#331=APPLICATION_CONTEXT('managed model based 3d engineering');
ENDSEC;
END-ISO-10303-21;
